<svg width="372" height="435" viewBox="0 0 372 435" fill="none" xmlns="http://www.w3.org/2000/svg">
<g clip-path="url(#clip0)">
<rect width="372" height="435" fill="white"/>
<rect y="18" width="101" height="417" fill="url(#paint0_linear)"/>
<rect x="271" y="18" width="101" height="417" fill="url(#paint1_linear)"/>
<line x1="102" y1="435.001" x2="102" y2="17.9974" stroke="black" stroke-width="3"/>
<line x1="269.5" y1="435" x2="269.5" y2="18" stroke="black" stroke-width="3"/>
<path d="M266.197 187.976C266.423 187.818 266.478 187.506 266.319 187.28L263.738 183.594C263.58 183.367 263.268 183.312 263.042 183.471C262.816 183.629 262.761 183.941 262.919 184.167L265.213 187.444L261.937 189.738C261.711 189.897 261.656 190.208 261.814 190.434C261.972 190.661 262.284 190.716 262.51 190.557L266.197 187.976ZM105.84 159.85L265.823 188.059L265.997 187.074L106.013 158.865L105.84 159.85Z" fill="black"/>
<path d="M105.64 237.976C105.413 237.818 105.358 237.506 105.517 237.28L108.098 233.594C108.256 233.367 108.568 233.312 108.794 233.471C109.02 233.629 109.075 233.941 108.917 234.167L106.623 237.444L109.899 239.738C110.126 239.897 110.181 240.208 110.022 240.435C109.864 240.661 109.552 240.716 109.326 240.557L105.64 237.976ZM265.997 209.85L106.013 238.059L105.84 237.074L265.823 208.865L265.997 209.85Z" fill="black"/>
<path d="M157.238 164.988L158.719 156.586L161.304 157.042C162.043 157.172 162.673 157.456 163.195 157.893C163.722 158.327 164.094 158.88 164.312 159.554C164.532 160.223 164.572 160.948 164.435 161.729L164.366 162.116C164.229 162.896 163.945 163.562 163.514 164.113C163.088 164.665 162.553 165.056 161.909 165.288C161.265 165.519 160.576 165.572 159.84 165.447L157.238 164.988ZM160.203 158.294L159.214 163.902L160.051 164.05C160.728 164.169 161.284 164.039 161.72 163.66C162.156 163.281 162.45 162.68 162.603 161.858L162.681 161.414C162.832 160.56 162.769 159.882 162.492 159.381C162.216 158.877 161.738 158.564 161.057 158.444L160.203 158.294ZM169.845 165.426L166.81 164.891L165.928 166.52L164.087 166.195L168.696 158.345L170.3 158.628L171.964 167.584L170.123 167.26L169.845 165.426ZM167.525 163.571L169.625 163.941L169.124 160.61L167.525 163.571ZM179.615 161.716L177.041 161.263L175.807 168.262L174.076 167.957L175.31 160.957L172.771 160.51L173.018 159.107L179.862 160.314L179.615 161.716ZM183.729 167.874L180.694 167.339L179.811 168.968L177.971 168.644L182.58 160.793L184.184 161.076L185.847 170.032L184.007 169.708L183.729 167.874ZM181.408 166.019L183.509 166.389L183.007 163.058L181.408 166.019ZM186.748 169.346C186.794 169.081 186.921 168.881 187.127 168.747C187.337 168.613 187.577 168.57 187.846 168.618C188.119 168.666 188.33 168.788 188.477 168.985C188.629 169.182 188.681 169.414 188.635 169.679C188.588 169.941 188.462 170.138 188.256 170.273C188.051 170.403 187.81 170.444 187.533 170.395C187.259 170.347 187.049 170.226 186.9 170.034C186.752 169.837 186.702 169.608 186.748 169.346ZM187.581 164.62C187.628 164.355 187.754 164.155 187.96 164.021C188.17 163.887 188.41 163.844 188.679 163.892C188.952 163.94 189.163 164.062 189.311 164.259C189.462 164.456 189.515 164.688 189.468 164.953C189.422 165.215 189.296 165.413 189.09 165.547C188.884 165.677 188.643 165.718 188.366 165.669C188.093 165.621 187.882 165.5 187.733 165.308C187.586 165.111 187.535 164.882 187.581 164.62ZM195.454 162.385L196.158 162.979C195.735 163.444 195.47 163.945 195.364 164.481L195.194 165.445L193.873 165.212L194.025 164.347C194.089 163.985 194.257 163.618 194.529 163.245C194.805 162.87 195.114 162.583 195.454 162.385ZM197.433 162.734L198.138 163.328C197.714 163.793 197.45 164.294 197.343 164.83L197.173 165.794L195.852 165.561L196.004 164.696C196.068 164.334 196.236 163.967 196.508 163.594C196.785 163.219 197.093 162.932 197.433 162.734ZM200.97 164.679L200.699 166.213L201.766 166.402L201.551 167.625L200.483 167.437L199.934 170.553C199.893 170.784 199.908 170.957 199.979 171.072C200.05 171.188 200.21 171.268 200.46 171.312C200.645 171.345 200.811 171.36 200.958 171.358L200.735 172.622C200.391 172.664 200.045 172.655 199.699 172.594C198.529 172.388 198.037 171.692 198.222 170.507L198.816 167.143L197.904 166.982L198.12 165.759L199.031 165.919L199.302 164.384L200.97 164.679ZM204.448 173.431C203.532 173.27 202.836 172.857 202.358 172.194C201.883 171.531 201.729 170.732 201.894 169.798L201.922 169.636C202.033 169.009 202.252 168.471 202.582 168.021C202.911 167.567 203.321 167.247 203.81 167.06C204.304 166.869 204.835 166.824 205.405 166.924C206.259 167.075 206.883 167.462 207.276 168.087C207.674 168.713 207.785 169.52 207.611 170.508L207.491 171.189L203.515 170.488C203.497 170.905 203.601 171.261 203.827 171.555C204.057 171.849 204.379 172.033 204.795 172.106C205.437 172.219 205.98 172.075 206.424 171.673L207.081 172.735C206.769 173.045 206.382 173.262 205.919 173.387C205.458 173.508 204.967 173.523 204.448 173.431ZM205.161 168.273C204.83 168.215 204.541 168.279 204.294 168.466C204.051 168.653 203.864 168.949 203.733 169.354L206.053 169.763L206.076 169.631C206.133 169.26 206.084 168.958 205.926 168.724C205.77 168.486 205.515 168.336 205.161 168.273ZM211.674 172.807C211.71 172.603 211.636 172.426 211.452 172.274C211.273 172.12 210.969 171.957 210.539 171.786C209.109 171.213 208.478 170.451 208.645 169.501C208.743 168.947 209.053 168.525 209.576 168.237C210.104 167.945 210.739 167.865 211.481 167.996C212.273 168.135 212.873 168.434 213.281 168.89C213.692 169.347 213.845 169.874 213.74 170.47L212.072 170.176C212.114 169.938 212.072 169.728 211.945 169.547C211.819 169.362 211.593 169.241 211.266 169.183C210.985 169.134 210.756 169.159 210.58 169.259C210.404 169.359 210.298 169.507 210.264 169.703C210.231 169.887 210.291 170.053 210.444 170.199C210.601 170.341 210.88 170.492 211.281 170.65C211.682 170.804 212.016 170.958 212.282 171.112C213.106 171.59 213.448 172.228 213.307 173.024C213.207 173.593 212.881 174.012 212.33 174.28C211.78 174.544 211.118 174.607 210.345 174.471C209.822 174.379 209.373 174.204 208.998 173.948C208.627 173.688 208.355 173.376 208.181 173.012C208.008 172.645 207.954 172.272 208.021 171.895L209.602 172.174C209.565 172.473 209.635 172.719 209.811 172.913C209.987 173.107 210.246 173.234 210.588 173.294C210.908 173.35 211.159 173.333 211.341 173.242C211.528 173.149 211.639 173.003 211.674 172.807ZM217.438 167.582L217.168 169.117L218.235 169.306L218.019 170.529L216.952 170.341L216.402 173.457C216.362 173.687 216.377 173.861 216.448 173.976C216.518 174.092 216.679 174.172 216.929 174.216C217.114 174.248 217.279 174.264 217.427 174.262L217.204 175.526C216.859 175.568 216.514 175.559 216.167 175.498C214.998 175.291 214.506 174.596 214.691 173.411L215.284 170.047L214.372 169.886L214.588 168.663L215.5 168.823L215.771 167.288L217.438 167.582ZM219.65 169.989L218.945 169.395C219.368 168.934 219.633 168.428 219.743 167.876L219.915 166.9L221.242 167.135L221.084 168.029C221.023 168.375 220.861 168.733 220.597 169.103C220.334 169.473 220.018 169.769 219.65 169.989ZM221.652 170.342L220.947 169.748C221.37 169.287 221.636 168.781 221.745 168.229L221.917 167.254L223.244 167.488L223.086 168.382C223.025 168.728 222.863 169.086 222.599 169.456C222.336 169.826 222.02 170.122 221.652 170.342Z" fill="black"/>
<path d="M181.253 218.605L178.218 219.141L177.946 220.973L176.105 221.298L177.751 212.345L179.355 212.062L183.982 219.909L182.141 220.234L181.253 218.605ZM178.438 217.656L180.538 217.286L178.928 214.327L178.438 217.656ZM190.742 215.832C190.836 216.747 190.626 217.518 190.114 218.144C189.605 218.769 188.859 219.168 187.874 219.342C186.797 219.532 185.885 219.32 185.138 218.706C184.394 218.087 183.911 217.145 183.688 215.879L183.597 215.366C183.455 214.558 183.472 213.821 183.648 213.156C183.824 212.49 184.147 211.947 184.616 211.527C185.088 211.103 185.675 210.829 186.375 210.705C187.344 210.534 188.171 210.656 188.855 211.071C189.539 211.486 190.01 212.155 190.268 213.077L188.537 213.382C188.399 212.847 188.178 212.482 187.873 212.285C187.572 212.085 187.156 212.031 186.625 212.125C186.048 212.226 185.652 212.511 185.437 212.977C185.225 213.439 185.191 214.105 185.337 214.976L185.449 215.61C185.609 216.518 185.863 217.158 186.21 217.529C186.561 217.899 187.032 218.032 187.625 217.928C188.159 217.834 188.536 217.642 188.755 217.354C188.977 217.061 189.062 216.655 189.01 216.137L190.742 215.832ZM194.409 214.596L193.68 215.724L194.103 218.124L192.372 218.43L190.89 210.028L192.621 209.723L193.293 213.531L193.871 212.352L195.524 209.211L197.653 208.836L195.328 213.095L199.221 217.222L197.161 217.585L194.409 214.596Z" fill="black"/>
<path d="M105.64 337.976C105.413 337.818 105.358 337.506 105.517 337.28L108.098 333.594C108.256 333.367 108.568 333.312 108.794 333.471C109.02 333.629 109.075 333.941 108.917 334.167L106.623 337.444L109.899 339.738C110.126 339.897 110.181 340.208 110.022 340.435C109.864 340.661 109.552 340.716 109.326 340.557L105.64 337.976ZM265.997 309.85L106.013 338.059L105.84 337.074L265.823 308.865L265.997 309.85Z" fill="black"/>
<path d="M181.253 318.605L178.218 319.141L177.946 320.973L176.105 321.298L177.751 312.345L179.355 312.062L183.982 319.909L182.141 320.234L181.253 318.605ZM178.438 317.656L180.538 317.286L178.928 314.327L178.438 317.656ZM190.742 315.832C190.836 316.747 190.626 317.518 190.114 318.144C189.605 318.769 188.859 319.168 187.874 319.342C186.797 319.532 185.885 319.32 185.138 318.706C184.394 318.087 183.911 317.145 183.688 315.879L183.597 315.366C183.455 314.558 183.472 313.821 183.648 313.156C183.824 312.49 184.147 311.947 184.616 311.527C185.088 311.103 185.675 310.829 186.375 310.705C187.344 310.534 188.171 310.656 188.855 311.071C189.539 311.486 190.01 312.155 190.268 313.077L188.537 313.382C188.399 312.847 188.178 312.482 187.873 312.285C187.572 312.085 187.156 312.031 186.625 312.125C186.048 312.226 185.652 312.511 185.437 312.977C185.225 313.439 185.191 314.105 185.337 314.976L185.449 315.61C185.609 316.518 185.863 317.158 186.21 317.529C186.561 317.899 187.032 318.032 187.625 317.928C188.159 317.834 188.536 317.642 188.755 317.354C188.977 317.061 189.062 316.655 189.01 316.137L190.742 315.832ZM194.409 314.596L193.68 315.724L194.103 318.124L192.372 318.43L190.89 310.028L192.621 309.723L193.293 313.531L193.871 312.352L195.524 309.211L197.653 308.836L195.328 313.095L199.221 317.222L197.161 317.585L194.409 314.596Z" fill="black"/>
<path d="M105.64 367.976C105.413 367.818 105.358 367.506 105.517 367.28L108.098 363.594C108.256 363.367 108.568 363.312 108.794 363.471C109.02 363.629 109.075 363.941 108.917 364.167L106.623 367.444L109.899 369.738C110.126 369.897 110.181 370.208 110.022 370.435C109.864 370.661 109.552 370.716 109.326 370.557L105.64 367.976ZM265.997 339.85L106.013 368.059L105.84 367.074L265.823 338.865L265.997 339.85Z" fill="black"/>
<path d="M181.264 346.848L177.941 347.434L178.546 350.868L176.815 351.173L175.334 342.771L180.804 341.807L181.051 343.209L177.312 343.868L177.694 346.038L181.018 345.452L181.264 346.848ZM185.13 349.707L183.399 350.012L181.917 341.61L183.649 341.305L185.13 349.707ZM193.572 348.218L191.841 348.523L187.496 343.589L188.471 349.117L186.74 349.423L185.259 341.021L186.99 340.716L191.342 345.66L190.365 340.121L192.091 339.816L193.572 348.218Z" fill="black"/>
<path d="M43.8496 11.2812C43.6855 12.1641 43.2852 12.8633 42.6484 13.3789C42.0156 13.8945 41.2559 14.1406 40.3691 14.1172C39.8418 14.1055 39.3809 13.9766 38.9863 13.7305C38.5918 13.4805 38.2852 13.123 38.0664 12.6582C37.8477 12.1895 37.7266 11.6719 37.7031 11.1055C37.6875 10.7852 37.7012 10.4727 37.7441 10.168L37.8438 9.46484C38.0273 8.18359 38.4766 7.17383 39.1914 6.43555C39.9102 5.69336 40.7832 5.33203 41.8105 5.35156C42.6113 5.36719 43.2461 5.62695 43.7148 6.13086C44.1836 6.63086 44.4316 7.32617 44.459 8.2168H43.3633C43.3125 7.02148 42.8438 6.37695 41.957 6.2832L41.7637 6.27148C41.0254 6.25195 40.4082 6.52734 39.9121 7.09766C39.4199 7.66406 39.1016 8.43945 38.957 9.42383L38.8281 10.3086L38.793 10.8242C38.7695 11.543 38.8965 12.1152 39.1738 12.541C39.4551 12.9629 39.8711 13.1816 40.4219 13.1973C41.0156 13.2168 41.5059 13.0742 41.8926 12.7695C42.2832 12.4648 42.5801 11.9746 42.7832 11.2988L43.8496 11.2812ZM45.9707 14H44.916L46.4746 5H47.5352L45.9707 14ZM48.8535 14H47.7988L48.9004 7.66016H49.9551L48.8535 14ZM49.7266 5.3457C49.9062 5.33789 50.0547 5.39258 50.1719 5.50977C50.293 5.62305 50.3535 5.77344 50.3535 5.96094C50.3496 6.14453 50.2891 6.29492 50.1719 6.41211C50.0586 6.5293 49.9102 6.5918 49.7266 6.59961C49.543 6.60742 49.3926 6.55469 49.2754 6.44141C49.1582 6.32812 49.1016 6.17969 49.1055 5.99609C49.1094 5.8125 49.168 5.66016 49.2812 5.53906C49.3945 5.41797 49.543 5.35352 49.7266 5.3457ZM53.3301 14.1172C52.541 14.1016 51.9238 13.8105 51.4785 13.2441C51.0332 12.6777 50.8457 11.9531 50.916 11.0703L50.9453 10.8184C51.0117 10.1895 51.1973 9.61523 51.502 9.0957C51.8105 8.57617 52.1855 8.18555 52.627 7.92383C53.0684 7.6582 53.5449 7.53125 54.0566 7.54297C54.709 7.55859 55.2207 7.77539 55.5918 8.19336C55.9629 8.61133 56.166 9.17773 56.2012 9.89258C56.2129 10.1465 56.2051 10.4004 56.1777 10.6543L56.1133 11.1406H51.9707C51.9004 11.7148 51.9941 12.2031 52.252 12.6055C52.5137 13.0078 52.9023 13.2168 53.418 13.2324C54.043 13.248 54.6211 12.9668 55.1523 12.3887L55.7617 12.9043C55.4961 13.2871 55.1523 13.5879 54.7305 13.8066C54.3125 14.0215 53.8457 14.125 53.3301 14.1172ZM54.0039 8.42773C53.5664 8.41602 53.1836 8.56445 52.8555 8.87305C52.5312 9.18164 52.2734 9.64062 52.082 10.25L55.1641 10.2559L55.1875 10.1621C55.25 9.66992 55.1699 9.26172 54.9473 8.9375C54.7285 8.60938 54.4141 8.43945 54.0039 8.42773ZM58.9141 7.6543L58.7617 8.45703C59.332 7.83203 59.9805 7.52734 60.707 7.54297C61.3047 7.55859 61.7461 7.76562 62.0312 8.16406C62.3164 8.5625 62.4219 9.12305 62.3477 9.8457L61.6562 14H60.5957L61.293 9.82812C61.3164 9.63672 61.3184 9.45898 61.2988 9.29492C61.2324 8.74805 60.9102 8.46875 60.332 8.45703C59.6953 8.44531 59.1367 8.78516 58.6562 9.47656L57.8711 14H56.8105L57.9121 7.66016L58.9141 7.6543ZM66.0918 6.125L65.8223 7.66016H66.9766L66.8301 8.49805H65.6816L65.0195 12.4414C65.0078 12.543 65.0059 12.6367 65.0137 12.7227C65.041 13.0273 65.207 13.1797 65.5117 13.1797C65.6406 13.1797 65.8125 13.1602 66.0273 13.1211L65.9453 14.0059C65.6914 14.0762 65.4336 14.1113 65.1719 14.1113C64.75 14.1035 64.4336 13.9492 64.2227 13.6484C64.0117 13.3438 63.9297 12.9355 63.9766 12.4238L64.6211 8.49805H63.502L63.6484 7.66016H64.7676L65.0371 6.125H66.0918ZM75.0566 11.8027C75.1426 11.1777 74.8184 10.7207 74.084 10.4316L73.0703 10.0625L72.7305 9.91602C71.5898 9.39648 71.0566 8.66602 71.1309 7.72461C71.1699 7.25195 71.332 6.83398 71.6172 6.4707C71.9023 6.10742 72.2793 5.82812 72.748 5.63281C73.2207 5.43359 73.7227 5.33984 74.2539 5.35156C74.7695 5.36328 75.2285 5.47852 75.6309 5.69727C76.0371 5.91602 76.3457 6.22266 76.5566 6.61719C76.7676 7.00781 76.8613 7.44922 76.8379 7.94141L75.7305 7.93555C75.7695 7.41211 75.6523 7.00781 75.3789 6.72266C75.1055 6.43359 74.7148 6.28516 74.207 6.27734C73.6719 6.26953 73.2246 6.39453 72.8652 6.65234C72.5059 6.91016 72.2988 7.26172 72.2441 7.70703C72.166 8.28906 72.5234 8.73047 73.3164 9.03125L74.1895 9.3418L74.6289 9.5293C75.7305 10.0371 76.2402 10.791 76.1582 11.791C76.1152 12.2715 75.9531 12.6875 75.6719 13.0391C75.3906 13.3867 75.0078 13.6562 74.5234 13.8477C74.043 14.0391 73.5254 14.1289 72.9707 14.1172C72.4355 14.1133 71.9453 14 71.5 13.7773C71.0586 13.5508 70.7227 13.2422 70.4922 12.8516C70.2617 12.4609 70.1602 12.0176 70.1875 11.5215L71.2891 11.5273C71.2539 12.0352 71.3906 12.4395 71.6992 12.7402C72.0117 13.0371 72.4512 13.1895 73.0176 13.1973C73.584 13.2051 74.0508 13.082 74.418 12.8281C74.7852 12.5742 74.998 12.2324 75.0566 11.8027ZM80.5938 7.54297C81.125 7.55078 81.5801 7.69531 81.959 7.97656C82.3379 8.25781 82.6172 8.64648 82.7969 9.14258C82.9805 9.63477 83.043 10.1738 82.9844 10.7598L82.9727 10.8887C82.8984 11.5059 82.7148 12.0645 82.4219 12.5645C82.1289 13.0605 81.75 13.4473 81.2852 13.7246C80.8203 14.002 80.3105 14.1328 79.7559 14.1172C79.2285 14.1094 78.7734 13.9648 78.3906 13.6836C78.0117 13.4023 77.7344 13.0195 77.5586 12.5352C77.3828 12.0508 77.3203 11.5176 77.3711 10.9355C77.4297 10.2793 77.6074 9.68945 77.9043 9.16602C78.2012 8.64258 78.582 8.23828 79.0469 7.95312C79.5156 7.66406 80.0312 7.52734 80.5938 7.54297ZM78.4375 10.9414C78.4102 11.1875 78.4102 11.4434 78.4375 11.709C78.4766 12.1699 78.6133 12.5371 78.8477 12.8105C79.0859 13.084 79.4023 13.2266 79.7969 13.2383C80.1484 13.25 80.4727 13.1641 80.7695 12.9805C81.0664 12.793 81.3164 12.5117 81.5195 12.1367C81.7227 11.7617 81.8535 11.3457 81.9121 10.8887C81.9434 10.5293 81.9492 10.2266 81.9297 9.98047C81.8828 9.50781 81.7402 9.13477 81.502 8.86133C81.2637 8.58789 80.9473 8.44336 80.5527 8.42773C80.0059 8.41602 79.541 8.63086 79.1582 9.07227C78.7754 9.51367 78.5391 10.0918 78.4492 10.8066L78.4375 10.9414ZM86.4531 13.2383C86.832 13.2461 87.1738 13.1367 87.4785 12.9102C87.7832 12.6797 87.9824 12.3789 88.0762 12.0078L89.0781 12.002C89.0195 12.4004 88.8594 12.7637 88.5977 13.0918C88.3398 13.4199 88.0137 13.6758 87.6191 13.8594C87.2246 14.043 86.8203 14.1289 86.4062 14.1172C85.8789 14.1094 85.4316 13.9727 85.0645 13.707C84.7012 13.4375 84.4336 13.0645 84.2617 12.5879C84.0898 12.1074 84.0312 11.5684 84.0859 10.9707L84.1152 10.6777C84.1895 10.0684 84.3672 9.52344 84.6484 9.04297C84.9297 8.5625 85.2969 8.18945 85.75 7.92383C86.2031 7.6543 86.7031 7.52734 87.25 7.54297C87.9141 7.55859 88.4453 7.78125 88.8438 8.21094C89.2422 8.64062 89.4414 9.18555 89.4414 9.8457L88.4512 9.83984C88.4434 9.42578 88.3281 9.0918 88.1055 8.83789C87.8828 8.58008 87.582 8.44336 87.2031 8.42773C86.6523 8.41602 86.1934 8.62109 85.8262 9.04297C85.4629 9.46484 85.2363 10.0547 85.1465 10.8125L85.1289 10.9648C85.1055 11.2148 85.1016 11.4727 85.1172 11.7383C85.1445 12.1953 85.2734 12.5566 85.5039 12.8223C85.7344 13.0879 86.0508 13.2266 86.4531 13.2383ZM92.2012 11.0762L91.3691 11.8203L90.9941 14H89.9336L91.498 5H92.5586L91.6211 10.3789L92.2715 9.72266L94.5215 7.66016H95.8984L92.9863 10.3613L94.9902 14H93.8301L92.2012 11.0762ZM98.5176 14.1172C97.7285 14.1016 97.1113 13.8105 96.666 13.2441C96.2207 12.6777 96.0332 11.9531 96.1035 11.0703L96.1328 10.8184C96.1992 10.1895 96.3848 9.61523 96.6895 9.0957C96.998 8.57617 97.373 8.18555 97.8145 7.92383C98.2559 7.6582 98.7324 7.53125 99.2441 7.54297C99.8965 7.55859 100.408 7.77539 100.779 8.19336C101.15 8.61133 101.354 9.17773 101.389 9.89258C101.4 10.1465 101.393 10.4004 101.365 10.6543L101.301 11.1406H97.1582C97.0879 11.7148 97.1816 12.2031 97.4395 12.6055C97.7012 13.0078 98.0898 13.2168 98.6055 13.2324C99.2305 13.248 99.8086 12.9668 100.34 12.3887L100.949 12.9043C100.684 13.2871 100.34 13.5879 99.918 13.8066C99.5 14.0215 99.0332 14.125 98.5176 14.1172ZM99.1914 8.42773C98.7539 8.41602 98.3711 8.56445 98.043 8.87305C97.7188 9.18164 97.4609 9.64062 97.2695 10.25L100.352 10.2559L100.375 10.1621C100.438 9.66992 100.357 9.26172 100.135 8.9375C99.916 8.60938 99.6016 8.43945 99.1914 8.42773ZM104.799 6.125L104.529 7.66016H105.684L105.537 8.49805H104.389L103.727 12.4414C103.715 12.543 103.713 12.6367 103.721 12.7227C103.748 13.0273 103.914 13.1797 104.219 13.1797C104.348 13.1797 104.52 13.1602 104.734 13.1211L104.652 14.0059C104.398 14.0762 104.141 14.1113 103.879 14.1113C103.457 14.1035 103.141 13.9492 102.93 13.6484C102.719 13.3438 102.637 12.9355 102.684 12.4238L103.328 8.49805H102.209L102.355 7.66016H103.475L103.744 6.125H104.799Z" fill="black"/>
<path d="M271.139 11.8027C271.225 11.1777 270.9 10.7207 270.166 10.4316L269.152 10.0625L268.812 9.91602C267.672 9.39648 267.139 8.66602 267.213 7.72461C267.252 7.25195 267.414 6.83398 267.699 6.4707C267.984 6.10742 268.361 5.82812 268.83 5.63281C269.303 5.43359 269.805 5.33984 270.336 5.35156C270.852 5.36328 271.311 5.47852 271.713 5.69727C272.119 5.91602 272.428 6.22266 272.639 6.61719C272.85 7.00781 272.943 7.44922 272.92 7.94141L271.812 7.93555C271.852 7.41211 271.734 7.00781 271.461 6.72266C271.188 6.43359 270.797 6.28516 270.289 6.27734C269.754 6.26953 269.307 6.39453 268.947 6.65234C268.588 6.91016 268.381 7.26172 268.326 7.70703C268.248 8.28906 268.605 8.73047 269.398 9.03125L270.271 9.3418L270.711 9.5293C271.812 10.0371 272.322 10.791 272.24 11.791C272.197 12.2715 272.035 12.6875 271.754 13.0391C271.473 13.3867 271.09 13.6562 270.605 13.8477C270.125 14.0391 269.607 14.1289 269.053 14.1172C268.518 14.1133 268.027 14 267.582 13.7773C267.141 13.5508 266.805 13.2422 266.574 12.8516C266.344 12.4609 266.242 12.0176 266.27 11.5215L267.371 11.5273C267.336 12.0352 267.473 12.4395 267.781 12.7402C268.094 13.0371 268.533 13.1895 269.1 13.1973C269.666 13.2051 270.133 13.082 270.5 12.8281C270.867 12.5742 271.08 12.2324 271.139 11.8027ZM275.896 14.1172C275.107 14.1016 274.49 13.8105 274.045 13.2441C273.6 12.6777 273.412 11.9531 273.482 11.0703L273.512 10.8184C273.578 10.1895 273.764 9.61523 274.068 9.0957C274.377 8.57617 274.752 8.18555 275.193 7.92383C275.635 7.6582 276.111 7.53125 276.623 7.54297C277.275 7.55859 277.787 7.77539 278.158 8.19336C278.529 8.61133 278.732 9.17773 278.768 9.89258C278.779 10.1465 278.771 10.4004 278.744 10.6543L278.68 11.1406H274.537C274.467 11.7148 274.561 12.2031 274.818 12.6055C275.08 13.0078 275.469 13.2168 275.984 13.2324C276.609 13.248 277.188 12.9668 277.719 12.3887L278.328 12.9043C278.062 13.2871 277.719 13.5879 277.297 13.8066C276.879 14.0215 276.412 14.125 275.896 14.1172ZM276.57 8.42773C276.133 8.41602 275.75 8.56445 275.422 8.87305C275.098 9.18164 274.84 9.64062 274.648 10.25L277.73 10.2559L277.754 10.1621C277.816 9.66992 277.736 9.26172 277.514 8.9375C277.295 8.60938 276.98 8.43945 276.57 8.42773ZM283.32 8.62695L282.822 8.57422C282.143 8.57422 281.607 8.88086 281.217 9.49414L280.438 14H279.377L280.479 7.66016L281.504 7.6543L281.346 8.39258C281.795 7.80273 282.324 7.51562 282.934 7.53125C283.062 7.53125 283.23 7.56055 283.438 7.61914L283.32 8.62695ZM285.781 12.5176L288.066 7.66016H289.186L285.992 14H285.184L283.941 7.66016H284.984L285.781 12.5176ZM291.834 14.1172C291.045 14.1016 290.428 13.8105 289.982 13.2441C289.537 12.6777 289.35 11.9531 289.42 11.0703L289.449 10.8184C289.516 10.1895 289.701 9.61523 290.006 9.0957C290.314 8.57617 290.689 8.18555 291.131 7.92383C291.572 7.6582 292.049 7.53125 292.561 7.54297C293.213 7.55859 293.725 7.77539 294.096 8.19336C294.467 8.61133 294.67 9.17773 294.705 9.89258C294.717 10.1465 294.709 10.4004 294.682 10.6543L294.617 11.1406H290.475C290.404 11.7148 290.498 12.2031 290.756 12.6055C291.018 13.0078 291.406 13.2168 291.922 13.2324C292.547 13.248 293.125 12.9668 293.656 12.3887L294.266 12.9043C294 13.2871 293.656 13.5879 293.234 13.8066C292.816 14.0215 292.35 14.125 291.834 14.1172ZM292.508 8.42773C292.07 8.41602 291.688 8.56445 291.359 8.87305C291.035 9.18164 290.777 9.64062 290.586 10.25L293.668 10.2559L293.691 10.1621C293.754 9.66992 293.674 9.26172 293.451 8.9375C293.232 8.60938 292.918 8.43945 292.508 8.42773ZM299.258 8.62695L298.76 8.57422C298.08 8.57422 297.545 8.88086 297.154 9.49414L296.375 14H295.314L296.416 7.66016L297.441 7.6543L297.283 8.39258C297.732 7.80273 298.262 7.51562 298.871 7.53125C299 7.53125 299.168 7.56055 299.375 7.61914L299.258 8.62695ZM307.209 11.8027C307.295 11.1777 306.971 10.7207 306.236 10.4316L305.223 10.0625L304.883 9.91602C303.742 9.39648 303.209 8.66602 303.283 7.72461C303.322 7.25195 303.484 6.83398 303.77 6.4707C304.055 6.10742 304.432 5.82812 304.9 5.63281C305.373 5.43359 305.875 5.33984 306.406 5.35156C306.922 5.36328 307.381 5.47852 307.783 5.69727C308.189 5.91602 308.498 6.22266 308.709 6.61719C308.92 7.00781 309.014 7.44922 308.99 7.94141L307.883 7.93555C307.922 7.41211 307.805 7.00781 307.531 6.72266C307.258 6.43359 306.867 6.28516 306.359 6.27734C305.824 6.26953 305.377 6.39453 305.018 6.65234C304.658 6.91016 304.451 7.26172 304.396 7.70703C304.318 8.28906 304.676 8.73047 305.469 9.03125L306.342 9.3418L306.781 9.5293C307.883 10.0371 308.393 10.791 308.311 11.791C308.268 12.2715 308.105 12.6875 307.824 13.0391C307.543 13.3867 307.16 13.6562 306.676 13.8477C306.195 14.0391 305.678 14.1289 305.123 14.1172C304.588 14.1133 304.098 14 303.652 13.7773C303.211 13.5508 302.875 13.2422 302.645 12.8516C302.414 12.4609 302.312 12.0176 302.34 11.5215L303.441 11.5273C303.406 12.0352 303.543 12.4395 303.852 12.7402C304.164 13.0371 304.604 13.1895 305.17 13.1973C305.736 13.2051 306.203 13.082 306.57 12.8281C306.938 12.5742 307.15 12.2324 307.209 11.8027ZM312.746 7.54297C313.277 7.55078 313.732 7.69531 314.111 7.97656C314.49 8.25781 314.77 8.64648 314.949 9.14258C315.133 9.63477 315.195 10.1738 315.137 10.7598L315.125 10.8887C315.051 11.5059 314.867 12.0645 314.574 12.5645C314.281 13.0605 313.902 13.4473 313.438 13.7246C312.973 14.002 312.463 14.1328 311.908 14.1172C311.381 14.1094 310.926 13.9648 310.543 13.6836C310.164 13.4023 309.887 13.0195 309.711 12.5352C309.535 12.0508 309.473 11.5176 309.523 10.9355C309.582 10.2793 309.76 9.68945 310.057 9.16602C310.354 8.64258 310.734 8.23828 311.199 7.95312C311.668 7.66406 312.184 7.52734 312.746 7.54297ZM310.59 10.9414C310.562 11.1875 310.562 11.4434 310.59 11.709C310.629 12.1699 310.766 12.5371 311 12.8105C311.238 13.084 311.555 13.2266 311.949 13.2383C312.301 13.25 312.625 13.1641 312.922 12.9805C313.219 12.793 313.469 12.5117 313.672 12.1367C313.875 11.7617 314.006 11.3457 314.064 10.8887C314.096 10.5293 314.102 10.2266 314.082 9.98047C314.035 9.50781 313.893 9.13477 313.654 8.86133C313.416 8.58789 313.1 8.44336 312.705 8.42773C312.158 8.41602 311.693 8.63086 311.311 9.07227C310.928 9.51367 310.691 10.0918 310.602 10.8066L310.59 10.9414ZM318.605 13.2383C318.984 13.2461 319.326 13.1367 319.631 12.9102C319.936 12.6797 320.135 12.3789 320.229 12.0078L321.23 12.002C321.172 12.4004 321.012 12.7637 320.75 13.0918C320.492 13.4199 320.166 13.6758 319.771 13.8594C319.377 14.043 318.973 14.1289 318.559 14.1172C318.031 14.1094 317.584 13.9727 317.217 13.707C316.854 13.4375 316.586 13.0645 316.414 12.5879C316.242 12.1074 316.184 11.5684 316.238 10.9707L316.268 10.6777C316.342 10.0684 316.52 9.52344 316.801 9.04297C317.082 8.5625 317.449 8.18945 317.902 7.92383C318.355 7.6543 318.855 7.52734 319.402 7.54297C320.066 7.55859 320.598 7.78125 320.996 8.21094C321.395 8.64062 321.594 9.18555 321.594 9.8457L320.604 9.83984C320.596 9.42578 320.48 9.0918 320.258 8.83789C320.035 8.58008 319.734 8.44336 319.355 8.42773C318.805 8.41602 318.346 8.62109 317.979 9.04297C317.615 9.46484 317.389 10.0547 317.299 10.8125L317.281 10.9648C317.258 11.2148 317.254 11.4727 317.27 11.7383C317.297 12.1953 317.426 12.5566 317.656 12.8223C317.887 13.0879 318.203 13.2266 318.605 13.2383ZM324.354 11.0762L323.521 11.8203L323.146 14H322.086L323.65 5H324.711L323.773 10.3789L324.424 9.72266L326.674 7.66016H328.051L325.139 10.3613L327.143 14H325.982L324.354 11.0762ZM330.67 14.1172C329.881 14.1016 329.264 13.8105 328.818 13.2441C328.373 12.6777 328.186 11.9531 328.256 11.0703L328.285 10.8184C328.352 10.1895 328.537 9.61523 328.842 9.0957C329.15 8.57617 329.525 8.18555 329.967 7.92383C330.408 7.6582 330.885 7.53125 331.396 7.54297C332.049 7.55859 332.561 7.77539 332.932 8.19336C333.303 8.61133 333.506 9.17773 333.541 9.89258C333.553 10.1465 333.545 10.4004 333.518 10.6543L333.453 11.1406H329.311C329.24 11.7148 329.334 12.2031 329.592 12.6055C329.854 13.0078 330.242 13.2168 330.758 13.2324C331.383 13.248 331.961 12.9668 332.492 12.3887L333.102 12.9043C332.836 13.2871 332.492 13.5879 332.07 13.8066C331.652 14.0215 331.186 14.125 330.67 14.1172ZM331.344 8.42773C330.906 8.41602 330.523 8.56445 330.195 8.87305C329.871 9.18164 329.613 9.64062 329.422 10.25L332.504 10.2559L332.527 10.1621C332.59 9.66992 332.51 9.26172 332.287 8.9375C332.068 8.60938 331.754 8.43945 331.344 8.42773ZM336.951 6.125L336.682 7.66016H337.836L337.689 8.49805H336.541L335.879 12.4414C335.867 12.543 335.865 12.6367 335.873 12.7227C335.9 13.0273 336.066 13.1797 336.371 13.1797C336.5 13.1797 336.672 13.1602 336.887 13.1211L336.805 14.0059C336.551 14.0762 336.293 14.1113 336.031 14.1113C335.609 14.1035 335.293 13.9492 335.082 13.6484C334.871 13.3438 334.789 12.9355 334.836 12.4238L335.48 8.49805H334.361L334.508 7.66016H335.627L335.896 6.125H336.951Z" fill="black"/>
<path d="M266.197 77.9762C266.423 77.8178 266.478 77.506 266.319 77.2798L263.738 73.5936C263.58 73.3674 263.268 73.3125 263.042 73.4709C262.816 73.6292 262.761 73.941 262.919 74.1672L265.213 77.4438L261.937 79.7381C261.711 79.8965 261.656 80.2083 261.814 80.4345C261.972 80.6607 262.284 80.7157 262.51 80.5573L266.197 77.9762ZM105.84 49.8496L265.823 78.059L265.997 77.0742L106.013 48.8648L105.84 49.8496Z" fill="black"/>
<path d="M181.983 57.5517C182.041 57.2247 181.969 56.9543 181.769 56.7405C181.57 56.5228 181.187 56.2649 180.62 55.9667C180.055 55.6647 179.614 55.3886 179.297 55.1384C178.434 54.4547 178.079 53.6762 178.233 52.8029C178.313 52.349 178.511 51.9675 178.828 51.6583C179.149 51.346 179.565 51.1319 180.077 51.016C180.594 50.9007 181.15 50.8957 181.746 51.0008C182.346 51.1066 182.861 51.3105 183.292 51.6126C183.723 51.9107 184.033 52.2807 184.221 52.7223C184.413 53.1647 184.464 53.6379 184.375 54.1418L182.644 53.8366C182.712 53.4519 182.643 53.1324 182.438 52.8781C182.234 52.6199 181.913 52.4521 181.474 52.3748C181.051 52.3002 180.706 52.3326 180.439 52.472C180.174 52.6076 180.015 52.8216 179.963 53.114C179.915 53.3871 180.011 53.6401 180.252 53.8729C180.496 54.1064 180.872 54.351 181.378 54.6069C182.31 55.0767 182.963 55.5706 183.336 56.0885C183.709 56.6065 183.837 57.1924 183.722 57.8464C183.594 58.5734 183.218 59.0962 182.595 59.4147C181.972 59.7293 181.195 59.8045 180.264 59.6404C179.618 59.5264 179.05 59.3053 178.561 58.977C178.072 58.6449 177.723 58.2483 177.515 57.7872C177.311 57.3267 177.256 56.8253 177.352 56.2828L179.089 56.5891C178.925 57.5162 179.397 58.0774 180.505 58.2728C180.917 58.3454 181.253 58.3193 181.513 58.1946C181.773 58.066 181.93 57.8517 181.983 57.5517ZM188.219 56.1642L190.635 52.6872L192.528 53.0209L188.825 57.8894L188.288 60.9362L186.528 60.6259L187.065 57.5791L185.251 51.7379L187.15 52.0726L188.219 56.1642ZM198.646 62.7626L196.915 62.4573L194.52 56.3351L193.545 61.8631L191.814 61.5579L193.295 53.1562L195.026 53.4615L197.425 59.5962L198.402 54.0567L200.127 54.3609L198.646 62.7626Z" fill="black"/>
<path d="M266.197 287.976C266.423 287.818 266.478 287.506 266.319 287.28L263.738 283.594C263.58 283.367 263.268 283.312 263.042 283.471C262.816 283.629 262.761 283.941 262.919 284.167L265.213 287.444L261.937 289.738C261.711 289.897 261.656 290.208 261.814 290.435C261.972 290.661 262.284 290.716 262.51 290.557L266.197 287.976ZM105.84 259.85L265.823 288.059L265.997 287.074L106.013 258.865L105.84 259.85Z" fill="black"/>
<path d="M182.898 266.446L179.574 265.86L178.969 269.293L177.238 268.988L178.719 260.586L184.19 261.551L183.942 262.953L180.203 262.294L179.821 264.463L183.144 265.049L182.898 266.446ZM185.553 270.454L183.822 270.149L185.303 261.747L187.034 262.052L185.553 270.454ZM193.995 271.942L192.264 271.637L189.869 265.515L188.894 271.043L187.163 270.738L188.644 262.336L190.375 262.641L192.774 268.776L193.751 263.237L195.476 263.541L193.995 271.942Z" fill="black"/>
<path d="M266.197 157.976C266.423 157.818 266.478 157.506 266.319 157.28L263.738 153.594C263.58 153.367 263.268 153.312 263.042 153.471C262.816 153.629 262.761 153.941 262.919 154.167L265.213 157.444L261.937 159.738C261.711 159.897 261.656 160.208 261.814 160.434C261.972 160.661 262.284 160.716 262.51 160.557L266.197 157.976ZM105.84 129.85L265.823 158.059L265.997 157.074L106.013 128.865L105.84 129.85Z" fill="black"/>
<path d="M182.286 138.093L179.251 137.558L178.369 139.187L176.528 138.863L181.137 131.012L182.741 131.295L184.405 140.251L182.564 139.927L182.286 138.093ZM179.966 136.238L182.066 136.608L181.565 133.277L179.966 136.238ZM192.151 138.732C191.927 139.624 191.466 140.277 190.771 140.69C190.079 141.103 189.241 141.223 188.256 141.05C187.179 140.86 186.395 140.348 185.903 139.516C185.415 138.68 185.283 137.63 185.507 136.364L185.597 135.851C185.74 135.043 186.007 134.356 186.401 133.791C186.794 133.226 187.283 132.826 187.867 132.592C188.457 132.355 189.101 132.298 189.801 132.421C190.771 132.592 191.506 132.989 192.007 133.613C192.508 134.237 192.721 135.026 192.648 135.981L190.917 135.676C190.971 135.126 190.888 134.707 190.669 134.419C190.455 134.127 190.082 133.934 189.551 133.841C188.974 133.739 188.505 133.87 188.143 134.235C187.786 134.596 187.527 135.211 187.366 136.079L187.254 136.714C187.094 137.622 187.113 138.309 187.312 138.777C187.515 139.245 187.913 139.531 188.505 139.636C189.04 139.73 189.46 139.679 189.764 139.483C190.073 139.284 190.292 138.931 190.42 138.427L192.151 138.732ZM196.02 138.825L194.949 139.636L194.526 142.036L192.795 141.731L194.276 133.329L196.007 133.634L195.336 137.443L196.282 136.533L198.91 134.146L201.039 134.522L197.397 137.729L199.644 142.939L197.584 142.575L196.02 138.825Z" fill="black"/>
<path d="M266.197 417.976C266.423 417.818 266.478 417.506 266.319 417.28L263.738 413.594C263.58 413.367 263.268 413.312 263.042 413.471C262.816 413.629 262.761 413.941 262.919 414.167L265.213 417.444L261.937 419.738C261.711 419.897 261.656 420.208 261.814 420.435C261.972 420.661 262.284 420.716 262.51 420.557L266.197 417.976ZM105.84 389.85L265.823 418.059L265.997 417.074L106.013 388.865L105.84 389.85Z" fill="black"/>
<path d="M182.286 398.093L179.251 397.558L178.369 399.187L176.528 398.863L181.137 391.012L182.741 391.295L184.405 400.251L182.564 399.927L182.286 398.093ZM179.966 396.238L182.066 396.608L181.565 393.277L179.966 396.238ZM192.151 398.732C191.927 399.624 191.466 400.277 190.771 400.69C190.079 401.103 189.241 401.223 188.256 401.05C187.179 400.86 186.395 400.348 185.903 399.516C185.415 398.68 185.283 397.63 185.507 396.364L185.597 395.851C185.74 395.043 186.007 394.356 186.401 393.791C186.794 393.226 187.283 392.826 187.867 392.592C188.457 392.355 189.101 392.298 189.801 392.421C190.771 392.592 191.506 392.989 192.007 393.613C192.508 394.237 192.721 395.026 192.648 395.981L190.917 395.676C190.971 395.126 190.888 394.707 190.669 394.419C190.455 394.127 190.082 393.934 189.551 393.841C188.974 393.739 188.505 393.87 188.143 394.235C187.786 394.596 187.527 395.211 187.366 396.079L187.254 396.714C187.094 397.622 187.113 398.309 187.312 398.777C187.515 399.245 187.913 399.531 188.505 399.636C189.04 399.73 189.46 399.679 189.764 399.483C190.073 399.284 190.292 398.931 190.42 398.427L192.151 398.732ZM196.02 398.825L194.949 399.636L194.526 402.036L192.795 401.731L194.276 393.329L196.007 393.634L195.336 397.443L196.282 396.533L198.91 394.146L201.039 394.522L197.397 397.729L199.644 402.939L197.584 402.575L196.02 398.825Z" fill="black"/>
<path d="M105.64 117.976C105.413 117.818 105.358 117.506 105.517 117.28L108.098 113.594C108.256 113.367 108.568 113.312 108.794 113.471C109.02 113.629 109.075 113.941 108.917 114.167L106.623 117.444L109.899 119.738C110.126 119.897 110.181 120.208 110.022 120.435C109.864 120.661 109.552 120.716 109.326 120.557L105.64 117.976ZM265.997 89.8496L106.013 118.059L105.84 117.074L265.823 88.8648L265.997 89.8496Z" fill="black"/>
<path d="M160.783 101.2C160.725 100.873 160.566 100.644 160.304 100.511C160.042 100.375 159.594 100.264 158.96 100.177C158.326 100.087 157.817 99.9781 157.433 99.8513C156.388 99.5041 155.789 98.8938 155.635 98.0205C155.555 97.5666 155.611 97.1403 155.802 96.7416C155.997 96.3384 156.315 95.9947 156.757 95.7106C157.202 95.4258 157.723 95.2308 158.32 95.1256C158.92 95.0198 159.474 95.0352 159.982 95.1717C160.489 95.3044 160.906 95.5461 161.234 95.8969C161.565 96.247 161.776 96.674 161.865 97.1779L160.133 97.4832C160.066 97.0985 159.892 96.8217 159.612 96.6529C159.332 96.4802 158.972 96.4325 158.534 96.5098C158.111 96.5844 157.798 96.7328 157.595 96.955C157.391 97.1734 157.316 97.4287 157.367 97.7211C157.415 97.9942 157.592 98.199 157.898 98.3355C158.207 98.4713 158.644 98.5729 159.207 98.6402C160.244 98.7627 161.026 99.0036 161.554 99.3628C162.081 99.722 162.402 100.229 162.518 100.883C162.646 101.61 162.472 102.229 161.995 102.742C161.517 103.25 160.813 103.587 159.882 103.751C159.236 103.865 158.626 103.851 158.054 103.71C157.481 103.565 157.018 103.312 156.665 102.95C156.315 102.587 156.093 102.134 155.997 101.592L157.734 101.286C157.897 102.213 158.533 102.579 159.641 102.383C160.053 102.311 160.359 102.171 160.561 101.965C160.762 101.755 160.836 101.5 160.783 101.2ZM166.168 97.7637L167.249 93.6701L169.142 93.3363L167.328 99.1776L167.865 102.224L166.105 102.535L165.568 99.4879L161.866 94.6194L163.764 94.2846L166.168 97.7637ZM178.223 100.398L176.492 100.703L172.147 95.7694L173.122 101.297L171.391 101.603L169.909 93.201L171.641 92.8958L175.993 97.8401L175.016 92.3006L176.742 91.9963L178.223 100.398ZM185.103 94.3358L187.186 93.9685L187.452 95.4745L185.368 95.8419L185.784 98.1962L184.197 98.476L183.782 96.1217L181.693 96.49L181.427 94.9839L183.516 94.6156L183.118 92.3594L184.705 92.0796L185.103 94.3358ZM196.51 95.3886L193.475 95.9238L193.203 97.7566L191.362 98.0812L193.008 89.1281L194.612 88.8452L199.239 96.6923L197.398 97.0169L196.51 95.3886ZM193.695 94.4392L195.795 94.0688L194.185 91.1101L193.695 94.4392ZM205.998 92.6148C206.092 93.5303 205.883 94.301 205.371 94.9268C204.862 95.552 204.116 95.9514 203.131 96.125C202.054 96.315 201.142 96.1029 200.395 95.4889C199.651 94.8704 199.168 93.9283 198.945 92.6627L198.854 92.1491C198.712 91.3412 198.728 90.6045 198.905 89.9388C199.081 89.2731 199.403 88.7303 199.873 88.3103C200.345 87.8859 200.932 87.612 201.632 87.4885C202.601 87.3176 203.428 87.4395 204.112 87.8544C204.796 88.2693 205.267 88.9379 205.525 89.8603L203.794 90.1655C203.656 89.6306 203.434 89.265 203.13 89.0687C202.829 88.868 202.413 88.8144 201.882 88.908C201.305 89.0098 200.909 89.2938 200.694 89.7601C200.482 90.222 200.448 90.8882 200.594 91.759L200.706 92.3937C200.866 93.3016 201.12 93.9411 201.467 94.3123C201.817 94.6827 202.289 94.8158 202.882 94.7113C203.416 94.617 203.793 94.4256 204.012 94.1371C204.234 93.8441 204.319 93.4384 204.267 92.92L205.998 92.6148ZM209.666 91.3791L208.937 92.5072L209.36 94.9077L207.629 95.2129L206.147 86.8113L207.878 86.5061L208.55 90.3145L209.127 89.1358L210.781 85.9943L212.91 85.6188L210.585 89.8783L214.478 94.0052L212.418 94.3684L209.666 91.3791Z" fill="black"/>
<path d="M280.88 33.9268H285.46L285.269 35H279.403L281.133 25.0469H282.425L280.88 33.9268ZM288.16 35H286.882L288.611 25.0469H289.89L288.16 35ZM296.138 32.4365C296.238 31.7074 295.86 31.1742 295.003 30.8369L293.82 30.4062L293.424 30.2354C292.093 29.6292 291.471 28.777 291.558 27.6787C291.603 27.1273 291.792 26.6396 292.125 26.2158C292.458 25.792 292.897 25.4661 293.444 25.2383C293.996 25.0059 294.581 24.8965 295.201 24.9102C295.803 24.9238 296.338 25.0583 296.808 25.3135C297.282 25.5687 297.642 25.9264 297.888 26.3867C298.134 26.8424 298.243 27.3574 298.216 27.9316L296.924 27.9248C296.969 27.3141 296.833 26.8424 296.514 26.5098C296.195 26.1725 295.739 25.9993 295.146 25.9902C294.522 25.9811 294 26.127 293.581 26.4277C293.162 26.7285 292.92 27.1387 292.856 27.6582C292.765 28.3372 293.182 28.8522 294.107 29.2031L295.126 29.5654L295.639 29.7842C296.924 30.3766 297.519 31.2562 297.423 32.4229C297.373 32.9834 297.184 33.4688 296.855 33.8789C296.527 34.2845 296.081 34.599 295.516 34.8223C294.955 35.0456 294.351 35.1504 293.704 35.1367C293.08 35.1322 292.508 35 291.988 34.7402C291.473 34.4759 291.081 34.1159 290.812 33.6602C290.544 33.2044 290.425 32.6872 290.457 32.1084L291.742 32.1152C291.701 32.7077 291.861 33.1794 292.221 33.5303C292.585 33.8766 293.098 34.0544 293.759 34.0635C294.42 34.0726 294.964 33.929 295.393 33.6328C295.821 33.3366 296.069 32.9378 296.138 32.4365ZM306.897 26.127H303.801L302.263 35H300.984L302.522 26.127H299.426L299.617 25.0469H307.089L306.897 26.127ZM313.125 30.3994H308.941L308.326 33.9268H313.193L313.002 35H306.856L308.586 25.0469H314.663L314.472 26.127H309.68L309.126 29.3262H313.31L313.125 30.3994ZM322.08 35H320.836L317.281 27.2754L315.941 35H314.649L316.379 25.0469H317.623L321.185 32.8057L322.531 25.0469H323.81L322.08 35Z" fill="black"/>
<path d="M284.995 86.4365C285.095 85.7074 284.717 85.1742 283.86 84.8369L282.678 84.4062L282.281 84.2354C280.951 83.6292 280.328 82.777 280.415 81.6787C280.461 81.1273 280.65 80.6396 280.982 80.2158C281.315 79.792 281.755 79.4661 282.302 79.2383C282.853 79.0059 283.439 78.8965 284.059 78.9102C284.66 78.9238 285.196 79.0583 285.665 79.3135C286.139 79.5687 286.499 79.9264 286.745 80.3867C286.991 80.8424 287.101 81.3574 287.073 81.9316L285.781 81.9248C285.827 81.3141 285.69 80.8424 285.371 80.5098C285.052 80.1725 284.596 79.9993 284.004 79.9902C283.38 79.9811 282.858 80.127 282.438 80.4277C282.019 80.7285 281.778 81.1387 281.714 81.6582C281.623 82.3372 282.04 82.8522 282.965 83.2031L283.983 83.5654L284.496 83.7842C285.781 84.3766 286.376 85.2562 286.28 86.4229C286.23 86.9834 286.041 87.4688 285.713 87.8789C285.385 88.2845 284.938 88.599 284.373 88.8223C283.812 89.0456 283.209 89.1504 282.562 89.1367C281.937 89.1322 281.365 89 280.846 88.7402C280.331 88.4759 279.939 88.1159 279.67 87.6602C279.401 87.2044 279.283 86.6872 279.314 86.1084L280.6 86.1152C280.559 86.7077 280.718 87.1794 281.078 87.5303C281.443 87.8766 281.955 88.0544 282.616 88.0635C283.277 88.0726 283.822 87.929 284.25 87.6328C284.678 87.3366 284.927 86.9378 284.995 86.4365ZM291.312 84.0371L294.695 79.0469H296.227L291.763 85.3564L291.127 89H289.849L290.505 85.2129L288.283 79.0469H289.678L291.312 84.0371ZM303.199 89H301.955L298.4 81.2754L297.061 89H295.769L297.498 79.0469H298.742L302.304 86.8057L303.65 79.0469H304.929L303.199 89ZM313.228 84.9736H310.931L310.233 89H308.941L310.671 79.0469L313.665 79.0537C314.709 79.0583 315.504 79.3226 316.051 79.8467C316.598 80.3708 316.828 81.084 316.741 81.9863C316.691 82.6107 316.463 83.1598 316.058 83.6338C315.657 84.1077 315.121 84.4655 314.451 84.707L315.996 88.9111L315.989 89H314.622L313.228 84.9736ZM311.115 83.9004L313.002 83.9072C313.658 83.9072 314.212 83.734 314.663 83.3877C315.114 83.0368 315.379 82.5697 315.456 81.9863C315.524 81.4167 315.41 80.9701 315.114 80.6465C314.818 80.3229 314.367 80.152 313.761 80.1338L311.771 80.127L311.115 83.9004ZM324.972 85.8281C324.78 86.8581 324.313 87.6738 323.57 88.2754C322.832 88.877 321.946 89.1641 320.911 89.1367C320.296 89.123 319.758 88.9727 319.298 88.6855C318.838 88.3939 318.48 87.9769 318.225 87.4346C317.969 86.8877 317.828 86.2839 317.801 85.623C317.783 85.2493 317.799 84.8848 317.849 84.5293L317.965 83.709C318.179 82.2142 318.703 81.0361 319.537 80.1748C320.376 79.3089 321.394 78.8874 322.593 78.9102C323.527 78.9284 324.268 79.2314 324.814 79.8193C325.361 80.4027 325.651 81.2139 325.683 82.2529H324.404C324.345 80.8584 323.798 80.1064 322.764 79.9971L322.538 79.9834C321.677 79.9606 320.957 80.2819 320.378 80.9473C319.804 81.6081 319.432 82.5127 319.264 83.6611L319.113 84.6934L319.072 85.2949C319.045 86.1335 319.193 86.8011 319.517 87.2979C319.845 87.79 320.33 88.0452 320.973 88.0635C321.665 88.0863 322.237 87.9199 322.688 87.5645C323.144 87.209 323.491 86.637 323.728 85.8486L324.972 85.8281ZM329.818 87.2432L333.858 79.0469H335.308L330.167 89H329.032L327.016 79.0469H328.362L329.818 87.2432ZM335.007 89L336.736 79.0469L339.32 79.0537C340.132 79.0537 340.829 79.2565 341.412 79.6621C342 80.0677 342.422 80.6283 342.677 81.3438C342.932 82.0547 343.007 82.8522 342.902 83.7363L342.834 84.2354C342.633 85.6846 342.071 86.8421 341.146 87.708C340.22 88.5693 339.058 89 337.659 89H335.007ZM337.83 80.127L336.477 87.9268L337.741 87.9336C338.707 87.9336 339.525 87.6328 340.195 87.0312C340.87 86.4297 341.307 85.6048 341.508 84.5566C341.667 83.7181 341.722 83.0049 341.672 82.417C341.604 81.7106 341.369 81.1592 340.968 80.7627C340.567 80.3617 340.029 80.152 339.354 80.1338L337.83 80.127Z" fill="black"/>
<path d="M48.9912 31.8281C48.7998 32.8581 48.3327 33.6738 47.5898 34.2754C46.8516 34.877 45.9652 35.1641 44.9307 35.1367C44.3154 35.123 43.7777 34.9727 43.3174 34.6855C42.8571 34.3939 42.4993 33.9769 42.2441 33.4346C41.9889 32.8877 41.8477 32.2839 41.8203 31.623C41.8021 31.2493 41.818 30.8848 41.8682 30.5293L41.9844 29.709C42.1986 28.2142 42.7227 27.0361 43.5566 26.1748C44.3952 25.3089 45.4137 24.8874 46.6123 24.9102C47.5465 24.9284 48.2871 25.2314 48.834 25.8193C49.3809 26.4027 49.6702 27.2139 49.7021 28.2529H48.4238C48.3646 26.8584 47.8177 26.1064 46.7832 25.9971L46.5576 25.9834C45.6963 25.9606 44.9762 26.2819 44.3975 26.9473C43.8232 27.6081 43.4518 28.5127 43.2832 29.6611L43.1328 30.6934L43.0918 31.2949C43.0645 32.1335 43.2126 32.8011 43.5361 33.2979C43.8643 33.79 44.3496 34.0452 44.9922 34.0635C45.6849 34.0863 46.2568 33.9199 46.708 33.5645C47.1637 33.209 47.5101 32.637 47.7471 31.8486L48.9912 31.8281ZM51.7939 33.9268H56.374L56.1826 35H50.3174L52.0469 25.0469H53.3389L51.7939 33.9268ZM60.8994 35.1367C60.266 35.123 59.7145 34.9704 59.2451 34.6787C58.7803 34.387 58.4134 33.9587 58.1445 33.3936C57.8757 32.8239 57.7275 32.1859 57.7002 31.4795C57.6729 30.9281 57.7344 30.2467 57.8848 29.4355C58.0352 28.6243 58.2949 27.8929 58.6641 27.2412C59.0332 26.5895 59.4821 26.0677 60.0107 25.6758C60.7262 25.1471 61.542 24.8919 62.458 24.9102C63.4287 24.9284 64.1943 25.2656 64.7549 25.9219C65.3154 26.5736 65.6162 27.4577 65.6572 28.5742C65.6755 29.0527 65.6253 29.6611 65.5068 30.3994C65.3929 31.1377 65.1855 31.8236 64.8848 32.457C64.5885 33.0905 64.2103 33.6214 63.75 34.0498C62.9479 34.7972 61.9977 35.1595 60.8994 35.1367ZM64.3926 28.8887C64.4199 27.9909 64.2627 27.2959 63.9209 26.8037C63.5791 26.307 63.071 26.0495 62.3965 26.0312C61.7858 26.013 61.2389 26.1771 60.7559 26.5234C60.2773 26.8698 59.8831 27.3893 59.5732 28.082C59.2679 28.7702 59.0742 29.6429 58.9922 30.7002L58.9717 31.1445C58.9443 32.0378 59.1038 32.7373 59.4502 33.2432C59.7965 33.749 60.3001 34.0111 60.9609 34.0293C61.8223 34.0521 62.5355 33.7422 63.1006 33.0996C63.6702 32.4525 64.0485 31.5456 64.2354 30.3789C64.3265 29.8047 64.3789 29.3079 64.3926 28.8887ZM72.2471 32.4365C72.3473 31.7074 71.9691 31.1742 71.1123 30.8369L69.9297 30.4062L69.5332 30.2354C68.2025 29.6292 67.5804 28.777 67.667 27.6787C67.7126 27.1273 67.9017 26.6396 68.2344 26.2158C68.5671 25.792 69.0068 25.4661 69.5537 25.2383C70.1051 25.0059 70.6908 24.8965 71.3105 24.9102C71.9121 24.9238 72.4476 25.0583 72.917 25.3135C73.391 25.5687 73.751 25.9264 73.9971 26.3867C74.2432 26.8424 74.3525 27.3574 74.3252 27.9316L73.0332 27.9248C73.0788 27.3141 72.9421 26.8424 72.623 26.5098C72.304 26.1725 71.8483 25.9993 71.2559 25.9902C70.6315 25.9811 70.1097 26.127 69.6904 26.4277C69.2712 26.7285 69.0296 27.1387 68.9658 27.6582C68.8747 28.3372 69.2917 28.8522 70.2168 29.2031L71.2354 29.5654L71.748 29.7842C73.0332 30.3766 73.6279 31.2562 73.5322 32.4229C73.4821 32.9834 73.293 33.4688 72.9648 33.8789C72.6367 34.2845 72.1901 34.599 71.625 34.8223C71.0645 35.0456 70.4606 35.1504 69.8135 35.1367C69.1891 35.1322 68.6172 35 68.0977 34.7402C67.5827 34.4759 67.1908 34.1159 66.9219 33.6602C66.653 33.2044 66.5345 32.6872 66.5664 32.1084L67.8516 32.1152C67.8105 32.7077 67.9701 33.1794 68.3301 33.5303C68.6947 33.8766 69.2074 34.0544 69.8682 34.0635C70.529 34.0726 71.0736 33.929 71.502 33.6328C71.9303 33.3366 72.1787 32.9378 72.2471 32.4365ZM81.0586 30.3994H76.875L76.2598 33.9268H81.127L80.9355 35H74.79L76.5195 25.0469H82.5967L82.4053 26.127H77.6133L77.0596 29.3262H81.2432L81.0586 30.3994ZM82.583 35L84.3125 25.0469L86.8965 25.0537C87.7077 25.0537 88.4049 25.2565 88.9883 25.6621C89.5762 26.0677 89.9977 26.6283 90.2529 27.3438C90.5081 28.0547 90.5833 28.8522 90.4785 29.7363L90.4102 30.2354C90.2096 31.6846 89.6468 32.8421 88.7217 33.708C87.7965 34.5693 86.6344 35 85.2354 35H82.583ZM85.4062 26.127L84.0527 33.9268L85.3174 33.9336C86.2835 33.9336 87.1016 33.6328 87.7715 33.0312C88.446 32.4297 88.8835 31.6048 89.084 30.5566C89.2435 29.7181 89.2982 29.0049 89.248 28.417C89.1797 27.7106 88.945 27.1592 88.5439 26.7627C88.1429 26.3617 87.6051 26.152 86.9307 26.1338L85.4062 26.127Z" fill="black"/>
<path d="M34.9951 52.4365C35.0954 51.7074 34.7171 51.1742 33.8604 50.8369L32.6777 50.4062L32.2812 50.2354C30.9505 49.6292 30.3285 48.777 30.415 47.6787C30.4606 47.1273 30.6497 46.6396 30.9824 46.2158C31.3151 45.792 31.7549 45.4661 32.3018 45.2383C32.8532 45.0059 33.4388 44.8965 34.0586 44.9102C34.6602 44.9238 35.1956 45.0583 35.665 45.3135C36.139 45.5687 36.499 45.9264 36.7451 46.3867C36.9912 46.8424 37.1006 47.3574 37.0732 47.9316L35.7812 47.9248C35.8268 47.3141 35.6901 46.8424 35.3711 46.5098C35.0521 46.1725 34.5964 45.9993 34.0039 45.9902C33.3796 45.9811 32.8577 46.127 32.4385 46.4277C32.0192 46.7285 31.7777 47.1387 31.7139 47.6582C31.6227 48.3372 32.0397 48.8522 32.9648 49.2031L33.9834 49.5654L34.4961 49.7842C35.7812 50.3766 36.376 51.2562 36.2803 52.4229C36.2301 52.9834 36.041 53.4688 35.7129 53.8789C35.3848 54.2845 34.9382 54.599 34.373 54.8223C33.8125 55.0456 33.2087 55.1504 32.5615 55.1367C31.9372 55.1322 31.3652 55 30.8457 54.7402C30.3307 54.4759 29.9388 54.1159 29.6699 53.6602C29.401 53.2044 29.2826 52.6872 29.3145 52.1084L30.5996 52.1152C30.5586 52.7077 30.7181 53.1794 31.0781 53.5303C31.4427 53.8766 31.9554 54.0544 32.6162 54.0635C33.277 54.0726 33.8216 53.929 34.25 53.6328C34.6784 53.3366 34.9268 52.9378 34.9951 52.4365ZM41.3115 50.0371L44.6953 45.0469H46.2266L41.7627 51.3564L41.127 55H39.8486L40.5049 51.2129L38.2832 45.0469H39.6777L41.3115 50.0371ZM53.1992 55H51.9551L48.4004 47.2754L47.0605 55H45.7686L47.498 45.0469H48.7422L52.3037 52.8057L53.6504 45.0469H54.9287L53.1992 55ZM64.54 52.4365C64.6403 51.7074 64.262 51.1742 63.4053 50.8369L62.2227 50.4062L61.8262 50.2354C60.4954 49.6292 59.8734 48.777 59.96 47.6787C60.0055 47.1273 60.1947 46.6396 60.5273 46.2158C60.86 45.792 61.2998 45.4661 61.8467 45.2383C62.3981 45.0059 62.9837 44.8965 63.6035 44.9102C64.2051 44.9238 64.7406 45.0583 65.21 45.3135C65.6839 45.5687 66.0439 45.9264 66.29 46.3867C66.5361 46.8424 66.6455 47.3574 66.6182 47.9316L65.3262 47.9248C65.3717 47.3141 65.235 46.8424 64.916 46.5098C64.597 46.1725 64.1413 45.9993 63.5488 45.9902C62.9245 45.9811 62.4027 46.127 61.9834 46.4277C61.5641 46.7285 61.3226 47.1387 61.2588 47.6582C61.1676 48.3372 61.5846 48.8522 62.5098 49.2031L63.5283 49.5654L64.041 49.7842C65.3262 50.3766 65.9209 51.2562 65.8252 52.4229C65.7751 52.9834 65.5859 53.4688 65.2578 53.8789C64.9297 54.2845 64.4831 54.599 63.918 54.8223C63.3574 55.0456 62.7536 55.1504 62.1064 55.1367C61.4821 55.1322 60.9102 55 60.3906 54.7402C59.8757 54.4759 59.4837 54.1159 59.2148 53.6602C58.946 53.2044 58.8275 52.6872 58.8594 52.1084L60.1445 52.1152C60.1035 52.7077 60.263 53.1794 60.623 53.5303C60.9876 53.8766 61.5003 54.0544 62.1611 54.0635C62.8219 54.0726 63.3665 53.929 63.7949 53.6328C64.2233 53.3366 64.4717 52.9378 64.54 52.4365ZM73.3516 50.3994H69.168L68.5527 53.9268H73.4199L73.2285 55H67.083L68.8125 45.0469H74.8896L74.6982 46.127H69.9062L69.3525 49.3262H73.5361L73.3516 50.3994ZM82.3066 55H81.0625L77.5078 47.2754L76.168 55H74.876L76.6055 45.0469H77.8496L81.4111 52.8057L82.7578 45.0469H84.0361L82.3066 55ZM92.6357 46.127H89.5391L88.001 55H86.7227L88.2607 46.127H85.1641L85.3555 45.0469H92.8271L92.6357 46.127Z" fill="black"/>
<path d="M15.6719 120.399H11.4883L10.873 123.927H15.7402L15.5488 125H9.40332L11.1328 115.047H17.21L17.0186 116.127H12.2266L11.6729 119.326H15.8564L15.6719 120.399ZM22.7881 122.437C22.8883 121.707 22.5101 121.174 21.6533 120.837L20.4707 120.406L20.0742 120.235C18.7435 119.629 18.1214 118.777 18.208 117.679C18.2536 117.127 18.4427 116.64 18.7754 116.216C19.1081 115.792 19.5479 115.466 20.0947 115.238C20.6462 115.006 21.2318 114.896 21.8516 114.91C22.4531 114.924 22.9886 115.058 23.458 115.313C23.932 115.569 24.292 115.926 24.5381 116.387C24.7842 116.842 24.8936 117.357 24.8662 117.932L23.5742 117.925C23.6198 117.314 23.4831 116.842 23.1641 116.51C22.8451 116.173 22.3893 115.999 21.7969 115.99C21.1725 115.981 20.6507 116.127 20.2314 116.428C19.8122 116.729 19.5706 117.139 19.5068 117.658C19.4157 118.337 19.8327 118.852 20.7578 119.203L21.7764 119.565L22.2891 119.784C23.5742 120.377 24.1689 121.256 24.0732 122.423C24.0231 122.983 23.834 123.469 23.5059 123.879C23.1777 124.285 22.7311 124.599 22.166 124.822C21.6055 125.046 21.0016 125.15 20.3545 125.137C19.7301 125.132 19.1582 125 18.6387 124.74C18.1237 124.476 17.7318 124.116 17.4629 123.66C17.194 123.204 17.0755 122.687 17.1074 122.108L18.3926 122.115C18.3516 122.708 18.5111 123.179 18.8711 123.53C19.2357 123.877 19.7484 124.054 20.4092 124.063C21.07 124.073 21.6146 123.929 22.043 123.633C22.4714 123.337 22.7197 122.938 22.7881 122.437ZM33.5479 116.127H30.4512L28.9131 125H27.6348L29.1729 116.127H26.0762L26.2676 115.047H33.7393L33.5479 116.127ZM38.7705 122.402H34.7373L33.377 125H32.0029L37.4102 115.047H38.5381L40.5068 125H39.2422L38.7705 122.402ZM35.3047 121.322H38.5791L37.752 116.681L35.3047 121.322ZM41.8877 125L43.6172 115.047L46.5361 115.054C47.5524 115.054 48.3135 115.282 48.8193 115.737C49.3252 116.193 49.5462 116.829 49.4824 117.645C49.4004 118.597 48.8011 119.315 47.6846 119.798C48.1312 119.971 48.4639 120.267 48.6826 120.687C48.9059 121.106 48.9971 121.568 48.9561 122.074C48.8877 122.972 48.5277 123.685 47.876 124.214C47.2243 124.738 46.3812 125 45.3467 125H41.8877ZM43.9795 120.345L43.3574 123.927L45.3877 123.934C46.0075 123.934 46.527 123.767 46.9463 123.435C47.3656 123.102 47.6094 122.653 47.6777 122.088C47.7415 121.55 47.6481 121.131 47.3975 120.83C47.1468 120.529 46.7526 120.37 46.2148 120.352L43.9795 120.345ZM44.1641 119.292L46.0166 119.299C46.5954 119.299 47.083 119.151 47.4795 118.854C47.8805 118.558 48.1152 118.15 48.1836 117.631C48.2428 117.148 48.1471 116.783 47.8965 116.537C47.6504 116.291 47.2402 116.157 46.666 116.134L44.7109 116.127L44.1641 119.292ZM51.8955 123.927H56.4756L56.2842 125H50.4189L52.1484 115.047H53.4404L51.8955 123.927ZM59.1758 125H57.8975L59.627 115.047H60.9053L59.1758 125ZM67.1533 122.437C67.2536 121.707 66.8753 121.174 66.0186 120.837L64.8359 120.406L64.4395 120.235C63.1087 119.629 62.4867 118.777 62.5732 117.679C62.6188 117.127 62.8079 116.64 63.1406 116.216C63.4733 115.792 63.9131 115.466 64.46 115.238C65.0114 115.006 65.597 114.896 66.2168 114.91C66.8184 114.924 67.3538 115.058 67.8232 115.313C68.2972 115.569 68.6572 115.926 68.9033 116.387C69.1494 116.842 69.2588 117.357 69.2314 117.932L67.9395 117.925C67.985 117.314 67.8483 116.842 67.5293 116.51C67.2103 116.173 66.7546 115.999 66.1621 115.99C65.5378 115.981 65.016 116.127 64.5967 116.428C64.1774 116.729 63.9359 117.139 63.8721 117.658C63.7809 118.337 64.1979 118.852 65.123 119.203L66.1416 119.565L66.6543 119.784C67.9395 120.377 68.5342 121.256 68.4385 122.423C68.3883 122.983 68.1992 123.469 67.8711 123.879C67.543 124.285 67.0964 124.599 66.5312 124.822C65.9707 125.046 65.3669 125.15 64.7197 125.137C64.0954 125.132 63.5234 125 63.0039 124.74C62.4889 124.476 62.097 124.116 61.8281 123.66C61.5592 123.204 61.4408 122.687 61.4727 122.108L62.7578 122.115C62.7168 122.708 62.8763 123.179 63.2363 123.53C63.6009 123.877 64.1136 124.054 64.7744 124.063C65.4352 124.073 65.9798 123.929 66.4082 123.633C66.8366 123.337 67.085 122.938 67.1533 122.437ZM77.127 125H75.8418L76.6416 120.399H71.7812L70.9814 125H69.6963L71.4258 115.047H72.7109L71.9658 119.326H76.8193L77.5645 115.047H78.8564L77.127 125ZM85.7129 120.399H81.5293L80.9141 123.927H85.7812L85.5898 125H79.4443L81.1738 115.047H87.251L87.0596 116.127H82.2676L81.7139 119.326H85.8975L85.7129 120.399ZM87.2373 125L88.9668 115.047L91.5508 115.054C92.362 115.054 93.0592 115.257 93.6426 115.662C94.2305 116.068 94.652 116.628 94.9072 117.344C95.1624 118.055 95.2376 118.852 95.1328 119.736L95.0645 120.235C94.8639 121.685 94.3011 122.842 93.376 123.708C92.4508 124.569 91.2887 125 89.8896 125H87.2373ZM90.0605 116.127L88.707 123.927L89.9717 123.934C90.9378 123.934 91.7559 123.633 92.4258 123.031C93.1003 122.43 93.5378 121.605 93.7383 120.557C93.8978 119.718 93.9525 119.005 93.9023 118.417C93.834 117.711 93.5993 117.159 93.1982 116.763C92.7972 116.362 92.2594 116.152 91.585 116.134L90.0605 116.127Z" fill="black"/>
<path d="M32.501 260.604H28.4541L27.6885 265H26.4033L28.1328 255.047H34.1211L33.9297 256.127H29.2266L28.6387 259.531H32.6924L32.501 260.604ZM35.3516 265H34.0732L35.8027 255.047H37.0811L35.3516 265ZM45.168 265H43.9238L40.3691 257.275L39.0293 265H37.7373L39.4668 255.047H40.7109L44.2725 262.806L45.6191 255.047H46.8975L45.168 265ZM50.5 261.288H47.2529L47.4375 260.256H50.6846L50.5 261.288ZM53.9453 261.931L53.918 263.134L54.3828 261.958L57.3564 255.047H58.4434L59.2295 262.047L59.2979 263.182L59.7285 261.808L62.2715 255.047H63.5908L59.6943 265H58.5254L57.6641 257.692L57.6367 257.009L57.3496 257.802L54.1777 265H53.0088L52.2295 255.047H53.4805L53.9453 261.931ZM68.9229 262.402H64.8896L63.5293 265H62.1553L67.5625 255.047H68.6904L70.6592 265H69.3945L68.9229 262.402ZM65.457 261.322H68.7314L67.9043 256.681L65.457 261.322ZM73.4141 265H72.1357L73.8652 255.047H75.1436L73.4141 265ZM83.8115 256.127H80.7148L79.1768 265H77.8984L79.4365 256.127H76.3398L76.5312 255.047H84.0029L83.8115 256.127ZM85.1992 261.288H81.9521L82.1367 260.256H85.3838L85.1992 261.288ZM89.7246 265H88.4805L89.9434 256.605L87.2979 257.535L87.5098 256.332L91.2012 254.999H91.4199L89.7246 265Z" fill="black"/>
<path d="M32.501 340.604H28.4541L27.6885 345H26.4033L28.1328 335.047H34.1211L33.9297 336.127H29.2266L28.6387 339.531H32.6924L32.501 340.604ZM35.3516 345H34.0732L35.8027 335.047H37.0811L35.3516 345ZM45.168 345H43.9238L40.3691 337.275L39.0293 345H37.7373L39.4668 335.047H40.7109L44.2725 342.806L45.6191 335.047H46.8975L45.168 345ZM50.5 341.288H47.2529L47.4375 340.256H50.6846L50.5 341.288ZM53.9453 341.931L53.918 343.134L54.3828 341.958L57.3564 335.047H58.4434L59.2295 342.047L59.2979 343.182L59.7285 341.808L62.2715 335.047H63.5908L59.6943 345H58.5254L57.6641 337.692L57.6367 337.009L57.3496 337.802L54.1777 345H53.0088L52.2295 335.047H53.4805L53.9453 341.931ZM68.9229 342.402H64.8896L63.5293 345H62.1553L67.5625 335.047H68.6904L70.6592 345H69.3945L68.9229 342.402ZM65.457 341.322H68.7314L67.9043 336.681L65.457 341.322ZM73.4141 345H72.1357L73.8652 335.047H75.1436L73.4141 345ZM83.8115 336.127H80.7148L79.1768 345H77.8984L79.4365 336.127H76.3398L76.5312 335.047H84.0029L83.8115 336.127ZM85.1992 341.288H81.9521L82.1367 340.256H85.3838L85.1992 341.288ZM92.0898 345H85.7529L85.9033 344.036L89.5742 340.468L90.2441 339.805C91.0143 339.035 91.4404 338.324 91.5225 337.672C91.5817 337.171 91.4837 336.763 91.2285 336.448C90.9733 336.129 90.6133 335.961 90.1484 335.942C89.5514 335.924 89.0524 336.1 88.6514 336.469C88.2503 336.833 88.0065 337.335 87.9199 337.973L86.6963 337.979C86.7555 337.369 86.9424 336.829 87.2568 336.359C87.5758 335.885 87.9928 335.523 88.5078 335.272C89.0273 335.017 89.5902 334.896 90.1963 334.91C91.0212 334.928 91.6751 335.179 92.1582 335.662C92.6458 336.141 92.8555 336.763 92.7871 337.528C92.7096 338.403 92.2061 339.324 91.2764 340.29L90.6475 340.926L87.4482 343.968H92.2539L92.0898 345Z" fill="black"/>
<path d="M34.6201 366.127H31.5234L29.9854 375H28.707L30.2451 366.127H27.1484L27.3398 365.047H34.8115L34.6201 366.127ZM35.9531 375H34.6748L36.4043 365.047H37.6826L35.9531 375ZM41.6885 365.047L43.4316 373.154L47.998 365.047H49.6865L47.957 375H46.6787L47.3623 371.062L48.1758 367.057L43.6641 375H42.6797L40.9023 366.899L40.2871 371.192L39.624 375H38.3389L40.0684 365.047H41.6885ZM56.5293 370.399H52.3457L51.7305 373.927H56.5977L56.4062 375H50.2607L51.9902 365.047H58.0674L57.876 366.127H53.084L52.5303 369.326H56.7139L56.5293 370.399ZM61.0684 371.288H57.8213L58.0059 370.256H61.2529L61.0684 371.288ZM64.5137 371.931L64.4863 373.134L64.9512 371.958L67.9248 365.047H69.0117L69.7979 372.047L69.8662 373.182L70.2969 371.808L72.8398 365.047H74.1592L70.2627 375H69.0938L68.2324 367.692L68.2051 367.009L67.918 367.802L64.7461 375H63.5771L62.7979 365.047H64.0488L64.5137 371.931ZM79.4912 372.402H75.458L74.0977 375H72.7236L78.1309 365.047H79.2588L81.2275 375H79.9629L79.4912 372.402ZM76.0254 371.322H79.2998L78.4727 366.681L76.0254 371.322ZM83.9824 375H82.7041L84.4336 365.047H85.7119L83.9824 375ZM94.3799 366.127H91.2832L89.7451 375H88.4668L90.0049 366.127H86.9082L87.0996 365.047H94.5713L94.3799 366.127Z" fill="black"/>
<path d="M285.672 159.399H281.488L280.873 162.927H285.74L285.549 164H279.403L281.133 154.047H287.21L287.019 155.127H282.227L281.673 158.326H285.856L285.672 159.399ZM292.788 161.437C292.888 160.707 292.51 160.174 291.653 159.837L290.471 159.406L290.074 159.235C288.743 158.629 288.121 157.777 288.208 156.679C288.254 156.127 288.443 155.64 288.775 155.216C289.108 154.792 289.548 154.466 290.095 154.238C290.646 154.006 291.232 153.896 291.852 153.91C292.453 153.924 292.989 154.058 293.458 154.313C293.932 154.569 294.292 154.926 294.538 155.387C294.784 155.842 294.894 156.357 294.866 156.932L293.574 156.925C293.62 156.314 293.483 155.842 293.164 155.51C292.845 155.173 292.389 154.999 291.797 154.99C291.173 154.981 290.651 155.127 290.231 155.428C289.812 155.729 289.571 156.139 289.507 156.658C289.416 157.337 289.833 157.852 290.758 158.203L291.776 158.565L292.289 158.784C293.574 159.377 294.169 160.256 294.073 161.423C294.023 161.983 293.834 162.469 293.506 162.879C293.178 163.285 292.731 163.599 292.166 163.822C291.605 164.046 291.002 164.15 290.354 164.137C289.73 164.132 289.158 164 288.639 163.74C288.124 163.476 287.732 163.116 287.463 162.66C287.194 162.204 287.076 161.687 287.107 161.108L288.393 161.115C288.352 161.708 288.511 162.179 288.871 162.53C289.236 162.877 289.748 163.054 290.409 163.063C291.07 163.073 291.615 162.929 292.043 162.633C292.471 162.337 292.72 161.938 292.788 161.437ZM303.548 155.127H300.451L298.913 164H297.635L299.173 155.127H296.076L296.268 154.047H303.739L303.548 155.127ZM308.771 161.402H304.737L303.377 164H302.003L307.41 154.047H308.538L310.507 164H309.242L308.771 161.402ZM305.305 160.322H308.579L307.752 155.681L305.305 160.322ZM311.888 164L313.617 154.047L316.536 154.054C317.552 154.054 318.313 154.282 318.819 154.737C319.325 155.193 319.546 155.829 319.482 156.645C319.4 157.597 318.801 158.315 317.685 158.798C318.131 158.971 318.464 159.267 318.683 159.687C318.906 160.106 318.997 160.568 318.956 161.074C318.888 161.972 318.528 162.685 317.876 163.214C317.224 163.738 316.381 164 315.347 164H311.888ZM313.979 159.345L313.357 162.927L315.388 162.934C316.007 162.934 316.527 162.767 316.946 162.435C317.366 162.102 317.609 161.653 317.678 161.088C317.742 160.55 317.648 160.131 317.397 159.83C317.147 159.529 316.753 159.37 316.215 159.352L313.979 159.345ZM314.164 158.292L316.017 158.299C316.595 158.299 317.083 158.151 317.479 157.854C317.881 157.558 318.115 157.15 318.184 156.631C318.243 156.148 318.147 155.783 317.896 155.537C317.65 155.291 317.24 155.157 316.666 155.134L314.711 155.127L314.164 158.292ZM321.896 162.927H326.476L326.284 164H320.419L322.148 154.047H323.44L321.896 162.927ZM329.176 164H327.897L329.627 154.047H330.905L329.176 164ZM337.153 161.437C337.254 160.707 336.875 160.174 336.019 159.837L334.836 159.406L334.439 159.235C333.109 158.629 332.487 157.777 332.573 156.679C332.619 156.127 332.808 155.64 333.141 155.216C333.473 154.792 333.913 154.466 334.46 154.238C335.011 154.006 335.597 153.896 336.217 153.91C336.818 153.924 337.354 154.058 337.823 154.313C338.297 154.569 338.657 154.926 338.903 155.387C339.149 155.842 339.259 156.357 339.231 156.932L337.939 156.925C337.985 156.314 337.848 155.842 337.529 155.51C337.21 155.173 336.755 154.999 336.162 154.99C335.538 154.981 335.016 155.127 334.597 155.428C334.177 155.729 333.936 156.139 333.872 156.658C333.781 157.337 334.198 157.852 335.123 158.203L336.142 158.565L336.654 158.784C337.939 159.377 338.534 160.256 338.438 161.423C338.388 161.983 338.199 162.469 337.871 162.879C337.543 163.285 337.096 163.599 336.531 163.822C335.971 164.046 335.367 164.15 334.72 164.137C334.095 164.132 333.523 164 333.004 163.74C332.489 163.476 332.097 163.116 331.828 162.66C331.559 162.204 331.441 161.687 331.473 161.108L332.758 161.115C332.717 161.708 332.876 162.179 333.236 162.53C333.601 162.877 334.114 163.054 334.774 163.063C335.435 163.073 335.98 162.929 336.408 162.633C336.837 162.337 337.085 161.938 337.153 161.437ZM347.127 164H345.842L346.642 159.399H341.781L340.981 164H339.696L341.426 154.047H342.711L341.966 158.326H346.819L347.564 154.047H348.856L347.127 164ZM355.713 159.399H351.529L350.914 162.927H355.781L355.59 164H349.444L351.174 154.047H357.251L357.06 155.127H352.268L351.714 158.326H355.897L355.713 159.399ZM357.237 164L358.967 154.047L361.551 154.054C362.362 154.054 363.059 154.257 363.643 154.662C364.23 155.068 364.652 155.628 364.907 156.344C365.162 157.055 365.238 157.852 365.133 158.736L365.064 159.235C364.864 160.685 364.301 161.842 363.376 162.708C362.451 163.569 361.289 164 359.89 164H357.237ZM360.061 155.127L358.707 162.927L359.972 162.934C360.938 162.934 361.756 162.633 362.426 162.031C363.1 161.43 363.538 160.605 363.738 159.557C363.898 158.718 363.952 158.005 363.902 157.417C363.834 156.711 363.599 156.159 363.198 155.763C362.797 155.362 362.259 155.152 361.585 155.134L360.061 155.127Z" fill="black"/>
<path d="M286.991 310.828C286.8 311.858 286.333 312.674 285.59 313.275C284.852 313.877 283.965 314.164 282.931 314.137C282.315 314.123 281.778 313.973 281.317 313.686C280.857 313.394 280.499 312.977 280.244 312.435C279.989 311.888 279.848 311.284 279.82 310.623C279.802 310.249 279.818 309.885 279.868 309.529L279.984 308.709C280.199 307.214 280.723 306.036 281.557 305.175C282.395 304.309 283.414 303.887 284.612 303.91C285.547 303.928 286.287 304.231 286.834 304.819C287.381 305.403 287.67 306.214 287.702 307.253H286.424C286.365 305.858 285.818 305.106 284.783 304.997L284.558 304.983C283.696 304.961 282.976 305.282 282.397 305.947C281.823 306.608 281.452 307.513 281.283 308.661L281.133 309.693L281.092 310.295C281.064 311.133 281.213 311.801 281.536 312.298C281.864 312.79 282.35 313.045 282.992 313.063C283.685 313.086 284.257 312.92 284.708 312.564C285.164 312.209 285.51 311.637 285.747 310.849L286.991 310.828ZM289.794 312.927H294.374L294.183 314H288.317L290.047 304.047H291.339L289.794 312.927ZM298.899 314.137C298.266 314.123 297.715 313.97 297.245 313.679C296.78 313.387 296.413 312.959 296.145 312.394C295.876 311.824 295.728 311.186 295.7 310.479C295.673 309.928 295.734 309.247 295.885 308.436C296.035 307.624 296.295 306.893 296.664 306.241C297.033 305.59 297.482 305.068 298.011 304.676C298.726 304.147 299.542 303.892 300.458 303.91C301.429 303.928 302.194 304.266 302.755 304.922C303.315 305.574 303.616 306.458 303.657 307.574C303.675 308.053 303.625 308.661 303.507 309.399C303.393 310.138 303.186 310.824 302.885 311.457C302.589 312.09 302.21 312.621 301.75 313.05C300.948 313.797 299.998 314.16 298.899 314.137ZM302.393 307.889C302.42 306.991 302.263 306.296 301.921 305.804C301.579 305.307 301.071 305.049 300.396 305.031C299.786 305.013 299.239 305.177 298.756 305.523C298.277 305.87 297.883 306.389 297.573 307.082C297.268 307.77 297.074 308.643 296.992 309.7L296.972 310.145C296.944 311.038 297.104 311.737 297.45 312.243C297.797 312.749 298.3 313.011 298.961 313.029C299.822 313.052 300.535 312.742 301.101 312.1C301.67 311.452 302.049 310.546 302.235 309.379C302.326 308.805 302.379 308.308 302.393 307.889ZM310.247 311.437C310.347 310.707 309.969 310.174 309.112 309.837L307.93 309.406L307.533 309.235C306.202 308.629 305.58 307.777 305.667 306.679C305.713 306.127 305.902 305.64 306.234 305.216C306.567 304.792 307.007 304.466 307.554 304.238C308.105 304.006 308.691 303.896 309.311 303.91C309.912 303.924 310.448 304.058 310.917 304.313C311.391 304.569 311.751 304.926 311.997 305.387C312.243 305.842 312.353 306.357 312.325 306.932L311.033 306.925C311.079 306.314 310.942 305.842 310.623 305.51C310.304 305.173 309.848 304.999 309.256 304.99C308.632 304.981 308.11 305.127 307.69 305.428C307.271 305.729 307.03 306.139 306.966 306.658C306.875 307.337 307.292 307.852 308.217 308.203L309.235 308.565L309.748 308.784C311.033 309.377 311.628 310.256 311.532 311.423C311.482 311.983 311.293 312.469 310.965 312.879C310.637 313.285 310.19 313.599 309.625 313.822C309.064 314.046 308.461 314.15 307.813 314.137C307.189 314.132 306.617 314 306.098 313.74C305.583 313.476 305.191 313.116 304.922 312.66C304.653 312.204 304.535 311.687 304.566 311.108L305.852 311.115C305.811 311.708 305.97 312.179 306.33 312.53C306.695 312.877 307.207 313.054 307.868 313.063C308.529 313.073 309.074 312.929 309.502 312.633C309.93 312.337 310.179 311.938 310.247 311.437ZM319.059 309.399H314.875L314.26 312.927H319.127L318.936 314H312.79L314.52 304.047H320.597L320.405 305.127H315.613L315.06 308.326H319.243L319.059 309.399ZM323.598 310.288H320.351L320.535 309.256H323.782L323.598 310.288ZM327.043 310.931L327.016 312.134L327.48 310.958L330.454 304.047H331.541L332.327 311.047L332.396 312.182L332.826 310.808L335.369 304.047H336.688L332.792 314H331.623L330.762 306.692L330.734 306.009L330.447 306.802L327.275 314H326.106L325.327 304.047H326.578L327.043 310.931ZM342.021 311.402H337.987L336.627 314H335.253L340.66 304.047H341.788L343.757 314H342.492L342.021 311.402ZM338.555 310.322H341.829L341.002 305.681L338.555 310.322ZM346.512 314H345.233L346.963 304.047H348.241L346.512 314ZM356.909 305.127H353.812L352.274 314H350.996L352.534 305.127H349.438L349.629 304.047H357.101L356.909 305.127Z" fill="black"/>
<path d="M280.88 343.927H285.46L285.269 345H279.403L281.133 335.047H282.425L280.88 343.927ZM292.733 342.402H288.7L287.34 345H285.966L291.373 335.047H292.501L294.47 345H293.205L292.733 342.402ZM289.268 341.322H292.542L291.715 336.681L289.268 341.322ZM301.442 342.437C301.543 341.707 301.164 341.174 300.308 340.837L299.125 340.406L298.729 340.235C297.398 339.629 296.776 338.777 296.862 337.679C296.908 337.127 297.097 336.64 297.43 336.216C297.762 335.792 298.202 335.466 298.749 335.238C299.3 335.006 299.886 334.896 300.506 334.91C301.107 334.924 301.643 335.058 302.112 335.313C302.586 335.569 302.946 335.926 303.192 336.387C303.438 336.842 303.548 337.357 303.521 337.932L302.229 337.925C302.274 337.314 302.137 336.842 301.818 336.51C301.499 336.173 301.044 335.999 300.451 335.99C299.827 335.981 299.305 336.127 298.886 336.428C298.466 336.729 298.225 337.139 298.161 337.658C298.07 338.337 298.487 338.852 299.412 339.203L300.431 339.565L300.943 339.784C302.229 340.377 302.823 341.256 302.728 342.423C302.677 342.983 302.488 343.469 302.16 343.879C301.832 344.285 301.385 344.599 300.82 344.822C300.26 345.046 299.656 345.15 299.009 345.137C298.384 345.132 297.812 345 297.293 344.74C296.778 344.476 296.386 344.116 296.117 343.66C295.848 343.204 295.73 342.687 295.762 342.108L297.047 342.115C297.006 342.708 297.165 343.179 297.525 343.53C297.89 343.877 298.403 344.054 299.063 344.063C299.724 344.073 300.269 343.929 300.697 343.633C301.126 343.337 301.374 342.938 301.442 342.437ZM312.202 336.127H309.105L307.567 345H306.289L307.827 336.127H304.73L304.922 335.047H312.394L312.202 336.127ZM313.59 341.288H310.343L310.527 340.256H313.774L313.59 341.288ZM320.2 342.402H316.167L314.807 345H313.433L318.84 335.047H319.968L321.937 345H320.672L320.2 342.402ZM316.734 341.322H320.009L319.182 336.681L316.734 341.322ZM330.823 341.828C330.632 342.858 330.165 343.674 329.422 344.275C328.684 344.877 327.797 345.164 326.763 345.137C326.147 345.123 325.61 344.973 325.149 344.686C324.689 344.394 324.331 343.977 324.076 343.435C323.821 342.888 323.68 342.284 323.652 341.623C323.634 341.249 323.65 340.885 323.7 340.529L323.816 339.709C324.031 338.214 324.555 337.036 325.389 336.175C326.227 335.309 327.246 334.887 328.444 334.91C329.379 334.928 330.119 335.231 330.666 335.819C331.213 336.403 331.502 337.214 331.534 338.253H330.256C330.197 336.858 329.65 336.106 328.615 335.997L328.39 335.983C327.528 335.961 326.808 336.282 326.229 336.947C325.655 337.608 325.284 338.513 325.115 339.661L324.965 340.693L324.924 341.295C324.896 342.133 325.045 342.801 325.368 343.298C325.696 343.79 326.182 344.045 326.824 344.063C327.517 344.086 328.089 343.92 328.54 343.564C328.996 343.209 329.342 342.637 329.579 341.849L330.823 341.828ZM335.465 340.386L334.009 341.691L333.435 345H332.149L333.879 335.047H335.164L334.316 339.894L339.389 335.047H341.043L336.415 339.504L339.512 345H338.083L335.465 340.386Z" fill="black"/>
<path d="M286.991 421.828C286.8 422.858 286.333 423.674 285.59 424.275C284.852 424.877 283.965 425.164 282.931 425.137C282.315 425.123 281.778 424.973 281.317 424.686C280.857 424.394 280.499 423.977 280.244 423.435C279.989 422.888 279.848 422.284 279.82 421.623C279.802 421.249 279.818 420.885 279.868 420.529L279.984 419.709C280.199 418.214 280.723 417.036 281.557 416.175C282.395 415.309 283.414 414.887 284.612 414.91C285.547 414.928 286.287 415.231 286.834 415.819C287.381 416.403 287.67 417.214 287.702 418.253H286.424C286.365 416.858 285.818 416.106 284.783 415.997L284.558 415.983C283.696 415.961 282.976 416.282 282.397 416.947C281.823 417.608 281.452 418.513 281.283 419.661L281.133 420.693L281.092 421.295C281.064 422.133 281.213 422.801 281.536 423.298C281.864 423.79 282.35 424.045 282.992 424.063C283.685 424.086 284.257 423.92 284.708 423.564C285.164 423.209 285.51 422.637 285.747 421.849L286.991 421.828ZM289.794 423.927H294.374L294.183 425H288.317L290.047 415.047H291.339L289.794 423.927ZM298.899 425.137C298.266 425.123 297.715 424.97 297.245 424.679C296.78 424.387 296.413 423.959 296.145 423.394C295.876 422.824 295.728 422.186 295.7 421.479C295.673 420.928 295.734 420.247 295.885 419.436C296.035 418.624 296.295 417.893 296.664 417.241C297.033 416.59 297.482 416.068 298.011 415.676C298.726 415.147 299.542 414.892 300.458 414.91C301.429 414.928 302.194 415.266 302.755 415.922C303.315 416.574 303.616 417.458 303.657 418.574C303.675 419.053 303.625 419.661 303.507 420.399C303.393 421.138 303.186 421.824 302.885 422.457C302.589 423.09 302.21 423.621 301.75 424.05C300.948 424.797 299.998 425.16 298.899 425.137ZM302.393 418.889C302.42 417.991 302.263 417.296 301.921 416.804C301.579 416.307 301.071 416.049 300.396 416.031C299.786 416.013 299.239 416.177 298.756 416.523C298.277 416.87 297.883 417.389 297.573 418.082C297.268 418.77 297.074 419.643 296.992 420.7L296.972 421.145C296.944 422.038 297.104 422.737 297.45 423.243C297.797 423.749 298.3 424.011 298.961 424.029C299.822 424.052 300.535 423.742 301.101 423.1C301.67 422.452 302.049 421.546 302.235 420.379C302.326 419.805 302.379 419.308 302.393 418.889ZM310.247 422.437C310.347 421.707 309.969 421.174 309.112 420.837L307.93 420.406L307.533 420.235C306.202 419.629 305.58 418.777 305.667 417.679C305.713 417.127 305.902 416.64 306.234 416.216C306.567 415.792 307.007 415.466 307.554 415.238C308.105 415.006 308.691 414.896 309.311 414.91C309.912 414.924 310.448 415.058 310.917 415.313C311.391 415.569 311.751 415.926 311.997 416.387C312.243 416.842 312.353 417.357 312.325 417.932L311.033 417.925C311.079 417.314 310.942 416.842 310.623 416.51C310.304 416.173 309.848 415.999 309.256 415.99C308.632 415.981 308.11 416.127 307.69 416.428C307.271 416.729 307.03 417.139 306.966 417.658C306.875 418.337 307.292 418.852 308.217 419.203L309.235 419.565L309.748 419.784C311.033 420.377 311.628 421.256 311.532 422.423C311.482 422.983 311.293 423.469 310.965 423.879C310.637 424.285 310.19 424.599 309.625 424.822C309.064 425.046 308.461 425.15 307.813 425.137C307.189 425.132 306.617 425 306.098 424.74C305.583 424.476 305.191 424.116 304.922 423.66C304.653 423.204 304.535 422.687 304.566 422.108L305.852 422.115C305.811 422.708 305.97 423.179 306.33 423.53C306.695 423.877 307.207 424.054 307.868 424.063C308.529 424.073 309.074 423.929 309.502 423.633C309.93 423.337 310.179 422.938 310.247 422.437ZM319.059 420.399H314.875L314.26 423.927H319.127L318.936 425H312.79L314.52 415.047H320.597L320.405 416.127H315.613L315.06 419.326H319.243L319.059 420.399ZM320.583 425L322.312 415.047L324.896 415.054C325.708 415.054 326.405 415.257 326.988 415.662C327.576 416.068 327.998 416.628 328.253 417.344C328.508 418.055 328.583 418.852 328.479 419.736L328.41 420.235C328.21 421.685 327.647 422.842 326.722 423.708C325.797 424.569 324.634 425 323.235 425H320.583ZM323.406 416.127L322.053 423.927L323.317 423.934C324.284 423.934 325.102 423.633 325.771 423.031C326.446 422.43 326.883 421.605 327.084 420.557C327.243 419.718 327.298 419.005 327.248 418.417C327.18 417.711 326.945 417.159 326.544 416.763C326.143 416.362 325.605 416.152 324.931 416.134L323.406 416.127Z" fill="black"/>
<path d="M49.9912 421.828C49.7998 422.858 49.3327 423.674 48.5898 424.275C47.8516 424.877 46.9652 425.164 45.9307 425.137C45.3154 425.123 44.7777 424.973 44.3174 424.686C43.8571 424.394 43.4993 423.977 43.2441 423.435C42.9889 422.888 42.8477 422.284 42.8203 421.623C42.8021 421.249 42.818 420.885 42.8682 420.529L42.9844 419.709C43.1986 418.214 43.7227 417.036 44.5566 416.175C45.3952 415.309 46.4137 414.887 47.6123 414.91C48.5465 414.928 49.2871 415.231 49.834 415.819C50.3809 416.403 50.6702 417.214 50.7021 418.253H49.4238C49.3646 416.858 48.8177 416.106 47.7832 415.997L47.5576 415.983C46.6963 415.961 45.9762 416.282 45.3975 416.947C44.8232 417.608 44.4518 418.513 44.2832 419.661L44.1328 420.693L44.0918 421.295C44.0645 422.133 44.2126 422.801 44.5361 423.298C44.8643 423.79 45.3496 424.045 45.9922 424.063C46.6849 424.086 47.2568 423.92 47.708 423.564C48.1637 423.209 48.5101 422.637 48.7471 421.849L49.9912 421.828ZM52.7939 423.927H57.374L57.1826 425H51.3174L53.0469 415.047H54.3389L52.7939 423.927ZM61.8994 425.137C61.266 425.123 60.7145 424.97 60.2451 424.679C59.7803 424.387 59.4134 423.959 59.1445 423.394C58.8757 422.824 58.7275 422.186 58.7002 421.479C58.6729 420.928 58.7344 420.247 58.8848 419.436C59.0352 418.624 59.2949 417.893 59.6641 417.241C60.0332 416.59 60.4821 416.068 61.0107 415.676C61.7262 415.147 62.542 414.892 63.458 414.91C64.4287 414.928 65.1943 415.266 65.7549 415.922C66.3154 416.574 66.6162 417.458 66.6572 418.574C66.6755 419.053 66.6253 419.661 66.5068 420.399C66.3929 421.138 66.1855 421.824 65.8848 422.457C65.5885 423.09 65.2103 423.621 64.75 424.05C63.9479 424.797 62.9977 425.16 61.8994 425.137ZM65.3926 418.889C65.4199 417.991 65.2627 417.296 64.9209 416.804C64.5791 416.307 64.071 416.049 63.3965 416.031C62.7858 416.013 62.2389 416.177 61.7559 416.523C61.2773 416.87 60.8831 417.389 60.5732 418.082C60.2679 418.77 60.0742 419.643 59.9922 420.7L59.9717 421.145C59.9443 422.038 60.1038 422.737 60.4502 423.243C60.7965 423.749 61.3001 424.011 61.9609 424.029C62.8223 424.052 63.5355 423.742 64.1006 423.1C64.6702 422.452 65.0485 421.546 65.2354 420.379C65.3265 419.805 65.3789 419.308 65.3926 418.889ZM73.2471 422.437C73.3473 421.707 72.9691 421.174 72.1123 420.837L70.9297 420.406L70.5332 420.235C69.2025 419.629 68.5804 418.777 68.667 417.679C68.7126 417.127 68.9017 416.64 69.2344 416.216C69.5671 415.792 70.0068 415.466 70.5537 415.238C71.1051 415.006 71.6908 414.896 72.3105 414.91C72.9121 414.924 73.4476 415.058 73.917 415.313C74.391 415.569 74.751 415.926 74.9971 416.387C75.2432 416.842 75.3525 417.357 75.3252 417.932L74.0332 417.925C74.0788 417.314 73.9421 416.842 73.623 416.51C73.304 416.173 72.8483 415.999 72.2559 415.99C71.6315 415.981 71.1097 416.127 70.6904 416.428C70.2712 416.729 70.0296 417.139 69.9658 417.658C69.8747 418.337 70.2917 418.852 71.2168 419.203L72.2354 419.565L72.748 419.784C74.0332 420.377 74.6279 421.256 74.5322 422.423C74.4821 422.983 74.293 423.469 73.9648 423.879C73.6367 424.285 73.1901 424.599 72.625 424.822C72.0645 425.046 71.4606 425.15 70.8135 425.137C70.1891 425.132 69.6172 425 69.0977 424.74C68.5827 424.476 68.1908 424.116 67.9219 423.66C67.653 423.204 67.5345 422.687 67.5664 422.108L68.8516 422.115C68.8105 422.708 68.9701 423.179 69.3301 423.53C69.6947 423.877 70.2074 424.054 70.8682 424.063C71.529 424.073 72.0736 423.929 72.502 423.633C72.9303 423.337 73.1787 422.938 73.2471 422.437ZM82.0586 420.399H77.875L77.2598 423.927H82.127L81.9355 425H75.79L77.5195 415.047H83.5967L83.4053 416.127H78.6133L78.0596 419.326H82.2432L82.0586 420.399ZM83.583 425L85.3125 415.047L87.8965 415.054C88.7077 415.054 89.4049 415.257 89.9883 415.662C90.5762 416.068 90.9977 416.628 91.2529 417.344C91.5081 418.055 91.5833 418.852 91.4785 419.736L91.4102 420.235C91.2096 421.685 90.6468 422.842 89.7217 423.708C88.7965 424.569 87.6344 425 86.2354 425H83.583ZM86.4062 416.127L85.0527 423.927L86.3174 423.934C87.2835 423.934 88.1016 423.633 88.7715 423.031C89.446 422.43 89.8835 421.605 90.084 420.557C90.2435 419.718 90.2982 419.005 90.248 418.417C90.1797 417.711 89.945 417.159 89.5439 416.763C89.1429 416.362 88.6051 416.152 87.9307 416.134L86.4062 416.127Z" fill="black"/>
</g>
<defs>
<linearGradient id="paint0_linear" x1="50.5" y1="18" x2="50.5" y2="435" gradientUnits="userSpaceOnUse">
<stop stop-color="#FF0000"/>
<stop offset="0.15625" stop-color="#FAFF00"/>
<stop offset="0.552083" stop-color="#06FF1F"/>
<stop offset="0.869792" stop-color="#FAFF00"/>
<stop offset="1" stop-color="#FF0000"/>
</linearGradient>
<linearGradient id="paint1_linear" x1="321.5" y1="18" x2="321.5" y2="435" gradientUnits="userSpaceOnUse">
<stop offset="0.0677083" stop-color="#FAFF00"/>
<stop offset="0.598958" stop-color="#06FF1F"/>
<stop offset="0.8125" stop-color="#FAFF00"/>
<stop offset="1" stop-color="#FF0000"/>
</linearGradient>
<clipPath id="clip0">
<rect width="372" height="435" fill="white"/>
</clipPath>
</defs>
</svg>
