<svg width="776" height="617" viewBox="0 0 776 617" fill="none" xmlns="http://www.w3.org/2000/svg">
<rect width="776" height="617" fill="white"/>
<rect x="119.5" y="100.5" width="79" height="49" stroke="black"/>
<rect x="199.5" y="100.5" width="159" height="49" stroke="black"/>
<rect x="359.5" y="100.5" width="399" height="49" stroke="black"/>
<rect x="119.5" y="150.5" width="319" height="49" stroke="black"/>
<rect x="439.5" y="150.5" width="159" height="49" stroke="black"/>
<rect x="598.5" y="150.5" width="159" height="49" stroke="black"/>
<rect x="119.5" y="200.5" width="639" height="199" stroke="black"/>
<rect x="120" y="101" width="638" height="498" stroke="black" stroke-width="2"/>
<path d="M132.871 127.827L135.771 118.203H138.707L134.251 131H131.5L127.062 118.203H129.988L132.871 127.827ZM143.743 131.176C142.349 131.176 141.212 130.748 140.333 129.893C139.46 129.037 139.023 127.897 139.023 126.474V126.228C139.023 125.272 139.208 124.42 139.577 123.67C139.946 122.914 140.468 122.334 141.142 121.93C141.821 121.52 142.595 121.314 143.462 121.314C144.763 121.314 145.785 121.725 146.529 122.545C147.279 123.365 147.654 124.528 147.654 126.034V127.071H141.599C141.681 127.692 141.927 128.19 142.337 128.565C142.753 128.94 143.277 129.128 143.91 129.128C144.889 129.128 145.653 128.773 146.204 128.064L147.452 129.462C147.071 130.001 146.556 130.423 145.905 130.728C145.255 131.026 144.534 131.176 143.743 131.176ZM143.453 123.371C142.949 123.371 142.539 123.541 142.223 123.881C141.912 124.221 141.713 124.707 141.625 125.34H145.158V125.138C145.146 124.575 144.994 124.142 144.701 123.837C144.408 123.526 143.992 123.371 143.453 123.371ZM154.448 123.872C154.103 123.825 153.798 123.802 153.534 123.802C152.573 123.802 151.943 124.127 151.645 124.777V131H149.104V121.49H151.504L151.574 122.624C152.084 121.751 152.79 121.314 153.692 121.314C153.974 121.314 154.237 121.353 154.483 121.429L154.448 123.872ZM160.829 128.372C160.829 128.062 160.674 127.818 160.363 127.643C160.059 127.461 159.566 127.3 158.887 127.159C156.625 126.685 155.494 125.724 155.494 124.276C155.494 123.433 155.843 122.729 156.54 122.167C157.243 121.599 158.16 121.314 159.291 121.314C160.498 121.314 161.462 121.599 162.183 122.167C162.909 122.735 163.272 123.474 163.272 124.382H160.732C160.732 124.019 160.615 123.72 160.381 123.485C160.146 123.245 159.78 123.125 159.282 123.125C158.854 123.125 158.523 123.222 158.289 123.415C158.055 123.608 157.938 123.854 157.938 124.153C157.938 124.435 158.069 124.663 158.333 124.839C158.603 125.009 159.054 125.158 159.687 125.287C160.319 125.41 160.853 125.551 161.286 125.709C162.628 126.201 163.299 127.054 163.299 128.267C163.299 129.134 162.927 129.837 162.183 130.376C161.438 130.909 160.478 131.176 159.3 131.176C158.503 131.176 157.794 131.035 157.173 130.754C156.558 130.467 156.074 130.077 155.723 129.585C155.371 129.087 155.195 128.551 155.195 127.977H157.604C157.627 128.428 157.794 128.773 158.104 129.014C158.415 129.254 158.831 129.374 159.353 129.374C159.839 129.374 160.205 129.283 160.451 129.102C160.703 128.914 160.829 128.671 160.829 128.372ZM167.623 131H165.074V121.49H167.623V131ZM164.925 119.029C164.925 118.648 165.051 118.335 165.303 118.089C165.561 117.843 165.909 117.72 166.349 117.72C166.782 117.72 167.128 117.843 167.386 118.089C167.644 118.335 167.772 118.648 167.772 119.029C167.772 119.416 167.641 119.732 167.377 119.979C167.119 120.225 166.776 120.348 166.349 120.348C165.921 120.348 165.575 120.225 165.312 119.979C165.054 119.732 164.925 119.416 164.925 119.029ZM169.328 126.157C169.328 125.214 169.51 124.373 169.873 123.635C170.236 122.896 170.758 122.325 171.438 121.921C172.123 121.517 172.917 121.314 173.819 121.314C175.103 121.314 176.148 121.707 176.957 122.492C177.771 123.277 178.226 124.344 178.319 125.691L178.337 126.342C178.337 127.801 177.93 128.973 177.115 129.857C176.301 130.736 175.208 131.176 173.837 131.176C172.466 131.176 171.37 130.736 170.55 129.857C169.735 128.979 169.328 127.783 169.328 126.271V126.157ZM171.868 126.342C171.868 127.244 172.038 127.936 172.378 128.416C172.718 128.891 173.204 129.128 173.837 129.128C174.452 129.128 174.933 128.894 175.278 128.425C175.624 127.95 175.797 127.194 175.797 126.157C175.797 125.272 175.624 124.587 175.278 124.101C174.933 123.614 174.446 123.371 173.819 123.371C173.198 123.371 172.718 123.614 172.378 124.101C172.038 124.581 171.868 125.328 171.868 126.342ZM182.239 121.49L182.318 122.589C182.998 121.739 183.909 121.314 185.052 121.314C186.06 121.314 186.81 121.61 187.302 122.202C187.794 122.794 188.046 123.679 188.058 124.856V131H185.518V124.918C185.518 124.379 185.4 123.989 185.166 123.749C184.932 123.503 184.542 123.38 183.997 123.38C183.282 123.38 182.746 123.685 182.389 124.294V131H179.849V121.49H182.239Z" fill="black"/>
<path d="M238.775 120.339H234.855V131H232.219V120.339H228.352V118.203H238.775V120.339ZM244.884 123.872C244.538 123.825 244.233 123.802 243.97 123.802C243.009 123.802 242.379 124.127 242.08 124.777V131H239.54V121.49H241.939L242.01 122.624C242.52 121.751 243.226 121.314 244.128 121.314C244.409 121.314 244.673 121.353 244.919 121.429L244.884 123.872ZM251.361 131C251.244 130.771 251.159 130.487 251.106 130.147C250.491 130.833 249.691 131.176 248.707 131.176C247.775 131.176 247.002 130.906 246.387 130.367C245.777 129.828 245.473 129.148 245.473 128.328C245.473 127.32 245.845 126.547 246.589 126.008C247.339 125.469 248.42 125.196 249.832 125.19H251.001V124.646C251.001 124.206 250.887 123.854 250.658 123.591C250.436 123.327 250.081 123.195 249.595 123.195C249.167 123.195 248.83 123.298 248.584 123.503C248.344 123.708 248.224 123.989 248.224 124.347H245.684C245.684 123.796 245.854 123.286 246.193 122.817C246.533 122.349 247.014 121.982 247.635 121.719C248.256 121.449 248.953 121.314 249.727 121.314C250.898 121.314 251.827 121.61 252.513 122.202C253.204 122.788 253.55 123.614 253.55 124.681V128.803C253.556 129.705 253.682 130.388 253.928 130.851V131H251.361ZM249.261 129.233C249.636 129.233 249.981 129.151 250.298 128.987C250.614 128.817 250.849 128.592 251.001 128.311V126.676H250.052C248.78 126.676 248.104 127.115 248.021 127.994L248.013 128.144C248.013 128.46 248.124 128.721 248.347 128.926C248.569 129.131 248.874 129.233 249.261 129.233ZM256.195 131V123.354H254.78V121.49H256.195V120.682C256.195 119.615 256.5 118.789 257.109 118.203C257.725 117.611 258.583 117.315 259.685 117.315C260.036 117.315 260.467 117.374 260.977 117.491L260.95 119.46C260.739 119.407 260.481 119.381 260.177 119.381C259.222 119.381 258.744 119.829 258.744 120.726V121.49H261.873V121.051C261.885 119.855 262.251 118.936 262.972 118.291C263.698 117.641 264.721 117.315 266.039 117.315C266.824 117.315 267.788 117.488 268.931 117.834L268.562 119.935C267.987 119.765 267.539 119.656 267.217 119.609C266.9 119.557 266.561 119.53 266.197 119.53C265.014 119.53 264.422 120.055 264.422 121.104V121.49H266.294V123.354H264.422V131H261.873V123.354H258.744V131H256.195ZM270.108 131H267.56V121.49H270.108V131ZM276.173 129.128C276.642 129.128 277.022 128.999 277.315 128.741C277.608 128.483 277.761 128.141 277.772 127.713H280.154C280.148 128.357 279.973 128.949 279.627 129.488C279.281 130.021 278.807 130.438 278.203 130.736C277.605 131.029 276.943 131.176 276.217 131.176C274.857 131.176 273.785 130.745 273 129.884C272.215 129.017 271.822 127.821 271.822 126.298V126.131C271.822 124.666 272.212 123.497 272.991 122.624C273.771 121.751 274.84 121.314 276.199 121.314C277.389 121.314 278.341 121.654 279.056 122.334C279.776 123.008 280.143 123.907 280.154 125.032H277.772C277.761 124.54 277.608 124.142 277.315 123.837C277.022 123.526 276.636 123.371 276.155 123.371C275.563 123.371 275.115 123.588 274.811 124.021C274.512 124.449 274.362 125.146 274.362 126.113V126.377C274.362 127.355 274.512 128.059 274.811 128.486C275.109 128.914 275.563 129.128 276.173 129.128ZM296.3 126.737C296.2 128.114 295.69 129.198 294.771 129.989C293.856 130.78 292.649 131.176 291.149 131.176C289.509 131.176 288.217 130.625 287.273 129.523C286.336 128.416 285.867 126.898 285.867 124.971V124.188C285.867 122.958 286.084 121.874 286.518 120.937C286.951 119.999 287.569 119.281 288.372 118.783C289.181 118.279 290.118 118.027 291.185 118.027C292.661 118.027 293.851 118.423 294.753 119.214C295.655 120.005 296.177 121.115 296.317 122.545H293.681C293.616 121.719 293.385 121.121 292.986 120.752C292.594 120.377 291.993 120.189 291.185 120.189C290.306 120.189 289.646 120.506 289.207 121.139C288.773 121.766 288.551 122.741 288.539 124.065V125.032C288.539 126.415 288.747 127.426 289.163 128.064C289.585 128.703 290.247 129.022 291.149 129.022C291.964 129.022 292.57 128.838 292.969 128.469C293.373 128.094 293.604 127.517 293.663 126.737H296.3ZM300.545 131H297.996V117.5H300.545V131ZM308.156 131C308.039 130.771 307.954 130.487 307.901 130.147C307.286 130.833 306.486 131.176 305.502 131.176C304.57 131.176 303.797 130.906 303.182 130.367C302.572 129.828 302.268 129.148 302.268 128.328C302.268 127.32 302.64 126.547 303.384 126.008C304.134 125.469 305.215 125.196 306.627 125.19H307.796V124.646C307.796 124.206 307.682 123.854 307.453 123.591C307.23 123.327 306.876 123.195 306.39 123.195C305.962 123.195 305.625 123.298 305.379 123.503C305.139 123.708 305.019 123.989 305.019 124.347H302.479C302.479 123.796 302.648 123.286 302.988 122.817C303.328 122.349 303.809 121.982 304.43 121.719C305.051 121.449 305.748 121.314 306.521 121.314C307.693 121.314 308.622 121.61 309.308 122.202C309.999 122.788 310.345 123.614 310.345 124.681V128.803C310.351 129.705 310.477 130.388 310.723 130.851V131H308.156ZM306.056 129.233C306.431 129.233 306.776 129.151 307.093 128.987C307.409 128.817 307.644 128.592 307.796 128.311V126.676H306.847C305.575 126.676 304.898 127.115 304.816 127.994L304.808 128.144C304.808 128.46 304.919 128.721 305.142 128.926C305.364 129.131 305.669 129.233 306.056 129.233ZM317.446 128.372C317.446 128.062 317.291 127.818 316.98 127.643C316.676 127.461 316.184 127.3 315.504 127.159C313.242 126.685 312.111 125.724 312.111 124.276C312.111 123.433 312.46 122.729 313.157 122.167C313.86 121.599 314.777 121.314 315.908 121.314C317.115 121.314 318.079 121.599 318.8 122.167C319.526 122.735 319.89 123.474 319.89 124.382H317.35C317.35 124.019 317.232 123.72 316.998 123.485C316.764 123.245 316.397 123.125 315.899 123.125C315.472 123.125 315.141 123.222 314.906 123.415C314.672 123.608 314.555 123.854 314.555 124.153C314.555 124.435 314.687 124.663 314.95 124.839C315.22 125.009 315.671 125.158 316.304 125.287C316.937 125.41 317.47 125.551 317.903 125.709C319.245 126.201 319.916 127.054 319.916 128.267C319.916 129.134 319.544 129.837 318.8 130.376C318.056 130.909 317.095 131.176 315.917 131.176C315.12 131.176 314.411 131.035 313.79 130.754C313.175 130.467 312.691 130.077 312.34 129.585C311.988 129.087 311.812 128.551 311.812 127.977H314.221C314.244 128.428 314.411 128.773 314.722 129.014C315.032 129.254 315.448 129.374 315.97 129.374C316.456 129.374 316.822 129.283 317.068 129.102C317.32 128.914 317.446 128.671 317.446 128.372ZM326.71 128.372C326.71 128.062 326.555 127.818 326.244 127.643C325.939 127.461 325.447 127.3 324.768 127.159C322.506 126.685 321.375 125.724 321.375 124.276C321.375 123.433 321.724 122.729 322.421 122.167C323.124 121.599 324.041 121.314 325.172 121.314C326.379 121.314 327.343 121.599 328.063 122.167C328.79 122.735 329.153 123.474 329.153 124.382H326.613C326.613 124.019 326.496 123.72 326.262 123.485C326.027 123.245 325.661 123.125 325.163 123.125C324.735 123.125 324.404 123.222 324.17 123.415C323.936 123.608 323.818 123.854 323.818 124.153C323.818 124.435 323.95 124.663 324.214 124.839C324.483 125.009 324.935 125.158 325.567 125.287C326.2 125.41 326.733 125.551 327.167 125.709C328.509 126.201 329.18 127.054 329.18 128.267C329.18 129.134 328.808 129.837 328.063 130.376C327.319 130.909 326.358 131.176 325.181 131.176C324.384 131.176 323.675 131.035 323.054 130.754C322.438 130.467 321.955 130.077 321.604 129.585C321.252 129.087 321.076 128.551 321.076 127.977H323.484C323.508 128.428 323.675 128.773 323.985 129.014C324.296 129.254 324.712 129.374 325.233 129.374C325.72 129.374 326.086 129.283 326.332 129.102C326.584 128.914 326.71 128.671 326.71 128.372Z" fill="black"/>
<path d="M523.842 125.771H518.779V131H516.143V118.203H524.475V120.339H518.779V123.644H523.842V125.771ZM528.518 131H525.969V117.5H528.518V131ZM530.223 126.157C530.223 125.214 530.404 124.373 530.768 123.635C531.131 122.896 531.652 122.325 532.332 121.921C533.018 121.517 533.812 121.314 534.714 121.314C535.997 121.314 537.043 121.707 537.852 122.492C538.666 123.277 539.12 124.344 539.214 125.691L539.231 126.342C539.231 127.801 538.824 128.973 538.01 129.857C537.195 130.736 536.103 131.176 534.731 131.176C533.36 131.176 532.265 130.736 531.444 129.857C530.63 128.979 530.223 127.783 530.223 126.271V126.157ZM532.763 126.342C532.763 127.244 532.933 127.936 533.272 128.416C533.612 128.891 534.099 129.128 534.731 129.128C535.347 129.128 535.827 128.894 536.173 128.425C536.519 127.95 536.691 127.194 536.691 126.157C536.691 125.272 536.519 124.587 536.173 124.101C535.827 123.614 535.341 123.371 534.714 123.371C534.093 123.371 533.612 123.614 533.272 124.101C532.933 124.581 532.763 125.328 532.763 126.342ZM549.066 127.546L550.314 121.49H552.767L550.341 131H548.214L546.412 125.015L544.61 131H542.492L540.066 121.49H542.519L543.758 127.537L545.498 121.49H547.335L549.066 127.546ZM561.318 128.882H566.917V131H558.682V118.203H561.318V128.882ZM573.781 131C573.664 130.771 573.579 130.487 573.526 130.147C572.911 130.833 572.111 131.176 571.127 131.176C570.195 131.176 569.422 130.906 568.807 130.367C568.197 129.828 567.893 129.148 567.893 128.328C567.893 127.32 568.265 126.547 569.009 126.008C569.759 125.469 570.84 125.196 572.252 125.19H573.421V124.646C573.421 124.206 573.307 123.854 573.078 123.591C572.855 123.327 572.501 123.195 572.015 123.195C571.587 123.195 571.25 123.298 571.004 123.503C570.764 123.708 570.644 123.989 570.644 124.347H568.104C568.104 123.796 568.273 123.286 568.613 122.817C568.953 122.349 569.434 121.982 570.055 121.719C570.676 121.449 571.373 121.314 572.146 121.314C573.318 121.314 574.247 121.61 574.933 122.202C575.624 122.788 575.97 123.614 575.97 124.681V128.803C575.976 129.705 576.102 130.388 576.348 130.851V131H573.781ZM571.681 129.233C572.056 129.233 572.401 129.151 572.718 128.987C573.034 128.817 573.269 128.592 573.421 128.311V126.676H572.472C571.2 126.676 570.523 127.115 570.441 127.994L570.433 128.144C570.433 128.46 570.544 128.721 570.767 128.926C570.989 129.131 571.294 129.233 571.681 129.233ZM586.49 126.333C586.49 127.856 586.165 129.046 585.515 129.901C584.864 130.751 583.956 131.176 582.79 131.176C581.759 131.176 580.936 130.78 580.32 129.989L580.206 131H577.921V117.5H580.461V122.343C581.047 121.657 581.817 121.314 582.772 121.314C583.933 121.314 584.841 121.742 585.497 122.598C586.159 123.447 586.49 124.646 586.49 126.192V126.333ZM583.95 126.148C583.95 125.188 583.798 124.487 583.493 124.048C583.188 123.603 582.734 123.38 582.131 123.38C581.322 123.38 580.766 123.711 580.461 124.373V128.126C580.771 128.794 581.334 129.128 582.148 129.128C582.969 129.128 583.508 128.724 583.766 127.915C583.889 127.528 583.95 126.939 583.95 126.148ZM592.44 131.176C591.046 131.176 589.909 130.748 589.03 129.893C588.157 129.037 587.721 127.897 587.721 126.474V126.228C587.721 125.272 587.905 124.42 588.274 123.67C588.644 122.914 589.165 122.334 589.839 121.93C590.519 121.52 591.292 121.314 592.159 121.314C593.46 121.314 594.482 121.725 595.227 122.545C595.977 123.365 596.352 124.528 596.352 126.034V127.071H590.296C590.378 127.692 590.624 128.19 591.034 128.565C591.45 128.94 591.975 129.128 592.607 129.128C593.586 129.128 594.351 128.773 594.901 128.064L596.149 129.462C595.769 130.001 595.253 130.423 594.603 130.728C593.952 131.026 593.231 131.176 592.44 131.176ZM592.15 123.371C591.646 123.371 591.236 123.541 590.92 123.881C590.609 124.221 590.41 124.707 590.322 125.34H593.855V125.138C593.844 124.575 593.691 124.142 593.398 123.837C593.105 123.526 592.689 123.371 592.15 123.371ZM600.482 131H597.934V117.5H600.482V131Z" fill="black"/>
<path d="M219.779 176.491V181H217.143V168.203H222.135C223.096 168.203 223.939 168.379 224.666 168.73C225.398 169.082 225.961 169.583 226.354 170.233C226.746 170.878 226.942 171.613 226.942 172.439C226.942 173.693 226.512 174.684 225.65 175.41C224.795 176.131 223.608 176.491 222.091 176.491H219.779ZM219.779 174.355H222.135C222.832 174.355 223.362 174.191 223.726 173.863C224.095 173.535 224.279 173.066 224.279 172.457C224.279 171.83 224.095 171.323 223.726 170.937C223.356 170.55 222.847 170.351 222.196 170.339H219.779V174.355ZM234 181C233.883 180.771 233.798 180.487 233.745 180.147C233.13 180.833 232.33 181.176 231.346 181.176C230.414 181.176 229.641 180.906 229.025 180.367C228.416 179.828 228.111 179.148 228.111 178.328C228.111 177.32 228.483 176.547 229.228 176.008C229.978 175.469 231.059 175.196 232.471 175.19H233.64V174.646C233.64 174.206 233.525 173.854 233.297 173.591C233.074 173.327 232.72 173.195 232.233 173.195C231.806 173.195 231.469 173.298 231.223 173.503C230.982 173.708 230.862 173.989 230.862 174.347H228.322C228.322 173.796 228.492 173.286 228.832 172.817C229.172 172.349 229.652 171.982 230.273 171.719C230.895 171.449 231.592 171.314 232.365 171.314C233.537 171.314 234.466 171.61 235.151 172.202C235.843 172.788 236.188 173.614 236.188 174.681V178.803C236.194 179.705 236.32 180.388 236.566 180.851V181H234ZM231.899 179.233C232.274 179.233 232.62 179.151 232.937 178.987C233.253 178.817 233.487 178.592 233.64 178.311V176.676H232.69C231.419 176.676 230.742 177.115 230.66 177.994L230.651 178.144C230.651 178.46 230.763 178.721 230.985 178.926C231.208 179.131 231.513 179.233 231.899 179.233ZM241.55 177.405L243.308 171.49H246.032L242.209 182.477L241.998 182.978C241.43 184.22 240.492 184.841 239.186 184.841C238.816 184.841 238.441 184.785 238.061 184.674V182.749L238.447 182.758C238.928 182.758 239.285 182.685 239.52 182.538C239.76 182.392 239.947 182.148 240.082 181.809L240.381 181.026L237.05 171.49H239.783L241.55 177.405ZM249.715 181H247.166V167.5H249.715V181ZM251.42 176.157C251.42 175.214 251.602 174.373 251.965 173.635C252.328 172.896 252.85 172.325 253.529 171.921C254.215 171.517 255.009 171.314 255.911 171.314C257.194 171.314 258.24 171.707 259.049 172.492C259.863 173.277 260.317 174.344 260.411 175.691L260.429 176.342C260.429 177.801 260.021 178.973 259.207 179.857C258.393 180.736 257.3 181.176 255.929 181.176C254.558 181.176 253.462 180.736 252.642 179.857C251.827 178.979 251.42 177.783 251.42 176.271V176.157ZM253.96 176.342C253.96 177.244 254.13 177.936 254.47 178.416C254.81 178.891 255.296 179.128 255.929 179.128C256.544 179.128 257.024 178.894 257.37 178.425C257.716 177.95 257.889 177.194 257.889 176.157C257.889 175.272 257.716 174.587 257.37 174.101C257.024 173.614 256.538 173.371 255.911 173.371C255.29 173.371 254.81 173.614 254.47 174.101C254.13 174.581 253.96 175.328 253.96 176.342ZM267.504 181C267.387 180.771 267.302 180.487 267.249 180.147C266.634 180.833 265.834 181.176 264.85 181.176C263.918 181.176 263.145 180.906 262.529 180.367C261.92 179.828 261.615 179.148 261.615 178.328C261.615 177.32 261.987 176.547 262.731 176.008C263.481 175.469 264.562 175.196 265.975 175.19H267.144V174.646C267.144 174.206 267.029 173.854 266.801 173.591C266.578 173.327 266.224 173.195 265.737 173.195C265.31 173.195 264.973 173.298 264.727 173.503C264.486 173.708 264.366 173.989 264.366 174.347H261.826C261.826 173.796 261.996 173.286 262.336 172.817C262.676 172.349 263.156 171.982 263.777 171.719C264.398 171.449 265.096 171.314 265.869 171.314C267.041 171.314 267.97 171.61 268.655 172.202C269.347 172.788 269.692 173.614 269.692 174.681V178.803C269.698 179.705 269.824 180.388 270.07 180.851V181H267.504ZM265.403 179.233C265.778 179.233 266.124 179.151 266.44 178.987C266.757 178.817 266.991 178.592 267.144 178.311V176.676H266.194C264.923 176.676 264.246 177.115 264.164 177.994L264.155 178.144C264.155 178.46 264.267 178.721 264.489 178.926C264.712 179.131 265.017 179.233 265.403 179.233ZM271.248 176.175C271.248 174.692 271.579 173.512 272.241 172.633C272.909 171.754 273.82 171.314 274.975 171.314C275.9 171.314 276.665 171.66 277.269 172.352V167.5H279.817V181H277.523L277.4 179.989C276.768 180.78 275.953 181.176 274.957 181.176C273.838 181.176 272.938 180.736 272.259 179.857C271.585 178.973 271.248 177.745 271.248 176.175ZM273.788 176.359C273.788 177.25 273.943 177.933 274.254 178.407C274.564 178.882 275.016 179.119 275.607 179.119C276.393 179.119 276.946 178.788 277.269 178.126V174.373C276.952 173.711 276.404 173.38 275.625 173.38C274.4 173.38 273.788 174.373 273.788 176.359ZM289.072 178.882H294.671V181H286.436V168.203H289.072V178.882ZM300.401 181.176C299.007 181.176 297.87 180.748 296.991 179.893C296.118 179.037 295.682 177.897 295.682 176.474V176.228C295.682 175.272 295.866 174.42 296.235 173.67C296.604 172.914 297.126 172.334 297.8 171.93C298.479 171.52 299.253 171.314 300.12 171.314C301.421 171.314 302.443 171.725 303.188 172.545C303.938 173.365 304.312 174.528 304.312 176.034V177.071H298.257C298.339 177.692 298.585 178.19 298.995 178.565C299.411 178.94 299.936 179.128 300.568 179.128C301.547 179.128 302.312 178.773 302.862 178.064L304.11 179.462C303.729 180.001 303.214 180.423 302.563 180.728C301.913 181.026 301.192 181.176 300.401 181.176ZM300.111 173.371C299.607 173.371 299.197 173.541 298.881 173.881C298.57 174.221 298.371 174.707 298.283 175.34H301.816V175.138C301.805 174.575 301.652 174.142 301.359 173.837C301.066 173.526 300.65 173.371 300.111 173.371ZM308.101 171.49L308.18 172.589C308.859 171.739 309.771 171.314 310.913 171.314C311.921 171.314 312.671 171.61 313.163 172.202C313.655 172.794 313.907 173.679 313.919 174.856V181H311.379V174.918C311.379 174.379 311.262 173.989 311.027 173.749C310.793 173.503 310.403 173.38 309.858 173.38C309.144 173.38 308.607 173.685 308.25 174.294V181H305.71V171.49H308.101ZM315.483 176.175C315.483 174.716 315.829 173.541 316.521 172.65C317.218 171.76 318.155 171.314 319.333 171.314C320.376 171.314 321.188 171.672 321.768 172.387L321.873 171.49H324.176V180.684C324.176 181.516 323.985 182.239 323.604 182.854C323.229 183.47 322.699 183.938 322.014 184.261C321.328 184.583 320.525 184.744 319.605 184.744C318.908 184.744 318.229 184.604 317.566 184.322C316.904 184.047 316.403 183.689 316.063 183.25L317.188 181.703C317.821 182.412 318.589 182.767 319.491 182.767C320.165 182.767 320.689 182.585 321.064 182.222C321.439 181.864 321.627 181.354 321.627 180.692V180.183C321.041 180.845 320.271 181.176 319.315 181.176C318.173 181.176 317.247 180.73 316.538 179.84C315.835 178.943 315.483 177.757 315.483 176.28V176.175ZM318.023 176.359C318.023 177.221 318.196 177.897 318.542 178.39C318.888 178.876 319.362 179.119 319.966 179.119C320.739 179.119 321.293 178.829 321.627 178.249V174.25C321.287 173.67 320.739 173.38 319.983 173.38C319.374 173.38 318.894 173.629 318.542 174.127C318.196 174.625 318.023 175.369 318.023 176.359ZM329.177 169.152V171.49H330.803V173.354H329.177V178.1C329.177 178.451 329.244 178.703 329.379 178.855C329.514 179.008 329.771 179.084 330.152 179.084C330.434 179.084 330.683 179.063 330.899 179.022V180.947C330.401 181.1 329.889 181.176 329.361 181.176C327.58 181.176 326.672 180.276 326.637 178.478V173.354H325.248V171.49H326.637V169.152H329.177ZM334.696 172.527C335.37 171.719 336.217 171.314 337.236 171.314C339.299 171.314 340.345 172.513 340.374 174.909V181H337.834V174.979C337.834 174.435 337.717 174.033 337.482 173.775C337.248 173.512 336.858 173.38 336.313 173.38C335.569 173.38 335.03 173.667 334.696 174.241V181H332.156V167.5H334.696V172.527Z" fill="black"/>
<path d="M480.549 181H477.912L472.779 172.58V181H470.143V168.203H472.779L477.921 176.641V168.203H480.549V181ZM487.062 181.176C485.667 181.176 484.53 180.748 483.651 179.893C482.778 179.037 482.342 177.897 482.342 176.474V176.228C482.342 175.272 482.526 174.42 482.896 173.67C483.265 172.914 483.786 172.334 484.46 171.93C485.14 171.52 485.913 171.314 486.78 171.314C488.081 171.314 489.104 171.725 489.848 172.545C490.598 173.365 490.973 174.528 490.973 176.034V177.071H484.917C484.999 177.692 485.245 178.19 485.655 178.565C486.071 178.94 486.596 179.128 487.229 179.128C488.207 179.128 488.972 178.773 489.522 178.064L490.771 179.462C490.39 180.001 489.874 180.423 489.224 180.728C488.573 181.026 487.853 181.176 487.062 181.176ZM486.771 173.371C486.268 173.371 485.857 173.541 485.541 173.881C485.23 174.221 485.031 174.707 484.943 175.34H488.477V175.138C488.465 174.575 488.312 174.142 488.02 173.837C487.727 173.526 487.311 173.371 486.771 173.371ZM496.044 174.329L497.644 171.49H500.359L497.652 176.148L500.474 181H497.749L496.053 178.012L494.365 181H491.632L494.453 176.148L491.755 171.49H494.479L496.044 174.329ZM504.622 169.152V171.49H506.248V173.354H504.622V178.1C504.622 178.451 504.689 178.703 504.824 178.855C504.959 179.008 505.217 179.084 505.598 179.084C505.879 179.084 506.128 179.063 506.345 179.022V180.947C505.847 181.1 505.334 181.176 504.807 181.176C503.025 181.176 502.117 180.276 502.082 178.478V173.354H500.693V171.49H502.082V169.152H504.622ZM522.728 181H520.091V175.516H514.949V181H512.312V168.203H514.949V173.389H520.091V168.203H522.728V181ZM529.249 181.176C527.854 181.176 526.718 180.748 525.839 179.893C524.966 179.037 524.529 177.897 524.529 176.474V176.228C524.529 175.272 524.714 174.42 525.083 173.67C525.452 172.914 525.974 172.334 526.647 171.93C527.327 171.52 528.101 171.314 528.968 171.314C530.269 171.314 531.291 171.725 532.035 172.545C532.785 173.365 533.16 174.528 533.16 176.034V177.071H527.104C527.187 177.692 527.433 178.19 527.843 178.565C528.259 178.94 528.783 179.128 529.416 179.128C530.395 179.128 531.159 178.773 531.71 178.064L532.958 179.462C532.577 180.001 532.062 180.423 531.411 180.728C530.761 181.026 530.04 181.176 529.249 181.176ZM528.959 173.371C528.455 173.371 528.045 173.541 527.729 173.881C527.418 174.221 527.219 174.707 527.131 175.34H530.664V175.138C530.652 174.575 530.5 174.142 530.207 173.837C529.914 173.526 529.498 173.371 528.959 173.371ZM540.121 181C540.004 180.771 539.919 180.487 539.866 180.147C539.251 180.833 538.451 181.176 537.467 181.176C536.535 181.176 535.762 180.906 535.146 180.367C534.537 179.828 534.232 179.148 534.232 178.328C534.232 177.32 534.604 176.547 535.349 176.008C536.099 175.469 537.18 175.196 538.592 175.19H539.761V174.646C539.761 174.206 539.646 173.854 539.418 173.591C539.195 173.327 538.841 173.195 538.354 173.195C537.927 173.195 537.59 173.298 537.344 173.503C537.104 173.708 536.983 173.989 536.983 174.347H534.443C534.443 173.796 534.613 173.286 534.953 172.817C535.293 172.349 535.773 171.982 536.395 171.719C537.016 171.449 537.713 171.314 538.486 171.314C539.658 171.314 540.587 171.61 541.272 172.202C541.964 172.788 542.31 173.614 542.31 174.681V178.803C542.315 179.705 542.441 180.388 542.688 180.851V181H540.121ZM538.021 179.233C538.396 179.233 538.741 179.151 539.058 178.987C539.374 178.817 539.608 178.592 539.761 178.311V176.676H538.812C537.54 176.676 536.863 177.115 536.781 177.994L536.772 178.144C536.772 178.46 536.884 178.721 537.106 178.926C537.329 179.131 537.634 179.233 538.021 179.233ZM543.865 176.175C543.865 174.692 544.196 173.512 544.858 172.633C545.526 171.754 546.438 171.314 547.592 171.314C548.518 171.314 549.282 171.66 549.886 172.352V167.5H552.435V181H550.141L550.018 179.989C549.385 180.78 548.57 181.176 547.574 181.176C546.455 181.176 545.556 180.736 544.876 179.857C544.202 178.973 543.865 177.745 543.865 176.175ZM546.405 176.359C546.405 177.25 546.561 177.933 546.871 178.407C547.182 178.882 547.633 179.119 548.225 179.119C549.01 179.119 549.563 178.788 549.886 178.126V174.373C549.569 173.711 549.021 173.38 548.242 173.38C547.018 173.38 546.405 174.373 546.405 176.359ZM558.78 181.176C557.386 181.176 556.249 180.748 555.37 179.893C554.497 179.037 554.061 177.897 554.061 176.474V176.228C554.061 175.272 554.245 174.42 554.614 173.67C554.983 172.914 555.505 172.334 556.179 171.93C556.858 171.52 557.632 171.314 558.499 171.314C559.8 171.314 560.822 171.725 561.566 172.545C562.316 173.365 562.691 174.528 562.691 176.034V177.071H556.636C556.718 177.692 556.964 178.19 557.374 178.565C557.79 178.94 558.314 179.128 558.947 179.128C559.926 179.128 560.69 178.773 561.241 178.064L562.489 179.462C562.108 180.001 561.593 180.423 560.942 180.728C560.292 181.026 559.571 181.176 558.78 181.176ZM558.49 173.371C557.986 173.371 557.576 173.541 557.26 173.881C556.949 174.221 556.75 174.707 556.662 175.34H560.195V175.138C560.184 174.575 560.031 174.142 559.738 173.837C559.445 173.526 559.029 173.371 558.49 173.371ZM569.485 173.872C569.14 173.825 568.835 173.802 568.571 173.802C567.61 173.802 566.98 174.127 566.682 174.777V181H564.142V171.49H566.541L566.611 172.624C567.121 171.751 567.827 171.314 568.729 171.314C569.011 171.314 569.274 171.353 569.521 171.429L569.485 173.872Z" fill="black"/>
<path d="M650.558 181H647.921V175.516H642.779V181H640.143V168.203H642.779V173.389H647.921V168.203H650.558V181ZM652.307 176.157C652.307 175.214 652.488 174.373 652.852 173.635C653.215 172.896 653.736 172.325 654.416 171.921C655.102 171.517 655.896 171.314 656.798 171.314C658.081 171.314 659.127 171.707 659.936 172.492C660.75 173.277 661.204 174.344 661.298 175.691L661.315 176.342C661.315 177.801 660.908 178.973 660.094 179.857C659.279 180.736 658.187 181.176 656.815 181.176C655.444 181.176 654.349 180.736 653.528 179.857C652.714 178.979 652.307 177.783 652.307 176.271V176.157ZM654.847 176.342C654.847 177.244 655.017 177.936 655.356 178.416C655.696 178.891 656.183 179.128 656.815 179.128C657.431 179.128 657.911 178.894 658.257 178.425C658.603 177.95 658.775 177.194 658.775 176.157C658.775 175.272 658.603 174.587 658.257 174.101C657.911 173.614 657.425 173.371 656.798 173.371C656.177 173.371 655.696 173.614 655.356 174.101C655.017 174.581 654.847 175.328 654.847 176.342ZM671.44 176.333C671.44 177.798 671.106 178.973 670.438 179.857C669.776 180.736 668.88 181.176 667.749 181.176C666.788 181.176 666.012 180.842 665.42 180.174V184.656H662.88V171.49H665.235L665.323 172.422C665.938 171.684 666.741 171.314 667.731 171.314C668.903 171.314 669.814 171.748 670.465 172.615C671.115 173.482 671.44 174.678 671.44 176.201V176.333ZM668.9 176.148C668.9 175.264 668.742 174.581 668.426 174.101C668.115 173.62 667.661 173.38 667.063 173.38C666.267 173.38 665.719 173.685 665.42 174.294V178.188C665.73 178.814 666.284 179.128 667.081 179.128C668.294 179.128 668.9 178.135 668.9 176.148ZM680.309 178.882H685.907V181H677.672V168.203H680.309V178.882ZM689.941 181H687.393V171.49H689.941V181ZM687.243 169.029C687.243 168.648 687.369 168.335 687.621 168.089C687.879 167.843 688.228 167.72 688.667 167.72C689.101 167.72 689.446 167.843 689.704 168.089C689.962 168.335 690.091 168.648 690.091 169.029C690.091 169.416 689.959 169.732 689.695 169.979C689.438 170.225 689.095 170.348 688.667 170.348C688.239 170.348 687.894 170.225 687.63 169.979C687.372 169.732 687.243 169.416 687.243 169.029ZM694.424 171.49L694.503 172.554C695.177 171.728 696.088 171.314 697.236 171.314C698.461 171.314 699.302 171.798 699.759 172.765C700.427 171.798 701.379 171.314 702.615 171.314C703.646 171.314 704.414 171.616 704.918 172.22C705.422 172.817 705.674 173.72 705.674 174.927V181H703.125V174.936C703.125 174.396 703.02 174.004 702.809 173.758C702.598 173.506 702.226 173.38 701.692 173.38C700.931 173.38 700.403 173.743 700.11 174.47L700.119 181H697.579V174.944C697.579 174.394 697.471 173.995 697.254 173.749C697.037 173.503 696.668 173.38 696.146 173.38C695.426 173.38 694.904 173.679 694.582 174.276V181H692.042V171.49H694.424ZM710.314 181H707.766V171.49H710.314V181ZM707.616 169.029C707.616 168.648 707.742 168.335 707.994 168.089C708.252 167.843 708.601 167.72 709.04 167.72C709.474 167.72 709.819 167.843 710.077 168.089C710.335 168.335 710.464 168.648 710.464 169.029C710.464 169.416 710.332 169.732 710.068 169.979C709.811 170.225 709.468 170.348 709.04 170.348C708.612 170.348 708.267 170.225 708.003 169.979C707.745 169.732 707.616 169.416 707.616 169.029ZM715.456 169.152V171.49H717.082V173.354H715.456V178.1C715.456 178.451 715.523 178.703 715.658 178.855C715.793 179.008 716.051 179.084 716.432 179.084C716.713 179.084 716.962 179.063 717.179 179.022V180.947C716.681 181.1 716.168 181.176 715.641 181.176C713.859 181.176 712.951 180.276 712.916 178.478V173.354H711.527V171.49H712.916V169.152H715.456Z" fill="black"/>
<path d="M371.778 302.643C371.778 302.145 371.603 301.764 371.251 301.5C370.899 301.23 370.267 300.949 369.353 300.656C368.438 300.357 367.715 300.064 367.182 299.777C365.729 298.992 365.002 297.935 365.002 296.604C365.002 295.913 365.195 295.298 365.582 294.759C365.975 294.214 366.534 293.789 367.261 293.484C367.993 293.18 368.813 293.027 369.722 293.027C370.636 293.027 371.45 293.194 372.165 293.528C372.88 293.856 373.434 294.322 373.826 294.926C374.225 295.529 374.424 296.215 374.424 296.982H371.787C371.787 296.396 371.603 295.942 371.233 295.62C370.864 295.292 370.346 295.128 369.678 295.128C369.033 295.128 368.532 295.266 368.175 295.541C367.817 295.811 367.639 296.168 367.639 296.613C367.639 297.029 367.847 297.378 368.263 297.659C368.685 297.94 369.303 298.204 370.117 298.45C371.617 298.901 372.71 299.461 373.396 300.129C374.081 300.797 374.424 301.629 374.424 302.625C374.424 303.732 374.005 304.603 373.167 305.235C372.329 305.862 371.201 306.176 369.783 306.176C368.799 306.176 367.902 305.997 367.094 305.64C366.285 305.276 365.667 304.781 365.239 304.154C364.817 303.527 364.606 302.801 364.606 301.975H367.252C367.252 303.387 368.096 304.093 369.783 304.093C370.41 304.093 370.899 303.967 371.251 303.715C371.603 303.457 371.778 303.1 371.778 302.643ZM375.654 301.157C375.654 300.214 375.836 299.373 376.199 298.635C376.562 297.896 377.084 297.325 377.764 296.921C378.449 296.517 379.243 296.314 380.146 296.314C381.429 296.314 382.475 296.707 383.283 297.492C384.098 298.277 384.552 299.344 384.646 300.691L384.663 301.342C384.663 302.801 384.256 303.973 383.441 304.857C382.627 305.736 381.534 306.176 380.163 306.176C378.792 306.176 377.696 305.736 376.876 304.857C376.062 303.979 375.654 302.783 375.654 301.271V301.157ZM378.194 301.342C378.194 302.244 378.364 302.936 378.704 303.416C379.044 303.891 379.53 304.128 380.163 304.128C380.778 304.128 381.259 303.894 381.604 303.425C381.95 302.95 382.123 302.194 382.123 301.157C382.123 300.272 381.95 299.587 381.604 299.101C381.259 298.614 380.772 298.371 380.146 298.371C379.524 298.371 379.044 298.614 378.704 299.101C378.364 299.581 378.194 300.328 378.194 301.342ZM391.923 305.033C391.296 305.795 390.429 306.176 389.321 306.176C388.302 306.176 387.522 305.883 386.983 305.297C386.45 304.711 386.178 303.853 386.166 302.722V296.49H388.706V302.634C388.706 303.624 389.157 304.119 390.06 304.119C390.921 304.119 391.513 303.82 391.835 303.223V296.49H394.384V306H391.993L391.923 305.033ZM401.644 298.872C401.298 298.825 400.993 298.802 400.729 298.802C399.769 298.802 399.139 299.127 398.84 299.777V306H396.3V296.49H398.699L398.77 297.624C399.279 296.751 399.985 296.314 400.888 296.314C401.169 296.314 401.433 296.353 401.679 296.429L401.644 298.872ZM406.653 304.128C407.122 304.128 407.503 303.999 407.796 303.741C408.089 303.483 408.241 303.141 408.253 302.713H410.635C410.629 303.357 410.453 303.949 410.107 304.488C409.762 305.021 409.287 305.438 408.684 305.736C408.086 306.029 407.424 306.176 406.697 306.176C405.338 306.176 404.266 305.745 403.48 304.884C402.695 304.017 402.303 302.821 402.303 301.298V301.131C402.303 299.666 402.692 298.497 403.472 297.624C404.251 296.751 405.32 296.314 406.68 296.314C407.869 296.314 408.821 296.654 409.536 297.334C410.257 298.008 410.623 298.907 410.635 300.032H408.253C408.241 299.54 408.089 299.142 407.796 298.837C407.503 298.526 407.116 298.371 406.636 298.371C406.044 298.371 405.596 298.588 405.291 299.021C404.992 299.449 404.843 300.146 404.843 301.113V301.377C404.843 302.355 404.992 303.059 405.291 303.486C405.59 303.914 406.044 304.128 406.653 304.128ZM416.462 306.176C415.067 306.176 413.931 305.748 413.052 304.893C412.179 304.037 411.742 302.897 411.742 301.474V301.228C411.742 300.272 411.927 299.42 412.296 298.67C412.665 297.914 413.187 297.334 413.86 296.93C414.54 296.52 415.313 296.314 416.181 296.314C417.481 296.314 418.504 296.725 419.248 297.545C419.998 298.365 420.373 299.528 420.373 301.034V302.071H414.317C414.399 302.692 414.646 303.19 415.056 303.565C415.472 303.94 415.996 304.128 416.629 304.128C417.607 304.128 418.372 303.773 418.923 303.064L420.171 304.462C419.79 305.001 419.274 305.423 418.624 305.728C417.974 306.026 417.253 306.176 416.462 306.176ZM416.172 298.371C415.668 298.371 415.258 298.541 414.941 298.881C414.631 299.221 414.432 299.707 414.344 300.34H417.877V300.138C417.865 299.575 417.713 299.142 417.42 298.837C417.127 298.526 416.711 298.371 416.172 298.371ZM429.276 306H426.64V293.203H429.276V306ZM434.365 301.491V306H431.729V293.203H436.721C437.682 293.203 438.525 293.379 439.252 293.73C439.984 294.082 440.547 294.583 440.939 295.233C441.332 295.878 441.528 296.613 441.528 297.439C441.528 298.693 441.098 299.684 440.236 300.41C439.381 301.131 438.194 301.491 436.677 301.491H434.365ZM434.365 299.355H436.721C437.418 299.355 437.948 299.191 438.312 298.863C438.681 298.535 438.865 298.066 438.865 297.457C438.865 296.83 438.681 296.323 438.312 295.937C437.942 295.55 437.433 295.351 436.782 295.339H434.365V299.355ZM455.055 303.363H450.432L449.553 306H446.749L451.513 293.203H453.956L458.746 306H455.942L455.055 303.363ZM451.144 301.228H454.343L452.734 296.438L451.144 301.228ZM459.379 301.175C459.379 299.692 459.71 298.512 460.372 297.633C461.04 296.754 461.951 296.314 463.105 296.314C464.031 296.314 464.796 296.66 465.399 297.352V292.5H467.948V306H465.654L465.531 304.989C464.898 305.78 464.084 306.176 463.088 306.176C461.969 306.176 461.069 305.736 460.39 304.857C459.716 303.973 459.379 302.745 459.379 301.175ZM461.919 301.359C461.919 302.25 462.074 302.933 462.385 303.407C462.695 303.882 463.146 304.119 463.738 304.119C464.523 304.119 465.077 303.788 465.399 303.126V299.373C465.083 298.711 464.535 298.38 463.756 298.38C462.531 298.38 461.919 299.373 461.919 301.359ZM469.521 301.175C469.521 299.692 469.853 298.512 470.515 297.633C471.183 296.754 472.094 296.314 473.248 296.314C474.174 296.314 474.938 296.66 475.542 297.352V292.5H478.091V306H475.797L475.674 304.989C475.041 305.78 474.227 306.176 473.23 306.176C472.111 306.176 471.212 305.736 470.532 304.857C469.858 303.973 469.521 302.745 469.521 301.175ZM472.062 301.359C472.062 302.25 472.217 302.933 472.527 303.407C472.838 303.882 473.289 304.119 473.881 304.119C474.666 304.119 475.22 303.788 475.542 303.126V299.373C475.226 298.711 474.678 298.38 473.898 298.38C472.674 298.38 472.062 299.373 472.062 301.359ZM485.403 298.872C485.058 298.825 484.753 298.802 484.489 298.802C483.528 298.802 482.898 299.127 482.6 299.777V306H480.06V296.49H482.459L482.529 297.624C483.039 296.751 483.745 296.314 484.647 296.314C484.929 296.314 485.192 296.353 485.438 296.429L485.403 298.872ZM490.835 306.176C489.44 306.176 488.304 305.748 487.425 304.893C486.552 304.037 486.115 302.897 486.115 301.474V301.228C486.115 300.272 486.3 299.42 486.669 298.67C487.038 297.914 487.56 297.334 488.233 296.93C488.913 296.52 489.687 296.314 490.554 296.314C491.854 296.314 492.877 296.725 493.621 297.545C494.371 298.365 494.746 299.528 494.746 301.034V302.071H488.69C488.772 302.692 489.019 303.19 489.429 303.565C489.845 303.94 490.369 304.128 491.002 304.128C491.98 304.128 492.745 303.773 493.296 303.064L494.544 304.462C494.163 305.001 493.647 305.423 492.997 305.728C492.347 306.026 491.626 306.176 490.835 306.176ZM490.545 298.371C490.041 298.371 489.631 298.541 489.314 298.881C489.004 299.221 488.805 299.707 488.717 300.34H492.25V300.138C492.238 299.575 492.086 299.142 491.793 298.837C491.5 298.526 491.084 298.371 490.545 298.371ZM501.347 303.372C501.347 303.062 501.191 302.818 500.881 302.643C500.576 302.461 500.084 302.3 499.404 302.159C497.143 301.685 496.012 300.724 496.012 299.276C496.012 298.433 496.36 297.729 497.058 297.167C497.761 296.599 498.678 296.314 499.809 296.314C501.016 296.314 501.979 296.599 502.7 297.167C503.427 297.735 503.79 298.474 503.79 299.382H501.25C501.25 299.019 501.133 298.72 500.898 298.485C500.664 298.245 500.298 298.125 499.8 298.125C499.372 298.125 499.041 298.222 498.807 298.415C498.572 298.608 498.455 298.854 498.455 299.153C498.455 299.435 498.587 299.663 498.851 299.839C499.12 300.009 499.571 300.158 500.204 300.287C500.837 300.41 501.37 300.551 501.804 300.709C503.146 301.201 503.816 302.054 503.816 303.267C503.816 304.134 503.444 304.837 502.7 305.376C501.956 305.909 500.995 306.176 499.817 306.176C499.021 306.176 498.312 306.035 497.69 305.754C497.075 305.467 496.592 305.077 496.24 304.585C495.889 304.087 495.713 303.551 495.713 302.977H498.121C498.145 303.428 498.312 303.773 498.622 304.014C498.933 304.254 499.349 304.374 499.87 304.374C500.356 304.374 500.723 304.283 500.969 304.102C501.221 303.914 501.347 303.671 501.347 303.372ZM510.61 303.372C510.61 303.062 510.455 302.818 510.145 302.643C509.84 302.461 509.348 302.3 508.668 302.159C506.406 301.685 505.275 300.724 505.275 299.276C505.275 298.433 505.624 297.729 506.321 297.167C507.024 296.599 507.941 296.314 509.072 296.314C510.279 296.314 511.243 296.599 511.964 297.167C512.69 297.735 513.054 298.474 513.054 299.382H510.514C510.514 299.019 510.396 298.72 510.162 298.485C509.928 298.245 509.562 298.125 509.063 298.125C508.636 298.125 508.305 298.222 508.07 298.415C507.836 298.608 507.719 298.854 507.719 299.153C507.719 299.435 507.851 299.663 508.114 299.839C508.384 300.009 508.835 300.158 509.468 300.287C510.101 300.41 510.634 300.551 511.067 300.709C512.409 301.201 513.08 302.054 513.08 303.267C513.08 304.134 512.708 304.837 511.964 305.376C511.22 305.909 510.259 306.176 509.081 306.176C508.284 306.176 507.575 306.035 506.954 305.754C506.339 305.467 505.855 305.077 505.504 304.585C505.152 304.087 504.977 303.551 504.977 302.977H507.385C507.408 303.428 507.575 303.773 507.886 304.014C508.196 304.254 508.612 304.374 509.134 304.374C509.62 304.374 509.986 304.283 510.232 304.102C510.484 303.914 510.61 303.671 510.61 303.372Z" fill="black"/>
<rect x="119.5" y="400.5" width="639" height="199" stroke="black"/>
<path d="M347.143 506V493.203H351.08C352.205 493.203 353.21 493.458 354.095 493.968C354.985 494.472 355.68 495.192 356.178 496.13C356.676 497.062 356.925 498.122 356.925 499.312V499.9C356.925 501.09 356.679 502.147 356.187 503.073C355.7 503.999 355.012 504.717 354.121 505.227C353.23 505.736 352.226 505.994 351.106 506H347.143ZM349.779 495.339V503.882H351.054C352.085 503.882 352.873 503.545 353.418 502.871C353.963 502.197 354.241 501.233 354.253 499.979V499.303C354.253 498.002 353.983 497.018 353.444 496.35C352.905 495.676 352.117 495.339 351.08 495.339H349.779ZM363.06 506.176C361.665 506.176 360.528 505.748 359.649 504.893C358.776 504.037 358.34 502.897 358.34 501.474V501.228C358.34 500.272 358.524 499.42 358.894 498.67C359.263 497.914 359.784 497.334 360.458 496.93C361.138 496.52 361.911 496.314 362.778 496.314C364.079 496.314 365.102 496.725 365.846 497.545C366.596 498.365 366.971 499.528 366.971 501.034V502.071H360.915C360.997 502.692 361.243 503.19 361.653 503.565C362.069 503.94 362.594 504.128 363.227 504.128C364.205 504.128 364.97 503.773 365.521 503.064L366.769 504.462C366.388 505.001 365.872 505.423 365.222 505.728C364.571 506.026 363.851 506.176 363.06 506.176ZM362.77 498.371C362.266 498.371 361.855 498.541 361.539 498.881C361.229 499.221 361.029 499.707 360.941 500.34H364.475V500.138C364.463 499.575 364.311 499.142 364.018 498.837C363.725 498.526 363.309 498.371 362.77 498.371ZM373.571 503.372C373.571 503.062 373.416 502.818 373.105 502.643C372.801 502.461 372.309 502.3 371.629 502.159C369.367 501.685 368.236 500.724 368.236 499.276C368.236 498.433 368.585 497.729 369.282 497.167C369.985 496.599 370.902 496.314 372.033 496.314C373.24 496.314 374.204 496.599 374.925 497.167C375.651 497.735 376.015 498.474 376.015 499.382H373.475C373.475 499.019 373.357 498.72 373.123 498.485C372.889 498.245 372.522 498.125 372.024 498.125C371.597 498.125 371.266 498.222 371.031 498.415C370.797 498.608 370.68 498.854 370.68 499.153C370.68 499.435 370.812 499.663 371.075 499.839C371.345 500.009 371.796 500.158 372.429 500.287C373.062 500.41 373.595 500.551 374.028 500.709C375.37 501.201 376.041 502.054 376.041 503.267C376.041 504.134 375.669 504.837 374.925 505.376C374.181 505.909 373.22 506.176 372.042 506.176C371.245 506.176 370.536 506.035 369.915 505.754C369.3 505.467 368.816 505.077 368.465 504.585C368.113 504.087 367.938 503.551 367.938 502.977H370.346C370.369 503.428 370.536 503.773 370.847 504.014C371.157 504.254 371.573 504.374 372.095 504.374C372.581 504.374 372.947 504.283 373.193 504.102C373.445 503.914 373.571 503.671 373.571 503.372ZM380.726 494.152V496.49H382.352V498.354H380.726V503.1C380.726 503.451 380.793 503.703 380.928 503.855C381.062 504.008 381.32 504.084 381.701 504.084C381.982 504.084 382.231 504.063 382.448 504.022V505.947C381.95 506.1 381.438 506.176 380.91 506.176C379.129 506.176 378.221 505.276 378.186 503.478V498.354H376.797V496.49H378.186V494.152H380.726ZM386.447 506H383.898V496.49H386.447V506ZM383.749 494.029C383.749 493.648 383.875 493.335 384.127 493.089C384.385 492.843 384.733 492.72 385.173 492.72C385.606 492.72 385.952 492.843 386.21 493.089C386.468 493.335 386.597 493.648 386.597 494.029C386.597 494.416 386.465 494.732 386.201 494.979C385.943 495.225 385.601 495.348 385.173 495.348C384.745 495.348 384.399 495.225 384.136 494.979C383.878 494.732 383.749 494.416 383.749 494.029ZM390.886 496.49L390.965 497.589C391.645 496.739 392.556 496.314 393.698 496.314C394.706 496.314 395.456 496.61 395.948 497.202C396.44 497.794 396.692 498.679 396.704 499.856V506H394.164V499.918C394.164 499.379 394.047 498.989 393.812 498.749C393.578 498.503 393.188 498.38 392.644 498.38C391.929 498.38 391.393 498.685 391.035 499.294V506H388.495V496.49H390.886ZM404.148 506C404.031 505.771 403.946 505.487 403.894 505.147C403.278 505.833 402.479 506.176 401.494 506.176C400.562 506.176 399.789 505.906 399.174 505.367C398.564 504.828 398.26 504.148 398.26 503.328C398.26 502.32 398.632 501.547 399.376 501.008C400.126 500.469 401.207 500.196 402.619 500.19H403.788V499.646C403.788 499.206 403.674 498.854 403.445 498.591C403.223 498.327 402.868 498.195 402.382 498.195C401.954 498.195 401.617 498.298 401.371 498.503C401.131 498.708 401.011 498.989 401.011 499.347H398.471C398.471 498.796 398.641 498.286 398.98 497.817C399.32 497.349 399.801 496.982 400.422 496.719C401.043 496.449 401.74 496.314 402.514 496.314C403.686 496.314 404.614 496.61 405.3 497.202C405.991 497.788 406.337 498.614 406.337 499.681V503.803C406.343 504.705 406.469 505.388 406.715 505.851V506H404.148ZM402.048 504.233C402.423 504.233 402.769 504.151 403.085 503.987C403.401 503.817 403.636 503.592 403.788 503.311V501.676H402.839C401.567 501.676 400.891 502.115 400.809 502.994L400.8 503.144C400.8 503.46 400.911 503.721 401.134 503.926C401.356 504.131 401.661 504.233 402.048 504.233ZM411.329 494.152V496.49H412.955V498.354H411.329V503.1C411.329 503.451 411.396 503.703 411.531 503.855C411.666 504.008 411.924 504.084 412.305 504.084C412.586 504.084 412.835 504.063 413.052 504.022V505.947C412.554 506.1 412.041 506.176 411.514 506.176C409.732 506.176 408.824 505.276 408.789 503.478V498.354H407.4V496.49H408.789V494.152H411.329ZM417.051 506H414.502V496.49H417.051V506ZM414.353 494.029C414.353 493.648 414.479 493.335 414.73 493.089C414.988 492.843 415.337 492.72 415.776 492.72C416.21 492.72 416.556 492.843 416.813 493.089C417.071 493.335 417.2 493.648 417.2 494.029C417.2 494.416 417.068 494.732 416.805 494.979C416.547 495.225 416.204 495.348 415.776 495.348C415.349 495.348 415.003 495.225 414.739 494.979C414.481 494.732 414.353 494.416 414.353 494.029ZM418.756 501.157C418.756 500.214 418.938 499.373 419.301 498.635C419.664 497.896 420.186 497.325 420.865 496.921C421.551 496.517 422.345 496.314 423.247 496.314C424.53 496.314 425.576 496.707 426.385 497.492C427.199 498.277 427.653 499.344 427.747 500.691L427.765 501.342C427.765 502.801 427.357 503.973 426.543 504.857C425.729 505.736 424.636 506.176 423.265 506.176C421.894 506.176 420.798 505.736 419.978 504.857C419.163 503.979 418.756 502.783 418.756 501.271V501.157ZM421.296 501.342C421.296 502.244 421.466 502.936 421.806 503.416C422.146 503.891 422.632 504.128 423.265 504.128C423.88 504.128 424.36 503.894 424.706 503.425C425.052 502.95 425.225 502.194 425.225 501.157C425.225 500.272 425.052 499.587 424.706 499.101C424.36 498.614 423.874 498.371 423.247 498.371C422.626 498.371 422.146 498.614 421.806 499.101C421.466 499.581 421.296 500.328 421.296 501.342ZM431.667 496.49L431.746 497.589C432.426 496.739 433.337 496.314 434.479 496.314C435.487 496.314 436.237 496.61 436.729 497.202C437.222 497.794 437.474 498.679 437.485 499.856V506H434.945V499.918C434.945 499.379 434.828 498.989 434.594 498.749C434.359 498.503 433.97 498.38 433.425 498.38C432.71 498.38 432.174 498.685 431.816 499.294V506H429.276V496.49H431.667ZM446.872 506H444.235V493.203H446.872V506ZM451.961 501.491V506H449.324V493.203H454.316C455.277 493.203 456.121 493.379 456.848 493.73C457.58 494.082 458.143 494.583 458.535 495.233C458.928 495.878 459.124 496.613 459.124 497.439C459.124 498.693 458.693 499.684 457.832 500.41C456.977 501.131 455.79 501.491 454.272 501.491H451.961ZM451.961 499.355H454.316C455.014 499.355 455.544 499.191 455.907 498.863C456.276 498.535 456.461 498.066 456.461 497.457C456.461 496.83 456.276 496.323 455.907 495.937C455.538 495.55 455.028 495.351 454.378 495.339H451.961V499.355ZM472.65 503.363H468.027L467.148 506H464.345L469.108 493.203H471.552L476.342 506H473.538L472.65 503.363ZM468.739 501.228H471.938L470.33 496.438L468.739 501.228ZM476.975 501.175C476.975 499.692 477.306 498.512 477.968 497.633C478.636 496.754 479.547 496.314 480.701 496.314C481.627 496.314 482.392 496.66 482.995 497.352V492.5H485.544V506H483.25L483.127 504.989C482.494 505.78 481.68 506.176 480.684 506.176C479.564 506.176 478.665 505.736 477.985 504.857C477.312 503.973 476.975 502.745 476.975 501.175ZM479.515 501.359C479.515 502.25 479.67 502.933 479.98 503.407C480.291 503.882 480.742 504.119 481.334 504.119C482.119 504.119 482.673 503.788 482.995 503.126V499.373C482.679 498.711 482.131 498.38 481.352 498.38C480.127 498.38 479.515 499.373 479.515 501.359ZM487.117 501.175C487.117 499.692 487.448 498.512 488.11 497.633C488.778 496.754 489.689 496.314 490.844 496.314C491.77 496.314 492.534 496.66 493.138 497.352V492.5H495.687V506H493.393L493.27 504.989C492.637 505.78 491.822 506.176 490.826 506.176C489.707 506.176 488.808 505.736 488.128 504.857C487.454 503.973 487.117 502.745 487.117 501.175ZM489.657 501.359C489.657 502.25 489.812 502.933 490.123 503.407C490.434 503.882 490.885 504.119 491.477 504.119C492.262 504.119 492.815 503.788 493.138 503.126V499.373C492.821 498.711 492.273 498.38 491.494 498.38C490.27 498.38 489.657 499.373 489.657 501.359ZM502.999 498.872C502.653 498.825 502.349 498.802 502.085 498.802C501.124 498.802 500.494 499.127 500.195 499.777V506H497.655V496.49H500.055L500.125 497.624C500.635 496.751 501.341 496.314 502.243 496.314C502.524 496.314 502.788 496.353 503.034 496.429L502.999 498.872ZM508.431 506.176C507.036 506.176 505.899 505.748 505.021 504.893C504.147 504.037 503.711 502.897 503.711 501.474V501.228C503.711 500.272 503.896 499.42 504.265 498.67C504.634 497.914 505.155 497.334 505.829 496.93C506.509 496.52 507.282 496.314 508.149 496.314C509.45 496.314 510.473 496.725 511.217 497.545C511.967 498.365 512.342 499.528 512.342 501.034V502.071H506.286C506.368 502.692 506.614 503.19 507.024 503.565C507.44 503.94 507.965 504.128 508.598 504.128C509.576 504.128 510.341 503.773 510.892 503.064L512.14 504.462C511.759 505.001 511.243 505.423 510.593 505.728C509.942 506.026 509.222 506.176 508.431 506.176ZM508.141 498.371C507.637 498.371 507.227 498.541 506.91 498.881C506.6 499.221 506.4 499.707 506.312 500.34H509.846V500.138C509.834 499.575 509.682 499.142 509.389 498.837C509.096 498.526 508.68 498.371 508.141 498.371ZM518.942 503.372C518.942 503.062 518.787 502.818 518.477 502.643C518.172 502.461 517.68 502.3 517 502.159C514.738 501.685 513.607 500.724 513.607 499.276C513.607 498.433 513.956 497.729 514.653 497.167C515.356 496.599 516.273 496.314 517.404 496.314C518.611 496.314 519.575 496.599 520.296 497.167C521.022 497.735 521.386 498.474 521.386 499.382H518.846C518.846 499.019 518.729 498.72 518.494 498.485C518.26 498.245 517.894 498.125 517.396 498.125C516.968 498.125 516.637 498.222 516.402 498.415C516.168 498.608 516.051 498.854 516.051 499.153C516.051 499.435 516.183 499.663 516.446 499.839C516.716 500.009 517.167 500.158 517.8 500.287C518.433 500.41 518.966 500.551 519.399 500.709C520.741 501.201 521.412 502.054 521.412 503.267C521.412 504.134 521.04 504.837 520.296 505.376C519.552 505.909 518.591 506.176 517.413 506.176C516.616 506.176 515.907 506.035 515.286 505.754C514.671 505.467 514.188 505.077 513.836 504.585C513.484 504.087 513.309 503.551 513.309 502.977H515.717C515.74 503.428 515.907 503.773 516.218 504.014C516.528 504.254 516.944 504.374 517.466 504.374C517.952 504.374 518.318 504.283 518.564 504.102C518.816 503.914 518.942 503.671 518.942 503.372ZM528.206 503.372C528.206 503.062 528.051 502.818 527.74 502.643C527.436 502.461 526.943 502.3 526.264 502.159C524.002 501.685 522.871 500.724 522.871 499.276C522.871 498.433 523.22 497.729 523.917 497.167C524.62 496.599 525.537 496.314 526.668 496.314C527.875 496.314 528.839 496.599 529.56 497.167C530.286 497.735 530.649 498.474 530.649 499.382H528.109C528.109 499.019 527.992 498.72 527.758 498.485C527.523 498.245 527.157 498.125 526.659 498.125C526.231 498.125 525.9 498.222 525.666 498.415C525.432 498.608 525.314 498.854 525.314 499.153C525.314 499.435 525.446 499.663 525.71 499.839C525.979 500.009 526.431 500.158 527.063 500.287C527.696 500.41 528.229 500.551 528.663 500.709C530.005 501.201 530.676 502.054 530.676 503.267C530.676 504.134 530.304 504.837 529.56 505.376C528.815 505.909 527.854 506.176 526.677 506.176C525.88 506.176 525.171 506.035 524.55 505.754C523.935 505.467 523.451 505.077 523.1 504.585C522.748 504.087 522.572 503.551 522.572 502.977H524.98C525.004 503.428 525.171 503.773 525.481 504.014C525.792 504.254 526.208 504.374 526.729 504.374C527.216 504.374 527.582 504.283 527.828 504.102C528.08 503.914 528.206 503.671 528.206 503.372Z" fill="black"/>
<path d="M120 89.5C99.5 22 424.5 113 436.5 55" stroke="black" stroke-opacity="0.3"/>
<path d="M754.57 89.5C775.07 22 450.07 113 438.07 55" stroke="black" stroke-opacity="0.3"/>
<path d="M422.438 84.207L423.141 84.2129C423.656 84.2129 424.09 84.0781 424.441 83.8086C424.797 83.5352 425 83.166 425.051 82.7012C425.102 82.248 425.018 81.8926 424.799 81.6348C424.58 81.373 424.262 81.2383 423.844 81.2305C423.398 81.2227 423.02 81.3535 422.707 81.623C422.398 81.8887 422.209 82.248 422.139 82.7012L421.09 82.707C421.156 82.0039 421.455 81.4336 421.986 80.9961C422.521 80.5547 423.158 80.3379 423.896 80.3457C424.611 80.3613 425.172 80.5859 425.578 81.0195C425.988 81.4492 426.166 82.0176 426.111 82.7246C426.076 83.127 425.922 83.4941 425.648 83.8262C425.375 84.1582 424.996 84.4336 424.512 84.6523C424.898 84.8086 425.188 85.0566 425.379 85.3965C425.57 85.7324 425.65 86.127 425.619 86.5801C425.557 87.3496 425.25 87.9688 424.699 88.4375C424.152 88.9062 423.486 89.1328 422.701 89.1172C421.971 89.1016 421.389 88.875 420.955 88.4375C420.521 88 420.32 87.4355 420.352 86.7441L421.412 86.75C421.389 87.1875 421.494 87.541 421.729 87.8105C421.963 88.0762 422.303 88.2168 422.748 88.2324C423.248 88.248 423.664 88.1055 423.996 87.8047C424.328 87.5039 424.518 87.1016 424.564 86.5977C424.607 86.1328 424.502 85.7715 424.248 85.5137C423.994 85.252 423.615 85.1133 423.111 85.0977L422.297 85.0918L422.438 84.207ZM432.164 89H426.732L426.861 88.1738L430.008 85.1152L430.582 84.5469C431.242 83.8867 431.607 83.2773 431.678 82.7188C431.729 82.2891 431.645 81.9395 431.426 81.6699C431.207 81.3965 430.898 81.252 430.5 81.2363C429.988 81.2207 429.561 81.3711 429.217 81.6875C428.873 82 428.664 82.4297 428.59 82.9766L427.541 82.9824C427.592 82.459 427.752 81.9961 428.021 81.5938C428.295 81.1875 428.652 80.877 429.094 80.6621C429.539 80.4434 430.021 80.3398 430.541 80.3516C431.248 80.3672 431.809 80.582 432.223 80.9961C432.641 81.4062 432.82 81.9395 432.762 82.5957C432.695 83.3457 432.264 84.1348 431.467 84.9629L430.928 85.5078L428.186 88.1152H432.305L432.164 89ZM436.482 89L437.965 80.4688L440.467 80.4746C441.338 80.4746 441.99 80.6699 442.424 81.0605C442.857 81.4512 443.047 81.9961 442.992 82.6953C442.922 83.5117 442.408 84.127 441.451 84.541C441.834 84.6895 442.119 84.9434 442.307 85.3027C442.498 85.6621 442.576 86.0586 442.541 86.4922C442.482 87.2617 442.174 87.873 441.615 88.3262C441.057 88.7754 440.334 89 439.447 89H436.482ZM438.275 85.0098L437.742 88.0801L439.482 88.0859C440.014 88.0859 440.459 87.9434 440.818 87.6582C441.178 87.373 441.387 86.9883 441.445 86.5039C441.5 86.043 441.42 85.6836 441.205 85.4258C440.99 85.168 440.652 85.0312 440.191 85.0156L438.275 85.0098ZM438.434 84.1074L440.021 84.1133C440.518 84.1133 440.936 83.9863 441.275 83.7324C441.619 83.4785 441.82 83.1289 441.879 82.6836C441.93 82.2695 441.848 81.957 441.633 81.7461C441.422 81.5352 441.07 81.4199 440.578 81.4004L438.902 81.3945L438.434 84.1074ZM444.779 89H443.725L444.826 82.6602H445.881L444.779 89ZM445.652 80.3457C445.832 80.3379 445.98 80.3926 446.098 80.5098C446.219 80.623 446.279 80.7734 446.279 80.9609C446.275 81.1445 446.215 81.2949 446.098 81.4121C445.984 81.5293 445.836 81.5918 445.652 81.5996C445.469 81.6074 445.318 81.5547 445.201 81.4414C445.084 81.3281 445.027 81.1797 445.031 80.9961C445.035 80.8125 445.094 80.6602 445.207 80.5391C445.32 80.418 445.469 80.3535 445.652 80.3457ZM449.314 81.125L449.045 82.6602H450.199L450.053 83.498H448.904L448.242 87.4414C448.23 87.543 448.229 87.6367 448.236 87.7227C448.264 88.0273 448.43 88.1797 448.734 88.1797C448.863 88.1797 449.035 88.1602 449.25 88.1211L449.168 89.0059C448.914 89.0762 448.656 89.1113 448.395 89.1113C447.973 89.1035 447.656 88.9492 447.445 88.6484C447.234 88.3438 447.152 87.9355 447.199 87.4238L447.844 83.498H446.725L446.871 82.6602H447.99L448.26 81.125H449.314ZM454.307 87.2832C454.365 86.8457 454.125 86.5371 453.586 86.3574L452.484 86.0352C451.555 85.7148 451.105 85.1836 451.137 84.4414C451.164 83.8828 451.418 83.4258 451.898 83.0703C452.383 82.7109 452.951 82.5352 453.604 82.543C454.244 82.5508 454.764 82.7383 455.162 83.1055C455.564 83.4688 455.758 83.9434 455.742 84.5293L454.688 84.5234C454.695 84.207 454.596 83.9492 454.389 83.75C454.182 83.5508 453.906 83.4473 453.562 83.4395C453.195 83.4316 452.879 83.5215 452.613 83.709C452.367 83.8848 452.225 84.1152 452.186 84.4004C452.135 84.7676 452.359 85.0352 452.859 85.2031L453.393 85.3496C454.119 85.5371 454.635 85.7812 454.939 86.082C455.244 86.3828 455.385 86.7559 455.361 87.2012C455.338 87.5957 455.209 87.9395 454.975 88.2324C454.74 88.5254 454.428 88.75 454.037 88.9062C453.646 89.0586 453.23 89.1289 452.789 89.1172C452.117 89.1094 451.562 88.9141 451.125 88.5312C450.688 88.1445 450.477 87.6484 450.492 87.043L451.553 87.0488C451.553 87.4043 451.666 87.6895 451.893 87.9043C452.119 88.1191 452.43 88.2266 452.824 88.2266C453.211 88.2344 453.545 88.1543 453.826 87.9863C454.107 87.8145 454.268 87.5801 454.307 87.2832Z" fill="black" fill-opacity="0.5"/>
<path d="M6.40332 113L8.13281 103.047L11.0518 103.054C12.068 103.054 12.8291 103.282 13.335 103.737C13.8408 104.193 14.0618 104.829 13.998 105.645C13.916 106.597 13.3167 107.315 12.2002 107.798C12.6468 107.971 12.9795 108.267 13.1982 108.687C13.4215 109.106 13.5127 109.568 13.4717 110.074C13.4033 110.972 13.0433 111.685 12.3916 112.214C11.7399 112.738 10.8968 113 9.8623 113H6.40332ZM8.49512 108.345L7.87305 111.927L9.90332 111.934C10.5231 111.934 11.0426 111.767 11.4619 111.435C11.8812 111.102 12.125 110.653 12.1934 110.088C12.2572 109.55 12.1637 109.131 11.9131 108.83C11.6624 108.529 11.2682 108.37 10.7305 108.352L8.49512 108.345ZM8.67969 107.292L10.5322 107.299C11.111 107.299 11.5986 107.151 11.9951 106.854C12.3962 106.558 12.6309 106.15 12.6992 105.631C12.7585 105.148 12.6628 104.783 12.4121 104.537C12.166 104.291 11.7559 104.157 11.1816 104.134L9.22656 104.127L8.67969 107.292ZM17.9424 113.137C17.0218 113.118 16.3018 112.779 15.7822 112.118C15.2627 111.457 15.0439 110.612 15.126 109.582L15.1602 109.288C15.2376 108.554 15.4541 107.884 15.8096 107.278C16.1696 106.672 16.6071 106.216 17.1221 105.911C17.637 105.601 18.193 105.453 18.79 105.467C19.5511 105.485 20.1481 105.738 20.5811 106.226C21.014 106.713 21.251 107.374 21.292 108.208C21.3057 108.504 21.2965 108.8 21.2646 109.097L21.1895 109.664H16.3564C16.2744 110.334 16.3838 110.904 16.6846 111.373C16.9899 111.842 17.4434 112.086 18.0449 112.104C18.7741 112.123 19.4486 111.795 20.0684 111.12L20.7793 111.722C20.4694 112.168 20.0684 112.519 19.5762 112.774C19.0885 113.025 18.5439 113.146 17.9424 113.137ZM18.7285 106.499C18.2181 106.485 17.7715 106.659 17.3887 107.019C17.0104 107.379 16.7096 107.914 16.4863 108.625L20.082 108.632L20.1094 108.522C20.1823 107.948 20.0889 107.472 19.8291 107.094C19.5739 106.711 19.207 106.513 18.7285 106.499ZM22.3652 109.288C22.4746 108.481 22.6911 107.782 23.0146 107.189C23.3428 106.592 23.7393 106.153 24.2041 105.87C24.6735 105.583 25.1862 105.446 25.7422 105.46C26.599 105.478 27.2461 105.802 27.6836 106.431L27.9297 105.604H29.0645L27.834 112.843C27.7018 113.786 27.319 114.54 26.6855 115.105C26.0521 115.675 25.2705 115.946 24.3408 115.919C23.8395 115.91 23.3587 115.791 22.8984 115.563C22.4427 115.336 22.0827 115.023 21.8184 114.627L22.5225 113.868C22.9691 114.529 23.5592 114.868 24.293 114.887C24.8809 114.905 25.3776 114.741 25.7832 114.395C26.1934 114.048 26.4645 113.556 26.5967 112.918L26.7334 112.262C26.1318 112.863 25.4277 113.155 24.6211 113.137C24.1608 113.123 23.7598 113 23.418 112.768C23.0807 112.531 22.8187 112.191 22.6318 111.749C22.445 111.302 22.3424 110.806 22.3242 110.259C22.3151 109.99 22.3288 109.666 22.3652 109.288ZM23.5615 109.992C23.5479 110.644 23.6595 111.15 23.8965 111.51C24.138 111.865 24.5003 112.052 24.9834 112.07C25.7217 112.089 26.3574 111.726 26.8906 110.983L27.4717 107.586C27.1982 106.911 26.7038 106.561 25.9883 106.533C25.3184 106.515 24.7669 106.788 24.334 107.354C23.9056 107.919 23.6527 108.682 23.5752 109.644L23.5615 109.992ZM31.04 113H29.8096L31.0947 105.604H32.3252L31.04 113ZM32.0586 102.903C32.2682 102.894 32.4414 102.958 32.5781 103.095C32.7194 103.227 32.79 103.402 32.79 103.621C32.7855 103.835 32.7148 104.011 32.5781 104.147C32.446 104.284 32.2728 104.357 32.0586 104.366C31.8444 104.375 31.6689 104.314 31.5322 104.182C31.3955 104.049 31.3294 103.876 31.334 103.662C31.3385 103.448 31.4069 103.27 31.5391 103.129C31.6712 102.988 31.8444 102.912 32.0586 102.903ZM35.5176 105.597L35.3398 106.533C36.0052 105.804 36.7617 105.449 37.6094 105.467C38.3066 105.485 38.8216 105.727 39.1543 106.191C39.487 106.656 39.61 107.31 39.5234 108.153L38.7168 113H37.4795L38.293 108.133C38.3203 107.91 38.3226 107.702 38.2998 107.511C38.2223 106.873 37.8464 106.547 37.1719 106.533C36.429 106.52 35.7773 106.916 35.2168 107.723L34.3008 113H33.0635L34.3486 105.604L35.5176 105.597ZM45.2041 110.997C45.2725 110.487 44.9922 110.127 44.3633 109.917L43.0781 109.541C41.9935 109.167 41.4694 108.548 41.5059 107.682C41.5378 107.03 41.834 106.497 42.3945 106.082C42.9596 105.663 43.6227 105.458 44.3838 105.467C45.1312 105.476 45.7373 105.695 46.2021 106.123C46.6715 106.547 46.8971 107.101 46.8789 107.784L45.6484 107.777C45.6576 107.408 45.5413 107.107 45.2998 106.875C45.0583 106.643 44.737 106.522 44.3359 106.513C43.9076 106.504 43.5384 106.608 43.2285 106.827C42.9414 107.032 42.7751 107.301 42.7295 107.634C42.6702 108.062 42.9323 108.374 43.5156 108.57L44.1377 108.741C44.9854 108.96 45.5869 109.245 45.9424 109.596C46.2979 109.947 46.4619 110.382 46.4346 110.901C46.4072 111.362 46.2568 111.763 45.9834 112.104C45.71 112.446 45.3454 112.708 44.8896 112.891C44.4339 113.068 43.9486 113.15 43.4336 113.137C42.6497 113.128 42.0026 112.9 41.4922 112.453C40.9818 112.002 40.7357 111.423 40.7539 110.717L41.9912 110.724C41.9912 111.138 42.1234 111.471 42.3877 111.722C42.652 111.972 43.0143 112.098 43.4746 112.098C43.9258 112.107 44.3154 112.013 44.6436 111.817C44.9717 111.617 45.1585 111.343 45.2041 110.997ZM55.6494 113C55.6175 112.868 55.6016 112.738 55.6016 112.61L55.6221 112.221C54.943 112.85 54.223 113.155 53.4619 113.137C52.8102 113.128 52.2793 112.923 51.8691 112.521C51.4635 112.116 51.279 111.61 51.3154 111.004C51.361 110.22 51.7028 109.609 52.3408 109.172C52.9834 108.73 53.8265 108.509 54.8701 108.509L56.1621 108.516L56.2441 107.928C56.2897 107.486 56.2031 107.137 55.9844 106.882C55.7702 106.622 55.4466 106.488 55.0137 106.479C54.5898 106.469 54.2139 106.574 53.8857 106.793C53.5622 107.007 53.3639 107.292 53.291 107.647L52.0469 107.654C52.0879 107.221 52.2565 106.839 52.5527 106.506C52.849 106.169 53.2295 105.909 53.6943 105.727C54.1592 105.54 54.64 105.451 55.1367 105.46C55.9069 105.478 56.5062 105.713 56.9346 106.164C57.363 106.611 57.543 107.205 57.4746 107.948L56.873 111.612L56.8389 112.139C56.8298 112.389 56.8571 112.638 56.9209 112.884L56.9072 113H55.6494ZM53.708 112.043C54.1045 112.052 54.4782 111.959 54.8291 111.763C55.1846 111.562 55.4899 111.286 55.7451 110.936L56.0117 109.411L55.0752 109.404C54.2959 109.404 53.6989 109.527 53.2842 109.773C52.8695 110.02 52.6348 110.368 52.5801 110.819C52.5391 111.166 52.6188 111.455 52.8193 111.688C53.0244 111.915 53.3206 112.034 53.708 112.043ZM61.8564 103.812L61.542 105.604H62.8887L62.7178 106.581H61.3779L60.6055 111.182C60.5918 111.3 60.5895 111.41 60.5986 111.51C60.6305 111.865 60.8242 112.043 61.1797 112.043C61.3301 112.043 61.5306 112.02 61.7812 111.975L61.6855 113.007C61.3893 113.089 61.0885 113.13 60.7832 113.13C60.291 113.121 59.9219 112.941 59.6758 112.59C59.4297 112.234 59.334 111.758 59.3887 111.161L60.1406 106.581H58.835L59.0059 105.604H60.3115L60.626 103.812H61.8564ZM73.2451 109.336C73.154 110.092 72.9466 110.774 72.623 111.38C72.2995 111.986 71.9076 112.435 71.4473 112.727C70.987 113.018 70.4766 113.157 69.916 113.144C69.0228 113.125 68.3597 112.79 67.9268 112.139L67.6738 113H66.5322L68.3574 102.5H69.5947L68.8496 106.424C69.4421 105.768 70.1621 105.449 71.0098 105.467C71.7207 105.485 72.2744 105.747 72.6709 106.253C73.0674 106.759 73.277 107.456 73.2998 108.345C73.3044 108.636 73.2907 108.919 73.2588 109.192L73.2451 109.336ZM72.0693 108.618C72.083 107.953 71.9714 107.445 71.7344 107.094C71.4974 106.738 71.1351 106.551 70.6475 106.533C69.8773 106.515 69.2256 106.902 68.6924 107.695L68.1387 110.915C68.4121 111.667 68.9248 112.052 69.6768 112.07C70.1598 112.089 70.5814 111.945 70.9414 111.64C71.306 111.334 71.5817 110.908 71.7686 110.361C71.9554 109.81 72.0557 109.229 72.0693 108.618ZM75.5693 113H74.3389L75.624 105.604H76.8545L75.5693 113ZM76.5879 102.903C76.7975 102.894 76.9707 102.958 77.1074 103.095C77.2487 103.227 77.3193 103.402 77.3193 103.621C77.3148 103.835 77.2441 104.011 77.1074 104.147C76.9753 104.284 76.8021 104.357 76.5879 104.366C76.3737 104.375 76.1982 104.314 76.0615 104.182C75.9248 104.049 75.8587 103.876 75.8633 103.662C75.8678 103.448 75.9362 103.27 76.0684 103.129C76.2005 102.988 76.3737 102.912 76.5879 102.903ZM80.8604 103.812L80.5459 105.604H81.8926L81.7217 106.581H80.3818L79.6094 111.182C79.5957 111.3 79.5934 111.41 79.6025 111.51C79.6344 111.865 79.8281 112.043 80.1836 112.043C80.334 112.043 80.5345 112.02 80.7852 111.975L80.6895 113.007C80.3932 113.089 80.0924 113.13 79.7871 113.13C79.2949 113.121 78.9258 112.941 78.6797 112.59C78.4336 112.234 78.3379 111.758 78.3926 111.161L79.1445 106.581H77.8389L78.0098 105.604H79.3154L79.6299 103.812H80.8604ZM90.1572 110.197H88.4482L87.4229 113H86.4385L87.457 110.197H85.8848L86.0488 109.261H87.792L88.667 106.841H86.9717L87.1357 105.891H89.0088L90.0479 103.047H91.0391L89.9932 105.891H91.709L92.748 103.047H93.7461L92.7002 105.891H94.04L93.876 106.841H92.3584L91.4834 109.261H92.96L92.7959 110.197H91.1484L90.1299 113H89.1318L90.1572 110.197ZM88.7764 109.261H90.4854L91.3672 106.841H89.6582L88.7764 109.261ZM94.8125 111.564C95.0358 111.56 95.2204 111.628 95.3662 111.77C95.512 111.911 95.5827 112.093 95.5781 112.316C95.5736 112.54 95.4984 112.722 95.3525 112.863C95.2067 113 95.0244 113.073 94.8057 113.082C94.5869 113.091 94.4069 113.03 94.2656 112.897C94.1243 112.761 94.0537 112.581 94.0537 112.357C94.0537 112.134 94.1243 111.95 94.2656 111.804C94.4069 111.653 94.5892 111.574 94.8125 111.564ZM95.8584 105.528C96.0817 105.524 96.2663 105.592 96.4121 105.733C96.5579 105.875 96.6286 106.057 96.624 106.28C96.6195 106.504 96.5443 106.686 96.3984 106.827C96.2526 106.964 96.0703 107.037 95.8516 107.046C95.6328 107.055 95.4528 106.993 95.3115 106.861C95.1702 106.725 95.0996 106.545 95.0996 106.321C95.0996 106.098 95.1702 105.913 95.3115 105.768C95.4528 105.617 95.6351 105.537 95.8584 105.528Z" fill="black" fill-opacity="0.5"/>
<path d="M111.746 113H109.818L111.131 105.426L108.711 106.157L109.012 104.469L113.168 103.033L113.421 103.026L111.746 113Z" fill="black" fill-opacity="0.5"/>
<path d="M102.162 157.148L103.085 157.155C103.554 157.155 103.946 157.025 104.261 156.766C104.58 156.506 104.764 156.157 104.814 155.72C104.86 155.351 104.789 155.057 104.603 154.838C104.416 154.615 104.135 154.498 103.762 154.489C103.388 154.48 103.067 154.583 102.798 154.797C102.534 155.007 102.372 155.28 102.312 155.617L100.385 155.631C100.426 154.829 100.77 154.173 101.417 153.662C102.069 153.147 102.859 152.894 103.789 152.903C104.728 152.922 105.471 153.184 106.018 153.689C106.564 154.195 106.813 154.865 106.763 155.699C106.699 156.647 106.095 157.39 104.951 157.928C105.398 158.142 105.724 158.447 105.929 158.844C106.138 159.236 106.229 159.673 106.202 160.156C106.17 160.758 105.986 161.286 105.648 161.742C105.311 162.198 104.86 162.549 104.295 162.795C103.73 163.036 103.119 163.15 102.463 163.137C101.574 163.128 100.85 162.861 100.289 162.337C99.7285 161.813 99.4528 161.122 99.4619 160.266H101.376C101.367 160.635 101.469 160.938 101.684 161.175C101.902 161.407 102.205 161.528 102.593 161.537C103.039 161.546 103.422 161.421 103.741 161.161C104.06 160.897 104.247 160.553 104.302 160.129C104.361 159.673 104.279 159.325 104.056 159.083C103.837 158.841 103.502 158.714 103.051 158.7L101.916 158.693L102.162 157.148ZM110.023 157.148L110.946 157.155C111.416 157.155 111.808 157.025 112.122 156.766C112.441 156.506 112.626 156.157 112.676 155.72C112.721 155.351 112.651 155.057 112.464 154.838C112.277 154.615 111.997 154.498 111.623 154.489C111.249 154.48 110.928 154.583 110.659 154.797C110.395 155.007 110.233 155.28 110.174 155.617L108.246 155.631C108.287 154.829 108.631 154.173 109.278 153.662C109.93 153.147 110.721 152.894 111.65 152.903C112.589 152.922 113.332 153.184 113.879 153.689C114.426 154.195 114.674 154.865 114.624 155.699C114.56 156.647 113.956 157.39 112.812 157.928C113.259 158.142 113.585 158.447 113.79 158.844C114 159.236 114.091 159.673 114.063 160.156C114.032 160.758 113.847 161.286 113.51 161.742C113.173 162.198 112.721 162.549 112.156 162.795C111.591 163.036 110.98 163.15 110.324 163.137C109.436 163.128 108.711 162.861 108.15 162.337C107.59 161.813 107.314 161.122 107.323 160.266H109.237C109.228 160.635 109.331 160.938 109.545 161.175C109.764 161.407 110.067 161.528 110.454 161.537C110.901 161.546 111.284 161.421 111.603 161.161C111.922 160.897 112.108 160.553 112.163 160.129C112.222 159.673 112.14 159.325 111.917 159.083C111.698 158.841 111.363 158.714 110.912 158.7L109.777 158.693L110.023 157.148Z" fill="black" fill-opacity="0.5"/>
<path d="M106.052 202.938L105.901 204.571L105.525 204.578C103.962 204.66 102.834 205.521 102.142 207.162C102.711 206.602 103.379 206.33 104.145 206.349C104.682 206.358 105.136 206.508 105.505 206.8C105.879 207.091 106.152 207.49 106.325 207.996C106.498 208.502 106.56 209.06 106.51 209.671C106.455 210.323 106.259 210.92 105.922 211.462C105.589 212 105.152 212.419 104.609 212.72C104.067 213.016 103.481 213.157 102.853 213.144C102.201 213.125 101.64 212.943 101.171 212.597C100.706 212.246 100.367 211.767 100.152 211.161C99.9382 210.555 99.8675 209.894 99.9404 209.179L100.016 208.563C100.23 206.85 100.856 205.485 101.896 204.469C102.939 203.448 104.238 202.938 105.792 202.938H106.052ZM103.488 207.921C103.156 207.912 102.857 207.994 102.593 208.167C102.328 208.34 102.11 208.561 101.937 208.83L101.848 209.445C101.825 209.65 101.816 209.874 101.82 210.115C101.829 210.544 101.927 210.888 102.114 211.147C102.301 211.407 102.565 211.539 102.907 211.544C103.244 211.558 103.552 211.448 103.83 211.216C104.108 210.983 104.313 210.671 104.445 210.279C104.577 209.887 104.621 209.489 104.575 209.083C104.534 208.728 104.418 208.447 104.227 208.242C104.04 208.033 103.794 207.925 103.488 207.921ZM108.191 208.078L109.531 203.047H114.973L114.713 204.694H110.892L110.235 206.848C110.641 206.592 111.119 206.465 111.671 206.465C112.523 206.465 113.182 206.768 113.646 207.374C114.116 207.976 114.314 208.771 114.241 209.76C114.187 210.416 113.993 211.006 113.66 211.53C113.332 212.054 112.899 212.458 112.361 212.74C111.824 213.023 111.231 213.157 110.584 213.144C110.023 213.139 109.513 213.011 109.053 212.761C108.597 212.506 108.242 212.157 107.986 211.715C107.731 211.268 107.601 210.771 107.597 210.225H109.49C109.508 210.63 109.62 210.949 109.825 211.182C110.03 211.41 110.308 211.528 110.659 211.537C111.115 211.551 111.489 211.384 111.78 211.038C112.076 210.692 112.254 210.227 112.313 209.644C112.368 209.124 112.288 208.714 112.074 208.413C111.865 208.112 111.543 207.957 111.11 207.948C110.627 207.939 110.181 208.117 109.771 208.481L108.191 208.078Z" fill="black" fill-opacity="0.5"/>
<path d="M96.0234 413H94.0957L95.4082 405.426L92.9883 406.157L93.2891 404.469L97.4453 403.033L97.6982 403.026L96.0234 413ZM104.493 409.015C103.933 409.534 103.333 409.789 102.695 409.78C102.148 409.776 101.684 409.63 101.301 409.343C100.918 409.056 100.633 408.657 100.446 408.146C100.264 407.632 100.2 407.076 100.255 406.479C100.319 405.745 100.551 405.082 100.952 404.489C101.353 403.897 101.875 403.459 102.518 403.177C102.941 402.99 103.406 402.901 103.912 402.91C104.732 402.928 105.386 403.215 105.874 403.771C106.362 404.327 106.637 405.073 106.701 406.007C106.719 406.33 106.713 406.652 106.681 406.971L106.605 407.559C106.382 409.295 105.762 410.653 104.746 411.633C103.734 412.613 102.436 413.103 100.85 413.103H100.706L100.856 411.448H100.959C101.857 411.462 102.595 411.268 103.174 410.867C103.753 410.462 104.192 409.844 104.493 409.015ZM103.229 408.276C103.775 408.295 104.258 408.014 104.678 407.436L104.794 406.608C104.817 406.417 104.828 406.201 104.828 405.959C104.819 405.521 104.728 405.171 104.555 404.906C104.382 404.642 104.131 404.505 103.803 404.496C103.475 404.492 103.178 404.61 102.914 404.852C102.654 405.089 102.456 405.414 102.319 405.829C102.187 406.244 102.139 406.656 102.176 407.066C102.208 407.431 102.315 407.723 102.497 407.941C102.684 408.16 102.928 408.272 103.229 408.276ZM110.023 407.148L110.946 407.155C111.416 407.155 111.808 407.025 112.122 406.766C112.441 406.506 112.626 406.157 112.676 405.72C112.721 405.351 112.651 405.057 112.464 404.838C112.277 404.615 111.997 404.498 111.623 404.489C111.249 404.48 110.928 404.583 110.659 404.797C110.395 405.007 110.233 405.28 110.174 405.617L108.246 405.631C108.287 404.829 108.631 404.173 109.278 403.662C109.93 403.147 110.721 402.894 111.65 402.903C112.589 402.922 113.332 403.184 113.879 403.689C114.426 404.195 114.674 404.865 114.624 405.699C114.56 406.647 113.956 407.39 112.812 407.928C113.259 408.142 113.585 408.447 113.79 408.844C114 409.236 114.091 409.673 114.063 410.156C114.032 410.758 113.847 411.286 113.51 411.742C113.173 412.198 112.721 412.549 112.156 412.795C111.591 413.036 110.98 413.15 110.324 413.137C109.436 413.128 108.711 412.861 108.15 412.337C107.59 411.813 107.314 411.122 107.323 410.266H109.237C109.228 410.635 109.331 410.938 109.545 411.175C109.764 411.407 110.067 411.528 110.454 411.537C110.901 411.546 111.284 411.421 111.603 411.161C111.922 410.897 112.108 410.553 112.163 410.129C112.222 409.673 112.14 409.325 111.917 409.083C111.698 408.841 111.363 408.714 110.912 408.7L109.777 408.693L110.023 407.148Z" fill="black" fill-opacity="0.5"/>
<rect x="489.5" y="10.5" width="149" height="34" stroke="black" stroke-opacity="0.3"/>
<rect x="389.5" y="10.5" width="99" height="34" stroke="black" stroke-opacity="0.3"/>
<path d="M408.276 31H406.273L407.996 21.0469H409.999L408.276 31ZM412.795 27.4932L412.18 31H410.177L411.906 21.0469L415.393 21.0537C416.468 21.0537 417.313 21.3522 417.929 21.9492C418.544 22.5462 418.813 23.3255 418.735 24.2871C418.662 25.2624 418.255 26.0417 417.512 26.625C416.773 27.2083 415.83 27.5 414.682 27.5L412.795 27.4932ZM413.075 25.832L414.743 25.8457C415.281 25.8457 415.728 25.7067 416.083 25.4287C416.438 25.1507 416.65 24.7747 416.719 24.3008C416.787 23.8268 416.71 23.4486 416.486 23.166C416.268 22.8835 415.942 22.7331 415.509 22.7148L413.622 22.708L413.075 25.832ZM430.343 31H428.34L429.078 26.7344H425.216L424.471 31H422.468L424.197 21.0469H426.2L425.496 25.0801H429.365L430.062 21.0469H432.065L430.343 31ZM435.524 31.1367C434.877 31.1322 434.303 30.9749 433.802 30.665C433.305 30.3506 432.934 29.9222 432.688 29.3799C432.441 28.833 432.346 28.2314 432.4 27.5752L432.421 27.3018C432.489 26.5817 432.699 25.9209 433.05 25.3193C433.401 24.7178 433.852 24.2552 434.403 23.9316C434.955 23.6035 435.565 23.4486 436.235 23.4668C437.188 23.485 437.908 23.8359 438.396 24.5195C438.888 25.1986 439.075 26.0599 438.956 27.1035L438.847 27.9443H434.314C434.296 28.4229 434.412 28.8057 434.663 29.0928C434.914 29.3799 435.256 29.528 435.688 29.5371C436.39 29.5553 437.006 29.2842 437.534 28.7236L438.416 29.8174C438.138 30.2367 437.737 30.5648 437.213 30.8018C436.689 31.0342 436.126 31.1458 435.524 31.1367ZM436.14 25.0596C435.784 25.0505 435.467 25.1621 435.189 25.3945C434.916 25.627 434.67 26.0303 434.451 26.6045H437.104L437.145 26.4268C437.172 26.2445 437.174 26.0713 437.151 25.9072C437.106 25.6429 436.994 25.4378 436.816 25.292C436.639 25.1416 436.413 25.0641 436.14 25.0596ZM443.7 31C443.641 30.8132 443.616 30.5898 443.625 30.3301C443.069 30.8861 442.44 31.1549 441.738 31.1367C441.091 31.1276 440.553 30.918 440.125 30.5078C439.701 30.0931 439.503 29.5827 439.53 28.9766C439.562 28.1699 439.899 27.5524 440.542 27.124C441.189 26.6911 442.055 26.4746 443.14 26.4746L444.042 26.4883L444.138 26.0439C444.165 25.8936 444.172 25.75 444.158 25.6133C444.135 25.3991 444.053 25.2327 443.912 25.1143C443.775 24.9912 443.593 24.9274 443.365 24.9229C443.064 24.9137 442.809 24.9889 442.6 25.1484C442.39 25.3034 442.256 25.529 442.196 25.8252L440.262 25.832C440.294 25.1257 440.617 24.5537 441.232 24.1162C441.852 23.6742 442.616 23.4577 443.522 23.4668C444.361 23.485 445.017 23.7357 445.491 24.2188C445.965 24.6973 446.163 25.3148 446.086 26.0713L445.519 29.6123L445.484 30.0498C445.475 30.3734 445.514 30.6468 445.601 30.8701L445.594 31H443.7ZM442.217 29.6396C442.773 29.6579 443.258 29.4163 443.673 28.915L443.912 27.6367L443.242 27.6299C442.531 27.6481 442.019 27.8646 441.704 28.2793C441.59 28.4297 441.52 28.6143 441.492 28.833C441.456 29.0791 441.506 29.2751 441.643 29.4209C441.784 29.5622 441.975 29.6351 442.217 29.6396ZM450.447 23.46C451.135 23.4782 451.691 23.7539 452.115 24.2871L452.84 20.5H454.774L452.956 31H451.233L451.343 30.207C450.791 30.8496 450.149 31.1618 449.415 31.1436C448.955 31.139 448.551 31.0182 448.205 30.7812C447.859 30.5443 447.59 30.2048 447.398 29.7627C447.212 29.3161 447.109 28.8193 447.091 28.2725C447.077 27.9854 447.084 27.7074 447.111 27.4385L447.152 27.1309C447.262 26.3743 447.471 25.709 447.781 25.1348C448.096 24.5605 448.479 24.1344 448.93 23.8564C449.385 23.5785 449.891 23.4463 450.447 23.46ZM449.046 27.4385C449.009 27.7848 448.998 28.0765 449.012 28.3135C449.057 29.1156 449.381 29.5234 449.982 29.5371C450.525 29.5599 450.996 29.3047 451.397 28.7715L451.924 25.832C451.746 25.3444 451.391 25.0892 450.857 25.0664C450.388 25.0527 449.996 25.235 449.682 25.6133C449.372 25.987 449.16 26.5954 449.046 27.4385ZM458.015 31.1367C457.368 31.1322 456.793 30.9749 456.292 30.665C455.795 30.3506 455.424 29.9222 455.178 29.3799C454.932 28.833 454.836 28.2314 454.891 27.5752L454.911 27.3018C454.979 26.5817 455.189 25.9209 455.54 25.3193C455.891 24.7178 456.342 24.2552 456.894 23.9316C457.445 23.6035 458.056 23.4486 458.726 23.4668C459.678 23.485 460.398 23.8359 460.886 24.5195C461.378 25.1986 461.565 26.0599 461.446 27.1035L461.337 27.9443H456.805C456.786 28.4229 456.903 28.8057 457.153 29.0928C457.404 29.3799 457.746 29.528 458.179 29.5371C458.881 29.5553 459.496 29.2842 460.024 28.7236L460.906 29.8174C460.628 30.2367 460.227 30.5648 459.703 30.8018C459.179 31.0342 458.616 31.1458 458.015 31.1367ZM458.63 25.0596C458.274 25.0505 457.958 25.1621 457.68 25.3945C457.406 25.627 457.16 26.0303 456.941 26.6045H459.594L459.635 26.4268C459.662 26.2445 459.664 26.0713 459.642 25.9072C459.596 25.6429 459.484 25.4378 459.307 25.292C459.129 25.1416 458.903 25.0641 458.63 25.0596ZM466.977 25.4561C466.712 25.4105 466.496 25.3877 466.327 25.3877C465.639 25.3695 465.094 25.627 464.693 26.1602L463.839 31H461.911L463.196 23.6035L465.008 23.5967L464.83 24.499C465.295 23.8018 465.869 23.4531 466.553 23.4531C466.744 23.4531 466.967 23.485 467.223 23.5488L466.977 25.4561Z" fill="black" fill-opacity="0.3"/>
<path d="M367.367 28.9629C367.673 28.9538 367.932 29.0495 368.146 29.25C368.365 29.446 368.475 29.6943 368.475 29.9951C368.484 30.2959 368.383 30.5534 368.174 30.7676C367.964 30.9772 367.707 31.082 367.401 31.082C367.096 31.0911 366.839 31 366.629 30.8086C366.419 30.6172 366.31 30.3688 366.301 30.0635C366.292 29.7581 366.39 29.5007 366.595 29.291C366.8 29.0814 367.057 28.972 367.367 28.9629ZM374.846 28.9629C375.151 28.9538 375.411 29.0495 375.625 29.25C375.844 29.446 375.953 29.6943 375.953 29.9951C375.962 30.2959 375.862 30.5534 375.652 30.7676C375.443 30.9772 375.185 31.082 374.88 31.082C374.575 31.0911 374.317 31 374.107 30.8086C373.898 30.6172 373.788 30.3688 373.779 30.0635C373.77 29.7581 373.868 29.5007 374.073 29.291C374.278 29.0814 374.536 28.972 374.846 28.9629ZM382.324 28.9629C382.63 28.9538 382.889 29.0495 383.104 29.25C383.322 29.446 383.432 29.6943 383.432 29.9951C383.441 30.2959 383.34 30.5534 383.131 30.7676C382.921 30.9772 382.664 31.082 382.358 31.082C382.053 31.0911 381.796 31 381.586 30.8086C381.376 30.6172 381.267 30.3688 381.258 30.0635C381.249 29.7581 381.347 29.5007 381.552 29.291C381.757 29.0814 382.014 28.972 382.324 28.9629Z" fill="black" fill-opacity="0.3"/>
<path d="M645.367 28.9629C645.673 28.9538 645.932 29.0495 646.146 29.25C646.365 29.446 646.475 29.6943 646.475 29.9951C646.484 30.2959 646.383 30.5534 646.174 30.7676C645.964 30.9772 645.707 31.082 645.401 31.082C645.096 31.0911 644.839 31 644.629 30.8086C644.419 30.6172 644.31 30.3688 644.301 30.0635C644.292 29.7581 644.39 29.5007 644.595 29.291C644.8 29.0814 645.057 28.972 645.367 28.9629ZM652.846 28.9629C653.151 28.9538 653.411 29.0495 653.625 29.25C653.844 29.446 653.953 29.6943 653.953 29.9951C653.962 30.2959 653.862 30.5534 653.652 30.7676C653.443 30.9772 653.185 31.082 652.88 31.082C652.575 31.0911 652.317 31 652.107 30.8086C651.898 30.6172 651.788 30.3688 651.779 30.0635C651.77 29.7581 651.868 29.5007 652.073 29.291C652.278 29.0814 652.536 28.972 652.846 28.9629ZM660.324 28.9629C660.63 28.9538 660.889 29.0495 661.104 29.25C661.322 29.446 661.432 29.6943 661.432 29.9951C661.441 30.2959 661.34 30.5534 661.131 30.7676C660.921 30.9772 660.664 31.082 660.358 31.082C660.053 31.0911 659.796 31 659.586 30.8086C659.376 30.6172 659.267 30.3688 659.258 30.0635C659.249 29.7581 659.347 29.5007 659.552 29.291C659.757 29.0814 660.014 28.972 660.324 28.9629Z" fill="black" fill-opacity="0.3"/>
<path d="M528.859 22.708H525.906L524.471 31H522.468L523.903 22.708H520.984L521.278 21.0469H529.153L528.859 22.708ZM536.543 27.6777C536.465 28.3659 536.231 28.9766 535.839 29.5098C535.447 30.0384 534.937 30.4463 534.308 30.7334C533.679 31.016 533 31.1504 532.271 31.1367C531.614 31.123 531.042 30.9727 530.555 30.6855C530.067 30.3939 529.682 29.9746 529.399 29.4277C529.121 28.8763 528.964 28.2428 528.928 27.5273C528.896 26.9668 528.953 26.2695 529.099 25.4355C529.249 24.6016 529.513 23.861 529.892 23.2139C530.274 22.5667 530.728 22.054 531.252 21.6758C531.99 21.1471 532.833 20.8919 533.781 20.9102C534.811 20.9284 535.627 21.2474 536.229 21.8672C536.835 22.4824 537.167 23.3392 537.227 24.4375L535.23 24.4307C535.23 23.8018 535.105 23.3415 534.854 23.0498C534.604 22.7581 534.214 22.6032 533.686 22.585C533.002 22.5622 532.439 22.806 531.997 23.3164C531.56 23.8268 531.266 24.5719 531.115 25.5518C530.969 26.5042 530.906 27.2174 530.924 27.6914C530.947 28.293 531.081 28.7373 531.327 29.0244C531.573 29.307 531.917 29.4551 532.359 29.4688C532.97 29.4915 533.458 29.348 533.822 29.0381C534.191 28.7236 534.435 28.2747 534.554 27.6914L536.543 27.6777ZM540.002 27.4932L539.387 31H537.384L539.113 21.0469L542.6 21.0537C543.675 21.0537 544.521 21.3522 545.136 21.9492C545.751 22.5462 546.02 23.3255 545.942 24.2871C545.869 25.2624 545.462 26.0417 544.719 26.625C543.98 27.2083 543.037 27.5 541.889 27.5L540.002 27.4932ZM540.282 25.832L541.95 25.8457C542.488 25.8457 542.935 25.7067 543.29 25.4287C543.646 25.1507 543.857 24.7747 543.926 24.3008C543.994 23.8268 543.917 23.4486 543.693 23.166C543.475 22.8835 543.149 22.7331 542.716 22.7148L540.829 22.708L540.282 25.832ZM555.15 28.3408C555.246 27.7985 554.979 27.3838 554.351 27.0967L553.031 26.5703C551.5 25.8867 550.773 24.9456 550.851 23.7471C550.882 23.1911 551.065 22.6989 551.397 22.2705C551.73 21.8421 552.197 21.5072 552.799 21.2656C553.4 21.0195 554.05 20.901 554.747 20.9102C555.709 20.9284 556.486 21.2155 557.078 21.7715C557.671 22.3229 557.962 23.0635 557.953 23.9932H555.957C555.98 23.542 555.88 23.1911 555.656 22.9404C555.438 22.6898 555.096 22.5599 554.631 22.5508C554.175 22.5417 553.779 22.6465 553.441 22.8652C553.104 23.0794 552.904 23.3757 552.84 23.7539C552.753 24.2507 553.086 24.6449 553.838 24.9365L554.74 25.2783L555.26 25.5176C556.604 26.1829 557.233 27.1172 557.146 28.3203C557.105 28.9082 556.916 29.4163 556.579 29.8447C556.246 30.2686 555.791 30.5944 555.212 30.8223C554.638 31.0501 554.004 31.1572 553.312 31.1436C552.605 31.1299 551.976 30.9818 551.425 30.6992C550.873 30.4167 550.454 30.0179 550.167 29.5029C549.898 29.0244 549.773 28.4775 549.791 27.8623L551.794 27.8691C551.73 28.9492 552.261 29.4984 553.387 29.5166C553.874 29.5166 554.275 29.4095 554.59 29.1953C554.904 28.9811 555.091 28.6963 555.15 28.3408ZM561.487 31.1367C560.84 31.1322 560.266 30.9749 559.765 30.665C559.268 30.3506 558.896 29.9222 558.65 29.3799C558.404 28.833 558.309 28.2314 558.363 27.5752L558.384 27.3018C558.452 26.5817 558.662 25.9209 559.013 25.3193C559.364 24.7178 559.815 24.2552 560.366 23.9316C560.918 23.6035 561.528 23.4486 562.198 23.4668C563.151 23.485 563.871 23.8359 564.358 24.5195C564.851 25.1986 565.037 26.0599 564.919 27.1035L564.81 27.9443H560.277C560.259 28.4229 560.375 28.8057 560.626 29.0928C560.877 29.3799 561.218 29.528 561.651 29.5371C562.353 29.5553 562.968 29.2842 563.497 28.7236L564.379 29.8174C564.101 30.2367 563.7 30.5648 563.176 30.8018C562.652 31.0342 562.089 31.1458 561.487 31.1367ZM562.103 25.0596C561.747 25.0505 561.43 25.1621 561.152 25.3945C560.879 25.627 560.633 26.0303 560.414 26.6045H563.066L563.107 26.4268C563.135 26.2445 563.137 26.0713 563.114 25.9072C563.069 25.6429 562.957 25.4378 562.779 25.292C562.602 25.1416 562.376 25.0641 562.103 25.0596ZM565.753 27.2949C565.89 26.151 566.261 25.2236 566.867 24.5127C567.478 23.7972 568.246 23.4463 569.171 23.46C569.959 23.4782 570.547 23.763 570.935 24.3145L571.188 23.5967L572.958 23.6035L571.748 30.7471C571.616 31.7314 571.197 32.5107 570.49 33.085C569.784 33.6592 568.909 33.9372 567.865 33.9189C567.355 33.9098 566.867 33.7982 566.402 33.584C565.938 33.3743 565.555 33.085 565.254 32.7158L566.211 31.54C566.639 32.0824 567.177 32.3626 567.824 32.3809C568.326 32.3991 568.754 32.2669 569.109 31.9844C569.465 31.7064 569.706 31.3122 569.834 30.8018L569.943 30.3574C569.406 30.8952 568.802 31.1549 568.132 31.1367C567.412 31.1276 566.84 30.861 566.416 30.3369C565.992 29.8083 565.76 29.1224 565.719 28.2793C565.705 28.0013 565.716 27.6732 565.753 27.2949ZM567.646 28.1016C567.646 28.5299 567.735 28.874 567.913 29.1338C568.095 29.389 568.357 29.5234 568.699 29.5371C569.223 29.5553 569.688 29.332 570.094 28.8672L570.668 25.7363C570.472 25.3079 570.11 25.0846 569.581 25.0664C569.089 25.0527 568.672 25.251 568.33 25.6611C567.988 26.0713 567.774 26.6159 567.688 27.2949C567.656 27.6276 567.642 27.8965 567.646 28.1016ZM576.28 23.5967L576.123 24.4375C576.72 23.7721 577.442 23.4486 578.29 23.4668C578.746 23.4759 579.124 23.5807 579.425 23.7812C579.726 23.9818 579.928 24.2529 580.033 24.5947C580.685 23.8245 581.451 23.4486 582.33 23.4668C583.009 23.4805 583.52 23.7129 583.861 24.1641C584.208 24.6152 584.354 25.2669 584.299 26.1191L584.285 26.29L583.499 31H581.564L582.351 26.2764C582.369 26.1077 582.376 25.9505 582.371 25.8047C582.339 25.3262 582.066 25.0801 581.551 25.0664C581.022 25.0664 580.569 25.349 580.19 25.9141L580.17 26.0713L579.309 31H577.381L578.167 26.29C578.185 26.1214 578.192 25.9642 578.188 25.8184C578.156 25.3353 577.884 25.0869 577.374 25.0732C576.886 25.0596 576.447 25.2897 576.055 25.7637L575.132 31H573.204L574.482 23.6035L576.28 23.5967ZM588.544 31.1367C587.897 31.1322 587.323 30.9749 586.821 30.665C586.325 30.3506 585.953 29.9222 585.707 29.3799C585.461 28.833 585.365 28.2314 585.42 27.5752L585.44 27.3018C585.509 26.5817 585.718 25.9209 586.069 25.3193C586.42 24.7178 586.871 24.2552 587.423 23.9316C587.974 23.6035 588.585 23.4486 589.255 23.4668C590.207 23.485 590.927 23.8359 591.415 24.5195C591.907 25.1986 592.094 26.0599 591.976 27.1035L591.866 27.9443H587.334C587.316 28.4229 587.432 28.8057 587.683 29.0928C587.933 29.3799 588.275 29.528 588.708 29.5371C589.41 29.5553 590.025 29.2842 590.554 28.7236L591.436 29.8174C591.158 30.2367 590.757 30.5648 590.232 30.8018C589.708 31.0342 589.146 31.1458 588.544 31.1367ZM589.159 25.0596C588.804 25.0505 588.487 25.1621 588.209 25.3945C587.936 25.627 587.689 26.0303 587.471 26.6045H590.123L590.164 26.4268C590.191 26.2445 590.194 26.0713 590.171 25.9072C590.125 25.6429 590.014 25.4378 589.836 25.292C589.658 25.1416 589.433 25.0641 589.159 25.0596ZM595.489 23.5967L595.325 24.4717C595.918 23.7835 596.635 23.4486 597.479 23.4668C598.176 23.4805 598.691 23.7357 599.023 24.2324C599.356 24.7292 599.477 25.4173 599.386 26.2969L598.606 31H596.679L597.472 26.2764C597.494 26.0986 597.499 25.9368 597.485 25.791C597.426 25.3262 597.134 25.0869 596.61 25.0732C596.104 25.055 595.651 25.2897 595.25 25.7773L594.327 31H592.399L593.685 23.6035L595.489 23.5967ZM604.034 21.7852L603.713 23.6035H604.943L604.69 25.0527H603.46L602.831 28.7578C602.804 28.9902 602.822 29.168 602.886 29.291C602.95 29.4141 603.104 29.4801 603.351 29.4893C603.424 29.4938 603.619 29.4824 603.938 29.4551L603.802 30.9658C603.46 31.0798 603.091 31.1322 602.694 31.123C602.061 31.1139 601.589 30.9157 601.279 30.5283C600.969 30.141 600.842 29.6169 600.896 28.9561L601.532 25.0527H600.486L600.739 23.6035H601.785L602.1 21.7852H604.034Z" fill="black" fill-opacity="0.3"/>
</svg>
