<svg width="282" height="480" viewBox="0 0 282 480" fill="none" xmlns="http://www.w3.org/2000/svg">
<rect width="282" height="480" fill="white"/>
<path d="M67 381H261L217 411H23L67 381Z" fill="#67A9D8" fill-opacity="0.8"/>
<rect x="23.5" y="411.5" width="193" height="49" fill="#67A9D8" stroke="#67A9D8"/>
<path d="M217 410.842L261 381V431.158L217 461V410.842Z" fill="#67A9D8" fill-opacity="0.6"/>
<path d="M78.256 422.008H83.056C83.92 422.008 84.704 422.104 85.408 422.296C86.112 422.472 86.712 422.752 87.208 423.136C87.72 423.504 88.112 423.976 88.384 424.552C88.656 425.112 88.792 425.776 88.792 426.544C88.792 427.312 88.648 427.984 88.36 428.56C88.088 429.12 87.696 429.592 87.184 429.976C86.688 430.344 86.08 430.624 85.36 430.816C84.656 431.008 83.872 431.104 83.008 431.104H79.984V439H78.256V422.008ZM79.984 429.64H82.912C84.272 429.64 85.304 429.376 86.008 428.848C86.712 428.32 87.064 427.552 87.064 426.544C87.064 425.488 86.696 424.72 85.96 424.24C85.24 423.744 84.224 423.496 82.912 423.496H79.984V429.64ZM93.8099 429.616C94.1139 428.96 94.6179 428.44 95.3219 428.056C96.0259 427.672 96.7779 427.48 97.5779 427.48C99.0019 427.48 100.066 427.904 100.77 428.752C101.49 429.6 101.85 430.72 101.85 432.112V439H100.218V432.784C100.218 432.192 100.17 431.656 100.074 431.176C99.9779 430.696 99.8099 430.288 99.5699 429.952C99.3459 429.6 99.0339 429.328 98.6339 429.136C98.2499 428.944 97.7619 428.848 97.1699 428.848C96.7379 428.848 96.3139 428.936 95.8979 429.112C95.4979 429.288 95.1379 429.56 94.8179 429.928C94.4979 430.28 94.2419 430.736 94.0499 431.296C93.8579 431.84 93.7619 432.488 93.7619 433.24V439H92.1299V420.856H93.7619V429.616H93.8099ZM109.938 437.248H109.986L113.466 427.768H115.242L109.65 441.904C109.314 442.768 108.882 443.456 108.354 443.968C107.842 444.496 107.098 444.76 106.122 444.76C105.626 444.76 105.138 444.712 104.658 444.616L104.826 443.128C105.21 443.256 105.61 443.32 106.026 443.32C106.586 443.32 107.026 443.144 107.346 442.792C107.666 442.456 107.946 441.968 108.186 441.328L109.098 438.976L104.298 427.768H106.122L109.938 437.248ZM123.769 430.432C123.529 429.968 123.161 429.592 122.665 429.304C122.185 429 121.633 428.848 121.009 428.848C120.721 428.848 120.433 428.88 120.145 428.944C119.857 429.008 119.601 429.112 119.377 429.256C119.153 429.4 118.969 429.584 118.825 429.808C118.697 430.032 118.633 430.296 118.633 430.6C118.633 431.128 118.849 431.536 119.281 431.824C119.713 432.096 120.393 432.328 121.321 432.52C122.649 432.792 123.625 433.192 124.249 433.72C124.889 434.232 125.209 434.928 125.209 435.808C125.209 436.448 125.081 436.992 124.825 437.44C124.585 437.872 124.265 438.232 123.865 438.52C123.465 438.792 123.009 438.984 122.497 439.096C122.001 439.224 121.497 439.288 120.985 439.288C120.137 439.288 119.313 439.112 118.513 438.76C117.713 438.408 117.057 437.856 116.545 437.104L117.841 436.144C118.129 436.64 118.553 437.056 119.113 437.392C119.673 437.728 120.289 437.896 120.961 437.896C121.313 437.896 121.649 437.864 121.969 437.8C122.289 437.736 122.569 437.624 122.809 437.464C123.049 437.304 123.241 437.104 123.385 436.864C123.529 436.608 123.601 436.296 123.601 435.928C123.601 435.336 123.313 434.896 122.737 434.608C122.177 434.304 121.361 434.024 120.289 433.768C119.953 433.688 119.593 433.592 119.209 433.48C118.841 433.352 118.497 433.176 118.177 432.952C117.857 432.712 117.593 432.416 117.385 432.064C117.177 431.712 117.073 431.272 117.073 430.744C117.073 430.168 117.185 429.68 117.409 429.28C117.633 428.864 117.929 428.528 118.297 428.272C118.681 428 119.113 427.8 119.593 427.672C120.073 427.544 120.569 427.48 121.081 427.48C121.865 427.48 122.625 427.656 123.361 428.008C124.097 428.36 124.649 428.856 125.017 429.496L123.769 430.432ZM130.113 439H128.481V427.768H130.113V439ZM130.449 423.448C130.449 423.784 130.329 424.064 130.089 424.288C129.849 424.496 129.585 424.6 129.297 424.6C129.009 424.6 128.745 424.496 128.505 424.288C128.265 424.064 128.145 423.784 128.145 423.448C128.145 423.112 128.265 422.84 128.505 422.632C128.745 422.408 129.009 422.296 129.297 422.296C129.585 422.296 129.849 422.408 130.089 422.632C130.329 422.84 130.449 423.112 130.449 423.448ZM142.545 430.336C142.273 429.904 141.873 429.552 141.345 429.28C140.833 428.992 140.273 428.848 139.665 428.848C139.009 428.848 138.417 428.968 137.889 429.208C137.361 429.432 136.905 429.752 136.521 430.168C136.153 430.568 135.865 431.048 135.657 431.608C135.465 432.152 135.369 432.744 135.369 433.384C135.369 434.024 135.465 434.616 135.657 435.16C135.865 435.704 136.153 436.184 136.521 436.6C136.889 437 137.337 437.32 137.865 437.56C138.393 437.784 138.985 437.896 139.641 437.896C140.361 437.896 140.969 437.76 141.465 437.488C141.961 437.216 142.369 436.864 142.689 436.432L143.913 437.344C143.433 437.936 142.841 438.408 142.137 438.76C141.449 439.112 140.617 439.288 139.641 439.288C138.729 439.288 137.905 439.144 137.169 438.856C136.433 438.552 135.801 438.136 135.273 437.608C134.761 437.08 134.361 436.456 134.073 435.736C133.785 435.016 133.641 434.232 133.641 433.384C133.641 432.536 133.785 431.752 134.073 431.032C134.361 430.312 134.761 429.688 135.273 429.16C135.801 428.632 136.433 428.224 137.169 427.936C137.905 427.632 138.729 427.48 139.641 427.48C140.393 427.48 141.153 427.648 141.921 427.984C142.705 428.304 143.337 428.784 143.817 429.424L142.545 430.336ZM153.537 431.752C153.537 430.776 153.281 430.048 152.769 429.568C152.257 429.088 151.513 428.848 150.537 428.848C149.865 428.848 149.241 428.968 148.665 429.208C148.089 429.448 147.601 429.768 147.201 430.168L146.289 429.088C146.753 428.624 147.361 428.24 148.113 427.936C148.881 427.632 149.745 427.48 150.705 427.48C151.313 427.48 151.881 427.568 152.409 427.744C152.937 427.904 153.401 428.152 153.801 428.488C154.201 428.824 154.513 429.248 154.737 429.76C154.961 430.272 155.073 430.872 155.073 431.56V436.48C155.073 436.912 155.089 437.36 155.121 437.824C155.153 438.288 155.201 438.68 155.265 439H153.801C153.753 438.728 153.713 438.432 153.681 438.112C153.649 437.792 153.633 437.48 153.633 437.176H153.585C153.073 437.928 152.489 438.472 151.833 438.808C151.193 439.128 150.417 439.288 149.505 439.288C149.073 439.288 148.625 439.224 148.161 439.096C147.713 438.984 147.297 438.792 146.913 438.52C146.545 438.248 146.233 437.896 145.977 437.464C145.737 437.032 145.617 436.504 145.617 435.88C145.617 435.016 145.833 434.336 146.265 433.84C146.713 433.328 147.305 432.952 148.041 432.712C148.777 432.456 149.617 432.296 150.561 432.232C151.521 432.152 152.513 432.112 153.537 432.112V431.752ZM153.057 433.384C152.385 433.384 151.705 433.416 151.017 433.48C150.345 433.528 149.729 433.64 149.169 433.816C148.625 433.976 148.177 434.216 147.825 434.536C147.473 434.856 147.297 435.28 147.297 435.808C147.297 436.208 147.369 436.544 147.513 436.816C147.673 437.088 147.881 437.312 148.137 437.488C148.393 437.648 148.673 437.768 148.977 437.848C149.297 437.912 149.617 437.944 149.937 437.944C150.513 437.944 151.025 437.848 151.473 437.656C151.921 437.448 152.297 437.176 152.601 436.84C152.905 436.488 153.137 436.088 153.297 435.64C153.457 435.192 153.537 434.72 153.537 434.224V433.384H153.057ZM160.957 439H159.325V420.856H160.957V439Z" fill="white"/>
<path d="M87.98 448.504H90.548C91.028 448.504 91.504 448.572 91.976 448.708C92.448 448.836 92.872 449.044 93.248 449.332C93.624 449.612 93.928 449.98 94.16 450.436C94.392 450.884 94.508 451.424 94.508 452.056C94.508 452.8 94.376 453.476 94.112 454.084C93.856 454.692 93.496 455.212 93.032 455.644C92.568 456.076 92.02 456.412 91.388 456.652C90.756 456.884 90.068 457 89.324 457H86.48L87.98 448.504ZM87.464 456.244H89.384C90.072 456.244 90.676 456.128 91.196 455.896C91.724 455.664 92.164 455.36 92.516 454.984C92.876 454.6 93.144 454.164 93.32 453.676C93.504 453.18 93.596 452.672 93.596 452.152C93.596 451.76 93.532 451.388 93.404 451.036C93.276 450.684 93.08 450.376 92.816 450.112C92.552 449.848 92.216 449.64 91.808 449.488C91.4 449.336 90.916 449.26 90.356 449.26H88.7L87.464 456.244ZM100.974 449.824C100.822 449.6 100.602 449.412 100.314 449.26C100.026 449.108 99.69 449.032 99.306 449.032C99.058 449.032 98.81 449.068 98.562 449.14C98.314 449.204 98.09 449.308 97.89 449.452C97.69 449.588 97.526 449.764 97.398 449.98C97.278 450.188 97.218 450.44 97.218 450.736C97.218 450.96 97.258 451.152 97.338 451.312C97.418 451.472 97.526 451.612 97.662 451.732C97.806 451.852 97.97 451.956 98.154 452.044C98.346 452.132 98.55 452.216 98.766 452.296C99.014 452.392 99.266 452.5 99.522 452.62C99.778 452.74 100.01 452.888 100.218 453.064C100.426 453.24 100.594 453.448 100.722 453.688C100.85 453.92 100.914 454.196 100.914 454.516C100.914 454.804 100.862 455.108 100.758 455.428C100.654 455.74 100.482 456.032 100.242 456.304C100.002 456.568 99.686 456.788 99.294 456.964C98.902 457.132 98.418 457.216 97.842 457.216C97.322 457.216 96.822 457.112 96.342 456.904C95.862 456.688 95.494 456.372 95.238 455.956L96.006 455.464C96.166 455.744 96.406 455.984 96.726 456.184C97.046 456.376 97.43 456.472 97.878 456.472C98.166 456.472 98.438 456.432 98.694 456.352C98.958 456.264 99.186 456.144 99.378 455.992C99.578 455.832 99.734 455.64 99.846 455.416C99.958 455.192 100.014 454.944 100.014 454.672C100.014 454.432 99.966 454.224 99.87 454.048C99.774 453.872 99.642 453.72 99.474 453.592C99.314 453.464 99.126 453.352 98.91 453.256C98.702 453.16 98.478 453.068 98.238 452.98C97.998 452.892 97.762 452.788 97.53 452.668C97.298 452.548 97.094 452.404 96.918 452.236C96.742 452.068 96.598 451.872 96.486 451.648C96.382 451.416 96.33 451.148 96.33 450.844C96.33 450.484 96.398 450.148 96.534 449.836C96.67 449.524 96.866 449.256 97.122 449.032C97.378 448.8 97.694 448.62 98.07 448.492C98.446 448.356 98.874 448.288 99.354 448.288C99.93 448.288 100.418 448.384 100.818 448.576C101.226 448.76 101.522 449 101.706 449.296L100.974 449.824ZM103.307 456.244H107.279L107.159 457H102.335L103.835 448.504H104.687L103.307 456.244ZM108.249 458.68H107.565L108.873 455.86H109.725L108.249 458.68ZM118.371 452.524C118.763 452.636 119.087 452.848 119.343 453.16C119.599 453.472 119.727 453.856 119.727 454.312C119.727 454.792 119.639 455.216 119.463 455.584C119.295 455.944 119.067 456.248 118.779 456.496C118.491 456.736 118.163 456.916 117.795 457.036C117.427 457.156 117.051 457.216 116.667 457.216C116.331 457.216 116.011 457.168 115.707 457.072C115.411 456.976 115.151 456.836 114.927 456.652C114.703 456.46 114.523 456.228 114.387 455.956C114.259 455.676 114.195 455.36 114.195 455.008C114.195 454.672 114.251 454.364 114.363 454.084C114.483 453.796 114.639 453.544 114.831 453.328C115.031 453.112 115.259 452.932 115.515 452.788C115.771 452.644 116.039 452.54 116.319 452.476V452.452C115.983 452.316 115.715 452.108 115.515 451.828C115.323 451.54 115.227 451.216 115.227 450.856C115.227 450.496 115.291 450.16 115.419 449.848C115.555 449.536 115.739 449.264 115.971 449.032C116.211 448.8 116.491 448.62 116.811 448.492C117.139 448.356 117.491 448.288 117.867 448.288C118.187 448.288 118.483 448.332 118.755 448.42C119.035 448.508 119.271 448.64 119.463 448.816C119.663 448.984 119.819 449.192 119.931 449.44C120.043 449.688 120.099 449.972 120.099 450.292C120.099 450.572 120.051 450.832 119.955 451.072C119.867 451.304 119.743 451.516 119.583 451.708C119.431 451.892 119.251 452.052 119.043 452.188C118.835 452.324 118.611 452.428 118.371 452.5V452.524ZM116.055 450.796C116.055 450.98 116.083 451.152 116.139 451.312C116.203 451.472 116.295 451.616 116.415 451.744C116.535 451.872 116.679 451.972 116.847 452.044C117.015 452.116 117.207 452.152 117.423 452.152C117.703 452.152 117.955 452.096 118.179 451.984C118.411 451.872 118.607 451.732 118.767 451.564C118.927 451.388 119.047 451.2 119.127 451C119.215 450.8 119.259 450.608 119.259 450.424C119.259 449.96 119.127 449.608 118.863 449.368C118.607 449.128 118.255 449.008 117.807 449.008C117.551 449.008 117.315 449.06 117.099 449.164C116.891 449.26 116.707 449.392 116.547 449.56C116.395 449.72 116.275 449.908 116.187 450.124C116.099 450.34 116.055 450.564 116.055 450.796ZM115.071 454.96C115.071 455.416 115.215 455.784 115.503 456.064C115.791 456.344 116.183 456.484 116.679 456.484C117.023 456.484 117.331 456.432 117.603 456.328C117.875 456.216 118.103 456.064 118.287 455.872C118.471 455.68 118.611 455.456 118.707 455.2C118.811 454.944 118.863 454.664 118.863 454.36C118.863 454.152 118.823 453.956 118.743 453.772C118.671 453.588 118.563 453.428 118.419 453.292C118.283 453.156 118.115 453.052 117.915 452.98C117.723 452.9 117.511 452.86 117.279 452.86C116.967 452.86 116.675 452.916 116.403 453.028C116.139 453.132 115.907 453.28 115.707 453.472C115.507 453.656 115.351 453.876 115.239 454.132C115.127 454.388 115.071 454.664 115.071 454.96ZM124.984 448.288C125.384 448.288 125.724 448.364 126.004 448.516C126.284 448.668 126.512 448.876 126.688 449.14C126.872 449.404 127.004 449.712 127.084 450.064C127.164 450.416 127.204 450.788 127.204 451.18C127.204 451.588 127.172 452.02 127.108 452.476C127.052 452.932 126.96 453.384 126.832 453.832C126.712 454.28 126.556 454.708 126.364 455.116C126.172 455.524 125.94 455.884 125.668 456.196C125.396 456.508 125.084 456.756 124.732 456.94C124.388 457.124 123.996 457.216 123.556 457.216C123.148 457.216 122.804 457.14 122.524 456.988C122.244 456.836 122.016 456.632 121.84 456.376C121.664 456.12 121.536 455.82 121.456 455.476C121.376 455.124 121.336 454.748 121.336 454.348C121.336 453.932 121.364 453.496 121.42 453.04C121.476 452.576 121.564 452.12 121.684 451.672C121.812 451.224 121.972 450.796 122.164 450.388C122.364 449.98 122.596 449.62 122.86 449.308C123.132 448.996 123.444 448.748 123.796 448.564C124.148 448.38 124.544 448.288 124.984 448.288ZM124.924 449.008C124.524 449.008 124.156 449.164 123.82 449.476C123.492 449.78 123.208 450.184 122.968 450.688C122.728 451.184 122.54 451.748 122.404 452.38C122.268 453.004 122.2 453.636 122.2 454.276C122.2 454.572 122.224 454.856 122.271 455.128C122.32 455.392 122.396 455.624 122.5 455.824C122.612 456.024 122.76 456.184 122.944 456.304C123.128 456.424 123.352 456.484 123.616 456.484C124.008 456.484 124.368 456.332 124.696 456.028C125.032 455.724 125.32 455.324 125.56 454.828C125.8 454.332 125.988 453.772 126.124 453.148C126.26 452.524 126.328 451.892 126.328 451.252C126.328 450.956 126.304 450.672 126.256 450.4C126.208 450.128 126.128 449.888 126.016 449.68C125.912 449.472 125.768 449.308 125.584 449.188C125.408 449.068 125.188 449.008 124.924 449.008ZM133.096 457H127.66L127.816 456.1L131.884 452.584C132.092 452.408 132.276 452.24 132.436 452.08C132.604 451.912 132.744 451.744 132.856 451.576C132.976 451.4 133.068 451.216 133.132 451.024C133.196 450.832 133.228 450.62 133.228 450.388C133.228 450.172 133.184 449.98 133.096 449.812C133.016 449.644 132.904 449.5 132.76 449.38C132.624 449.26 132.464 449.172 132.28 449.116C132.096 449.052 131.9 449.02 131.692 449.02C131.172 449.02 130.752 449.164 130.432 449.452C130.112 449.74 129.892 450.092 129.772 450.508L128.956 450.34C129.044 450.052 129.168 449.784 129.328 449.536C129.496 449.28 129.696 449.06 129.928 448.876C130.168 448.692 130.436 448.548 130.732 448.444C131.036 448.34 131.368 448.288 131.728 448.288C132.032 448.288 132.324 448.332 132.604 448.42C132.892 448.5 133.144 448.628 133.36 448.804C133.584 448.972 133.76 449.184 133.888 449.44C134.024 449.688 134.092 449.98 134.092 450.316C134.092 450.66 134.052 450.96 133.972 451.216C133.892 451.464 133.776 451.696 133.624 451.912C133.48 452.128 133.3 452.336 133.084 452.536C132.876 452.736 132.636 452.952 132.364 453.184L128.776 456.244H133.228L133.096 457ZM136.181 456.412C136.181 456.588 136.117 456.744 135.989 456.88C135.869 457.008 135.717 457.072 135.533 457.072C135.357 457.072 135.205 457.016 135.077 456.904C134.957 456.792 134.897 456.64 134.897 456.448C134.897 456.256 134.961 456.096 135.089 455.968C135.225 455.84 135.381 455.776 135.557 455.776C135.733 455.776 135.881 455.832 136.001 455.944C136.121 456.056 136.181 456.212 136.181 456.412ZM141.375 457H140.535L141.843 449.548L140.055 450.88L139.635 450.256L142.107 448.504H142.875L141.375 457ZM148.336 457H147.496L148.804 449.548L147.016 450.88L146.596 450.256L149.068 448.504H149.836L148.336 457Z" fill="white"/>
<path d="M67 321H261L217 351H23L67 321Z" fill="#67D1D8" fill-opacity="0.8"/>
<rect x="23.5" y="351.5" width="193" height="49" fill="#67D1D8" stroke="#67D1D8"/>
<path d="M217 350.842L261 321V371.158L217 401V350.842Z" fill="#A4E3E8"/>
<path d="M70.256 362.008H75.896C76.952 362.008 78.008 362.184 79.064 362.536C80.136 362.888 81.096 363.424 81.944 364.144C82.808 364.848 83.504 365.736 84.032 366.808C84.56 367.864 84.824 369.096 84.824 370.504C84.824 371.928 84.56 373.168 84.032 374.224C83.504 375.28 82.808 376.168 81.944 376.888C81.096 377.592 80.136 378.12 79.064 378.472C78.008 378.824 76.952 379 75.896 379H70.256V362.008ZM71.984 377.464H75.416C76.696 377.464 77.808 377.264 78.752 376.864C79.712 376.464 80.504 375.944 81.128 375.304C81.752 374.648 82.216 373.904 82.52 373.072C82.84 372.24 83 371.384 83 370.504C83 369.624 82.84 368.768 82.52 367.936C82.216 367.104 81.752 366.368 81.128 365.728C80.504 365.072 79.712 364.544 78.752 364.144C77.808 363.744 76.696 363.544 75.416 363.544H71.984V377.464ZM95.4041 371.752C95.4041 370.776 95.1481 370.048 94.6361 369.568C94.1241 369.088 93.3801 368.848 92.4041 368.848C91.7321 368.848 91.1081 368.968 90.5321 369.208C89.9561 369.448 89.4681 369.768 89.0681 370.168L88.1561 369.088C88.6201 368.624 89.2281 368.24 89.9801 367.936C90.7481 367.632 91.6121 367.48 92.5721 367.48C93.1801 367.48 93.7481 367.568 94.2761 367.744C94.8041 367.904 95.2681 368.152 95.6681 368.488C96.0681 368.824 96.3801 369.248 96.6041 369.76C96.8281 370.272 96.9401 370.872 96.9401 371.56V376.48C96.9401 376.912 96.9561 377.36 96.9881 377.824C97.0201 378.288 97.0681 378.68 97.1321 379H95.6681C95.6201 378.728 95.5801 378.432 95.5481 378.112C95.5161 377.792 95.5001 377.48 95.5001 377.176H95.4521C94.9401 377.928 94.3561 378.472 93.7001 378.808C93.0601 379.128 92.2841 379.288 91.3721 379.288C90.9401 379.288 90.4921 379.224 90.0281 379.096C89.5801 378.984 89.1641 378.792 88.7801 378.52C88.4121 378.248 88.1001 377.896 87.8441 377.464C87.6041 377.032 87.4841 376.504 87.4841 375.88C87.4841 375.016 87.7001 374.336 88.1321 373.84C88.5801 373.328 89.1721 372.952 89.9081 372.712C90.6441 372.456 91.4841 372.296 92.4281 372.232C93.3881 372.152 94.3801 372.112 95.4041 372.112V371.752ZM94.9241 373.384C94.2521 373.384 93.5721 373.416 92.8841 373.48C92.2121 373.528 91.5961 373.64 91.0361 373.816C90.4921 373.976 90.0441 374.216 89.6921 374.536C89.3401 374.856 89.1641 375.28 89.1641 375.808C89.1641 376.208 89.2361 376.544 89.3801 376.816C89.5401 377.088 89.7481 377.312 90.0041 377.488C90.2601 377.648 90.5401 377.768 90.8441 377.848C91.1641 377.912 91.4841 377.944 91.8041 377.944C92.3801 377.944 92.8921 377.848 93.3401 377.656C93.7881 377.448 94.1641 377.176 94.4681 376.84C94.7721 376.488 95.0041 376.088 95.1641 375.64C95.3241 375.192 95.4041 374.72 95.4041 374.224V373.384H94.9241ZM105.974 369.136H102.806V375.688C102.806 376.104 102.846 376.448 102.926 376.72C103.006 376.992 103.118 377.208 103.262 377.368C103.422 377.512 103.606 377.616 103.814 377.68C104.022 377.728 104.246 377.752 104.486 377.752C104.71 377.752 104.942 377.72 105.182 377.656C105.438 377.592 105.678 377.504 105.902 377.392L105.974 378.808C105.686 378.92 105.382 379 105.062 379.048C104.758 379.112 104.422 379.144 104.054 379.144C103.75 379.144 103.43 379.104 103.094 379.024C102.758 378.944 102.446 378.792 102.158 378.568C101.87 378.344 101.63 378.04 101.438 377.656C101.262 377.272 101.174 376.768 101.174 376.144V369.136H98.846V367.768H101.174V364.6H102.806V367.768H105.974V369.136ZM115.607 371.752C115.607 370.776 115.351 370.048 114.839 369.568C114.327 369.088 113.583 368.848 112.607 368.848C111.935 368.848 111.311 368.968 110.735 369.208C110.159 369.448 109.671 369.768 109.271 370.168L108.359 369.088C108.823 368.624 109.431 368.24 110.183 367.936C110.951 367.632 111.815 367.48 112.775 367.48C113.383 367.48 113.951 367.568 114.479 367.744C115.007 367.904 115.471 368.152 115.871 368.488C116.271 368.824 116.583 369.248 116.807 369.76C117.031 370.272 117.143 370.872 117.143 371.56V376.48C117.143 376.912 117.159 377.36 117.191 377.824C117.223 378.288 117.271 378.68 117.335 379H115.871C115.823 378.728 115.783 378.432 115.751 378.112C115.719 377.792 115.703 377.48 115.703 377.176H115.655C115.143 377.928 114.559 378.472 113.903 378.808C113.263 379.128 112.487 379.288 111.575 379.288C111.143 379.288 110.695 379.224 110.231 379.096C109.783 378.984 109.367 378.792 108.983 378.52C108.615 378.248 108.303 377.896 108.047 377.464C107.807 377.032 107.687 376.504 107.687 375.88C107.687 375.016 107.903 374.336 108.335 373.84C108.783 373.328 109.375 372.952 110.111 372.712C110.847 372.456 111.687 372.296 112.631 372.232C113.591 372.152 114.583 372.112 115.607 372.112V371.752ZM115.127 373.384C114.455 373.384 113.775 373.416 113.087 373.48C112.415 373.528 111.799 373.64 111.239 373.816C110.695 373.976 110.247 374.216 109.895 374.536C109.543 374.856 109.367 375.28 109.367 375.808C109.367 376.208 109.439 376.544 109.583 376.816C109.743 377.088 109.951 377.312 110.207 377.488C110.463 377.648 110.743 377.768 111.047 377.848C111.367 377.912 111.687 377.944 112.007 377.944C112.583 377.944 113.095 377.848 113.543 377.656C113.991 377.448 114.367 377.176 114.671 376.84C114.975 376.488 115.207 376.088 115.367 375.64C115.527 375.192 115.607 374.72 115.607 374.224V373.384H115.127ZM129.172 377.464H137.092V379H127.444V362.008H129.172V377.464ZM141.238 379H139.606V367.768H141.238V379ZM141.574 363.448C141.574 363.784 141.454 364.064 141.214 364.288C140.974 364.496 140.71 364.6 140.422 364.6C140.134 364.6 139.87 364.496 139.63 364.288C139.39 364.064 139.27 363.784 139.27 363.448C139.27 363.112 139.39 362.84 139.63 362.632C139.87 362.408 140.134 362.296 140.422 362.296C140.71 362.296 140.974 362.408 141.214 362.632C141.454 362.84 141.574 363.112 141.574 363.448ZM147.046 367.768C147.078 368.072 147.102 368.408 147.118 368.776C147.134 369.144 147.142 369.448 147.142 369.688H147.19C147.51 369.032 148.03 368.504 148.75 368.104C149.47 367.688 150.23 367.48 151.03 367.48C152.454 367.48 153.518 367.904 154.222 368.752C154.942 369.6 155.302 370.72 155.302 372.112V379H153.67V372.784C153.67 372.192 153.622 371.656 153.526 371.176C153.43 370.696 153.262 370.288 153.022 369.952C152.798 369.6 152.486 369.328 152.086 369.136C151.702 368.944 151.214 368.848 150.622 368.848C150.19 368.848 149.766 368.936 149.35 369.112C148.95 369.288 148.59 369.56 148.27 369.928C147.95 370.28 147.694 370.736 147.502 371.296C147.31 371.84 147.214 372.488 147.214 373.24V379H145.582V370.24C145.582 369.936 145.574 369.544 145.558 369.064C145.542 368.584 145.518 368.152 145.486 367.768H147.046ZM161.207 372.832H161.279L166.463 367.768H168.815L163.151 372.904L169.391 379H166.991L161.279 373.096H161.207V379H159.575V360.856H161.207V372.832Z" fill="white"/>
<path d="M98.464 396.244H103.024L102.892 397H97.48L98.98 388.504H104.08L103.948 389.26H99.7L99.184 392.212H103.24L103.108 392.944H99.052L98.464 396.244ZM107.597 392.056H106.073L105.485 395.344C105.461 395.488 105.449 395.616 105.449 395.728C105.449 395.992 105.513 396.168 105.641 396.256C105.769 396.344 105.937 396.388 106.145 396.388C106.257 396.388 106.381 396.372 106.517 396.34C106.653 396.308 106.757 396.264 106.829 396.208L106.733 396.904C106.629 396.96 106.493 397 106.325 397.024C106.165 397.056 105.993 397.072 105.809 397.072C105.673 397.072 105.533 397.056 105.389 397.024C105.253 396.992 105.125 396.936 105.005 396.856C104.893 396.768 104.797 396.652 104.717 396.508C104.645 396.364 104.609 396.18 104.609 395.956C104.609 395.844 104.621 395.716 104.645 395.572L105.269 392.056H104.105L104.237 391.384H105.377L105.653 389.8H106.457L106.181 391.384H107.729L107.597 392.056ZM111.625 391.24C112.225 391.24 112.693 391.396 113.029 391.708C113.373 392.012 113.545 392.428 113.545 392.956C113.545 393.052 113.537 393.148 113.521 393.244C113.513 393.34 113.501 393.444 113.485 393.556L112.873 397H112.069L112.621 393.892C112.669 393.644 112.693 393.408 112.693 393.184C112.693 392.792 112.597 392.484 112.405 392.26C112.221 392.028 111.893 391.912 111.421 391.912C111.205 391.912 110.989 391.956 110.773 392.044C110.557 392.132 110.357 392.268 110.173 392.452C109.989 392.636 109.825 392.868 109.681 393.148C109.545 393.42 109.445 393.744 109.381 394.12L108.877 397H108.073L109.669 387.928H110.473L109.705 392.308H109.729C109.937 391.98 110.209 391.72 110.545 391.528C110.881 391.336 111.241 391.24 111.625 391.24ZM115.814 394.408C115.806 394.456 115.798 394.504 115.79 394.552C115.79 394.592 115.79 394.632 115.79 394.672C115.79 394.936 115.834 395.176 115.922 395.392C116.018 395.608 116.146 395.796 116.306 395.956C116.474 396.116 116.666 396.24 116.882 396.328C117.106 396.416 117.346 396.46 117.602 396.46C118.042 396.46 118.426 396.364 118.754 396.172C119.082 395.972 119.346 395.74 119.546 395.476L120.05 395.956C119.722 396.348 119.342 396.644 118.91 396.844C118.478 397.044 118.018 397.144 117.53 397.144C117.17 397.144 116.834 397.088 116.522 396.976C116.21 396.864 115.938 396.704 115.706 396.496C115.482 396.288 115.302 396.032 115.166 395.728C115.038 395.416 114.974 395.064 114.974 394.672C114.974 394.216 115.058 393.78 115.226 393.364C115.394 392.948 115.622 392.584 115.91 392.272C116.206 391.96 116.55 391.712 116.942 391.528C117.342 391.336 117.77 391.24 118.226 391.24C118.994 391.24 119.574 391.444 119.966 391.852C120.366 392.26 120.566 392.788 120.566 393.436C120.566 393.532 120.558 393.68 120.542 393.88C120.526 394.072 120.498 394.248 120.458 394.408H115.814ZM119.738 393.808C119.746 393.744 119.75 393.676 119.75 393.604C119.758 393.524 119.762 393.452 119.762 393.388C119.762 392.956 119.63 392.604 119.366 392.332C119.102 392.052 118.714 391.912 118.202 391.912C117.906 391.912 117.63 391.964 117.374 392.068C117.126 392.164 116.902 392.3 116.702 392.476C116.51 392.652 116.346 392.856 116.21 393.088C116.074 393.312 115.978 393.552 115.922 393.808H119.738ZM122.563 392.62C122.595 392.468 122.627 392.272 122.659 392.032C122.699 391.792 122.727 391.576 122.743 391.384H123.511C123.495 391.536 123.475 391.704 123.451 391.888C123.427 392.072 123.403 392.224 123.379 392.344H123.403C123.611 392.016 123.875 391.752 124.195 391.552C124.515 391.344 124.875 391.24 125.275 391.24C125.379 391.24 125.471 391.244 125.551 391.252C125.631 391.26 125.715 391.276 125.803 391.3L125.611 392.068C125.571 392.052 125.495 392.036 125.383 392.02C125.279 392.004 125.171 391.996 125.059 391.996C124.843 391.996 124.631 392.036 124.423 392.116C124.215 392.196 124.023 392.324 123.847 392.5C123.679 392.668 123.527 392.888 123.391 393.16C123.263 393.424 123.167 393.744 123.103 394.12L122.599 397H121.795L122.563 392.62ZM127.695 391.384C127.679 391.536 127.659 391.704 127.635 391.888C127.611 392.072 127.587 392.224 127.563 392.344H127.587C127.803 392 128.079 391.732 128.415 391.54C128.759 391.34 129.123 391.24 129.507 391.24C130.115 391.24 130.587 391.396 130.923 391.708C131.267 392.012 131.439 392.428 131.439 392.956C131.439 393.052 131.431 393.148 131.415 393.244C131.407 393.34 131.395 393.444 131.379 393.556L130.767 397H129.963L130.515 393.892C130.563 393.644 130.587 393.408 130.587 393.184C130.587 392.792 130.495 392.484 130.311 392.26C130.127 392.028 129.803 391.912 129.339 391.912C129.123 391.912 128.907 391.956 128.691 392.044C128.475 392.132 128.271 392.268 128.079 392.452C127.895 392.636 127.731 392.868 127.587 393.148C127.443 393.42 127.339 393.744 127.275 394.12L126.771 397H125.967L126.735 392.62C126.767 392.468 126.799 392.272 126.831 392.032C126.871 391.792 126.899 391.576 126.915 391.384H127.695ZM133.709 394.408C133.701 394.456 133.693 394.504 133.685 394.552C133.685 394.592 133.685 394.632 133.685 394.672C133.685 394.936 133.729 395.176 133.817 395.392C133.913 395.608 134.041 395.796 134.201 395.956C134.369 396.116 134.561 396.24 134.777 396.328C135.001 396.416 135.241 396.46 135.497 396.46C135.937 396.46 136.321 396.364 136.649 396.172C136.977 395.972 137.241 395.74 137.441 395.476L137.945 395.956C137.617 396.348 137.237 396.644 136.805 396.844C136.373 397.044 135.913 397.144 135.425 397.144C135.065 397.144 134.729 397.088 134.417 396.976C134.105 396.864 133.833 396.704 133.601 396.496C133.377 396.288 133.197 396.032 133.061 395.728C132.933 395.416 132.869 395.064 132.869 394.672C132.869 394.216 132.953 393.78 133.121 393.364C133.289 392.948 133.517 392.584 133.805 392.272C134.101 391.96 134.445 391.712 134.837 391.528C135.237 391.336 135.665 391.24 136.121 391.24C136.889 391.24 137.469 391.444 137.861 391.852C138.261 392.26 138.461 392.788 138.461 393.436C138.461 393.532 138.453 393.68 138.437 393.88C138.421 394.072 138.393 394.248 138.353 394.408H133.709ZM137.633 393.808C137.641 393.744 137.645 393.676 137.645 393.604C137.653 393.524 137.657 393.452 137.657 393.388C137.657 392.956 137.525 392.604 137.261 392.332C136.997 392.052 136.609 391.912 136.097 391.912C135.801 391.912 135.525 391.964 135.269 392.068C135.021 392.164 134.797 392.3 134.597 392.476C134.405 392.652 134.241 392.856 134.105 393.088C133.969 393.312 133.873 393.552 133.817 393.808H137.633ZM142.894 392.056H141.37L140.782 395.344C140.758 395.488 140.746 395.616 140.746 395.728C140.746 395.992 140.81 396.168 140.938 396.256C141.066 396.344 141.234 396.388 141.442 396.388C141.554 396.388 141.678 396.372 141.814 396.34C141.95 396.308 142.054 396.264 142.126 396.208L142.03 396.904C141.926 396.96 141.79 397 141.622 397.024C141.462 397.056 141.29 397.072 141.106 397.072C140.97 397.072 140.83 397.056 140.686 397.024C140.55 396.992 140.422 396.936 140.302 396.856C140.19 396.768 140.094 396.652 140.014 396.508C139.942 396.364 139.906 396.18 139.906 395.956C139.906 395.844 139.918 395.716 139.942 395.572L140.566 392.056H139.402L139.534 391.384H140.674L140.95 389.8H141.754L141.478 391.384H143.026L142.894 392.056Z" fill="white"/>
<path d="M67 261H261L217 291H23L67 261Z" fill="#67D887" fill-opacity="0.8"/>
<rect x="23.5" y="291.5" width="193" height="49" fill="#67D887" stroke="#67D887"/>
<path d="M217 290.842L261 261V311.158L217 341V290.842Z" fill="#A4E8B7"/>
<path d="M85.304 316.48H85.352V302.008H87.08V319H84.92L75.032 304.384H74.984V319H73.256V302.008H75.416L85.304 316.48ZM100.056 312.52C100.008 311.464 99.6641 310.592 99.0241 309.904C98.4001 309.2 97.5041 308.848 96.3361 308.848C95.7921 308.848 95.2881 308.952 94.8241 309.16C94.3601 309.352 93.9521 309.624 93.6001 309.976C93.2481 310.312 92.9681 310.704 92.7601 311.152C92.5521 311.584 92.4321 312.04 92.4001 312.52H100.056ZM101.712 313.048C101.712 313.16 101.712 313.28 101.712 313.408C101.712 313.536 101.704 313.672 101.688 313.816H92.3761C92.3921 314.376 92.5041 314.904 92.7121 315.4C92.9201 315.896 93.2081 316.328 93.5761 316.696C93.9441 317.064 94.3761 317.36 94.8721 317.584C95.3681 317.792 95.9041 317.896 96.4801 317.896C97.3281 317.896 98.0561 317.704 98.6641 317.32C99.2881 316.92 99.7601 316.464 100.08 315.952L101.304 316.912C100.632 317.76 99.8881 318.368 99.0721 318.736C98.2721 319.104 97.4081 319.288 96.4801 319.288C95.6481 319.288 94.8721 319.144 94.1521 318.856C93.4481 318.552 92.8401 318.136 92.3281 317.608C91.8161 317.08 91.4081 316.456 91.1041 315.736C90.8161 315.016 90.6721 314.232 90.6721 313.384C90.6721 312.536 90.8161 311.752 91.1041 311.032C91.3921 310.312 91.7921 309.688 92.3041 309.16C92.8161 308.632 93.4161 308.224 94.1041 307.936C94.7921 307.632 95.5361 307.48 96.3361 307.48C97.2161 307.48 97.9921 307.632 98.6641 307.936C99.3361 308.224 99.8961 308.624 100.344 309.136C100.792 309.632 101.128 310.216 101.352 310.888C101.592 311.56 101.712 312.28 101.712 313.048ZM110.287 309.136H107.119V315.688C107.119 316.104 107.159 316.448 107.239 316.72C107.319 316.992 107.431 317.208 107.575 317.368C107.735 317.512 107.919 317.616 108.127 317.68C108.335 317.728 108.559 317.752 108.799 317.752C109.023 317.752 109.255 317.72 109.495 317.656C109.751 317.592 109.991 317.504 110.215 317.392L110.287 318.808C109.999 318.92 109.695 319 109.375 319.048C109.071 319.112 108.735 319.144 108.367 319.144C108.063 319.144 107.743 319.104 107.407 319.024C107.071 318.944 106.759 318.792 106.471 318.568C106.183 318.344 105.943 318.04 105.751 317.656C105.575 317.272 105.487 316.768 105.487 316.144V309.136H103.159V307.768H105.487V304.6H107.119V307.768H110.287V309.136ZM113.056 307.768L115.768 316.888H115.816L118.84 307.768H120.424L123.496 316.888H123.544L126.232 307.768H127.96L124.408 319H122.632L119.632 309.904H119.584L116.632 319H114.856L111.304 307.768H113.056ZM141.906 313.384C141.906 314.232 141.754 315.016 141.45 315.736C141.162 316.456 140.754 317.08 140.226 317.608C139.698 318.136 139.066 318.552 138.33 318.856C137.594 319.144 136.786 319.288 135.906 319.288C135.042 319.288 134.242 319.144 133.506 318.856C132.77 318.552 132.138 318.136 131.61 317.608C131.082 317.08 130.666 316.456 130.362 315.736C130.074 315.016 129.93 314.232 129.93 313.384C129.93 312.536 130.074 311.752 130.362 311.032C130.666 310.312 131.082 309.688 131.61 309.16C132.138 308.632 132.77 308.224 133.506 307.936C134.242 307.632 135.042 307.48 135.906 307.48C136.786 307.48 137.594 307.632 138.33 307.936C139.066 308.224 139.698 308.632 140.226 309.16C140.754 309.688 141.162 310.312 141.45 311.032C141.754 311.752 141.906 312.536 141.906 313.384ZM140.178 313.384C140.178 312.76 140.074 312.176 139.866 311.632C139.674 311.072 139.394 310.592 139.026 310.192C138.658 309.776 138.21 309.448 137.682 309.208C137.154 308.968 136.562 308.848 135.906 308.848C135.25 308.848 134.658 308.968 134.13 309.208C133.618 309.448 133.178 309.776 132.81 310.192C132.442 310.592 132.154 311.072 131.946 311.632C131.754 312.176 131.658 312.76 131.658 313.384C131.658 314.008 131.754 314.6 131.946 315.16C132.154 315.704 132.442 316.184 132.81 316.6C133.178 317 133.618 317.32 134.13 317.56C134.658 317.784 135.25 317.896 135.906 317.896C136.562 317.896 137.154 317.784 137.682 317.56C138.21 317.32 138.658 317 139.026 316.6C139.394 316.184 139.674 315.704 139.866 315.16C140.074 314.6 140.178 314.008 140.178 313.384ZM145.418 310.24C145.418 309.936 145.41 309.544 145.394 309.064C145.378 308.584 145.354 308.152 145.322 307.768H146.882C146.914 308.072 146.938 308.408 146.954 308.776C146.97 309.144 146.978 309.448 146.978 309.688H147.026C147.346 309.032 147.826 308.504 148.466 308.104C149.106 307.688 149.826 307.48 150.626 307.48C150.834 307.48 151.018 307.488 151.178 307.504C151.354 307.52 151.53 307.552 151.706 307.6L151.49 309.136C151.394 309.104 151.234 309.072 151.01 309.04C150.786 309.008 150.562 308.992 150.338 308.992C149.906 308.992 149.49 309.072 149.09 309.232C148.69 309.392 148.338 309.648 148.034 310C147.746 310.336 147.506 310.776 147.314 311.32C147.138 311.848 147.05 312.488 147.05 313.24V319H145.418V310.24ZM155.746 312.832H155.818L161.002 307.768H163.354L157.69 312.904L163.93 319H161.53L155.818 313.096H155.746V319H154.114V300.856H155.746V312.832Z" fill="white"/>
<path d="M115.332 337H114.48L115.98 328.504H116.832L115.332 337ZM119.097 328.504H121.365C122.197 328.504 122.841 328.684 123.297 329.044C123.753 329.404 123.981 329.904 123.981 330.544C123.981 330.96 123.901 331.324 123.741 331.636C123.581 331.948 123.357 332.212 123.069 332.428C122.789 332.636 122.449 332.792 122.049 332.896C121.657 333 121.225 333.052 120.753 333.052H119.145L118.449 337H117.597L119.097 328.504ZM119.265 332.344H120.825C121.545 332.344 122.105 332.2 122.505 331.912C122.913 331.624 123.117 331.2 123.117 330.64C123.117 330.12 122.953 329.756 122.625 329.548C122.297 329.34 121.853 329.236 121.293 329.236H119.817L119.265 332.344Z" fill="white"/>
<path d="M67 201H261L217 231H23L67 201Z" fill="#F1D46B" fill-opacity="0.8"/>
<rect x="23.5" y="231.5" width="193" height="49" fill="#F1D46B" stroke="#F1D46B"/>
<path d="M217 230.842L261 201V251.158L217 281V230.842Z" fill="#F7E5A6"/>
<path d="M73.704 259H71.976V243.544H66.288V242.008H79.392V243.544H73.704V259ZM79.6913 250.24C79.6913 249.936 79.6833 249.544 79.6673 249.064C79.6513 248.584 79.6273 248.152 79.5953 247.768H81.1553C81.1873 248.072 81.2113 248.408 81.2273 248.776C81.2433 249.144 81.2513 249.448 81.2513 249.688H81.2993C81.6193 249.032 82.0993 248.504 82.7393 248.104C83.3793 247.688 84.0993 247.48 84.8993 247.48C85.1073 247.48 85.2913 247.488 85.4513 247.504C85.6273 247.52 85.8033 247.552 85.9793 247.6L85.7633 249.136C85.6673 249.104 85.5073 249.072 85.2833 249.04C85.0593 249.008 84.8353 248.992 84.6113 248.992C84.1793 248.992 83.7633 249.072 83.3633 249.232C82.9633 249.392 82.6113 249.648 82.3073 250C82.0193 250.336 81.7793 250.776 81.5873 251.32C81.4113 251.848 81.3233 252.488 81.3233 253.24V259H79.6913V250.24ZM95.1384 251.752C95.1384 250.776 94.8824 250.048 94.3704 249.568C93.8584 249.088 93.1144 248.848 92.1384 248.848C91.4664 248.848 90.8424 248.968 90.2664 249.208C89.6904 249.448 89.2024 249.768 88.8024 250.168L87.8904 249.088C88.3544 248.624 88.9624 248.24 89.7144 247.936C90.4824 247.632 91.3464 247.48 92.3064 247.48C92.9144 247.48 93.4824 247.568 94.0104 247.744C94.5384 247.904 95.0024 248.152 95.4024 248.488C95.8024 248.824 96.1144 249.248 96.3384 249.76C96.5624 250.272 96.6744 250.872 96.6744 251.56V256.48C96.6744 256.912 96.6904 257.36 96.7224 257.824C96.7544 258.288 96.8024 258.68 96.8664 259H95.4024C95.3544 258.728 95.3144 258.432 95.2824 258.112C95.2504 257.792 95.2344 257.48 95.2344 257.176H95.1864C94.6744 257.928 94.0904 258.472 93.4344 258.808C92.7944 259.128 92.0184 259.288 91.1064 259.288C90.6744 259.288 90.2264 259.224 89.7624 259.096C89.3144 258.984 88.8984 258.792 88.5144 258.52C88.1464 258.248 87.8344 257.896 87.5784 257.464C87.3384 257.032 87.2184 256.504 87.2184 255.88C87.2184 255.016 87.4344 254.336 87.8664 253.84C88.3144 253.328 88.9064 252.952 89.6424 252.712C90.3784 252.456 91.2184 252.296 92.1624 252.232C93.1224 252.152 94.1144 252.112 95.1384 252.112V251.752ZM94.6584 253.384C93.9864 253.384 93.3064 253.416 92.6184 253.48C91.9464 253.528 91.3304 253.64 90.7704 253.816C90.2264 253.976 89.7784 254.216 89.4264 254.536C89.0744 254.856 88.8984 255.28 88.8984 255.808C88.8984 256.208 88.9704 256.544 89.1144 256.816C89.2744 257.088 89.4824 257.312 89.7384 257.488C89.9944 257.648 90.2744 257.768 90.5784 257.848C90.8984 257.912 91.2184 257.944 91.5384 257.944C92.1144 257.944 92.6264 257.848 93.0744 257.656C93.5224 257.448 93.8984 257.176 94.2024 256.84C94.5064 256.488 94.7384 256.088 94.8984 255.64C95.0584 255.192 95.1384 254.72 95.1384 254.224V253.384H94.6584ZM102.343 247.768C102.375 248.072 102.399 248.408 102.415 248.776C102.431 249.144 102.439 249.448 102.439 249.688H102.487C102.807 249.032 103.327 248.504 104.047 248.104C104.767 247.688 105.527 247.48 106.327 247.48C107.751 247.48 108.815 247.904 109.519 248.752C110.239 249.6 110.599 250.72 110.599 252.112V259H108.967V252.784C108.967 252.192 108.919 251.656 108.823 251.176C108.727 250.696 108.559 250.288 108.319 249.952C108.095 249.6 107.783 249.328 107.383 249.136C106.999 248.944 106.511 248.848 105.919 248.848C105.487 248.848 105.063 248.936 104.647 249.112C104.247 249.288 103.887 249.56 103.567 249.928C103.247 250.28 102.991 250.736 102.799 251.296C102.607 251.84 102.511 252.488 102.511 253.24V259H100.879V250.24C100.879 249.936 100.871 249.544 100.855 249.064C100.839 248.584 100.815 248.152 100.783 247.768H102.343ZM120.8 250.432C120.56 249.968 120.192 249.592 119.696 249.304C119.216 249 118.664 248.848 118.04 248.848C117.752 248.848 117.464 248.88 117.176 248.944C116.888 249.008 116.632 249.112 116.408 249.256C116.184 249.4 116 249.584 115.856 249.808C115.728 250.032 115.664 250.296 115.664 250.6C115.664 251.128 115.88 251.536 116.312 251.824C116.744 252.096 117.424 252.328 118.352 252.52C119.68 252.792 120.656 253.192 121.28 253.72C121.92 254.232 122.24 254.928 122.24 255.808C122.24 256.448 122.112 256.992 121.856 257.44C121.616 257.872 121.296 258.232 120.896 258.52C120.496 258.792 120.04 258.984 119.528 259.096C119.032 259.224 118.528 259.288 118.016 259.288C117.168 259.288 116.344 259.112 115.544 258.76C114.744 258.408 114.088 257.856 113.576 257.104L114.872 256.144C115.16 256.64 115.584 257.056 116.144 257.392C116.704 257.728 117.32 257.896 117.992 257.896C118.344 257.896 118.68 257.864 119 257.8C119.32 257.736 119.6 257.624 119.84 257.464C120.08 257.304 120.272 257.104 120.416 256.864C120.56 256.608 120.632 256.296 120.632 255.928C120.632 255.336 120.344 254.896 119.768 254.608C119.208 254.304 118.392 254.024 117.32 253.768C116.984 253.688 116.624 253.592 116.24 253.48C115.872 253.352 115.528 253.176 115.208 252.952C114.888 252.712 114.624 252.416 114.416 252.064C114.208 251.712 114.104 251.272 114.104 250.744C114.104 250.168 114.216 249.68 114.44 249.28C114.664 248.864 114.96 248.528 115.328 248.272C115.712 248 116.144 247.8 116.624 247.672C117.104 247.544 117.6 247.48 118.112 247.48C118.896 247.48 119.656 247.656 120.392 248.008C121.128 248.36 121.68 248.856 122.048 249.496L120.8 250.432ZM127.12 264.76H125.488V247.768H127.12V249.712H127.192C127.656 248.976 128.272 248.424 129.04 248.056C129.824 247.672 130.616 247.48 131.416 247.48C132.296 247.48 133.088 247.632 133.792 247.936C134.512 248.24 135.12 248.656 135.616 249.184C136.128 249.712 136.52 250.336 136.792 251.056C137.08 251.776 137.224 252.552 137.224 253.384C137.224 254.216 137.08 254.992 136.792 255.712C136.52 256.432 136.128 257.056 135.616 257.584C135.12 258.112 134.512 258.528 133.792 258.832C133.088 259.136 132.296 259.288 131.416 259.288C130.616 259.288 129.824 259.104 129.04 258.736C128.272 258.352 127.656 257.808 127.192 257.104H127.12V264.76ZM135.496 253.384C135.496 252.76 135.4 252.176 135.208 251.632C135.016 251.072 134.736 250.592 134.368 250.192C134.016 249.776 133.576 249.448 133.048 249.208C132.52 248.968 131.92 248.848 131.248 248.848C130.624 248.848 130.048 248.968 129.52 249.208C128.992 249.432 128.536 249.752 128.152 250.168C127.768 250.568 127.464 251.048 127.24 251.608C127.032 252.152 126.928 252.744 126.928 253.384C126.928 254.024 127.032 254.624 127.24 255.184C127.464 255.728 127.768 256.2 128.152 256.6C128.536 257 128.992 257.32 129.52 257.56C130.048 257.784 130.624 257.896 131.248 257.896C131.92 257.896 132.52 257.784 133.048 257.56C133.576 257.32 134.016 257 134.368 256.6C134.736 256.184 135.016 255.704 135.208 255.16C135.4 254.6 135.496 254.008 135.496 253.384ZM151.883 253.384C151.883 254.232 151.731 255.016 151.427 255.736C151.139 256.456 150.731 257.08 150.203 257.608C149.675 258.136 149.043 258.552 148.307 258.856C147.571 259.144 146.763 259.288 145.883 259.288C145.019 259.288 144.219 259.144 143.483 258.856C142.747 258.552 142.115 258.136 141.587 257.608C141.059 257.08 140.643 256.456 140.339 255.736C140.051 255.016 139.907 254.232 139.907 253.384C139.907 252.536 140.051 251.752 140.339 251.032C140.643 250.312 141.059 249.688 141.587 249.16C142.115 248.632 142.747 248.224 143.483 247.936C144.219 247.632 145.019 247.48 145.883 247.48C146.763 247.48 147.571 247.632 148.307 247.936C149.043 248.224 149.675 248.632 150.203 249.16C150.731 249.688 151.139 250.312 151.427 251.032C151.731 251.752 151.883 252.536 151.883 253.384ZM150.155 253.384C150.155 252.76 150.051 252.176 149.843 251.632C149.651 251.072 149.371 250.592 149.003 250.192C148.635 249.776 148.187 249.448 147.659 249.208C147.131 248.968 146.539 248.848 145.883 248.848C145.227 248.848 144.635 248.968 144.107 249.208C143.595 249.448 143.155 249.776 142.787 250.192C142.419 250.592 142.131 251.072 141.923 251.632C141.731 252.176 141.635 252.76 141.635 253.384C141.635 254.008 141.731 254.6 141.923 255.16C142.131 255.704 142.419 256.184 142.787 256.6C143.155 257 143.595 257.32 144.107 257.56C144.635 257.784 145.227 257.896 145.883 257.896C146.539 257.896 147.131 257.784 147.659 257.56C148.187 257.32 148.635 257 149.003 256.6C149.371 256.184 149.651 255.704 149.843 255.16C150.051 254.6 150.155 254.008 150.155 253.384ZM155.394 250.24C155.394 249.936 155.386 249.544 155.37 249.064C155.354 248.584 155.33 248.152 155.298 247.768H156.858C156.89 248.072 156.914 248.408 156.93 248.776C156.946 249.144 156.954 249.448 156.954 249.688H157.002C157.322 249.032 157.802 248.504 158.442 248.104C159.082 247.688 159.802 247.48 160.602 247.48C160.81 247.48 160.994 247.488 161.154 247.504C161.33 247.52 161.506 247.552 161.682 247.6L161.466 249.136C161.37 249.104 161.21 249.072 160.986 249.04C160.762 249.008 160.538 248.992 160.314 248.992C159.882 248.992 159.466 249.072 159.066 249.232C158.666 249.392 158.314 249.648 158.01 250C157.722 250.336 157.482 250.776 157.29 251.32C157.114 251.848 157.026 252.488 157.026 253.24V259H155.394V250.24ZM168.826 249.136H165.658V255.688C165.658 256.104 165.698 256.448 165.778 256.72C165.858 256.992 165.97 257.208 166.114 257.368C166.274 257.512 166.458 257.616 166.666 257.68C166.874 257.728 167.098 257.752 167.338 257.752C167.562 257.752 167.794 257.72 168.034 257.656C168.29 257.592 168.53 257.504 168.754 257.392L168.826 258.808C168.538 258.92 168.234 259 167.914 259.048C167.61 259.112 167.274 259.144 166.906 259.144C166.602 259.144 166.282 259.104 165.946 259.024C165.61 258.944 165.298 258.792 165.01 258.568C164.722 258.344 164.482 258.04 164.29 257.656C164.114 257.272 164.026 256.768 164.026 256.144V249.136H161.698V247.768H164.026V244.6H165.658V247.768H168.826V249.136Z" fill="white"/>
<path d="M96 277H95.148L96.516 269.26H93.672L93.804 268.504H100.356L100.224 269.26H97.368L96 277ZM107.107 275.656C106.939 275.872 106.743 276.076 106.519 276.268C106.295 276.452 106.039 276.616 105.751 276.76C105.471 276.896 105.159 277.004 104.815 277.084C104.479 277.172 104.111 277.216 103.711 277.216C103.143 277.216 102.623 277.128 102.151 276.952C101.687 276.776 101.287 276.528 100.951 276.208C100.615 275.888 100.355 275.504 100.171 275.056C99.9872 274.608 99.8952 274.112 99.8952 273.568C99.8952 272.832 100.027 272.144 100.291 271.504C100.555 270.864 100.915 270.308 101.371 269.836C101.835 269.356 102.375 268.98 102.991 268.708C103.607 268.428 104.267 268.288 104.971 268.288C105.283 268.288 105.583 268.32 105.871 268.384C106.167 268.448 106.439 268.54 106.687 268.66C106.935 268.772 107.155 268.912 107.347 269.08C107.547 269.248 107.707 269.436 107.827 269.644L107.047 270.16C106.983 270.024 106.887 269.888 106.759 269.752C106.639 269.616 106.491 269.496 106.315 269.392C106.139 269.28 105.935 269.192 105.703 269.128C105.479 269.064 105.227 269.032 104.947 269.032C104.339 269.032 103.779 269.16 103.267 269.416C102.763 269.664 102.327 269.996 101.959 270.412C101.599 270.82 101.315 271.292 101.107 271.828C100.907 272.364 100.807 272.916 100.807 273.484C100.807 273.9 100.871 274.292 100.999 274.66C101.127 275.02 101.315 275.336 101.563 275.608C101.819 275.872 102.127 276.084 102.487 276.244C102.855 276.396 103.279 276.472 103.759 276.472C104.271 276.472 104.759 276.372 105.223 276.172C105.687 275.964 106.103 275.64 106.471 275.2L107.107 275.656ZM109.816 268.504H112.084C112.916 268.504 113.56 268.684 114.016 269.044C114.472 269.404 114.7 269.904 114.7 270.544C114.7 270.96 114.62 271.324 114.46 271.636C114.3 271.948 114.076 272.212 113.788 272.428C113.508 272.636 113.168 272.792 112.768 272.896C112.376 273 111.944 273.052 111.472 273.052H109.864L109.168 277H108.316L109.816 268.504ZM109.984 272.344H111.544C112.264 272.344 112.824 272.2 113.224 271.912C113.632 271.624 113.836 271.2 113.836 270.64C113.836 270.12 113.672 269.756 113.344 269.548C113.016 269.34 112.572 269.236 112.012 269.236H110.536L109.984 272.344ZM113.35 278.68H112.666L113.974 275.86H114.826L113.35 278.68ZM122.56 277.216C122.048 277.216 121.612 277.14 121.252 276.988C120.9 276.836 120.612 276.64 120.388 276.4C120.164 276.152 120 275.876 119.896 275.572C119.8 275.26 119.752 274.948 119.752 274.636C119.752 274.356 119.776 274.088 119.824 273.832L120.76 268.504H121.612L120.688 273.736C120.64 273.992 120.616 274.236 120.616 274.468C120.616 274.74 120.648 274.996 120.712 275.236C120.784 275.476 120.896 275.688 121.048 275.872C121.208 276.056 121.412 276.204 121.66 276.316C121.916 276.42 122.232 276.472 122.608 276.472C123.056 276.472 123.436 276.4 123.748 276.256C124.068 276.104 124.332 275.904 124.54 275.656C124.756 275.4 124.924 275.108 125.044 274.78C125.172 274.444 125.268 274.096 125.332 273.736L126.256 268.504H127.108L126.172 273.832C126.108 274.184 126 274.56 125.848 274.96C125.704 275.352 125.492 275.716 125.212 276.052C124.94 276.388 124.588 276.668 124.156 276.892C123.724 277.108 123.192 277.216 122.56 277.216ZM129.328 268.504H131.896C132.376 268.504 132.852 268.572 133.324 268.708C133.796 268.836 134.22 269.044 134.596 269.332C134.972 269.612 135.276 269.98 135.508 270.436C135.74 270.884 135.856 271.424 135.856 272.056C135.856 272.8 135.724 273.476 135.46 274.084C135.204 274.692 134.844 275.212 134.38 275.644C133.916 276.076 133.368 276.412 132.736 276.652C132.104 276.884 131.416 277 130.672 277H127.828L129.328 268.504ZM128.812 276.244H130.732C131.42 276.244 132.024 276.128 132.544 275.896C133.072 275.664 133.512 275.36 133.864 274.984C134.224 274.6 134.492 274.164 134.668 273.676C134.852 273.18 134.944 272.672 134.944 272.152C134.944 271.76 134.88 271.388 134.752 271.036C134.624 270.684 134.428 270.376 134.164 270.112C133.9 269.848 133.564 269.64 133.156 269.488C132.748 269.336 132.264 269.26 131.704 269.26H130.048L128.812 276.244ZM138.41 268.504H140.678C141.51 268.504 142.154 268.684 142.61 269.044C143.066 269.404 143.294 269.904 143.294 270.544C143.294 270.96 143.214 271.324 143.054 271.636C142.894 271.948 142.67 272.212 142.382 272.428C142.102 272.636 141.762 272.792 141.362 272.896C140.97 273 140.538 273.052 140.066 273.052H138.458L137.762 277H136.91L138.41 268.504ZM138.578 272.344H140.138C140.858 272.344 141.418 272.2 141.818 271.912C142.226 271.624 142.43 271.2 142.43 270.64C142.43 270.12 142.266 269.756 141.938 269.548C141.61 269.34 141.166 269.236 140.606 269.236H139.13L138.578 272.344Z" fill="white"/>
<rect x="23.5" y="171.5" width="193" height="49" fill="#F1BB6B" stroke="#F1BB6B"/>
<path d="M67 141H261L217 171H23L67 141Z" fill="#F1BB6B" fill-opacity="0.8"/>
<path d="M217 170.842L261 141V191.158L217 221V170.842Z" fill="#F7D6A6"/>
<path d="M88.488 184.744C88.12 184.232 87.648 183.824 87.072 183.52C86.496 183.2 85.8 183.04 84.984 183.04C84.568 183.04 84.144 183.104 83.712 183.232C83.28 183.36 82.888 183.56 82.536 183.832C82.184 184.088 81.896 184.416 81.672 184.816C81.464 185.216 81.36 185.688 81.36 186.232C81.36 186.776 81.464 187.224 81.672 187.576C81.88 187.928 82.152 188.232 82.488 188.488C82.84 188.728 83.232 188.928 83.664 189.088C84.112 189.248 84.576 189.408 85.056 189.568C85.648 189.76 86.24 189.968 86.832 190.192C87.44 190.416 87.984 190.712 88.464 191.08C88.944 191.432 89.336 191.888 89.64 192.448C89.944 192.992 90.096 193.688 90.096 194.536C90.096 195.384 89.928 196.12 89.592 196.744C89.272 197.352 88.848 197.856 88.32 198.256C87.808 198.656 87.216 198.952 86.544 199.144C85.888 199.336 85.224 199.432 84.552 199.432C84.04 199.432 83.528 199.376 83.016 199.264C82.504 199.168 82.016 199.016 81.552 198.808C81.088 198.6 80.656 198.336 80.256 198.016C79.856 197.696 79.504 197.328 79.2 196.912L80.688 195.808C81.056 196.416 81.568 196.928 82.224 197.344C82.896 197.744 83.68 197.944 84.576 197.944C85.008 197.944 85.448 197.88 85.896 197.752C86.344 197.608 86.744 197.4 87.096 197.128C87.464 196.84 87.76 196.496 87.984 196.096C88.224 195.68 88.344 195.2 88.344 194.656C88.344 194.064 88.224 193.576 87.984 193.192C87.76 192.792 87.456 192.464 87.072 192.208C86.688 191.936 86.248 191.712 85.752 191.536C85.256 191.36 84.736 191.184 84.192 191.008C83.632 190.832 83.08 190.632 82.536 190.408C81.992 190.184 81.504 189.896 81.072 189.544C80.64 189.176 80.288 188.728 80.016 188.2C79.76 187.672 79.632 187.024 79.632 186.256C79.632 185.44 79.792 184.736 80.112 184.144C80.448 183.552 80.88 183.064 81.408 182.68C81.936 182.296 82.52 182.016 83.16 181.84C83.8 181.664 84.432 181.576 85.056 181.576C86.208 181.576 87.192 181.784 88.008 182.2C88.824 182.6 89.44 183.08 89.856 183.64L88.488 184.744ZM102.275 192.52C102.227 191.464 101.883 190.592 101.243 189.904C100.619 189.2 99.7229 188.848 98.5549 188.848C98.0109 188.848 97.5069 188.952 97.0429 189.16C96.5789 189.352 96.1709 189.624 95.8189 189.976C95.4669 190.312 95.1869 190.704 94.9789 191.152C94.7709 191.584 94.6509 192.04 94.6189 192.52H102.275ZM103.931 193.048C103.931 193.16 103.931 193.28 103.931 193.408C103.931 193.536 103.923 193.672 103.907 193.816H94.5949C94.6109 194.376 94.7229 194.904 94.9309 195.4C95.1389 195.896 95.4269 196.328 95.7949 196.696C96.1629 197.064 96.5949 197.36 97.0909 197.584C97.5869 197.792 98.1229 197.896 98.6989 197.896C99.5469 197.896 100.275 197.704 100.883 197.32C101.507 196.92 101.979 196.464 102.299 195.952L103.523 196.912C102.851 197.76 102.107 198.368 101.291 198.736C100.491 199.104 99.6269 199.288 98.6989 199.288C97.8669 199.288 97.0909 199.144 96.3709 198.856C95.6669 198.552 95.0589 198.136 94.5469 197.608C94.0349 197.08 93.6269 196.456 93.3229 195.736C93.0349 195.016 92.8909 194.232 92.8909 193.384C92.8909 192.536 93.0349 191.752 93.3229 191.032C93.6109 190.312 94.0109 189.688 94.5229 189.16C95.0349 188.632 95.6349 188.224 96.3229 187.936C97.0109 187.632 97.7549 187.48 98.5549 187.48C99.4349 187.48 100.211 187.632 100.883 187.936C101.555 188.224 102.115 188.624 102.563 189.136C103.011 189.632 103.347 190.216 103.571 190.888C103.811 191.56 103.931 192.28 103.931 193.048ZM113.417 190.432C113.177 189.968 112.809 189.592 112.313 189.304C111.833 189 111.281 188.848 110.657 188.848C110.369 188.848 110.081 188.88 109.793 188.944C109.505 189.008 109.249 189.112 109.025 189.256C108.801 189.4 108.617 189.584 108.473 189.808C108.345 190.032 108.281 190.296 108.281 190.6C108.281 191.128 108.497 191.536 108.929 191.824C109.361 192.096 110.041 192.328 110.969 192.52C112.297 192.792 113.273 193.192 113.897 193.72C114.537 194.232 114.857 194.928 114.857 195.808C114.857 196.448 114.729 196.992 114.473 197.44C114.233 197.872 113.913 198.232 113.513 198.52C113.113 198.792 112.657 198.984 112.145 199.096C111.649 199.224 111.145 199.288 110.633 199.288C109.785 199.288 108.961 199.112 108.161 198.76C107.361 198.408 106.705 197.856 106.193 197.104L107.489 196.144C107.777 196.64 108.201 197.056 108.761 197.392C109.321 197.728 109.937 197.896 110.609 197.896C110.961 197.896 111.297 197.864 111.617 197.8C111.937 197.736 112.217 197.624 112.457 197.464C112.697 197.304 112.889 197.104 113.033 196.864C113.177 196.608 113.249 196.296 113.249 195.928C113.249 195.336 112.961 194.896 112.385 194.608C111.825 194.304 111.009 194.024 109.937 193.768C109.601 193.688 109.241 193.592 108.857 193.48C108.489 193.352 108.145 193.176 107.825 192.952C107.505 192.712 107.241 192.416 107.033 192.064C106.825 191.712 106.721 191.272 106.721 190.744C106.721 190.168 106.833 189.68 107.057 189.28C107.281 188.864 107.577 188.528 107.945 188.272C108.329 188 108.761 187.8 109.241 187.672C109.721 187.544 110.217 187.48 110.729 187.48C111.513 187.48 112.273 187.656 113.009 188.008C113.745 188.36 114.297 188.856 114.665 189.496L113.417 190.432ZM124.081 190.432C123.841 189.968 123.473 189.592 122.977 189.304C122.497 189 121.945 188.848 121.321 188.848C121.033 188.848 120.745 188.88 120.457 188.944C120.169 189.008 119.913 189.112 119.689 189.256C119.465 189.4 119.281 189.584 119.137 189.808C119.009 190.032 118.945 190.296 118.945 190.6C118.945 191.128 119.161 191.536 119.593 191.824C120.025 192.096 120.705 192.328 121.633 192.52C122.961 192.792 123.937 193.192 124.561 193.72C125.201 194.232 125.521 194.928 125.521 195.808C125.521 196.448 125.393 196.992 125.137 197.44C124.897 197.872 124.577 198.232 124.177 198.52C123.777 198.792 123.321 198.984 122.809 199.096C122.313 199.224 121.809 199.288 121.297 199.288C120.449 199.288 119.625 199.112 118.825 198.76C118.025 198.408 117.369 197.856 116.857 197.104L118.153 196.144C118.441 196.64 118.865 197.056 119.425 197.392C119.985 197.728 120.601 197.896 121.273 197.896C121.625 197.896 121.961 197.864 122.281 197.8C122.601 197.736 122.881 197.624 123.121 197.464C123.361 197.304 123.553 197.104 123.697 196.864C123.841 196.608 123.913 196.296 123.913 195.928C123.913 195.336 123.625 194.896 123.049 194.608C122.489 194.304 121.673 194.024 120.601 193.768C120.265 193.688 119.905 193.592 119.521 193.48C119.153 193.352 118.809 193.176 118.489 192.952C118.169 192.712 117.905 192.416 117.697 192.064C117.489 191.712 117.385 191.272 117.385 190.744C117.385 190.168 117.497 189.68 117.721 189.28C117.945 188.864 118.241 188.528 118.609 188.272C118.993 188 119.425 187.8 119.905 187.672C120.385 187.544 120.881 187.48 121.393 187.48C122.177 187.48 122.937 187.656 123.673 188.008C124.409 188.36 124.961 188.856 125.329 189.496L124.081 190.432ZM130.425 199H128.793V187.768H130.425V199ZM130.761 183.448C130.761 183.784 130.641 184.064 130.401 184.288C130.161 184.496 129.897 184.6 129.609 184.6C129.321 184.6 129.057 184.496 128.817 184.288C128.577 184.064 128.457 183.784 128.457 183.448C128.457 183.112 128.577 182.84 128.817 182.632C129.057 182.408 129.321 182.296 129.609 182.296C129.897 182.296 130.161 182.408 130.401 182.632C130.641 182.84 130.761 183.112 130.761 183.448ZM145.929 193.384C145.929 194.232 145.777 195.016 145.473 195.736C145.185 196.456 144.777 197.08 144.249 197.608C143.721 198.136 143.089 198.552 142.353 198.856C141.617 199.144 140.809 199.288 139.929 199.288C139.065 199.288 138.265 199.144 137.529 198.856C136.793 198.552 136.161 198.136 135.633 197.608C135.105 197.08 134.689 196.456 134.385 195.736C134.097 195.016 133.953 194.232 133.953 193.384C133.953 192.536 134.097 191.752 134.385 191.032C134.689 190.312 135.105 189.688 135.633 189.16C136.161 188.632 136.793 188.224 137.529 187.936C138.265 187.632 139.065 187.48 139.929 187.48C140.809 187.48 141.617 187.632 142.353 187.936C143.089 188.224 143.721 188.632 144.249 189.16C144.777 189.688 145.185 190.312 145.473 191.032C145.777 191.752 145.929 192.536 145.929 193.384ZM144.201 193.384C144.201 192.76 144.097 192.176 143.889 191.632C143.697 191.072 143.417 190.592 143.049 190.192C142.681 189.776 142.233 189.448 141.705 189.208C141.177 188.968 140.585 188.848 139.929 188.848C139.273 188.848 138.681 188.968 138.153 189.208C137.641 189.448 137.201 189.776 136.833 190.192C136.465 190.592 136.177 191.072 135.969 191.632C135.777 192.176 135.681 192.76 135.681 193.384C135.681 194.008 135.777 194.6 135.969 195.16C136.177 195.704 136.465 196.184 136.833 196.6C137.201 197 137.641 197.32 138.153 197.56C138.681 197.784 139.273 197.896 139.929 197.896C140.585 197.896 141.177 197.784 141.705 197.56C142.233 197.32 142.681 197 143.049 196.6C143.417 196.184 143.697 195.704 143.889 195.16C144.097 194.6 144.201 194.008 144.201 193.384ZM150.905 187.768C150.937 188.072 150.961 188.408 150.977 188.776C150.993 189.144 151.001 189.448 151.001 189.688H151.049C151.369 189.032 151.889 188.504 152.609 188.104C153.329 187.688 154.089 187.48 154.889 187.48C156.313 187.48 157.377 187.904 158.081 188.752C158.801 189.6 159.161 190.72 159.161 192.112V199H157.529V192.784C157.529 192.192 157.481 191.656 157.385 191.176C157.289 190.696 157.121 190.288 156.881 189.952C156.657 189.6 156.345 189.328 155.945 189.136C155.561 188.944 155.073 188.848 154.481 188.848C154.049 188.848 153.625 188.936 153.209 189.112C152.809 189.288 152.449 189.56 152.129 189.928C151.809 190.28 151.553 190.736 151.361 191.296C151.169 191.84 151.073 192.488 151.073 193.24V199H149.441V190.24C149.441 189.936 149.433 189.544 149.417 189.064C149.401 188.584 149.377 188.152 149.345 187.768H150.905Z" fill="white"/>
<path d="M107.332 217H106.48L107.98 208.504H110.272C110.648 208.504 110.996 208.544 111.316 208.624C111.636 208.704 111.912 208.828 112.144 208.996C112.384 209.164 112.568 209.376 112.696 209.632C112.832 209.888 112.9 210.188 112.9 210.532C112.9 210.924 112.836 211.264 112.708 211.552C112.58 211.84 112.4 212.084 112.168 212.284C111.944 212.476 111.68 212.628 111.376 212.74C111.072 212.852 110.748 212.924 110.404 212.956L112.276 217H111.304L109.528 213.028H108.028L107.332 217ZM108.16 212.308H109.672C109.96 212.308 110.244 212.288 110.524 212.248C110.804 212.2 111.056 212.116 111.28 211.996C111.504 211.876 111.684 211.708 111.82 211.492C111.964 211.268 112.036 210.98 112.036 210.628C112.036 210.164 111.868 209.816 111.532 209.584C111.196 209.352 110.732 209.236 110.14 209.236H108.7L108.16 212.308ZM115.164 208.504H117.432C118.264 208.504 118.908 208.684 119.364 209.044C119.82 209.404 120.048 209.904 120.048 210.544C120.048 210.96 119.968 211.324 119.808 211.636C119.648 211.948 119.424 212.212 119.136 212.428C118.856 212.636 118.516 212.792 118.116 212.896C117.724 213 117.292 213.052 116.82 213.052H115.212L114.516 217H113.664L115.164 208.504ZM115.332 212.344H116.892C117.612 212.344 118.172 212.2 118.572 211.912C118.98 211.624 119.184 211.2 119.184 210.64C119.184 210.12 119.02 209.756 118.692 209.548C118.364 209.34 117.92 209.236 117.36 209.236H115.884L115.332 212.344ZM128.053 215.656C127.885 215.872 127.689 216.076 127.465 216.268C127.241 216.452 126.985 216.616 126.697 216.76C126.417 216.896 126.105 217.004 125.761 217.084C125.425 217.172 125.057 217.216 124.657 217.216C124.089 217.216 123.569 217.128 123.097 216.952C122.633 216.776 122.233 216.528 121.897 216.208C121.561 215.888 121.301 215.504 121.117 215.056C120.933 214.608 120.841 214.112 120.841 213.568C120.841 212.832 120.973 212.144 121.237 211.504C121.501 210.864 121.861 210.308 122.317 209.836C122.781 209.356 123.321 208.98 123.937 208.708C124.553 208.428 125.213 208.288 125.917 208.288C126.229 208.288 126.529 208.32 126.817 208.384C127.113 208.448 127.385 208.54 127.633 208.66C127.881 208.772 128.101 208.912 128.293 209.08C128.493 209.248 128.653 209.436 128.773 209.644L127.993 210.16C127.929 210.024 127.833 209.888 127.705 209.752C127.585 209.616 127.437 209.496 127.261 209.392C127.085 209.28 126.881 209.192 126.649 209.128C126.425 209.064 126.173 209.032 125.893 209.032C125.285 209.032 124.725 209.16 124.213 209.416C123.709 209.664 123.273 209.996 122.905 210.412C122.545 210.82 122.261 211.292 122.053 211.828C121.853 212.364 121.753 212.916 121.753 213.484C121.753 213.9 121.817 214.292 121.945 214.66C122.073 215.02 122.261 215.336 122.509 215.608C122.765 215.872 123.073 216.084 123.433 216.244C123.801 216.396 124.225 216.472 124.705 216.472C125.217 216.472 125.705 216.372 126.169 216.172C126.633 215.964 127.049 215.64 127.417 215.2L128.053 215.656Z" fill="white"/>
<rect x="23.5" y="111.5" width="193" height="49" fill="#F19B6B" stroke="#F19B6B"/>
<path d="M67 81H261L217 111H23L67 81Z" fill="#F19B6B" fill-opacity="0.8"/>
<path d="M217 110.842L261 81V131.158L217 161V110.842Z" fill="#F7C3A6"/>
<path d="M56.256 122.008H61.056C61.92 122.008 62.704 122.104 63.408 122.296C64.112 122.472 64.712 122.752 65.208 123.136C65.72 123.504 66.112 123.976 66.384 124.552C66.656 125.112 66.792 125.776 66.792 126.544C66.792 127.312 66.648 127.984 66.36 128.56C66.088 129.12 65.696 129.592 65.184 129.976C64.688 130.344 64.08 130.624 63.36 130.816C62.656 131.008 61.872 131.104 61.008 131.104H57.984V139H56.256V122.008ZM57.984 129.64H60.912C62.272 129.64 63.304 129.376 64.008 128.848C64.712 128.32 65.064 127.552 65.064 126.544C65.064 125.488 64.696 124.72 63.96 124.24C63.24 123.744 62.224 123.496 60.912 123.496H57.984V129.64ZM68.9334 130.24C68.9334 129.936 68.9254 129.544 68.9094 129.064C68.8934 128.584 68.8694 128.152 68.8374 127.768H70.3974C70.4294 128.072 70.4534 128.408 70.4694 128.776C70.4854 129.144 70.4934 129.448 70.4934 129.688H70.5414C70.8614 129.032 71.3414 128.504 71.9814 128.104C72.6214 127.688 73.3414 127.48 74.1414 127.48C74.3494 127.48 74.5334 127.488 74.6934 127.504C74.8694 127.52 75.0454 127.552 75.2214 127.6L75.0054 129.136C74.9094 129.104 74.7494 129.072 74.5254 129.04C74.3014 129.008 74.0774 128.992 73.8534 128.992C73.4214 128.992 73.0054 129.072 72.6054 129.232C72.2054 129.392 71.8534 129.648 71.5494 130C71.2614 130.336 71.0214 130.776 70.8294 131.32C70.6534 131.848 70.5654 132.488 70.5654 133.24V139H68.9334V130.24ZM85.728 132.52C85.68 131.464 85.336 130.592 84.696 129.904C84.072 129.2 83.176 128.848 82.008 128.848C81.464 128.848 80.96 128.952 80.496 129.16C80.032 129.352 79.624 129.624 79.272 129.976C78.92 130.312 78.64 130.704 78.432 131.152C78.224 131.584 78.104 132.04 78.072 132.52H85.728ZM87.384 133.048C87.384 133.16 87.384 133.28 87.384 133.408C87.384 133.536 87.376 133.672 87.36 133.816H78.048C78.064 134.376 78.176 134.904 78.384 135.4C78.592 135.896 78.88 136.328 79.248 136.696C79.616 137.064 80.048 137.36 80.544 137.584C81.04 137.792 81.576 137.896 82.152 137.896C83 137.896 83.728 137.704 84.336 137.32C84.96 136.92 85.432 136.464 85.752 135.952L86.976 136.912C86.304 137.76 85.56 138.368 84.744 138.736C83.944 139.104 83.08 139.288 82.152 139.288C81.32 139.288 80.544 139.144 79.824 138.856C79.12 138.552 78.512 138.136 78 137.608C77.488 137.08 77.08 136.456 76.776 135.736C76.488 135.016 76.344 134.232 76.344 133.384C76.344 132.536 76.488 131.752 76.776 131.032C77.064 130.312 77.464 129.688 77.976 129.16C78.488 128.632 79.088 128.224 79.776 127.936C80.464 127.632 81.208 127.48 82.008 127.48C82.888 127.48 83.664 127.632 84.336 127.936C85.008 128.224 85.568 128.624 86.016 129.136C86.464 129.632 86.8 130.216 87.024 130.888C87.264 131.56 87.384 132.28 87.384 133.048ZM96.8704 130.432C96.6304 129.968 96.2624 129.592 95.7664 129.304C95.2864 129 94.7344 128.848 94.1104 128.848C93.8224 128.848 93.5344 128.88 93.2464 128.944C92.9584 129.008 92.7024 129.112 92.4784 129.256C92.2544 129.4 92.0704 129.584 91.9264 129.808C91.7984 130.032 91.7344 130.296 91.7344 130.6C91.7344 131.128 91.9504 131.536 92.3824 131.824C92.8144 132.096 93.4944 132.328 94.4224 132.52C95.7504 132.792 96.7264 133.192 97.3504 133.72C97.9904 134.232 98.3104 134.928 98.3104 135.808C98.3104 136.448 98.1824 136.992 97.9264 137.44C97.6864 137.872 97.3664 138.232 96.9664 138.52C96.5664 138.792 96.1104 138.984 95.5984 139.096C95.1024 139.224 94.5984 139.288 94.0864 139.288C93.2384 139.288 92.4144 139.112 91.6144 138.76C90.8144 138.408 90.1584 137.856 89.6464 137.104L90.9424 136.144C91.2304 136.64 91.6544 137.056 92.2144 137.392C92.7744 137.728 93.3904 137.896 94.0624 137.896C94.4144 137.896 94.7504 137.864 95.0704 137.8C95.3904 137.736 95.6704 137.624 95.9104 137.464C96.1504 137.304 96.3424 137.104 96.4864 136.864C96.6304 136.608 96.7024 136.296 96.7024 135.928C96.7024 135.336 96.4144 134.896 95.8384 134.608C95.2784 134.304 94.4624 134.024 93.3904 133.768C93.0544 133.688 92.6944 133.592 92.3104 133.48C91.9424 133.352 91.5984 133.176 91.2784 132.952C90.9584 132.712 90.6944 132.416 90.4864 132.064C90.2784 131.712 90.1744 131.272 90.1744 130.744C90.1744 130.168 90.2864 129.68 90.5104 129.28C90.7344 128.864 91.0304 128.528 91.3984 128.272C91.7824 128 92.2144 127.8 92.6944 127.672C93.1744 127.544 93.6704 127.48 94.1824 127.48C94.9664 127.48 95.7264 127.656 96.4624 128.008C97.1984 128.36 97.7504 128.856 98.1184 129.496L96.8704 130.432ZM110.126 132.52C110.078 131.464 109.734 130.592 109.094 129.904C108.47 129.2 107.574 128.848 106.406 128.848C105.862 128.848 105.358 128.952 104.894 129.16C104.43 129.352 104.022 129.624 103.67 129.976C103.318 130.312 103.038 130.704 102.83 131.152C102.622 131.584 102.502 132.04 102.47 132.52H110.126ZM111.782 133.048C111.782 133.16 111.782 133.28 111.782 133.408C111.782 133.536 111.774 133.672 111.758 133.816H102.446C102.462 134.376 102.574 134.904 102.782 135.4C102.99 135.896 103.278 136.328 103.646 136.696C104.014 137.064 104.446 137.36 104.942 137.584C105.438 137.792 105.974 137.896 106.55 137.896C107.398 137.896 108.126 137.704 108.734 137.32C109.358 136.92 109.83 136.464 110.15 135.952L111.374 136.912C110.702 137.76 109.958 138.368 109.142 138.736C108.342 139.104 107.478 139.288 106.55 139.288C105.718 139.288 104.942 139.144 104.222 138.856C103.518 138.552 102.91 138.136 102.398 137.608C101.886 137.08 101.478 136.456 101.174 135.736C100.886 135.016 100.742 134.232 100.742 133.384C100.742 132.536 100.886 131.752 101.174 131.032C101.462 130.312 101.862 129.688 102.374 129.16C102.886 128.632 103.486 128.224 104.174 127.936C104.862 127.632 105.606 127.48 106.406 127.48C107.286 127.48 108.062 127.632 108.734 127.936C109.406 128.224 109.966 128.624 110.414 129.136C110.862 129.632 111.198 130.216 111.422 130.888C111.662 131.56 111.782 132.28 111.782 133.048ZM116.757 127.768C116.789 128.072 116.813 128.408 116.829 128.776C116.845 129.144 116.853 129.448 116.853 129.688H116.901C117.221 129.032 117.741 128.504 118.461 128.104C119.181 127.688 119.941 127.48 120.741 127.48C122.165 127.48 123.229 127.904 123.933 128.752C124.653 129.6 125.013 130.72 125.013 132.112V139H123.381V132.784C123.381 132.192 123.333 131.656 123.237 131.176C123.141 130.696 122.973 130.288 122.733 129.952C122.509 129.6 122.197 129.328 121.797 129.136C121.413 128.944 120.925 128.848 120.333 128.848C119.901 128.848 119.477 128.936 119.061 129.112C118.661 129.288 118.301 129.56 117.981 129.928C117.661 130.28 117.405 130.736 117.213 131.296C117.021 131.84 116.925 132.488 116.925 133.24V139H115.293V130.24C115.293 129.936 115.285 129.544 115.269 129.064C115.253 128.584 115.229 128.152 115.197 127.768H116.757ZM134.302 129.136H131.134V135.688C131.134 136.104 131.174 136.448 131.254 136.72C131.334 136.992 131.446 137.208 131.59 137.368C131.75 137.512 131.934 137.616 132.142 137.68C132.35 137.728 132.574 137.752 132.814 137.752C133.038 137.752 133.27 137.72 133.51 137.656C133.766 137.592 134.006 137.504 134.23 137.392L134.302 138.808C134.014 138.92 133.71 139 133.39 139.048C133.086 139.112 132.75 139.144 132.382 139.144C132.078 139.144 131.758 139.104 131.422 139.024C131.086 138.944 130.774 138.792 130.486 138.568C130.198 138.344 129.958 138.04 129.766 137.656C129.59 137.272 129.502 136.768 129.502 136.144V129.136H127.174V127.768H129.502V124.6H131.134V127.768H134.302V129.136ZM143.935 131.752C143.935 130.776 143.679 130.048 143.167 129.568C142.655 129.088 141.911 128.848 140.935 128.848C140.263 128.848 139.639 128.968 139.063 129.208C138.487 129.448 137.999 129.768 137.599 130.168L136.687 129.088C137.151 128.624 137.759 128.24 138.511 127.936C139.279 127.632 140.143 127.48 141.103 127.48C141.711 127.48 142.279 127.568 142.807 127.744C143.335 127.904 143.799 128.152 144.199 128.488C144.599 128.824 144.911 129.248 145.135 129.76C145.359 130.272 145.471 130.872 145.471 131.56V136.48C145.471 136.912 145.487 137.36 145.519 137.824C145.551 138.288 145.599 138.68 145.663 139H144.199C144.151 138.728 144.111 138.432 144.079 138.112C144.047 137.792 144.031 137.48 144.031 137.176H143.983C143.471 137.928 142.887 138.472 142.231 138.808C141.591 139.128 140.815 139.288 139.903 139.288C139.471 139.288 139.023 139.224 138.559 139.096C138.111 138.984 137.695 138.792 137.311 138.52C136.943 138.248 136.631 137.896 136.375 137.464C136.135 137.032 136.015 136.504 136.015 135.88C136.015 135.016 136.231 134.336 136.663 133.84C137.111 133.328 137.703 132.952 138.439 132.712C139.175 132.456 140.015 132.296 140.959 132.232C141.919 132.152 142.911 132.112 143.935 132.112V131.752ZM143.455 133.384C142.783 133.384 142.103 133.416 141.415 133.48C140.743 133.528 140.127 133.64 139.567 133.816C139.023 133.976 138.575 134.216 138.223 134.536C137.871 134.856 137.695 135.28 137.695 135.808C137.695 136.208 137.767 136.544 137.911 136.816C138.071 137.088 138.279 137.312 138.535 137.488C138.791 137.648 139.071 137.768 139.375 137.848C139.695 137.912 140.015 137.944 140.335 137.944C140.911 137.944 141.423 137.848 141.871 137.656C142.319 137.448 142.695 137.176 142.999 136.84C143.303 136.488 143.535 136.088 143.695 135.64C143.855 135.192 143.935 134.72 143.935 134.224V133.384H143.455ZM154.505 129.136H151.337V135.688C151.337 136.104 151.377 136.448 151.457 136.72C151.537 136.992 151.649 137.208 151.793 137.368C151.953 137.512 152.137 137.616 152.345 137.68C152.553 137.728 152.777 137.752 153.017 137.752C153.241 137.752 153.473 137.72 153.713 137.656C153.969 137.592 154.209 137.504 154.433 137.392L154.505 138.808C154.217 138.92 153.913 139 153.593 139.048C153.289 139.112 152.953 139.144 152.585 139.144C152.281 139.144 151.961 139.104 151.625 139.024C151.289 138.944 150.977 138.792 150.689 138.568C150.401 138.344 150.161 138.04 149.969 137.656C149.793 137.272 149.705 136.768 149.705 136.144V129.136H147.377V127.768H149.705V124.6H151.337V127.768H154.505V129.136ZM158.714 139H157.082V127.768H158.714V139ZM159.05 123.448C159.05 123.784 158.93 124.064 158.69 124.288C158.45 124.496 158.186 124.6 157.898 124.6C157.61 124.6 157.346 124.496 157.106 124.288C156.866 124.064 156.746 123.784 156.746 123.448C156.746 123.112 156.866 122.84 157.106 122.632C157.346 122.408 157.61 122.296 157.898 122.296C158.186 122.296 158.45 122.408 158.69 122.632C158.93 122.84 159.05 123.112 159.05 123.448ZM174.218 133.384C174.218 134.232 174.066 135.016 173.762 135.736C173.474 136.456 173.066 137.08 172.538 137.608C172.01 138.136 171.378 138.552 170.642 138.856C169.906 139.144 169.098 139.288 168.218 139.288C167.354 139.288 166.554 139.144 165.818 138.856C165.082 138.552 164.45 138.136 163.922 137.608C163.394 137.08 162.978 136.456 162.674 135.736C162.386 135.016 162.242 134.232 162.242 133.384C162.242 132.536 162.386 131.752 162.674 131.032C162.978 130.312 163.394 129.688 163.922 129.16C164.45 128.632 165.082 128.224 165.818 127.936C166.554 127.632 167.354 127.48 168.218 127.48C169.098 127.48 169.906 127.632 170.642 127.936C171.378 128.224 172.01 128.632 172.538 129.16C173.066 129.688 173.474 130.312 173.762 131.032C174.066 131.752 174.218 132.536 174.218 133.384ZM172.49 133.384C172.49 132.76 172.386 132.176 172.178 131.632C171.986 131.072 171.706 130.592 171.338 130.192C170.97 129.776 170.522 129.448 169.994 129.208C169.466 128.968 168.874 128.848 168.218 128.848C167.562 128.848 166.97 128.968 166.442 129.208C165.93 129.448 165.49 129.776 165.122 130.192C164.754 130.592 164.466 131.072 164.258 131.632C164.066 132.176 163.97 132.76 163.97 133.384C163.97 134.008 164.066 134.6 164.258 135.16C164.466 135.704 164.754 136.184 165.122 136.6C165.49 137 165.93 137.32 166.442 137.56C166.97 137.784 167.562 137.896 168.218 137.896C168.874 137.896 169.466 137.784 169.994 137.56C170.522 137.32 170.97 137 171.338 136.6C171.706 136.184 171.986 135.704 172.178 135.16C172.386 134.6 172.49 134.008 172.49 133.384ZM179.194 127.768C179.226 128.072 179.25 128.408 179.266 128.776C179.282 129.144 179.29 129.448 179.29 129.688H179.338C179.658 129.032 180.178 128.504 180.898 128.104C181.618 127.688 182.378 127.48 183.178 127.48C184.602 127.48 185.666 127.904 186.37 128.752C187.09 129.6 187.45 130.72 187.45 132.112V139H185.818V132.784C185.818 132.192 185.77 131.656 185.674 131.176C185.578 130.696 185.41 130.288 185.17 129.952C184.946 129.6 184.634 129.328 184.234 129.136C183.85 128.944 183.362 128.848 182.77 128.848C182.338 128.848 181.914 128.936 181.498 129.112C181.098 129.288 180.738 129.56 180.418 129.928C180.098 130.28 179.842 130.736 179.65 131.296C179.458 131.84 179.362 132.488 179.362 133.24V139H177.73V130.24C177.73 129.936 177.722 129.544 177.706 129.064C177.69 128.584 177.666 128.152 177.634 127.768H179.194Z" fill="white"/>
<path d="M92.636 155.32C92.692 155.64 92.824 155.912 93.032 156.136C93.24 156.36 93.536 156.472 93.92 156.472C94.232 156.472 94.488 156.416 94.688 156.304C94.888 156.192 95.052 156.044 95.18 155.86C95.316 155.676 95.416 155.468 95.48 155.236C95.552 154.996 95.612 154.748 95.66 154.492L96.716 148.504H97.568L96.5 154.552C96.452 154.832 96.384 155.128 96.296 155.44C96.208 155.752 96.068 156.04 95.876 156.304C95.692 156.568 95.448 156.788 95.144 156.964C94.84 157.132 94.448 157.216 93.968 157.216C93.656 157.216 93.376 157.172 93.128 157.084C92.88 156.996 92.668 156.876 92.492 156.724C92.324 156.572 92.188 156.396 92.084 156.196C91.98 155.996 91.912 155.784 91.88 155.56L92.636 155.32ZM99.7691 148.504H102.037C102.869 148.504 103.513 148.684 103.969 149.044C104.425 149.404 104.653 149.904 104.653 150.544C104.653 150.96 104.573 151.324 104.413 151.636C104.253 151.948 104.029 152.212 103.741 152.428C103.461 152.636 103.121 152.792 102.721 152.896C102.329 153 101.897 153.052 101.425 153.052H99.8171L99.1211 157H98.2691L99.7691 148.504ZM99.9371 152.344H101.497C102.217 152.344 102.777 152.2 103.177 151.912C103.585 151.624 103.789 151.2 103.789 150.64C103.789 150.12 103.625 149.756 103.297 149.548C102.969 149.34 102.525 149.236 101.965 149.236H100.489L99.9371 152.344ZM106.214 156.244H110.774L110.642 157H105.23L106.73 148.504H111.83L111.698 149.26H107.45L106.934 152.212H110.99L110.858 152.944H106.802L106.214 156.244ZM116.271 156.472C116.759 156.472 117.211 156.42 117.627 156.316C118.043 156.212 118.395 156.072 118.683 155.896L119.139 153.292H117.135L117.267 152.56H120.111L119.439 156.388C118.927 156.684 118.407 156.896 117.879 157.024C117.351 157.152 116.799 157.216 116.223 157.216C115.655 157.216 115.135 157.128 114.663 156.952C114.199 156.776 113.799 156.528 113.463 156.208C113.127 155.888 112.867 155.504 112.683 155.056C112.499 154.608 112.407 154.112 112.407 153.568C112.407 152.832 112.539 152.144 112.803 151.504C113.067 150.864 113.427 150.308 113.883 149.836C114.347 149.356 114.887 148.98 115.503 148.708C116.119 148.428 116.779 148.288 117.483 148.288C117.795 148.288 118.095 148.32 118.383 148.384C118.679 148.448 118.951 148.54 119.199 148.66C119.447 148.772 119.667 148.912 119.859 149.08C120.059 149.248 120.219 149.436 120.339 149.644L119.559 150.16C119.495 150.024 119.399 149.888 119.271 149.752C119.151 149.616 119.003 149.496 118.827 149.392C118.651 149.28 118.447 149.192 118.215 149.128C117.991 149.064 117.739 149.032 117.459 149.032C116.851 149.032 116.291 149.16 115.779 149.416C115.275 149.664 114.839 149.996 114.471 150.412C114.111 150.82 113.827 151.292 113.619 151.828C113.419 152.364 113.319 152.916 113.319 153.484C113.319 153.9 113.383 154.292 113.511 154.66C113.639 155.02 113.827 155.336 114.075 155.608C114.331 155.872 114.639 156.084 114.999 156.244C115.367 156.396 115.791 156.472 116.271 156.472ZM121.221 158.68H120.537L121.845 155.86H122.697L121.221 158.68ZM131.259 156.472C131.747 156.472 132.199 156.42 132.615 156.316C133.031 156.212 133.383 156.072 133.671 155.896L134.127 153.292H132.123L132.255 152.56H135.099L134.427 156.388C133.915 156.684 133.395 156.896 132.867 157.024C132.339 157.152 131.787 157.216 131.211 157.216C130.643 157.216 130.123 157.128 129.651 156.952C129.187 156.776 128.787 156.528 128.451 156.208C128.115 155.888 127.855 155.504 127.671 155.056C127.487 154.608 127.395 154.112 127.395 153.568C127.395 152.832 127.527 152.144 127.791 151.504C128.055 150.864 128.415 150.308 128.871 149.836C129.335 149.356 129.875 148.98 130.491 148.708C131.107 148.428 131.767 148.288 132.471 148.288C132.783 148.288 133.083 148.32 133.371 148.384C133.667 148.448 133.939 148.54 134.187 148.66C134.435 148.772 134.655 148.912 134.847 149.08C135.047 149.248 135.207 149.436 135.327 149.644L134.547 150.16C134.483 150.024 134.387 149.888 134.259 149.752C134.139 149.616 133.991 149.496 133.815 149.392C133.639 149.28 133.435 149.192 133.203 149.128C132.979 149.064 132.727 149.032 132.447 149.032C131.839 149.032 131.279 149.16 130.767 149.416C130.263 149.664 129.827 149.996 129.459 150.412C129.099 150.82 128.815 151.292 128.607 151.828C128.407 152.364 128.307 152.916 128.307 153.484C128.307 153.9 128.371 154.292 128.499 154.66C128.627 155.02 128.815 155.336 129.063 155.608C129.319 155.872 129.627 156.084 129.987 156.244C130.355 156.396 130.779 156.472 131.259 156.472ZM137.266 157H136.414L137.914 148.504H138.766L137.266 157ZM140.383 157H139.531L141.031 148.504H146.035L145.903 149.26H141.751L141.223 152.224H145.075L144.955 152.956H141.103L140.383 157Z" fill="white"/>
<rect x="23.5" y="51.5" width="193" height="49" fill="#F17B6B" stroke="#F17B6B"/>
<path d="M67 21H261L217 51H23L67 21Z" fill="#F17B6B" fill-opacity="0.8"/>
<path d="M217 50.8421L261 21V71.1579L217 101V50.8421Z" fill="#F7B0A6"/>
<path d="M56.136 79H54.24L61.584 62.008H63.264L70.56 79H68.64L66.768 74.536H57.984L56.136 79ZM58.632 72.952H66.12L62.376 63.928L58.632 72.952ZM74.5967 84.76H72.9647V67.768H74.5967V69.712H74.6687C75.1327 68.976 75.7487 68.424 76.5167 68.056C77.3007 67.672 78.0927 67.48 78.8927 67.48C79.7727 67.48 80.5647 67.632 81.2687 67.936C81.9887 68.24 82.5967 68.656 83.0927 69.184C83.6047 69.712 83.9967 70.336 84.2687 71.056C84.5567 71.776 84.7007 72.552 84.7007 73.384C84.7007 74.216 84.5567 74.992 84.2687 75.712C83.9967 76.432 83.6047 77.056 83.0927 77.584C82.5967 78.112 81.9887 78.528 81.2687 78.832C80.5647 79.136 79.7727 79.288 78.8927 79.288C78.0927 79.288 77.3007 79.104 76.5167 78.736C75.7487 78.352 75.1327 77.808 74.6687 77.104H74.5967V84.76ZM82.9727 73.384C82.9727 72.76 82.8767 72.176 82.6847 71.632C82.4927 71.072 82.2127 70.592 81.8447 70.192C81.4927 69.776 81.0527 69.448 80.5247 69.208C79.9967 68.968 79.3967 68.848 78.7247 68.848C78.1007 68.848 77.5247 68.968 76.9967 69.208C76.4687 69.432 76.0127 69.752 75.6287 70.168C75.2447 70.568 74.9407 71.048 74.7167 71.608C74.5087 72.152 74.4047 72.744 74.4047 73.384C74.4047 74.024 74.5087 74.624 74.7167 75.184C74.9407 75.728 75.2447 76.2 75.6287 76.6C76.0127 77 76.4687 77.32 76.9967 77.56C77.5247 77.784 78.1007 77.896 78.7247 77.896C79.3967 77.896 79.9967 77.784 80.5247 77.56C81.0527 77.32 81.4927 77 81.8447 76.6C82.2127 76.184 82.4927 75.704 82.6847 75.16C82.8767 74.6 82.9727 74.008 82.9727 73.384ZM89.8311 84.76H88.1991V67.768H89.8311V69.712H89.9031C90.3671 68.976 90.9831 68.424 91.7511 68.056C92.5351 67.672 93.3271 67.48 94.1271 67.48C95.0071 67.48 95.7991 67.632 96.5031 67.936C97.2231 68.24 97.8311 68.656 98.3271 69.184C98.8391 69.712 99.2311 70.336 99.5031 71.056C99.7911 71.776 99.9351 72.552 99.9351 73.384C99.9351 74.216 99.7911 74.992 99.5031 75.712C99.2311 76.432 98.8391 77.056 98.3271 77.584C97.8311 78.112 97.2231 78.528 96.5031 78.832C95.7991 79.136 95.0071 79.288 94.1271 79.288C93.3271 79.288 92.5351 79.104 91.7511 78.736C90.9831 78.352 90.3671 77.808 89.9031 77.104H89.8311V84.76ZM98.2071 73.384C98.2071 72.76 98.1111 72.176 97.9191 71.632C97.7271 71.072 97.4471 70.592 97.0791 70.192C96.7271 69.776 96.2871 69.448 95.7591 69.208C95.2311 68.968 94.6311 68.848 93.9591 68.848C93.3351 68.848 92.7591 68.968 92.2311 69.208C91.7031 69.432 91.2471 69.752 90.8631 70.168C90.4791 70.568 90.1751 71.048 89.9511 71.608C89.7431 72.152 89.6391 72.744 89.6391 73.384C89.6391 74.024 89.7431 74.624 89.9511 75.184C90.1751 75.728 90.4791 76.2 90.8631 76.6C91.2471 77 91.7031 77.32 92.2311 77.56C92.7591 77.784 93.3351 77.896 93.9591 77.896C94.6311 77.896 95.2311 77.784 95.7591 77.56C96.2871 77.32 96.7271 77 97.0791 76.6C97.4471 76.184 97.7271 75.704 97.9191 75.16C98.1111 74.6 98.2071 74.008 98.2071 73.384ZM105.113 79H103.481V60.856H105.113V79ZM111.136 79H109.504V67.768H111.136V79ZM111.472 63.448C111.472 63.784 111.352 64.064 111.112 64.288C110.872 64.496 110.608 64.6 110.32 64.6C110.032 64.6 109.768 64.496 109.528 64.288C109.288 64.064 109.168 63.784 109.168 63.448C109.168 63.112 109.288 62.84 109.528 62.632C109.768 62.408 110.032 62.296 110.32 62.296C110.608 62.296 110.872 62.408 111.112 62.632C111.352 62.84 111.472 63.112 111.472 63.448ZM123.568 70.336C123.296 69.904 122.896 69.552 122.368 69.28C121.856 68.992 121.296 68.848 120.688 68.848C120.032 68.848 119.44 68.968 118.912 69.208C118.384 69.432 117.928 69.752 117.544 70.168C117.176 70.568 116.888 71.048 116.68 71.608C116.488 72.152 116.392 72.744 116.392 73.384C116.392 74.024 116.488 74.616 116.68 75.16C116.888 75.704 117.176 76.184 117.544 76.6C117.912 77 118.36 77.32 118.888 77.56C119.416 77.784 120.008 77.896 120.664 77.896C121.384 77.896 121.992 77.76 122.488 77.488C122.984 77.216 123.392 76.864 123.712 76.432L124.936 77.344C124.456 77.936 123.864 78.408 123.16 78.76C122.472 79.112 121.64 79.288 120.664 79.288C119.752 79.288 118.928 79.144 118.192 78.856C117.456 78.552 116.824 78.136 116.296 77.608C115.784 77.08 115.384 76.456 115.096 75.736C114.808 75.016 114.664 74.232 114.664 73.384C114.664 72.536 114.808 71.752 115.096 71.032C115.384 70.312 115.784 69.688 116.296 69.16C116.824 68.632 117.456 68.224 118.192 67.936C118.928 67.632 119.752 67.48 120.664 67.48C121.416 67.48 122.176 67.648 122.944 67.984C123.728 68.304 124.36 68.784 124.84 69.424L123.568 70.336ZM134.56 71.752C134.56 70.776 134.304 70.048 133.792 69.568C133.28 69.088 132.536 68.848 131.56 68.848C130.888 68.848 130.264 68.968 129.688 69.208C129.112 69.448 128.624 69.768 128.224 70.168L127.312 69.088C127.776 68.624 128.384 68.24 129.136 67.936C129.904 67.632 130.768 67.48 131.728 67.48C132.336 67.48 132.904 67.568 133.432 67.744C133.96 67.904 134.424 68.152 134.824 68.488C135.224 68.824 135.536 69.248 135.76 69.76C135.984 70.272 136.096 70.872 136.096 71.56V76.48C136.096 76.912 136.112 77.36 136.144 77.824C136.176 78.288 136.224 78.68 136.288 79H134.824C134.776 78.728 134.736 78.432 134.704 78.112C134.672 77.792 134.656 77.48 134.656 77.176H134.608C134.096 77.928 133.512 78.472 132.856 78.808C132.216 79.128 131.44 79.288 130.528 79.288C130.096 79.288 129.648 79.224 129.184 79.096C128.736 78.984 128.32 78.792 127.936 78.52C127.568 78.248 127.256 77.896 127 77.464C126.76 77.032 126.64 76.504 126.64 75.88C126.64 75.016 126.856 74.336 127.288 73.84C127.736 73.328 128.328 72.952 129.064 72.712C129.8 72.456 130.64 72.296 131.584 72.232C132.544 72.152 133.536 72.112 134.56 72.112V71.752ZM134.08 73.384C133.408 73.384 132.728 73.416 132.04 73.48C131.368 73.528 130.752 73.64 130.192 73.816C129.648 73.976 129.2 74.216 128.848 74.536C128.496 74.856 128.32 75.28 128.32 75.808C128.32 76.208 128.392 76.544 128.536 76.816C128.696 77.088 128.904 77.312 129.16 77.488C129.416 77.648 129.696 77.768 130 77.848C130.32 77.912 130.64 77.944 130.96 77.944C131.536 77.944 132.048 77.848 132.496 77.656C132.944 77.448 133.32 77.176 133.624 76.84C133.928 76.488 134.16 76.088 134.32 75.64C134.48 75.192 134.56 74.72 134.56 74.224V73.384H134.08ZM145.13 69.136H141.962V75.688C141.962 76.104 142.002 76.448 142.082 76.72C142.162 76.992 142.274 77.208 142.418 77.368C142.578 77.512 142.762 77.616 142.97 77.68C143.178 77.728 143.402 77.752 143.642 77.752C143.866 77.752 144.098 77.72 144.338 77.656C144.594 77.592 144.834 77.504 145.058 77.392L145.13 78.808C144.842 78.92 144.538 79 144.218 79.048C143.914 79.112 143.578 79.144 143.21 79.144C142.906 79.144 142.586 79.104 142.25 79.024C141.914 78.944 141.602 78.792 141.314 78.568C141.026 78.344 140.786 78.04 140.594 77.656C140.418 77.272 140.33 76.768 140.33 76.144V69.136H138.002V67.768H140.33V64.6H141.962V67.768H145.13V69.136ZM149.339 79H147.707V67.768H149.339V79ZM149.675 63.448C149.675 63.784 149.555 64.064 149.315 64.288C149.075 64.496 148.811 64.6 148.523 64.6C148.235 64.6 147.971 64.496 147.731 64.288C147.491 64.064 147.371 63.784 147.371 63.448C147.371 63.112 147.491 62.84 147.731 62.632C147.971 62.408 148.235 62.296 148.523 62.296C148.811 62.296 149.075 62.408 149.315 62.632C149.555 62.84 149.675 63.112 149.675 63.448ZM164.843 73.384C164.843 74.232 164.691 75.016 164.387 75.736C164.099 76.456 163.691 77.08 163.163 77.608C162.635 78.136 162.003 78.552 161.267 78.856C160.531 79.144 159.723 79.288 158.843 79.288C157.979 79.288 157.179 79.144 156.443 78.856C155.707 78.552 155.075 78.136 154.547 77.608C154.019 77.08 153.603 76.456 153.299 75.736C153.011 75.016 152.867 74.232 152.867 73.384C152.867 72.536 153.011 71.752 153.299 71.032C153.603 70.312 154.019 69.688 154.547 69.16C155.075 68.632 155.707 68.224 156.443 67.936C157.179 67.632 157.979 67.48 158.843 67.48C159.723 67.48 160.531 67.632 161.267 67.936C162.003 68.224 162.635 68.632 163.163 69.16C163.691 69.688 164.099 70.312 164.387 71.032C164.691 71.752 164.843 72.536 164.843 73.384ZM163.115 73.384C163.115 72.76 163.011 72.176 162.803 71.632C162.611 71.072 162.331 70.592 161.963 70.192C161.595 69.776 161.147 69.448 160.619 69.208C160.091 68.968 159.499 68.848 158.843 68.848C158.187 68.848 157.595 68.968 157.067 69.208C156.555 69.448 156.115 69.776 155.747 70.192C155.379 70.592 155.091 71.072 154.883 71.632C154.691 72.176 154.595 72.76 154.595 73.384C154.595 74.008 154.691 74.6 154.883 75.16C155.091 75.704 155.379 76.184 155.747 76.6C156.115 77 156.555 77.32 157.067 77.56C157.595 77.784 158.187 77.896 158.843 77.896C159.499 77.896 160.091 77.784 160.619 77.56C161.147 77.32 161.595 77 161.963 76.6C162.331 76.184 162.611 75.704 162.803 75.16C163.011 74.6 163.115 74.008 163.115 73.384ZM169.819 67.768C169.851 68.072 169.875 68.408 169.891 68.776C169.907 69.144 169.915 69.448 169.915 69.688H169.963C170.283 69.032 170.803 68.504 171.523 68.104C172.243 67.688 173.003 67.48 173.803 67.48C175.227 67.48 176.291 67.904 176.995 68.752C177.715 69.6 178.075 70.72 178.075 72.112V79H176.443V72.784C176.443 72.192 176.395 71.656 176.299 71.176C176.203 70.696 176.035 70.288 175.795 69.952C175.571 69.6 175.259 69.328 174.859 69.136C174.475 68.944 173.987 68.848 173.395 68.848C172.963 68.848 172.539 68.936 172.123 69.112C171.723 69.288 171.363 69.56 171.043 69.928C170.723 70.28 170.467 70.736 170.275 71.296C170.083 71.84 169.987 72.488 169.987 73.24V79H168.355V70.24C168.355 69.936 168.347 69.544 168.331 69.064C168.315 68.584 168.291 68.152 168.259 67.768H169.819Z" fill="white"/>
<path d="M104.98 88.504H105.832L105.172 92.2H109.696L110.356 88.504H111.208L109.708 97H108.856L109.564 92.968H105.04L104.332 97H103.48L104.98 88.504ZM114.496 97H113.644L115.012 89.26H112.168L112.3 88.504H118.852L118.72 89.26H115.864L114.496 97ZM121.059 97H120.207L121.575 89.26H118.731L118.863 88.504H125.415L125.283 89.26H122.427L121.059 97ZM126.601 88.504H128.869C129.701 88.504 130.345 88.684 130.801 89.044C131.257 89.404 131.485 89.904 131.485 90.544C131.485 90.96 131.405 91.324 131.245 91.636C131.085 91.948 130.861 92.212 130.573 92.428C130.293 92.636 129.953 92.792 129.553 92.896C129.161 93 128.729 93.052 128.257 93.052H126.649L125.953 97H125.101L126.601 88.504ZM126.769 92.344H128.329C129.049 92.344 129.609 92.2 130.009 91.912C130.417 91.624 130.621 91.2 130.621 90.64C130.621 90.12 130.457 89.756 130.129 89.548C129.801 89.34 129.357 89.236 128.797 89.236H127.321L126.769 92.344Z" fill="white"/>
</svg>
