<svg width="286" height="425" viewBox="0 0 286 425" fill="none" xmlns="http://www.w3.org/2000/svg">
<rect width="286" height="425" fill="white"/>
<rect x="23.5" y="333.5" width="193" height="71" fill="#67D887" stroke="#67D887"/>
<path d="M67 291H261L217 333H23L67 291Z" fill="#67A9D8" fill-opacity="0.8"/>
<path d="M79.984 370H78.256V353.008H79.984V370ZM85.8584 358.768C85.8904 359.072 85.9144 359.408 85.9304 359.776C85.9464 360.144 85.9544 360.448 85.9544 360.688H86.0024C86.3224 360.032 86.8424 359.504 87.5624 359.104C88.2824 358.688 89.0424 358.48 89.8424 358.48C91.2664 358.48 92.3304 358.904 93.0344 359.752C93.7544 360.6 94.1144 361.72 94.1144 363.112V370H92.4824V363.784C92.4824 363.192 92.4344 362.656 92.3384 362.176C92.2424 361.696 92.0744 361.288 91.8344 360.952C91.6104 360.6 91.2984 360.328 90.8984 360.136C90.5144 359.944 90.0264 359.848 89.4344 359.848C89.0024 359.848 88.5784 359.936 88.1624 360.112C87.7624 360.288 87.4024 360.56 87.0824 360.928C86.7624 361.28 86.5064 361.736 86.3144 362.296C86.1224 362.84 86.0264 363.488 86.0264 364.24V370H84.3944V361.24C84.3944 360.936 84.3864 360.544 84.3704 360.064C84.3544 359.584 84.3304 359.152 84.2984 358.768H85.8584ZM103.404 360.136H100.236V366.688C100.236 367.104 100.276 367.448 100.356 367.72C100.436 367.992 100.548 368.208 100.692 368.368C100.852 368.512 101.036 368.616 101.244 368.68C101.452 368.728 101.676 368.752 101.916 368.752C102.14 368.752 102.372 368.72 102.612 368.656C102.868 368.592 103.108 368.504 103.332 368.392L103.404 369.808C103.116 369.92 102.812 370 102.492 370.048C102.188 370.112 101.852 370.144 101.484 370.144C101.18 370.144 100.86 370.104 100.524 370.024C100.188 369.944 99.8757 369.792 99.5877 369.568C99.2997 369.344 99.0597 369.04 98.8677 368.656C98.6917 368.272 98.6037 367.768 98.6037 367.144V360.136H96.2757V358.768H98.6037V355.6H100.236V358.768H103.404V360.136ZM114.525 363.52C114.477 362.464 114.133 361.592 113.493 360.904C112.869 360.2 111.973 359.848 110.805 359.848C110.261 359.848 109.757 359.952 109.293 360.16C108.829 360.352 108.421 360.624 108.069 360.976C107.717 361.312 107.437 361.704 107.229 362.152C107.021 362.584 106.901 363.04 106.869 363.52H114.525ZM116.181 364.048C116.181 364.16 116.181 364.28 116.181 364.408C116.181 364.536 116.173 364.672 116.157 364.816H106.845C106.861 365.376 106.973 365.904 107.181 366.4C107.389 366.896 107.677 367.328 108.045 367.696C108.413 368.064 108.845 368.36 109.341 368.584C109.837 368.792 110.373 368.896 110.949 368.896C111.797 368.896 112.525 368.704 113.133 368.32C113.757 367.92 114.229 367.464 114.549 366.952L115.773 367.912C115.101 368.76 114.357 369.368 113.541 369.736C112.741 370.104 111.877 370.288 110.949 370.288C110.117 370.288 109.341 370.144 108.621 369.856C107.917 369.552 107.309 369.136 106.797 368.608C106.285 368.08 105.877 367.456 105.573 366.736C105.285 366.016 105.141 365.232 105.141 364.384C105.141 363.536 105.285 362.752 105.573 362.032C105.861 361.312 106.261 360.688 106.773 360.16C107.285 359.632 107.885 359.224 108.573 358.936C109.261 358.632 110.005 358.48 110.805 358.48C111.685 358.48 112.461 358.632 113.133 358.936C113.805 359.224 114.365 359.624 114.813 360.136C115.261 360.632 115.597 361.216 115.821 361.888C116.061 362.56 116.181 363.28 116.181 364.048ZM119.691 361.24C119.691 360.936 119.683 360.544 119.667 360.064C119.651 359.584 119.627 359.152 119.595 358.768H121.155C121.187 359.072 121.211 359.408 121.227 359.776C121.243 360.144 121.251 360.448 121.251 360.688H121.299C121.619 360.032 122.099 359.504 122.739 359.104C123.379 358.688 124.099 358.48 124.899 358.48C125.107 358.48 125.291 358.488 125.451 358.504C125.627 358.52 125.803 358.552 125.979 358.6L125.763 360.136C125.667 360.104 125.507 360.072 125.283 360.04C125.059 360.008 124.835 359.992 124.611 359.992C124.179 359.992 123.763 360.072 123.363 360.232C122.963 360.392 122.611 360.648 122.307 361C122.019 361.336 121.779 361.776 121.587 362.32C121.411 362.848 121.323 363.488 121.323 364.24V370H119.691V361.24ZM129.804 358.768C129.836 359.072 129.86 359.408 129.876 359.776C129.892 360.144 129.9 360.448 129.9 360.688H129.948C130.268 360.032 130.788 359.504 131.508 359.104C132.228 358.688 132.988 358.48 133.788 358.48C135.212 358.48 136.276 358.904 136.98 359.752C137.7 360.6 138.06 361.72 138.06 363.112V370H136.428V363.784C136.428 363.192 136.38 362.656 136.284 362.176C136.188 361.696 136.02 361.288 135.78 360.952C135.556 360.6 135.244 360.328 134.844 360.136C134.46 359.944 133.972 359.848 133.38 359.848C132.948 359.848 132.524 359.936 132.108 360.112C131.708 360.288 131.348 360.56 131.028 360.928C130.708 361.28 130.452 361.736 130.26 362.296C130.068 362.84 129.972 363.488 129.972 364.24V370H128.34V361.24C128.34 360.936 128.332 360.544 128.316 360.064C128.3 359.584 128.276 359.152 128.244 358.768H129.804ZM150.853 363.52C150.805 362.464 150.461 361.592 149.821 360.904C149.197 360.2 148.301 359.848 147.133 359.848C146.589 359.848 146.085 359.952 145.621 360.16C145.157 360.352 144.749 360.624 144.397 360.976C144.045 361.312 143.765 361.704 143.557 362.152C143.349 362.584 143.229 363.04 143.197 363.52H150.853ZM152.509 364.048C152.509 364.16 152.509 364.28 152.509 364.408C152.509 364.536 152.501 364.672 152.485 364.816H143.173C143.189 365.376 143.301 365.904 143.509 366.4C143.717 366.896 144.005 367.328 144.373 367.696C144.741 368.064 145.173 368.36 145.669 368.584C146.165 368.792 146.701 368.896 147.277 368.896C148.125 368.896 148.853 368.704 149.461 368.32C150.085 367.92 150.557 367.464 150.877 366.952L152.101 367.912C151.429 368.76 150.685 369.368 149.869 369.736C149.069 370.104 148.205 370.288 147.277 370.288C146.445 370.288 145.669 370.144 144.949 369.856C144.245 369.552 143.637 369.136 143.125 368.608C142.613 368.08 142.205 367.456 141.901 366.736C141.613 366.016 141.469 365.232 141.469 364.384C141.469 363.536 141.613 362.752 141.901 362.032C142.189 361.312 142.589 360.688 143.101 360.16C143.613 359.632 144.213 359.224 144.901 358.936C145.589 358.632 146.333 358.48 147.133 358.48C148.013 358.48 148.789 358.632 149.461 358.936C150.133 359.224 150.693 359.624 151.141 360.136C151.589 360.632 151.925 361.216 152.149 361.888C152.389 362.56 152.509 363.28 152.509 364.048ZM161.083 360.136H157.915V366.688C157.915 367.104 157.955 367.448 158.035 367.72C158.115 367.992 158.227 368.208 158.371 368.368C158.531 368.512 158.715 368.616 158.923 368.68C159.131 368.728 159.355 368.752 159.595 368.752C159.819 368.752 160.051 368.72 160.291 368.656C160.547 368.592 160.787 368.504 161.011 368.392L161.083 369.808C160.795 369.92 160.491 370 160.171 370.048C159.867 370.112 159.531 370.144 159.163 370.144C158.859 370.144 158.539 370.104 158.203 370.024C157.867 369.944 157.555 369.792 157.267 369.568C156.979 369.344 156.739 369.04 156.547 368.656C156.371 368.272 156.283 367.768 156.283 367.144V360.136H153.955V358.768H156.283V355.6H157.915V358.768H161.083V360.136Z" fill="white"/>
<path d="M115.332 394H114.48L115.98 385.504H116.832L115.332 394ZM119.097 385.504H121.365C122.197 385.504 122.841 385.684 123.297 386.044C123.753 386.404 123.981 386.904 123.981 387.544C123.981 387.96 123.901 388.324 123.741 388.636C123.581 388.948 123.357 389.212 123.069 389.428C122.789 389.636 122.449 389.792 122.049 389.896C121.657 390 121.225 390.052 120.753 390.052H119.145L118.449 394H117.597L119.097 385.504ZM119.265 389.344H120.825C121.545 389.344 122.105 389.2 122.505 388.912C122.913 388.624 123.117 388.2 123.117 387.64C123.117 387.12 122.953 386.756 122.625 386.548C122.297 386.34 121.853 386.236 121.293 386.236H119.817L119.265 389.344Z" fill="white"/>
<rect x="23.5" y="333.5" width="193" height="71" fill="#67A9D8" stroke="#67A9D8"/>
<path d="M217 333L261 291V363L217 405V333Z" fill="#67A9D8" fill-opacity="0.6"/>
<path d="M99.984 368.464H107.904V370H98.256V353.008H99.984V368.464ZM112.05 370H110.418V358.768H112.05V370ZM112.386 354.448C112.386 354.784 112.266 355.064 112.026 355.288C111.786 355.496 111.522 355.6 111.234 355.6C110.946 355.6 110.682 355.496 110.442 355.288C110.202 355.064 110.082 354.784 110.082 354.448C110.082 354.112 110.202 353.84 110.442 353.632C110.682 353.408 110.946 353.296 111.234 353.296C111.522 353.296 111.786 353.408 112.026 353.632C112.266 353.84 112.386 354.112 112.386 354.448ZM117.858 358.768C117.89 359.072 117.914 359.408 117.93 359.776C117.946 360.144 117.954 360.448 117.954 360.688H118.002C118.322 360.032 118.842 359.504 119.562 359.104C120.282 358.688 121.042 358.48 121.842 358.48C123.266 358.48 124.33 358.904 125.034 359.752C125.754 360.6 126.114 361.72 126.114 363.112V370H124.482V363.784C124.482 363.192 124.434 362.656 124.338 362.176C124.242 361.696 124.074 361.288 123.834 360.952C123.61 360.6 123.298 360.328 122.898 360.136C122.514 359.944 122.026 359.848 121.434 359.848C121.002 359.848 120.578 359.936 120.162 360.112C119.762 360.288 119.402 360.56 119.082 360.928C118.762 361.28 118.506 361.736 118.314 362.296C118.122 362.84 118.026 363.488 118.026 364.24V370H116.394V361.24C116.394 360.936 116.386 360.544 116.37 360.064C116.354 359.584 116.33 359.152 116.298 358.768H117.858ZM132.02 363.832H132.092L137.276 358.768H139.628L133.964 363.904L140.204 370H137.804L132.092 364.096H132.02V370H130.388V351.856H132.02V363.832Z" fill="white"/>
<path d="M98.464 393.244H103.024L102.892 394H97.48L98.98 385.504H104.08L103.948 386.26H99.7L99.184 389.212H103.24L103.108 389.944H99.052L98.464 393.244ZM107.597 389.056H106.073L105.485 392.344C105.461 392.488 105.449 392.616 105.449 392.728C105.449 392.992 105.513 393.168 105.641 393.256C105.769 393.344 105.937 393.388 106.145 393.388C106.257 393.388 106.381 393.372 106.517 393.34C106.653 393.308 106.757 393.264 106.829 393.208L106.733 393.904C106.629 393.96 106.493 394 106.325 394.024C106.165 394.056 105.993 394.072 105.809 394.072C105.673 394.072 105.533 394.056 105.389 394.024C105.253 393.992 105.125 393.936 105.005 393.856C104.893 393.768 104.797 393.652 104.717 393.508C104.645 393.364 104.609 393.18 104.609 392.956C104.609 392.844 104.621 392.716 104.645 392.572L105.269 389.056H104.105L104.237 388.384H105.377L105.653 386.8H106.457L106.181 388.384H107.729L107.597 389.056ZM111.625 388.24C112.225 388.24 112.693 388.396 113.029 388.708C113.373 389.012 113.545 389.428 113.545 389.956C113.545 390.052 113.537 390.148 113.521 390.244C113.513 390.34 113.501 390.444 113.485 390.556L112.873 394H112.069L112.621 390.892C112.669 390.644 112.693 390.408 112.693 390.184C112.693 389.792 112.597 389.484 112.405 389.26C112.221 389.028 111.893 388.912 111.421 388.912C111.205 388.912 110.989 388.956 110.773 389.044C110.557 389.132 110.357 389.268 110.173 389.452C109.989 389.636 109.825 389.868 109.681 390.148C109.545 390.42 109.445 390.744 109.381 391.12L108.877 394H108.073L109.669 384.928H110.473L109.705 389.308H109.729C109.937 388.98 110.209 388.72 110.545 388.528C110.881 388.336 111.241 388.24 111.625 388.24ZM115.814 391.408C115.806 391.456 115.798 391.504 115.79 391.552C115.79 391.592 115.79 391.632 115.79 391.672C115.79 391.936 115.834 392.176 115.922 392.392C116.018 392.608 116.146 392.796 116.306 392.956C116.474 393.116 116.666 393.24 116.882 393.328C117.106 393.416 117.346 393.46 117.602 393.46C118.042 393.46 118.426 393.364 118.754 393.172C119.082 392.972 119.346 392.74 119.546 392.476L120.05 392.956C119.722 393.348 119.342 393.644 118.91 393.844C118.478 394.044 118.018 394.144 117.53 394.144C117.17 394.144 116.834 394.088 116.522 393.976C116.21 393.864 115.938 393.704 115.706 393.496C115.482 393.288 115.302 393.032 115.166 392.728C115.038 392.416 114.974 392.064 114.974 391.672C114.974 391.216 115.058 390.78 115.226 390.364C115.394 389.948 115.622 389.584 115.91 389.272C116.206 388.96 116.55 388.712 116.942 388.528C117.342 388.336 117.77 388.24 118.226 388.24C118.994 388.24 119.574 388.444 119.966 388.852C120.366 389.26 120.566 389.788 120.566 390.436C120.566 390.532 120.558 390.68 120.542 390.88C120.526 391.072 120.498 391.248 120.458 391.408H115.814ZM119.738 390.808C119.746 390.744 119.75 390.676 119.75 390.604C119.758 390.524 119.762 390.452 119.762 390.388C119.762 389.956 119.63 389.604 119.366 389.332C119.102 389.052 118.714 388.912 118.202 388.912C117.906 388.912 117.63 388.964 117.374 389.068C117.126 389.164 116.902 389.3 116.702 389.476C116.51 389.652 116.346 389.856 116.21 390.088C116.074 390.312 115.978 390.552 115.922 390.808H119.738ZM122.563 389.62C122.595 389.468 122.627 389.272 122.659 389.032C122.699 388.792 122.727 388.576 122.743 388.384H123.511C123.495 388.536 123.475 388.704 123.451 388.888C123.427 389.072 123.403 389.224 123.379 389.344H123.403C123.611 389.016 123.875 388.752 124.195 388.552C124.515 388.344 124.875 388.24 125.275 388.24C125.379 388.24 125.471 388.244 125.551 388.252C125.631 388.26 125.715 388.276 125.803 388.3L125.611 389.068C125.571 389.052 125.495 389.036 125.383 389.02C125.279 389.004 125.171 388.996 125.059 388.996C124.843 388.996 124.631 389.036 124.423 389.116C124.215 389.196 124.023 389.324 123.847 389.5C123.679 389.668 123.527 389.888 123.391 390.16C123.263 390.424 123.167 390.744 123.103 391.12L122.599 394H121.795L122.563 389.62ZM127.695 388.384C127.679 388.536 127.659 388.704 127.635 388.888C127.611 389.072 127.587 389.224 127.563 389.344H127.587C127.803 389 128.079 388.732 128.415 388.54C128.759 388.34 129.123 388.24 129.507 388.24C130.115 388.24 130.587 388.396 130.923 388.708C131.267 389.012 131.439 389.428 131.439 389.956C131.439 390.052 131.431 390.148 131.415 390.244C131.407 390.34 131.395 390.444 131.379 390.556L130.767 394H129.963L130.515 390.892C130.563 390.644 130.587 390.408 130.587 390.184C130.587 389.792 130.495 389.484 130.311 389.26C130.127 389.028 129.803 388.912 129.339 388.912C129.123 388.912 128.907 388.956 128.691 389.044C128.475 389.132 128.271 389.268 128.079 389.452C127.895 389.636 127.731 389.868 127.587 390.148C127.443 390.42 127.339 390.744 127.275 391.12L126.771 394H125.967L126.735 389.62C126.767 389.468 126.799 389.272 126.831 389.032C126.871 388.792 126.899 388.576 126.915 388.384H127.695ZM133.709 391.408C133.701 391.456 133.693 391.504 133.685 391.552C133.685 391.592 133.685 391.632 133.685 391.672C133.685 391.936 133.729 392.176 133.817 392.392C133.913 392.608 134.041 392.796 134.201 392.956C134.369 393.116 134.561 393.24 134.777 393.328C135.001 393.416 135.241 393.46 135.497 393.46C135.937 393.46 136.321 393.364 136.649 393.172C136.977 392.972 137.241 392.74 137.441 392.476L137.945 392.956C137.617 393.348 137.237 393.644 136.805 393.844C136.373 394.044 135.913 394.144 135.425 394.144C135.065 394.144 134.729 394.088 134.417 393.976C134.105 393.864 133.833 393.704 133.601 393.496C133.377 393.288 133.197 393.032 133.061 392.728C132.933 392.416 132.869 392.064 132.869 391.672C132.869 391.216 132.953 390.78 133.121 390.364C133.289 389.948 133.517 389.584 133.805 389.272C134.101 388.96 134.445 388.712 134.837 388.528C135.237 388.336 135.665 388.24 136.121 388.24C136.889 388.24 137.469 388.444 137.861 388.852C138.261 389.26 138.461 389.788 138.461 390.436C138.461 390.532 138.453 390.68 138.437 390.88C138.421 391.072 138.393 391.248 138.353 391.408H133.709ZM137.633 390.808C137.641 390.744 137.645 390.676 137.645 390.604C137.653 390.524 137.657 390.452 137.657 390.388C137.657 389.956 137.525 389.604 137.261 389.332C136.997 389.052 136.609 388.912 136.097 388.912C135.801 388.912 135.525 388.964 135.269 389.068C135.021 389.164 134.797 389.3 134.597 389.476C134.405 389.652 134.241 389.856 134.105 390.088C133.969 390.312 133.873 390.552 133.817 390.808H137.633ZM142.894 389.056H141.37L140.782 392.344C140.758 392.488 140.746 392.616 140.746 392.728C140.746 392.992 140.81 393.168 140.938 393.256C141.066 393.344 141.234 393.388 141.442 393.388C141.554 393.388 141.678 393.372 141.814 393.34C141.95 393.308 142.054 393.264 142.126 393.208L142.03 393.904C141.926 393.96 141.79 394 141.622 394.024C141.462 394.056 141.29 394.072 141.106 394.072C140.97 394.072 140.83 394.056 140.686 394.024C140.55 393.992 140.422 393.936 140.302 393.856C140.19 393.768 140.094 393.652 140.014 393.508C139.942 393.364 139.906 393.18 139.906 392.956C139.906 392.844 139.918 392.716 139.942 392.572L140.566 389.056H139.402L139.534 388.384H140.674L140.95 386.8H141.754L141.478 388.384H143.026L142.894 389.056Z" fill="white"/>
<rect x="23.5" y="243.5" width="193" height="71" fill="#67D887" stroke="#67D887"/>
<path d="M67 201H261L217 243H23L67 201Z" fill="#67D887" fill-opacity="0.8"/>
<path d="M79.984 280H78.256V263.008H79.984V280ZM85.8584 268.768C85.8904 269.072 85.9144 269.408 85.9304 269.776C85.9464 270.144 85.9544 270.448 85.9544 270.688H86.0024C86.3224 270.032 86.8424 269.504 87.5624 269.104C88.2824 268.688 89.0424 268.48 89.8424 268.48C91.2664 268.48 92.3304 268.904 93.0344 269.752C93.7544 270.6 94.1144 271.72 94.1144 273.112V280H92.4824V273.784C92.4824 273.192 92.4344 272.656 92.3384 272.176C92.2424 271.696 92.0744 271.288 91.8344 270.952C91.6104 270.6 91.2984 270.328 90.8984 270.136C90.5144 269.944 90.0264 269.848 89.4344 269.848C89.0024 269.848 88.5784 269.936 88.1624 270.112C87.7624 270.288 87.4024 270.56 87.0824 270.928C86.7624 271.28 86.5064 271.736 86.3144 272.296C86.1224 272.84 86.0264 273.488 86.0264 274.24V280H84.3944V271.24C84.3944 270.936 84.3864 270.544 84.3704 270.064C84.3544 269.584 84.3304 269.152 84.2984 268.768H85.8584ZM103.404 270.136H100.236V276.688C100.236 277.104 100.276 277.448 100.356 277.72C100.436 277.992 100.548 278.208 100.692 278.368C100.852 278.512 101.036 278.616 101.244 278.68C101.452 278.728 101.676 278.752 101.916 278.752C102.14 278.752 102.372 278.72 102.612 278.656C102.868 278.592 103.108 278.504 103.332 278.392L103.404 279.808C103.116 279.92 102.812 280 102.492 280.048C102.188 280.112 101.852 280.144 101.484 280.144C101.18 280.144 100.86 280.104 100.524 280.024C100.188 279.944 99.8757 279.792 99.5877 279.568C99.2997 279.344 99.0597 279.04 98.8677 278.656C98.6917 278.272 98.6037 277.768 98.6037 277.144V270.136H96.2757V268.768H98.6037V265.6H100.236V268.768H103.404V270.136ZM114.525 273.52C114.477 272.464 114.133 271.592 113.493 270.904C112.869 270.2 111.973 269.848 110.805 269.848C110.261 269.848 109.757 269.952 109.293 270.16C108.829 270.352 108.421 270.624 108.069 270.976C107.717 271.312 107.437 271.704 107.229 272.152C107.021 272.584 106.901 273.04 106.869 273.52H114.525ZM116.181 274.048C116.181 274.16 116.181 274.28 116.181 274.408C116.181 274.536 116.173 274.672 116.157 274.816H106.845C106.861 275.376 106.973 275.904 107.181 276.4C107.389 276.896 107.677 277.328 108.045 277.696C108.413 278.064 108.845 278.36 109.341 278.584C109.837 278.792 110.373 278.896 110.949 278.896C111.797 278.896 112.525 278.704 113.133 278.32C113.757 277.92 114.229 277.464 114.549 276.952L115.773 277.912C115.101 278.76 114.357 279.368 113.541 279.736C112.741 280.104 111.877 280.288 110.949 280.288C110.117 280.288 109.341 280.144 108.621 279.856C107.917 279.552 107.309 279.136 106.797 278.608C106.285 278.08 105.877 277.456 105.573 276.736C105.285 276.016 105.141 275.232 105.141 274.384C105.141 273.536 105.285 272.752 105.573 272.032C105.861 271.312 106.261 270.688 106.773 270.16C107.285 269.632 107.885 269.224 108.573 268.936C109.261 268.632 110.005 268.48 110.805 268.48C111.685 268.48 112.461 268.632 113.133 268.936C113.805 269.224 114.365 269.624 114.813 270.136C115.261 270.632 115.597 271.216 115.821 271.888C116.061 272.56 116.181 273.28 116.181 274.048ZM119.691 271.24C119.691 270.936 119.683 270.544 119.667 270.064C119.651 269.584 119.627 269.152 119.595 268.768H121.155C121.187 269.072 121.211 269.408 121.227 269.776C121.243 270.144 121.251 270.448 121.251 270.688H121.299C121.619 270.032 122.099 269.504 122.739 269.104C123.379 268.688 124.099 268.48 124.899 268.48C125.107 268.48 125.291 268.488 125.451 268.504C125.627 268.52 125.803 268.552 125.979 268.6L125.763 270.136C125.667 270.104 125.507 270.072 125.283 270.04C125.059 270.008 124.835 269.992 124.611 269.992C124.179 269.992 123.763 270.072 123.363 270.232C122.963 270.392 122.611 270.648 122.307 271C122.019 271.336 121.779 271.776 121.587 272.32C121.411 272.848 121.323 273.488 121.323 274.24V280H119.691V271.24ZM129.804 268.768C129.836 269.072 129.86 269.408 129.876 269.776C129.892 270.144 129.9 270.448 129.9 270.688H129.948C130.268 270.032 130.788 269.504 131.508 269.104C132.228 268.688 132.988 268.48 133.788 268.48C135.212 268.48 136.276 268.904 136.98 269.752C137.7 270.6 138.06 271.72 138.06 273.112V280H136.428V273.784C136.428 273.192 136.38 272.656 136.284 272.176C136.188 271.696 136.02 271.288 135.78 270.952C135.556 270.6 135.244 270.328 134.844 270.136C134.46 269.944 133.972 269.848 133.38 269.848C132.948 269.848 132.524 269.936 132.108 270.112C131.708 270.288 131.348 270.56 131.028 270.928C130.708 271.28 130.452 271.736 130.26 272.296C130.068 272.84 129.972 273.488 129.972 274.24V280H128.34V271.24C128.34 270.936 128.332 270.544 128.316 270.064C128.3 269.584 128.276 269.152 128.244 268.768H129.804ZM150.853 273.52C150.805 272.464 150.461 271.592 149.821 270.904C149.197 270.2 148.301 269.848 147.133 269.848C146.589 269.848 146.085 269.952 145.621 270.16C145.157 270.352 144.749 270.624 144.397 270.976C144.045 271.312 143.765 271.704 143.557 272.152C143.349 272.584 143.229 273.04 143.197 273.52H150.853ZM152.509 274.048C152.509 274.16 152.509 274.28 152.509 274.408C152.509 274.536 152.501 274.672 152.485 274.816H143.173C143.189 275.376 143.301 275.904 143.509 276.4C143.717 276.896 144.005 277.328 144.373 277.696C144.741 278.064 145.173 278.36 145.669 278.584C146.165 278.792 146.701 278.896 147.277 278.896C148.125 278.896 148.853 278.704 149.461 278.32C150.085 277.92 150.557 277.464 150.877 276.952L152.101 277.912C151.429 278.76 150.685 279.368 149.869 279.736C149.069 280.104 148.205 280.288 147.277 280.288C146.445 280.288 145.669 280.144 144.949 279.856C144.245 279.552 143.637 279.136 143.125 278.608C142.613 278.08 142.205 277.456 141.901 276.736C141.613 276.016 141.469 275.232 141.469 274.384C141.469 273.536 141.613 272.752 141.901 272.032C142.189 271.312 142.589 270.688 143.101 270.16C143.613 269.632 144.213 269.224 144.901 268.936C145.589 268.632 146.333 268.48 147.133 268.48C148.013 268.48 148.789 268.632 149.461 268.936C150.133 269.224 150.693 269.624 151.141 270.136C151.589 270.632 151.925 271.216 152.149 271.888C152.389 272.56 152.509 273.28 152.509 274.048ZM161.083 270.136H157.915V276.688C157.915 277.104 157.955 277.448 158.035 277.72C158.115 277.992 158.227 278.208 158.371 278.368C158.531 278.512 158.715 278.616 158.923 278.68C159.131 278.728 159.355 278.752 159.595 278.752C159.819 278.752 160.051 278.72 160.291 278.656C160.547 278.592 160.787 278.504 161.011 278.392L161.083 279.808C160.795 279.92 160.491 280 160.171 280.048C159.867 280.112 159.531 280.144 159.163 280.144C158.859 280.144 158.539 280.104 158.203 280.024C157.867 279.944 157.555 279.792 157.267 279.568C156.979 279.344 156.739 279.04 156.547 278.656C156.371 278.272 156.283 277.768 156.283 277.144V270.136H153.955V268.768H156.283V265.6H157.915V268.768H161.083V270.136Z" fill="white"/>
<path d="M115.332 304H114.48L115.98 295.504H116.832L115.332 304ZM119.097 295.504H121.365C122.197 295.504 122.841 295.684 123.297 296.044C123.753 296.404 123.981 296.904 123.981 297.544C123.981 297.96 123.901 298.324 123.741 298.636C123.581 298.948 123.357 299.212 123.069 299.428C122.789 299.636 122.449 299.792 122.049 299.896C121.657 300 121.225 300.052 120.753 300.052H119.145L118.449 304H117.597L119.097 295.504ZM119.265 299.344H120.825C121.545 299.344 122.105 299.2 122.505 298.912C122.913 298.624 123.117 298.2 123.117 297.64C123.117 297.12 122.953 296.756 122.625 296.548C122.297 296.34 121.853 296.236 121.293 296.236H119.817L119.265 299.344Z" fill="white"/>
<path d="M217 243L261 201V273L217 315V243Z" fill="#A4E8B7"/>
<rect x="23.5" y="153.5" width="193" height="71" fill="#F1D46B" stroke="#F1D46B"/>
<path d="M67 111H261L217 153H23L67 111Z" fill="#F1D46B" fill-opacity="0.8"/>
<path d="M217 153L261 111V183L217 225V153Z" fill="#F7E5A6"/>
<path d="M73.704 190H71.976V174.544H66.288V173.008H79.392V174.544H73.704V190ZM79.6913 181.24C79.6913 180.936 79.6833 180.544 79.6673 180.064C79.6513 179.584 79.6273 179.152 79.5953 178.768H81.1553C81.1873 179.072 81.2113 179.408 81.2273 179.776C81.2433 180.144 81.2513 180.448 81.2513 180.688H81.2993C81.6193 180.032 82.0993 179.504 82.7393 179.104C83.3793 178.688 84.0993 178.48 84.8993 178.48C85.1073 178.48 85.2913 178.488 85.4513 178.504C85.6273 178.52 85.8033 178.552 85.9793 178.6L85.7633 180.136C85.6673 180.104 85.5073 180.072 85.2833 180.04C85.0593 180.008 84.8353 179.992 84.6113 179.992C84.1793 179.992 83.7633 180.072 83.3633 180.232C82.9633 180.392 82.6113 180.648 82.3073 181C82.0193 181.336 81.7793 181.776 81.5873 182.32C81.4113 182.848 81.3233 183.488 81.3233 184.24V190H79.6913V181.24ZM95.1384 182.752C95.1384 181.776 94.8824 181.048 94.3704 180.568C93.8584 180.088 93.1144 179.848 92.1384 179.848C91.4664 179.848 90.8424 179.968 90.2664 180.208C89.6904 180.448 89.2024 180.768 88.8024 181.168L87.8904 180.088C88.3544 179.624 88.9624 179.24 89.7144 178.936C90.4824 178.632 91.3464 178.48 92.3064 178.48C92.9144 178.48 93.4824 178.568 94.0104 178.744C94.5384 178.904 95.0024 179.152 95.4024 179.488C95.8024 179.824 96.1144 180.248 96.3384 180.76C96.5624 181.272 96.6744 181.872 96.6744 182.56V187.48C96.6744 187.912 96.6904 188.36 96.7224 188.824C96.7544 189.288 96.8024 189.68 96.8664 190H95.4024C95.3544 189.728 95.3144 189.432 95.2824 189.112C95.2504 188.792 95.2344 188.48 95.2344 188.176H95.1864C94.6744 188.928 94.0904 189.472 93.4344 189.808C92.7944 190.128 92.0184 190.288 91.1064 190.288C90.6744 190.288 90.2264 190.224 89.7624 190.096C89.3144 189.984 88.8984 189.792 88.5144 189.52C88.1464 189.248 87.8344 188.896 87.5784 188.464C87.3384 188.032 87.2184 187.504 87.2184 186.88C87.2184 186.016 87.4344 185.336 87.8664 184.84C88.3144 184.328 88.9064 183.952 89.6424 183.712C90.3784 183.456 91.2184 183.296 92.1624 183.232C93.1224 183.152 94.1144 183.112 95.1384 183.112V182.752ZM94.6584 184.384C93.9864 184.384 93.3064 184.416 92.6184 184.48C91.9464 184.528 91.3304 184.64 90.7704 184.816C90.2264 184.976 89.7784 185.216 89.4264 185.536C89.0744 185.856 88.8984 186.28 88.8984 186.808C88.8984 187.208 88.9704 187.544 89.1144 187.816C89.2744 188.088 89.4824 188.312 89.7384 188.488C89.9944 188.648 90.2744 188.768 90.5784 188.848C90.8984 188.912 91.2184 188.944 91.5384 188.944C92.1144 188.944 92.6264 188.848 93.0744 188.656C93.5224 188.448 93.8984 188.176 94.2024 187.84C94.5064 187.488 94.7384 187.088 94.8984 186.64C95.0584 186.192 95.1384 185.72 95.1384 185.224V184.384H94.6584ZM102.343 178.768C102.375 179.072 102.399 179.408 102.415 179.776C102.431 180.144 102.439 180.448 102.439 180.688H102.487C102.807 180.032 103.327 179.504 104.047 179.104C104.767 178.688 105.527 178.48 106.327 178.48C107.751 178.48 108.815 178.904 109.519 179.752C110.239 180.6 110.599 181.72 110.599 183.112V190H108.967V183.784C108.967 183.192 108.919 182.656 108.823 182.176C108.727 181.696 108.559 181.288 108.319 180.952C108.095 180.6 107.783 180.328 107.383 180.136C106.999 179.944 106.511 179.848 105.919 179.848C105.487 179.848 105.063 179.936 104.647 180.112C104.247 180.288 103.887 180.56 103.567 180.928C103.247 181.28 102.991 181.736 102.799 182.296C102.607 182.84 102.511 183.488 102.511 184.24V190H100.879V181.24C100.879 180.936 100.871 180.544 100.855 180.064C100.839 179.584 100.815 179.152 100.783 178.768H102.343ZM120.8 181.432C120.56 180.968 120.192 180.592 119.696 180.304C119.216 180 118.664 179.848 118.04 179.848C117.752 179.848 117.464 179.88 117.176 179.944C116.888 180.008 116.632 180.112 116.408 180.256C116.184 180.4 116 180.584 115.856 180.808C115.728 181.032 115.664 181.296 115.664 181.6C115.664 182.128 115.88 182.536 116.312 182.824C116.744 183.096 117.424 183.328 118.352 183.52C119.68 183.792 120.656 184.192 121.28 184.72C121.92 185.232 122.24 185.928 122.24 186.808C122.24 187.448 122.112 187.992 121.856 188.44C121.616 188.872 121.296 189.232 120.896 189.52C120.496 189.792 120.04 189.984 119.528 190.096C119.032 190.224 118.528 190.288 118.016 190.288C117.168 190.288 116.344 190.112 115.544 189.76C114.744 189.408 114.088 188.856 113.576 188.104L114.872 187.144C115.16 187.64 115.584 188.056 116.144 188.392C116.704 188.728 117.32 188.896 117.992 188.896C118.344 188.896 118.68 188.864 119 188.8C119.32 188.736 119.6 188.624 119.84 188.464C120.08 188.304 120.272 188.104 120.416 187.864C120.56 187.608 120.632 187.296 120.632 186.928C120.632 186.336 120.344 185.896 119.768 185.608C119.208 185.304 118.392 185.024 117.32 184.768C116.984 184.688 116.624 184.592 116.24 184.48C115.872 184.352 115.528 184.176 115.208 183.952C114.888 183.712 114.624 183.416 114.416 183.064C114.208 182.712 114.104 182.272 114.104 181.744C114.104 181.168 114.216 180.68 114.44 180.28C114.664 179.864 114.96 179.528 115.328 179.272C115.712 179 116.144 178.8 116.624 178.672C117.104 178.544 117.6 178.48 118.112 178.48C118.896 178.48 119.656 178.656 120.392 179.008C121.128 179.36 121.68 179.856 122.048 180.496L120.8 181.432ZM127.12 195.76H125.488V178.768H127.12V180.712H127.192C127.656 179.976 128.272 179.424 129.04 179.056C129.824 178.672 130.616 178.48 131.416 178.48C132.296 178.48 133.088 178.632 133.792 178.936C134.512 179.24 135.12 179.656 135.616 180.184C136.128 180.712 136.52 181.336 136.792 182.056C137.08 182.776 137.224 183.552 137.224 184.384C137.224 185.216 137.08 185.992 136.792 186.712C136.52 187.432 136.128 188.056 135.616 188.584C135.12 189.112 134.512 189.528 133.792 189.832C133.088 190.136 132.296 190.288 131.416 190.288C130.616 190.288 129.824 190.104 129.04 189.736C128.272 189.352 127.656 188.808 127.192 188.104H127.12V195.76ZM135.496 184.384C135.496 183.76 135.4 183.176 135.208 182.632C135.016 182.072 134.736 181.592 134.368 181.192C134.016 180.776 133.576 180.448 133.048 180.208C132.52 179.968 131.92 179.848 131.248 179.848C130.624 179.848 130.048 179.968 129.52 180.208C128.992 180.432 128.536 180.752 128.152 181.168C127.768 181.568 127.464 182.048 127.24 182.608C127.032 183.152 126.928 183.744 126.928 184.384C126.928 185.024 127.032 185.624 127.24 186.184C127.464 186.728 127.768 187.2 128.152 187.6C128.536 188 128.992 188.32 129.52 188.56C130.048 188.784 130.624 188.896 131.248 188.896C131.92 188.896 132.52 188.784 133.048 188.56C133.576 188.32 134.016 188 134.368 187.6C134.736 187.184 135.016 186.704 135.208 186.16C135.4 185.6 135.496 185.008 135.496 184.384ZM151.883 184.384C151.883 185.232 151.731 186.016 151.427 186.736C151.139 187.456 150.731 188.08 150.203 188.608C149.675 189.136 149.043 189.552 148.307 189.856C147.571 190.144 146.763 190.288 145.883 190.288C145.019 190.288 144.219 190.144 143.483 189.856C142.747 189.552 142.115 189.136 141.587 188.608C141.059 188.08 140.643 187.456 140.339 186.736C140.051 186.016 139.907 185.232 139.907 184.384C139.907 183.536 140.051 182.752 140.339 182.032C140.643 181.312 141.059 180.688 141.587 180.16C142.115 179.632 142.747 179.224 143.483 178.936C144.219 178.632 145.019 178.48 145.883 178.48C146.763 178.48 147.571 178.632 148.307 178.936C149.043 179.224 149.675 179.632 150.203 180.16C150.731 180.688 151.139 181.312 151.427 182.032C151.731 182.752 151.883 183.536 151.883 184.384ZM150.155 184.384C150.155 183.76 150.051 183.176 149.843 182.632C149.651 182.072 149.371 181.592 149.003 181.192C148.635 180.776 148.187 180.448 147.659 180.208C147.131 179.968 146.539 179.848 145.883 179.848C145.227 179.848 144.635 179.968 144.107 180.208C143.595 180.448 143.155 180.776 142.787 181.192C142.419 181.592 142.131 182.072 141.923 182.632C141.731 183.176 141.635 183.76 141.635 184.384C141.635 185.008 141.731 185.6 141.923 186.16C142.131 186.704 142.419 187.184 142.787 187.6C143.155 188 143.595 188.32 144.107 188.56C144.635 188.784 145.227 188.896 145.883 188.896C146.539 188.896 147.131 188.784 147.659 188.56C148.187 188.32 148.635 188 149.003 187.6C149.371 187.184 149.651 186.704 149.843 186.16C150.051 185.6 150.155 185.008 150.155 184.384ZM155.394 181.24C155.394 180.936 155.386 180.544 155.37 180.064C155.354 179.584 155.33 179.152 155.298 178.768H156.858C156.89 179.072 156.914 179.408 156.93 179.776C156.946 180.144 156.954 180.448 156.954 180.688H157.002C157.322 180.032 157.802 179.504 158.442 179.104C159.082 178.688 159.802 178.48 160.602 178.48C160.81 178.48 160.994 178.488 161.154 178.504C161.33 178.52 161.506 178.552 161.682 178.6L161.466 180.136C161.37 180.104 161.21 180.072 160.986 180.04C160.762 180.008 160.538 179.992 160.314 179.992C159.882 179.992 159.466 180.072 159.066 180.232C158.666 180.392 158.314 180.648 158.01 181C157.722 181.336 157.482 181.776 157.29 182.32C157.114 182.848 157.026 183.488 157.026 184.24V190H155.394V181.24ZM168.826 180.136H165.658V186.688C165.658 187.104 165.698 187.448 165.778 187.72C165.858 187.992 165.97 188.208 166.114 188.368C166.274 188.512 166.458 188.616 166.666 188.68C166.874 188.728 167.098 188.752 167.338 188.752C167.562 188.752 167.794 188.72 168.034 188.656C168.29 188.592 168.53 188.504 168.754 188.392L168.826 189.808C168.538 189.92 168.234 190 167.914 190.048C167.61 190.112 167.274 190.144 166.906 190.144C166.602 190.144 166.282 190.104 165.946 190.024C165.61 189.944 165.298 189.792 165.01 189.568C164.722 189.344 164.482 189.04 164.29 188.656C164.114 188.272 164.026 187.768 164.026 187.144V180.136H161.698V178.768H164.026V175.6H165.658V178.768H168.826V180.136Z" fill="white"/>
<path d="M97 214H96.148L97.516 206.26H94.672L94.804 205.504H101.356L101.224 206.26H98.368L97 214ZM108.107 212.656C107.939 212.872 107.743 213.076 107.519 213.268C107.295 213.452 107.039 213.616 106.751 213.76C106.471 213.896 106.159 214.004 105.815 214.084C105.479 214.172 105.111 214.216 104.711 214.216C104.143 214.216 103.623 214.128 103.151 213.952C102.687 213.776 102.287 213.528 101.951 213.208C101.615 212.888 101.355 212.504 101.171 212.056C100.987 211.608 100.895 211.112 100.895 210.568C100.895 209.832 101.027 209.144 101.291 208.504C101.555 207.864 101.915 207.308 102.371 206.836C102.835 206.356 103.375 205.98 103.991 205.708C104.607 205.428 105.267 205.288 105.971 205.288C106.283 205.288 106.583 205.32 106.871 205.384C107.167 205.448 107.439 205.54 107.687 205.66C107.935 205.772 108.155 205.912 108.347 206.08C108.547 206.248 108.707 206.436 108.827 206.644L108.047 207.16C107.983 207.024 107.887 206.888 107.759 206.752C107.639 206.616 107.491 206.496 107.315 206.392C107.139 206.28 106.935 206.192 106.703 206.128C106.479 206.064 106.227 206.032 105.947 206.032C105.339 206.032 104.779 206.16 104.267 206.416C103.763 206.664 103.327 206.996 102.959 207.412C102.599 207.82 102.315 208.292 102.107 208.828C101.907 209.364 101.807 209.916 101.807 210.484C101.807 210.9 101.871 211.292 101.999 211.66C102.127 212.02 102.315 212.336 102.563 212.608C102.819 212.872 103.127 213.084 103.487 213.244C103.855 213.396 104.279 213.472 104.759 213.472C105.271 213.472 105.759 213.372 106.223 213.172C106.687 212.964 107.103 212.64 107.471 212.2L108.107 212.656ZM110.816 205.504H113.084C113.916 205.504 114.56 205.684 115.016 206.044C115.472 206.404 115.7 206.904 115.7 207.544C115.7 207.96 115.62 208.324 115.46 208.636C115.3 208.948 115.076 209.212 114.788 209.428C114.508 209.636 114.168 209.792 113.768 209.896C113.376 210 112.944 210.052 112.472 210.052H110.864L110.168 214H109.316L110.816 205.504ZM110.984 209.344H112.544C113.264 209.344 113.824 209.2 114.224 208.912C114.632 208.624 114.836 208.2 114.836 207.64C114.836 207.12 114.672 206.756 114.344 206.548C114.016 206.34 113.572 206.236 113.012 206.236H111.536L110.984 209.344ZM114.35 215.68H113.666L114.974 212.86H115.826L114.35 215.68ZM123.56 214.216C123.048 214.216 122.612 214.14 122.252 213.988C121.9 213.836 121.612 213.64 121.388 213.4C121.164 213.152 121 212.876 120.896 212.572C120.8 212.26 120.752 211.948 120.752 211.636C120.752 211.356 120.776 211.088 120.824 210.832L121.76 205.504H122.612L121.688 210.736C121.64 210.992 121.616 211.236 121.616 211.468C121.616 211.74 121.648 211.996 121.712 212.236C121.784 212.476 121.896 212.688 122.048 212.872C122.208 213.056 122.412 213.204 122.66 213.316C122.916 213.42 123.232 213.472 123.608 213.472C124.056 213.472 124.436 213.4 124.748 213.256C125.068 213.104 125.332 212.904 125.54 212.656C125.756 212.4 125.924 212.108 126.044 211.78C126.172 211.444 126.268 211.096 126.332 210.736L127.256 205.504H128.108L127.172 210.832C127.108 211.184 127 211.56 126.848 211.96C126.704 212.352 126.492 212.716 126.212 213.052C125.94 213.388 125.588 213.668 125.156 213.892C124.724 214.108 124.192 214.216 123.56 214.216ZM130.328 205.504H132.896C133.376 205.504 133.852 205.572 134.324 205.708C134.796 205.836 135.22 206.044 135.596 206.332C135.972 206.612 136.276 206.98 136.508 207.436C136.74 207.884 136.856 208.424 136.856 209.056C136.856 209.8 136.724 210.476 136.46 211.084C136.204 211.692 135.844 212.212 135.38 212.644C134.916 213.076 134.368 213.412 133.736 213.652C133.104 213.884 132.416 214 131.672 214H128.828L130.328 205.504ZM129.812 213.244H131.732C132.42 213.244 133.024 213.128 133.544 212.896C134.072 212.664 134.512 212.36 134.864 211.984C135.224 211.6 135.492 211.164 135.668 210.676C135.852 210.18 135.944 209.672 135.944 209.152C135.944 208.76 135.88 208.388 135.752 208.036C135.624 207.684 135.428 207.376 135.164 207.112C134.9 206.848 134.564 206.64 134.156 206.488C133.748 206.336 133.264 206.26 132.704 206.26H131.048L129.812 213.244ZM139.41 205.504H141.678C142.51 205.504 143.154 205.684 143.61 206.044C144.066 206.404 144.294 206.904 144.294 207.544C144.294 207.96 144.214 208.324 144.054 208.636C143.894 208.948 143.67 209.212 143.382 209.428C143.102 209.636 142.762 209.792 142.362 209.896C141.97 210 141.538 210.052 141.066 210.052H139.458L138.762 214H137.91L139.41 205.504ZM139.578 209.344H141.138C141.858 209.344 142.418 209.2 142.818 208.912C143.226 208.624 143.43 208.2 143.43 207.64C143.43 207.12 143.266 206.756 142.938 206.548C142.61 206.34 142.166 206.236 141.606 206.236H140.13L139.578 209.344Z" fill="white"/>
<rect x="23.5" y="63.5" width="193" height="71" fill="#F17B6B" stroke="#F17B6B"/>
<path d="M67 21H261L217 63H23L67 21Z" fill="#F17B6B" fill-opacity="0.8"/>
<path d="M217 63L261 21V93L217 135V63Z" fill="#F7B0A6"/>
<path d="M56.136 100H54.24L61.584 83.008H63.264L70.56 100H68.64L66.768 95.536H57.984L56.136 100ZM58.632 93.952H66.12L62.376 84.928L58.632 93.952ZM74.5967 105.76H72.9647V88.768H74.5967V90.712H74.6687C75.1327 89.976 75.7487 89.424 76.5167 89.056C77.3007 88.672 78.0927 88.48 78.8927 88.48C79.7727 88.48 80.5647 88.632 81.2687 88.936C81.9887 89.24 82.5967 89.656 83.0927 90.184C83.6047 90.712 83.9967 91.336 84.2687 92.056C84.5567 92.776 84.7007 93.552 84.7007 94.384C84.7007 95.216 84.5567 95.992 84.2687 96.712C83.9967 97.432 83.6047 98.056 83.0927 98.584C82.5967 99.112 81.9887 99.528 81.2687 99.832C80.5647 100.136 79.7727 100.288 78.8927 100.288C78.0927 100.288 77.3007 100.104 76.5167 99.736C75.7487 99.352 75.1327 98.808 74.6687 98.104H74.5967V105.76ZM82.9727 94.384C82.9727 93.76 82.8767 93.176 82.6847 92.632C82.4927 92.072 82.2127 91.592 81.8447 91.192C81.4927 90.776 81.0527 90.448 80.5247 90.208C79.9967 89.968 79.3967 89.848 78.7247 89.848C78.1007 89.848 77.5247 89.968 76.9967 90.208C76.4687 90.432 76.0127 90.752 75.6287 91.168C75.2447 91.568 74.9407 92.048 74.7167 92.608C74.5087 93.152 74.4047 93.744 74.4047 94.384C74.4047 95.024 74.5087 95.624 74.7167 96.184C74.9407 96.728 75.2447 97.2 75.6287 97.6C76.0127 98 76.4687 98.32 76.9967 98.56C77.5247 98.784 78.1007 98.896 78.7247 98.896C79.3967 98.896 79.9967 98.784 80.5247 98.56C81.0527 98.32 81.4927 98 81.8447 97.6C82.2127 97.184 82.4927 96.704 82.6847 96.16C82.8767 95.6 82.9727 95.008 82.9727 94.384ZM89.8311 105.76H88.1991V88.768H89.8311V90.712H89.9031C90.3671 89.976 90.9831 89.424 91.7511 89.056C92.5351 88.672 93.3271 88.48 94.1271 88.48C95.0071 88.48 95.7991 88.632 96.5031 88.936C97.2231 89.24 97.8311 89.656 98.3271 90.184C98.8391 90.712 99.2311 91.336 99.5031 92.056C99.7911 92.776 99.9351 93.552 99.9351 94.384C99.9351 95.216 99.7911 95.992 99.5031 96.712C99.2311 97.432 98.8391 98.056 98.3271 98.584C97.8311 99.112 97.2231 99.528 96.5031 99.832C95.7991 100.136 95.0071 100.288 94.1271 100.288C93.3271 100.288 92.5351 100.104 91.7511 99.736C90.9831 99.352 90.3671 98.808 89.9031 98.104H89.8311V105.76ZM98.2071 94.384C98.2071 93.76 98.1111 93.176 97.9191 92.632C97.7271 92.072 97.4471 91.592 97.0791 91.192C96.7271 90.776 96.2871 90.448 95.7591 90.208C95.2311 89.968 94.6311 89.848 93.9591 89.848C93.3351 89.848 92.7591 89.968 92.2311 90.208C91.7031 90.432 91.2471 90.752 90.8631 91.168C90.4791 91.568 90.1751 92.048 89.9511 92.608C89.7431 93.152 89.6391 93.744 89.6391 94.384C89.6391 95.024 89.7431 95.624 89.9511 96.184C90.1751 96.728 90.4791 97.2 90.8631 97.6C91.2471 98 91.7031 98.32 92.2311 98.56C92.7591 98.784 93.3351 98.896 93.9591 98.896C94.6311 98.896 95.2311 98.784 95.7591 98.56C96.2871 98.32 96.7271 98 97.0791 97.6C97.4471 97.184 97.7271 96.704 97.9191 96.16C98.1111 95.6 98.2071 95.008 98.2071 94.384ZM105.113 100H103.481V81.856H105.113V100ZM111.136 100H109.504V88.768H111.136V100ZM111.472 84.448C111.472 84.784 111.352 85.064 111.112 85.288C110.872 85.496 110.608 85.6 110.32 85.6C110.032 85.6 109.768 85.496 109.528 85.288C109.288 85.064 109.168 84.784 109.168 84.448C109.168 84.112 109.288 83.84 109.528 83.632C109.768 83.408 110.032 83.296 110.32 83.296C110.608 83.296 110.872 83.408 111.112 83.632C111.352 83.84 111.472 84.112 111.472 84.448ZM123.568 91.336C123.296 90.904 122.896 90.552 122.368 90.28C121.856 89.992 121.296 89.848 120.688 89.848C120.032 89.848 119.44 89.968 118.912 90.208C118.384 90.432 117.928 90.752 117.544 91.168C117.176 91.568 116.888 92.048 116.68 92.608C116.488 93.152 116.392 93.744 116.392 94.384C116.392 95.024 116.488 95.616 116.68 96.16C116.888 96.704 117.176 97.184 117.544 97.6C117.912 98 118.36 98.32 118.888 98.56C119.416 98.784 120.008 98.896 120.664 98.896C121.384 98.896 121.992 98.76 122.488 98.488C122.984 98.216 123.392 97.864 123.712 97.432L124.936 98.344C124.456 98.936 123.864 99.408 123.16 99.76C122.472 100.112 121.64 100.288 120.664 100.288C119.752 100.288 118.928 100.144 118.192 99.856C117.456 99.552 116.824 99.136 116.296 98.608C115.784 98.08 115.384 97.456 115.096 96.736C114.808 96.016 114.664 95.232 114.664 94.384C114.664 93.536 114.808 92.752 115.096 92.032C115.384 91.312 115.784 90.688 116.296 90.16C116.824 89.632 117.456 89.224 118.192 88.936C118.928 88.632 119.752 88.48 120.664 88.48C121.416 88.48 122.176 88.648 122.944 88.984C123.728 89.304 124.36 89.784 124.84 90.424L123.568 91.336ZM134.56 92.752C134.56 91.776 134.304 91.048 133.792 90.568C133.28 90.088 132.536 89.848 131.56 89.848C130.888 89.848 130.264 89.968 129.688 90.208C129.112 90.448 128.624 90.768 128.224 91.168L127.312 90.088C127.776 89.624 128.384 89.24 129.136 88.936C129.904 88.632 130.768 88.48 131.728 88.48C132.336 88.48 132.904 88.568 133.432 88.744C133.96 88.904 134.424 89.152 134.824 89.488C135.224 89.824 135.536 90.248 135.76 90.76C135.984 91.272 136.096 91.872 136.096 92.56V97.48C136.096 97.912 136.112 98.36 136.144 98.824C136.176 99.288 136.224 99.68 136.288 100H134.824C134.776 99.728 134.736 99.432 134.704 99.112C134.672 98.792 134.656 98.48 134.656 98.176H134.608C134.096 98.928 133.512 99.472 132.856 99.808C132.216 100.128 131.44 100.288 130.528 100.288C130.096 100.288 129.648 100.224 129.184 100.096C128.736 99.984 128.32 99.792 127.936 99.52C127.568 99.248 127.256 98.896 127 98.464C126.76 98.032 126.64 97.504 126.64 96.88C126.64 96.016 126.856 95.336 127.288 94.84C127.736 94.328 128.328 93.952 129.064 93.712C129.8 93.456 130.64 93.296 131.584 93.232C132.544 93.152 133.536 93.112 134.56 93.112V92.752ZM134.08 94.384C133.408 94.384 132.728 94.416 132.04 94.48C131.368 94.528 130.752 94.64 130.192 94.816C129.648 94.976 129.2 95.216 128.848 95.536C128.496 95.856 128.32 96.28 128.32 96.808C128.32 97.208 128.392 97.544 128.536 97.816C128.696 98.088 128.904 98.312 129.16 98.488C129.416 98.648 129.696 98.768 130 98.848C130.32 98.912 130.64 98.944 130.96 98.944C131.536 98.944 132.048 98.848 132.496 98.656C132.944 98.448 133.32 98.176 133.624 97.84C133.928 97.488 134.16 97.088 134.32 96.64C134.48 96.192 134.56 95.72 134.56 95.224V94.384H134.08ZM145.13 90.136H141.962V96.688C141.962 97.104 142.002 97.448 142.082 97.72C142.162 97.992 142.274 98.208 142.418 98.368C142.578 98.512 142.762 98.616 142.97 98.68C143.178 98.728 143.402 98.752 143.642 98.752C143.866 98.752 144.098 98.72 144.338 98.656C144.594 98.592 144.834 98.504 145.058 98.392L145.13 99.808C144.842 99.92 144.538 100 144.218 100.048C143.914 100.112 143.578 100.144 143.21 100.144C142.906 100.144 142.586 100.104 142.25 100.024C141.914 99.944 141.602 99.792 141.314 99.568C141.026 99.344 140.786 99.04 140.594 98.656C140.418 98.272 140.33 97.768 140.33 97.144V90.136H138.002V88.768H140.33V85.6H141.962V88.768H145.13V90.136ZM149.339 100H147.707V88.768H149.339V100ZM149.675 84.448C149.675 84.784 149.555 85.064 149.315 85.288C149.075 85.496 148.811 85.6 148.523 85.6C148.235 85.6 147.971 85.496 147.731 85.288C147.491 85.064 147.371 84.784 147.371 84.448C147.371 84.112 147.491 83.84 147.731 83.632C147.971 83.408 148.235 83.296 148.523 83.296C148.811 83.296 149.075 83.408 149.315 83.632C149.555 83.84 149.675 84.112 149.675 84.448ZM164.843 94.384C164.843 95.232 164.691 96.016 164.387 96.736C164.099 97.456 163.691 98.08 163.163 98.608C162.635 99.136 162.003 99.552 161.267 99.856C160.531 100.144 159.723 100.288 158.843 100.288C157.979 100.288 157.179 100.144 156.443 99.856C155.707 99.552 155.075 99.136 154.547 98.608C154.019 98.08 153.603 97.456 153.299 96.736C153.011 96.016 152.867 95.232 152.867 94.384C152.867 93.536 153.011 92.752 153.299 92.032C153.603 91.312 154.019 90.688 154.547 90.16C155.075 89.632 155.707 89.224 156.443 88.936C157.179 88.632 157.979 88.48 158.843 88.48C159.723 88.48 160.531 88.632 161.267 88.936C162.003 89.224 162.635 89.632 163.163 90.16C163.691 90.688 164.099 91.312 164.387 92.032C164.691 92.752 164.843 93.536 164.843 94.384ZM163.115 94.384C163.115 93.76 163.011 93.176 162.803 92.632C162.611 92.072 162.331 91.592 161.963 91.192C161.595 90.776 161.147 90.448 160.619 90.208C160.091 89.968 159.499 89.848 158.843 89.848C158.187 89.848 157.595 89.968 157.067 90.208C156.555 90.448 156.115 90.776 155.747 91.192C155.379 91.592 155.091 92.072 154.883 92.632C154.691 93.176 154.595 93.76 154.595 94.384C154.595 95.008 154.691 95.6 154.883 96.16C155.091 96.704 155.379 97.184 155.747 97.6C156.115 98 156.555 98.32 157.067 98.56C157.595 98.784 158.187 98.896 158.843 98.896C159.499 98.896 160.091 98.784 160.619 98.56C161.147 98.32 161.595 98 161.963 97.6C162.331 97.184 162.611 96.704 162.803 96.16C163.011 95.6 163.115 95.008 163.115 94.384ZM169.819 88.768C169.851 89.072 169.875 89.408 169.891 89.776C169.907 90.144 169.915 90.448 169.915 90.688H169.963C170.283 90.032 170.803 89.504 171.523 89.104C172.243 88.688 173.003 88.48 173.803 88.48C175.227 88.48 176.291 88.904 176.995 89.752C177.715 90.6 178.075 91.72 178.075 93.112V100H176.443V93.784C176.443 93.192 176.395 92.656 176.299 92.176C176.203 91.696 176.035 91.288 175.795 90.952C175.571 90.6 175.259 90.328 174.859 90.136C174.475 89.944 173.987 89.848 173.395 89.848C172.963 89.848 172.539 89.936 172.123 90.112C171.723 90.288 171.363 90.56 171.043 90.928C170.723 91.28 170.467 91.736 170.275 92.296C170.083 92.84 169.987 93.488 169.987 94.24V100H168.355V91.24C168.355 90.936 168.347 90.544 168.331 90.064C168.315 89.584 168.291 89.152 168.259 88.768H169.819Z" fill="white"/>
<path d="M75.98 115.504H76.832L76.172 119.2H80.696L81.356 115.504H82.208L80.708 124H79.856L80.564 119.968H76.04L75.332 124H74.48L75.98 115.504ZM85.4961 124H84.6441L86.0121 116.26H83.1681L83.3001 115.504H89.8521L89.7201 116.26H86.8641L85.4961 124ZM92.0586 124H91.2066L92.5746 116.26H89.7306L89.8626 115.504H96.4146L96.2826 116.26H93.4266L92.0586 124ZM97.6011 115.504H99.8691C100.701 115.504 101.345 115.684 101.801 116.044C102.257 116.404 102.485 116.904 102.485 117.544C102.485 117.96 102.405 118.324 102.245 118.636C102.085 118.948 101.861 119.212 101.573 119.428C101.293 119.636 100.953 119.792 100.553 119.896C100.161 120 99.7291 120.052 99.2571 120.052H97.6491L96.9531 124H96.1011L97.6011 115.504ZM97.7691 119.344H99.3291C100.049 119.344 100.609 119.2 101.009 118.912C101.417 118.624 101.621 118.2 101.621 117.64C101.621 117.12 101.457 116.756 101.129 116.548C100.801 116.34 100.357 116.236 99.7971 116.236H98.3211L97.7691 119.344ZM101.135 125.68H100.451L101.759 122.86H102.611L101.135 125.68ZM107.945 124H107.093L108.593 115.504H113.597L113.465 116.26H109.313L108.785 119.224H112.637L112.517 119.956H108.665L107.945 124ZM116.211 124H115.359L116.727 116.26H113.883L114.015 115.504H120.567L120.435 116.26H117.579L116.211 124ZM121.753 115.504H124.021C124.853 115.504 125.497 115.684 125.953 116.044C126.409 116.404 126.637 116.904 126.637 117.544C126.637 117.96 126.557 118.324 126.397 118.636C126.237 118.948 126.013 119.212 125.725 119.428C125.445 119.636 125.105 119.792 124.705 119.896C124.313 120 123.881 120.052 123.409 120.052H121.801L121.105 124H120.253L121.753 115.504ZM121.921 119.344H123.481C124.201 119.344 124.761 119.2 125.161 118.912C125.569 118.624 125.773 118.2 125.773 117.64C125.773 117.12 125.609 116.756 125.281 116.548C124.953 116.34 124.509 116.236 123.949 116.236H122.473L121.921 119.344ZM125.288 125.68H124.604L125.912 122.86H126.764L125.288 125.68ZM136.658 116.824C136.506 116.6 136.286 116.412 135.998 116.26C135.71 116.108 135.374 116.032 134.99 116.032C134.742 116.032 134.494 116.068 134.246 116.14C133.998 116.204 133.774 116.308 133.574 116.452C133.374 116.588 133.21 116.764 133.082 116.98C132.962 117.188 132.902 117.44 132.902 117.736C132.902 117.96 132.942 118.152 133.022 118.312C133.102 118.472 133.21 118.612 133.346 118.732C133.49 118.852 133.654 118.956 133.838 119.044C134.03 119.132 134.234 119.216 134.45 119.296C134.698 119.392 134.95 119.5 135.206 119.62C135.462 119.74 135.694 119.888 135.902 120.064C136.11 120.24 136.278 120.448 136.406 120.688C136.534 120.92 136.598 121.196 136.598 121.516C136.598 121.804 136.546 122.108 136.442 122.428C136.338 122.74 136.166 123.032 135.926 123.304C135.686 123.568 135.37 123.788 134.978 123.964C134.586 124.132 134.102 124.216 133.526 124.216C133.006 124.216 132.506 124.112 132.026 123.904C131.546 123.688 131.178 123.372 130.922 122.956L131.69 122.464C131.85 122.744 132.09 122.984 132.41 123.184C132.73 123.376 133.114 123.472 133.562 123.472C133.85 123.472 134.122 123.432 134.378 123.352C134.642 123.264 134.87 123.144 135.062 122.992C135.262 122.832 135.418 122.64 135.53 122.416C135.642 122.192 135.698 121.944 135.698 121.672C135.698 121.432 135.65 121.224 135.554 121.048C135.458 120.872 135.326 120.72 135.158 120.592C134.998 120.464 134.81 120.352 134.594 120.256C134.386 120.16 134.162 120.068 133.922 119.98C133.682 119.892 133.446 119.788 133.214 119.668C132.982 119.548 132.778 119.404 132.602 119.236C132.426 119.068 132.282 118.872 132.17 118.648C132.066 118.416 132.014 118.148 132.014 117.844C132.014 117.484 132.082 117.148 132.218 116.836C132.354 116.524 132.55 116.256 132.806 116.032C133.062 115.8 133.378 115.62 133.754 115.492C134.13 115.356 134.558 115.288 135.038 115.288C135.614 115.288 136.102 115.384 136.502 115.576C136.91 115.76 137.206 116 137.39 116.296L136.658 116.824ZM142.423 122.536H142.435L146.551 115.504H147.859L146.359 124H145.507L146.803 116.656H146.779L142.411 124H141.955L140.179 116.656H140.155L138.859 124H138.019L139.519 115.504H140.815L142.423 122.536ZM151.168 124H150.316L151.684 116.26H148.84L148.972 115.504H155.524L155.392 116.26H152.536L151.168 124ZM156.71 115.504H158.978C159.81 115.504 160.454 115.684 160.91 116.044C161.366 116.404 161.594 116.904 161.594 117.544C161.594 117.96 161.514 118.324 161.354 118.636C161.194 118.948 160.97 119.212 160.682 119.428C160.402 119.636 160.062 119.792 159.662 119.896C159.27 120 158.838 120.052 158.366 120.052H156.758L156.062 124H155.21L156.71 115.504ZM156.878 119.344H158.438C159.158 119.344 159.718 119.2 160.118 118.912C160.526 118.624 160.73 118.2 160.73 117.64C160.73 117.12 160.566 116.756 160.238 116.548C159.91 116.34 159.466 116.236 158.906 116.236H157.43L156.878 119.344Z" fill="white"/>
</svg>
