<svg width="208" height="277" viewBox="0 0 208 277" fill="none" xmlns="http://www.w3.org/2000/svg">
<rect width="208" height="277" fill="white"/>
<line x1="18.5" y1="270" x2="18.5" y2="20" stroke="black" stroke-width="3"/>
<line x1="184.5" y1="270" x2="184.5" y2="20" stroke="black" stroke-width="3"/>
<path d="M181.197 88.9762C181.423 88.8178 181.478 88.506 181.319 88.2798L178.738 84.5936C178.58 84.3674 178.268 84.3125 178.042 84.4709C177.816 84.6292 177.761 84.941 177.919 85.1672L180.213 88.4438L176.937 90.7381C176.711 90.8965 176.656 91.2083 176.814 91.4345C176.972 91.6607 177.284 91.7157 177.51 91.5573L181.197 88.9762ZM20.8396 60.8496L180.823 89.059L180.997 88.0742L21.0132 59.8648L20.8396 60.8496Z" fill="black"/>
<path d="M181.197 228.976C181.423 228.818 181.478 228.506 181.319 228.28L178.738 224.594C178.58 224.367 178.268 224.312 178.042 224.471C177.816 224.629 177.761 224.941 177.919 225.167L180.213 228.444L176.937 230.738C176.711 230.897 176.656 231.208 176.814 231.434C176.972 231.661 177.284 231.716 177.51 231.557L181.197 228.976ZM20.8396 200.85L180.823 229.059L180.997 228.074L21.0132 199.865L20.8396 200.85Z" fill="black"/>
<path d="M20.6396 158.976C20.4134 158.818 20.3584 158.506 20.5168 158.28L23.0979 154.594C23.2563 154.367 23.5681 154.312 23.7943 154.471C24.0205 154.629 24.0755 154.941 23.9171 155.167L21.6228 158.444L24.8994 160.738C25.1256 160.897 25.1805 161.208 25.0222 161.434C24.8638 161.661 24.552 161.716 24.3258 161.557L20.6396 158.976ZM180.997 130.85L21.0132 159.059L20.8396 158.074L180.823 129.865L180.997 130.85Z" fill="black"/>
<path d="M96.9831 67.5517C97.0408 67.2247 96.9695 66.9543 96.7692 66.7405C96.5696 66.5228 96.1867 66.2649 95.6205 65.9667C95.0549 65.6647 94.6138 65.3886 94.2969 65.1384C93.4338 64.4547 93.0792 63.6762 93.2332 62.8029C93.3132 62.349 93.5114 61.9675 93.8277 61.6583C94.1485 61.346 94.5651 61.1319 95.0774 61.016C95.5935 60.9007 96.1497 60.8957 96.746 61.0008C97.3461 61.1066 97.8615 61.3105 98.2921 61.6126C98.7235 61.9107 99.0331 62.2807 99.221 62.7223C99.4127 63.1647 99.4641 63.6379 99.3753 64.1418L97.6442 63.8366C97.712 63.4519 97.6434 63.1324 97.4383 62.8781C97.234 62.6199 96.9125 62.4521 96.474 62.3748C96.0508 62.3002 95.7059 62.3326 95.4394 62.472C95.1735 62.6076 95.0148 62.8216 94.9633 63.114C94.9151 63.3871 95.0113 63.6401 95.2519 63.8729C95.4963 64.1064 95.8716 64.351 96.3779 64.6069C97.3105 65.0767 97.9631 65.5706 98.3359 66.0885C98.7086 66.6065 98.8374 67.1924 98.722 67.8464C98.5938 68.5734 98.2181 69.0962 97.5947 69.4147C96.972 69.7293 96.1952 69.8045 95.2642 69.6404C94.618 69.5264 94.0501 69.3053 93.5606 68.977C93.0718 68.6449 92.7232 68.2483 92.515 67.7872C92.3106 67.3267 92.2562 66.8253 92.3519 66.2828L94.0887 66.5891C93.9253 67.5162 94.3975 68.0774 95.5054 68.2728C95.917 68.3454 96.2528 68.3193 96.5128 68.1946C96.7734 68.066 96.9302 67.8517 96.9831 67.5517ZM103.219 66.1642L105.635 62.6872L107.528 63.0209L103.825 67.8894L103.288 70.9362L101.528 70.6259L102.065 67.5791L100.251 61.7379L102.15 62.0726L103.219 66.1642ZM113.646 72.7626L111.915 72.4573L109.52 66.3351L108.545 71.8631L106.814 71.5579L108.295 63.1562L110.026 63.4615L112.425 69.5962L113.402 64.0567L115.127 64.3609L113.646 72.7626Z" fill="black"/>
<path d="M97.2863 208.093L94.2511 207.558L93.3688 209.187L91.5281 208.863L96.1371 201.012L97.7412 201.295L99.4046 210.251L97.5639 209.927L97.2863 208.093ZM94.9658 206.238L97.0662 206.608L96.5647 203.277L94.9658 206.238ZM107.151 208.732C106.927 209.624 106.466 210.277 105.771 210.69C105.079 211.103 104.241 211.223 103.256 211.05C102.179 210.86 101.395 210.348 100.903 209.516C100.415 208.68 100.283 207.63 100.507 206.364L100.597 205.851C100.74 205.043 101.007 204.356 101.401 203.791C101.794 203.226 102.283 202.826 102.867 202.592C103.457 202.355 104.101 202.298 104.801 202.421C105.771 202.592 106.506 202.989 107.007 203.613C107.508 204.237 107.721 205.026 107.648 205.981L105.917 205.676C105.971 205.126 105.888 204.707 105.669 204.419C105.455 204.127 105.082 203.934 104.551 203.841C103.974 203.739 103.505 203.87 103.143 204.235C102.786 204.596 102.527 205.211 102.366 206.079L102.254 206.714C102.094 207.622 102.113 208.309 102.312 208.777C102.515 209.245 102.913 209.531 103.505 209.636C104.04 209.73 104.46 209.679 104.764 209.483C105.073 209.283 105.292 208.931 105.42 208.427L107.151 208.732ZM111.02 208.825L109.949 209.636L109.526 212.036L107.795 211.731L109.276 203.329L111.007 203.634L110.336 207.443L111.282 206.533L113.91 204.146L116.039 204.522L112.397 207.729L114.644 212.939L112.584 212.575L111.02 208.825Z" fill="black"/>
<path d="M76.7829 142.2C76.7252 141.873 76.5657 141.644 76.3044 141.511C76.0424 141.375 75.5944 141.264 74.9603 141.177C74.3256 141.087 73.8166 140.978 73.4333 140.851C72.3884 140.504 71.7889 139.894 71.6349 139.021C71.5549 138.567 71.6106 138.14 71.8021 137.742C71.9968 137.338 72.315 136.995 72.7567 136.711C73.2023 136.426 73.7232 136.231 74.3195 136.126C74.9196 136.02 75.4737 136.035 75.9817 136.172C76.489 136.304 76.9064 136.546 77.234 136.897C77.5655 137.247 77.7757 137.674 77.8645 138.178L76.1334 138.483C76.0656 138.098 75.8918 137.822 75.6122 137.653C75.3318 137.48 74.9724 137.433 74.5338 137.51C74.1107 137.584 73.7977 137.733 73.5949 137.955C73.3915 138.173 73.3155 138.429 73.3671 138.721C73.4152 138.994 73.5921 139.199 73.8978 139.336C74.2074 139.471 74.6437 139.573 75.207 139.64C76.244 139.763 77.0262 140.004 77.5536 140.363C78.0811 140.722 78.4024 141.229 78.5177 141.883C78.6459 142.61 78.4716 143.229 77.9948 143.742C77.5172 144.25 76.813 144.587 75.882 144.751C75.2358 144.865 74.6265 144.851 74.0542 144.71C73.4813 144.565 73.0181 144.312 72.6647 143.95C72.3152 143.587 72.0926 143.134 71.9969 142.592L73.7338 142.286C73.8973 143.213 74.533 143.579 75.6409 143.383C76.0525 143.311 76.3591 143.171 76.5608 142.965C76.7618 142.755 76.8358 142.5 76.7829 142.2ZM82.1683 138.764L83.2493 134.67L85.142 134.336L83.328 140.178L83.8652 143.224L82.1052 143.535L81.568 140.488L77.8655 135.619L79.764 135.285L82.1683 138.764ZM94.223 141.398L92.4919 141.703L88.1472 136.769L89.122 142.297L87.3909 142.603L85.9094 134.201L87.6405 133.896L91.993 138.84L91.0162 133.301L92.7415 132.996L94.223 141.398ZM101.103 135.336L103.186 134.968L103.452 136.475L101.368 136.842L101.784 139.196L100.197 139.476L99.7816 137.122L97.6928 137.49L97.4272 135.984L99.5161 135.616L99.1182 133.359L100.705 133.08L101.103 135.336ZM112.51 136.389L109.475 136.924L109.203 138.757L107.362 139.081L109.008 130.128L110.612 129.845L115.239 137.692L113.398 138.017L112.51 136.389ZM109.695 135.439L111.795 135.069L110.185 132.11L109.695 135.439ZM121.998 133.615C122.092 134.53 121.883 135.301 121.371 135.927C120.862 136.552 120.116 136.951 119.131 137.125C118.054 137.315 117.142 137.103 116.395 136.489C115.651 135.87 115.168 134.928 114.945 133.663L114.854 133.149C114.712 132.341 114.728 131.604 114.905 130.939C115.081 130.273 115.403 129.73 115.873 129.31C116.345 128.886 116.932 128.612 117.632 128.489C118.601 128.318 119.428 128.44 120.112 128.854C120.796 129.269 121.267 129.938 121.525 130.86L119.794 131.166C119.656 130.631 119.434 130.265 119.13 130.069C118.829 129.868 118.413 129.814 117.882 129.908C117.305 130.01 116.909 130.294 116.694 130.76C116.482 131.222 116.448 131.888 116.594 132.759L116.706 133.394C116.866 134.302 117.12 134.941 117.467 135.312C117.817 135.683 118.289 135.816 118.882 135.711C119.416 135.617 119.793 135.426 120.012 135.137C120.234 134.844 120.319 134.438 120.267 133.92L121.998 133.615ZM125.666 132.379L124.937 133.507L125.36 135.908L123.629 136.213L122.147 127.811L123.878 127.506L124.55 131.314L125.127 130.136L126.781 126.994L128.91 126.619L126.585 130.878L130.478 135.005L128.418 135.368L125.666 132.379Z" fill="black"/>
<path d="M9.70801 13.7344C9.57129 14.4701 9.23763 15.0527 8.70703 15.4824C8.17969 15.9121 7.54655 16.1172 6.80762 16.0977C6.36816 16.0879 5.98405 15.9805 5.65527 15.7754C5.3265 15.5671 5.07096 15.2692 4.88867 14.8818C4.70638 14.4912 4.60547 14.0599 4.58594 13.5879C4.57292 13.321 4.58431 13.0605 4.62012 12.8066L4.70312 12.2207C4.85612 11.153 5.23047 10.3115 5.82617 9.69629C6.42513 9.0778 7.15267 8.77669 8.00879 8.79297C8.67611 8.80599 9.20508 9.02246 9.5957 9.44238C9.98633 9.85905 10.193 10.4385 10.2158 11.1807H9.30273C9.26042 10.1846 8.86979 9.64746 8.13086 9.56934L7.96973 9.55957C7.35449 9.54329 6.84017 9.77279 6.42676 10.248C6.0166 10.7201 5.7513 11.3662 5.63086 12.1865L5.52344 12.9238L5.49414 13.3535C5.47461 13.9525 5.5804 14.4294 5.81152 14.7842C6.0459 15.1357 6.39258 15.318 6.85156 15.3311C7.34635 15.3473 7.75488 15.2285 8.07715 14.9746C8.40267 14.7207 8.65007 14.3122 8.81934 13.749L9.70801 13.7344ZM11.4756 16H10.5967L11.8955 8.5H12.7793L11.4756 16ZM13.8779 16H12.999L13.917 10.7168H14.7959L13.8779 16ZM14.6055 8.78809C14.7552 8.78158 14.8789 8.82715 14.9766 8.9248C15.0775 9.01921 15.1279 9.14453 15.1279 9.30078C15.1247 9.45378 15.0742 9.5791 14.9766 9.67676C14.8822 9.77441 14.7585 9.8265 14.6055 9.83301C14.4525 9.83952 14.3271 9.79557 14.2295 9.70117C14.1318 9.60677 14.0846 9.48307 14.0879 9.33008C14.0911 9.17708 14.14 9.05013 14.2344 8.94922C14.3288 8.84831 14.4525 8.7946 14.6055 8.78809ZM17.6084 16.0977C16.9508 16.0846 16.4365 15.8421 16.0654 15.3701C15.6943 14.8981 15.5381 14.2943 15.5967 13.5586L15.6211 13.3486C15.6764 12.8245 15.8311 12.346 16.085 11.9131C16.3421 11.4801 16.6546 11.1546 17.0225 10.9365C17.3903 10.7152 17.7874 10.6094 18.2139 10.6191C18.7575 10.6322 19.1839 10.8128 19.4932 11.1611C19.8024 11.5094 19.9717 11.9814 20.001 12.5771C20.0107 12.7887 20.0042 13.0003 19.9814 13.2119L19.9277 13.6172H16.4756C16.417 14.0957 16.4951 14.5026 16.71 14.8379C16.9281 15.1732 17.252 15.3473 17.6816 15.3604C18.2025 15.3734 18.6842 15.139 19.127 14.6572L19.6348 15.0869C19.4134 15.4059 19.127 15.6566 18.7754 15.8389C18.4271 16.0179 18.0381 16.1042 17.6084 16.0977ZM18.1699 11.3564C17.8053 11.3467 17.4863 11.4704 17.2129 11.7275C16.9427 11.9847 16.7279 12.3672 16.5684 12.875L19.1367 12.8799L19.1562 12.8018C19.2083 12.3916 19.1416 12.0514 18.9561 11.7812C18.7738 11.5078 18.5117 11.3662 18.1699 11.3564ZM22.2617 10.7119L22.1348 11.3809C22.61 10.86 23.1504 10.6061 23.7559 10.6191C24.2539 10.6322 24.6217 10.8047 24.8594 11.1367C25.097 11.4688 25.1849 11.9359 25.123 12.5381L24.5469 16H23.6631L24.2441 12.5234C24.2637 12.3639 24.2653 12.2158 24.249 12.0791C24.1937 11.6234 23.9251 11.3906 23.4434 11.3809C22.9128 11.3711 22.4473 11.6543 22.0469 12.2305L21.3926 16H20.5088L21.4268 10.7168L22.2617 10.7119ZM28.2432 9.4375L28.0186 10.7168H28.9805L28.8584 11.415H27.9014L27.3496 14.7012C27.3398 14.7858 27.3382 14.8639 27.3447 14.9355C27.3675 15.1895 27.5059 15.3164 27.7598 15.3164C27.8672 15.3164 28.0104 15.3001 28.1895 15.2676L28.1211 16.0049C27.9095 16.0635 27.6947 16.0928 27.4766 16.0928C27.125 16.0863 26.8613 15.9577 26.6855 15.707C26.5098 15.4531 26.4414 15.113 26.4805 14.6865L27.0176 11.415H26.085L26.207 10.7168H27.1396L27.3643 9.4375H28.2432Z" fill="black"/>
<path d="M176.282 14.1689C176.354 13.6481 176.084 13.2673 175.472 13.0264L174.627 12.7188L174.344 12.5967C173.393 12.1637 172.949 11.555 173.011 10.7705C173.043 10.3766 173.178 10.0283 173.416 9.72559C173.654 9.42285 173.968 9.1901 174.358 9.02734C174.752 8.86133 175.171 8.7832 175.613 8.79297C176.043 8.80273 176.425 8.89876 176.761 9.08105C177.099 9.26335 177.356 9.51888 177.532 9.84766C177.708 10.1732 177.786 10.541 177.767 10.9512L176.844 10.9463C176.876 10.5101 176.779 10.1732 176.551 9.93555C176.323 9.69466 175.997 9.57096 175.574 9.56445C175.128 9.55794 174.756 9.66211 174.456 9.87695C174.157 10.0918 173.984 10.3848 173.938 10.7559C173.873 11.2409 174.171 11.6087 174.832 11.8594L175.56 12.1182L175.926 12.2744C176.844 12.6976 177.269 13.3258 177.2 14.1592C177.164 14.5596 177.029 14.9062 176.795 15.1992C176.561 15.4889 176.242 15.7135 175.838 15.873C175.438 16.0326 175.006 16.1074 174.544 16.0977C174.098 16.0944 173.689 16 173.318 15.8145C172.951 15.6257 172.671 15.3685 172.479 15.043C172.286 14.7174 172.202 14.348 172.225 13.9346L173.143 13.9395C173.113 14.3626 173.227 14.6995 173.484 14.9502C173.745 15.1976 174.111 15.3245 174.583 15.3311C175.055 15.3376 175.444 15.235 175.75 15.0234C176.056 14.8118 176.233 14.527 176.282 14.1689ZM180.247 16.0977C179.59 16.0846 179.075 15.8421 178.704 15.3701C178.333 14.8981 178.177 14.2943 178.235 13.5586L178.26 13.3486C178.315 12.8245 178.47 12.346 178.724 11.9131C178.981 11.4801 179.293 11.1546 179.661 10.9365C180.029 10.7152 180.426 10.6094 180.853 10.6191C181.396 10.6322 181.823 10.8128 182.132 11.1611C182.441 11.5094 182.61 11.9814 182.64 12.5771C182.649 12.7887 182.643 13.0003 182.62 13.2119L182.566 13.6172H179.114C179.056 14.0957 179.134 14.5026 179.349 14.8379C179.567 15.1732 179.891 15.3473 180.32 15.3604C180.841 15.3734 181.323 15.139 181.766 14.6572L182.273 15.0869C182.052 15.4059 181.766 15.6566 181.414 15.8389C181.066 16.0179 180.677 16.1042 180.247 16.0977ZM180.809 11.3564C180.444 11.3467 180.125 11.4704 179.852 11.7275C179.581 11.9847 179.367 12.3672 179.207 12.875L181.775 12.8799L181.795 12.8018C181.847 12.3916 181.78 12.0514 181.595 11.7812C181.412 11.5078 181.15 11.3662 180.809 11.3564ZM186.434 11.5225L186.019 11.4785C185.452 11.4785 185.006 11.734 184.681 12.2451L184.031 16H183.147L184.065 10.7168L184.92 10.7119L184.788 11.3271C185.162 10.8356 185.604 10.5964 186.111 10.6094C186.219 10.6094 186.359 10.6338 186.531 10.6826L186.434 11.5225ZM188.484 14.7646L190.389 10.7168H191.321L188.66 16H187.986L186.951 10.7168H187.82L188.484 14.7646ZM193.528 16.0977C192.871 16.0846 192.356 15.8421 191.985 15.3701C191.614 14.8981 191.458 14.2943 191.517 13.5586L191.541 13.3486C191.596 12.8245 191.751 12.346 192.005 11.9131C192.262 11.4801 192.575 11.1546 192.942 10.9365C193.31 10.7152 193.707 10.6094 194.134 10.6191C194.677 10.6322 195.104 10.8128 195.413 11.1611C195.722 11.5094 195.892 11.9814 195.921 12.5771C195.931 12.7887 195.924 13.0003 195.901 13.2119L195.848 13.6172H192.396C192.337 14.0957 192.415 14.5026 192.63 14.8379C192.848 15.1732 193.172 15.3473 193.602 15.3604C194.122 15.3734 194.604 15.139 195.047 14.6572L195.555 15.0869C195.333 15.4059 195.047 15.6566 194.695 15.8389C194.347 16.0179 193.958 16.1042 193.528 16.0977ZM194.09 11.3564C193.725 11.3467 193.406 11.4704 193.133 11.7275C192.863 11.9847 192.648 12.3672 192.488 12.875L195.057 12.8799L195.076 12.8018C195.128 12.3916 195.062 12.0514 194.876 11.7812C194.694 11.5078 194.432 11.3662 194.09 11.3564ZM199.715 11.5225L199.3 11.4785C198.733 11.4785 198.287 11.734 197.962 12.2451L197.312 16H196.429L197.347 10.7168L198.201 10.7119L198.069 11.3271C198.444 10.8356 198.885 10.5964 199.393 10.6094C199.5 10.6094 199.64 10.6338 199.812 10.6826L199.715 11.5225Z" fill="black"/>
<path d="M55.9427 74.3595C55.191 73.9923 54.6631 73.6116 54.3591 73.2176C54.0588 72.8209 53.9517 72.3789 54.0376 71.8916C54.1348 71.3402 54.4347 70.9237 54.9372 70.6421C55.4434 70.3579 56.0492 70.2779 56.7545 70.4023C57.2353 70.4871 57.6469 70.6555 57.9892 70.9076C58.3347 71.1602 58.5812 71.4681 58.7287 71.8313C58.8794 72.195 58.9206 72.5708 58.8522 72.9587L57.9241 72.7951C57.9987 72.3719 57.9226 72.0164 57.6957 71.7285C57.4694 71.4373 57.111 71.2485 56.6205 71.162C56.1653 71.0818 55.7916 71.12 55.4996 71.2768C55.2113 71.4309 55.0357 71.6858 54.973 72.0417C54.9227 72.327 55.0002 72.5902 55.2056 72.8314C55.4148 73.0699 55.7951 73.322 56.3465 73.5878C56.9011 73.8542 57.3244 74.1156 57.6163 74.372C57.912 74.6258 58.1152 74.898 58.226 75.1885C58.3399 75.4797 58.3655 75.8032 58.3028 76.159C58.2027 76.7264 57.9012 77.1426 57.3984 77.4076C56.8961 77.6694 56.2746 77.7351 55.5341 77.6045C55.0532 77.5197 54.6205 77.3492 54.236 77.093C53.8521 76.8336 53.5745 76.5235 53.4035 76.1628C53.2356 75.8026 53.1875 75.419 53.2593 75.0119L54.1874 75.1755C54.1128 75.5987 54.2092 75.9611 54.4766 76.2628C54.7478 76.5618 55.1447 76.7574 55.6672 76.8495C56.1545 76.9354 56.5455 76.9019 56.8402 76.7489C57.1349 76.596 57.3125 76.348 57.373 76.005C57.4335 75.662 57.3599 75.3763 57.1523 75.148C56.9452 74.9164 56.542 74.6536 55.9427 74.3595ZM61.1794 78.5999C60.4742 78.4755 59.941 78.1435 59.58 77.6039C59.2196 77.0611 59.1078 76.4018 59.2446 75.626L59.2734 75.4625C59.3644 74.9463 59.5433 74.5036 59.8101 74.1341C60.0806 73.762 60.4123 73.4933 60.8051 73.3278C61.2016 73.1598 61.6066 73.1122 62.0202 73.1851C62.6966 73.3044 63.183 73.6199 63.4795 74.1316C63.7761 74.6434 63.8511 75.3144 63.7047 76.1447L63.6394 76.5149L60.1147 75.8934C60.0371 76.4086 60.1129 76.85 60.3423 77.2177C60.5754 77.5828 60.9132 77.8043 61.3556 77.8823C61.6697 77.9377 61.9471 77.9205 62.1877 77.8307C62.4283 77.7409 62.649 77.6046 62.8498 77.4219L63.3186 77.9408C62.7644 78.534 62.0514 78.7537 61.1794 78.5999ZM61.8913 73.916C61.5323 73.8527 61.2077 73.931 60.9177 74.1509C60.6283 74.3676 60.4132 74.7065 60.2724 75.1676L62.8787 75.6272L62.8906 75.5598C62.9446 75.1033 62.8844 74.7324 62.7099 74.4471C62.536 74.1586 62.2632 73.9816 61.8913 73.916ZM64.5094 76.3609C64.6536 75.5435 64.955 74.9306 65.4138 74.5223C65.8731 74.1107 66.4185 73.9607 67.05 74.072C67.6655 74.1805 68.1147 74.4729 68.3976 74.9492L68.5285 74.4319L69.346 74.576L68.0759 81.7793L67.1863 81.6225L67.6238 79.1412C67.1969 79.4626 66.6853 79.5707 66.0891 79.4656C65.4607 79.3548 65.002 79.0227 64.7128 78.4693C64.4274 77.9132 64.356 77.2313 64.4984 76.4234L64.5094 76.3609ZM65.3812 76.6188C65.2761 77.215 65.3186 77.7051 65.5087 78.089C65.7021 78.4735 66.0119 78.7033 66.4383 78.7785C66.9672 78.8718 67.4124 78.709 67.7738 78.2901L68.2232 75.7415C68.022 75.2334 67.6617 74.9335 67.1423 74.8419C66.7128 74.7662 66.3411 74.8775 66.0274 75.1758C65.7142 75.471 65.4988 75.952 65.3812 76.6188ZM73.1596 80.0827C72.7416 80.4287 72.1976 80.5427 71.5276 80.4246C70.973 80.3268 70.5781 80.0919 70.3429 79.7199C70.1115 79.3452 70.0499 78.8418 70.158 78.2097L70.7549 74.8245L71.6445 74.9813L71.0518 78.3425C70.9128 79.1312 71.1638 79.582 71.805 79.695C72.4846 79.8149 72.9813 79.6413 73.295 79.1744L73.9623 75.39L74.8519 75.5469L73.9345 80.7498L73.0881 80.6006L73.1596 80.0827ZM77.4326 81.4658C76.7273 81.3414 76.1942 81.0094 75.8332 80.4698C75.4728 79.9269 75.361 79.2676 75.4978 78.4918L75.5266 78.3283C75.6176 77.8122 75.7965 77.3694 76.0633 77C76.3338 76.6279 76.6655 76.3591 77.0582 76.1937C77.4548 76.0256 77.8598 75.9781 78.2733 76.051C78.9498 76.1703 79.4362 76.4858 79.7327 76.9975C80.0292 77.5092 80.1043 78.1802 79.9579 79.0105L79.8926 79.3808L76.3679 78.7593C76.2902 79.2745 76.3661 79.7159 76.5955 80.0836C76.8286 80.4486 77.1663 80.6701 77.6087 80.7482C77.9229 80.8035 78.2003 80.7863 78.4409 80.6966C78.6815 80.6068 78.9022 80.4705 79.103 80.2877L79.5717 80.8067C79.0176 81.3998 78.3046 81.6195 77.4326 81.4658ZM78.1445 76.7819C77.7854 76.7186 77.4609 76.7969 77.1709 77.0168C76.8815 77.2335 76.6664 77.5724 76.5256 78.0335L79.1319 78.493L79.1437 78.4257C79.1978 77.9692 79.1376 77.5983 78.9631 77.313C78.7892 77.0245 78.5163 76.8475 78.1445 76.7819ZM82.2716 76.8552L82.1851 77.5142C82.6708 77.0842 83.2343 76.9257 83.8754 77.0388C84.975 77.2327 85.4202 77.9508 85.2111 79.1931L84.6048 82.6313L83.7152 82.4744L84.3223 79.0314C84.3852 78.6558 84.3476 78.3632 84.2093 78.1537C84.0743 77.9448 83.8288 77.809 83.473 77.7463C83.1845 77.6954 82.9177 77.7277 82.6725 77.8431C82.4274 77.9585 82.2219 78.1305 82.056 78.3591L81.4023 82.0666L80.5127 81.9097L81.4301 76.7068L82.2716 76.8552ZM88.1444 82.6059C88.4618 82.6618 88.7561 82.6146 89.0272 82.464C89.2984 82.3135 89.4722 82.0963 89.5487 81.8123L90.3902 81.9607C90.3216 82.256 90.169 82.5216 89.9324 82.7575C89.6958 82.9935 89.4046 83.1636 89.059 83.2679C88.7166 83.3728 88.369 83.3942 88.0164 83.332C87.3079 83.2071 86.7853 82.872 86.4484 82.3267C86.1153 81.7787 86.0211 81.0944 86.1658 80.2737L86.1921 80.1247C86.2814 79.6182 86.4538 79.1842 86.7093 78.8226C86.9647 78.4611 87.2848 78.2019 87.6695 78.0449C88.0573 77.8886 88.4885 77.8522 88.9629 77.9359C89.5464 78.0387 89.9996 78.2988 90.3227 78.7161C90.649 79.1339 90.7758 79.624 90.7031 80.1863L89.8616 80.0379C89.8953 79.6968 89.8157 79.3985 89.6227 79.143C89.4335 78.8849 89.1707 78.7261 88.8341 78.6668C88.382 78.5871 88.0022 78.6887 87.6945 78.9716C87.3905 79.2518 87.1843 79.6997 87.0758 80.3152L87.0461 80.4835C86.9404 81.083 86.9824 81.5664 87.1722 81.9337C87.3619 82.301 87.686 82.525 88.1444 82.6059ZM93.2434 84.2536C92.5381 84.1293 92.005 83.7973 91.644 83.2577C91.2836 82.7148 91.1718 82.0555 91.3085 81.2797L91.3374 81.1162C91.4284 80.6001 91.6073 80.1573 91.874 79.7879C92.1446 79.4158 92.4762 79.147 92.869 78.9816C93.2655 78.8135 93.6706 78.7659 94.0841 78.8389C94.7605 78.9581 95.247 79.2736 95.5435 79.7854C95.84 80.2971 95.9151 80.9681 95.7687 81.7984L95.7034 82.1687L92.1786 81.5472C92.101 82.0623 92.1769 82.5038 92.4062 82.8715C92.6394 83.2365 92.9771 83.458 93.4195 83.536C93.7337 83.5914 94.0111 83.5742 94.2517 83.4844C94.4923 83.3946 94.713 83.2584 94.9138 83.0756L95.3825 83.5946C94.8284 84.1877 94.1154 84.4074 93.2434 84.2536ZM93.9553 79.5698C93.5962 79.5065 93.2717 79.5848 92.9817 79.8047C92.6923 80.0214 92.4772 80.3603 92.3364 80.8213L94.9426 81.2809L94.9545 81.2136C95.0086 80.757 94.9484 80.3861 94.7739 80.1009C94.6 79.8124 94.3271 79.6353 93.9553 79.5698ZM100.525 80.0737L100.439 80.7328C100.924 80.3028 101.488 80.1443 102.129 80.2574C103.229 80.4513 103.674 81.1694 103.465 82.4117L102.858 85.8499L101.969 85.693L102.576 82.25C102.639 81.8744 102.601 81.5818 102.463 81.3723C102.328 81.1634 102.082 81.0276 101.727 80.9649C101.438 80.914 101.171 80.9463 100.926 81.0617C100.681 81.1771 100.475 81.3491 100.31 81.5777L99.6558 85.2852L98.7662 85.1283L99.6837 79.9254L100.525 80.0737ZM107.503 86.1383C107.085 86.4844 106.541 86.5983 105.871 86.4802C105.316 86.3824 104.921 86.1475 104.686 85.7755C104.455 85.4008 104.393 84.8975 104.501 84.2654L105.098 80.8801L105.988 81.037L105.395 84.3982C105.256 85.1868 105.507 85.6376 106.148 85.7507C106.828 85.8705 107.325 85.697 107.638 85.23L108.306 81.4456L109.195 81.6025L108.278 86.8054L107.431 86.6562L107.503 86.1383ZM111.388 81.9891L111.31 82.5704C111.771 82.1889 112.325 82.0552 112.972 82.1694C113.7 82.2977 114.146 82.6639 114.311 83.2681C114.528 83.0486 114.788 82.8862 115.091 82.7809C115.397 82.6762 115.739 82.6572 116.117 82.7239C117.259 82.9251 117.732 83.6317 117.538 84.8437L116.924 88.3299L116.034 88.1731L116.639 84.7397C116.705 84.3679 116.669 84.0756 116.531 83.8629C116.394 83.647 116.125 83.5037 115.724 83.4331C115.394 83.3748 115.103 83.4259 114.85 83.5862C114.597 83.7433 114.424 83.9855 114.33 84.3127L113.721 87.7652L112.827 87.6075L113.428 84.1982C113.561 83.4417 113.258 82.9981 112.517 82.8675C111.934 82.7646 111.491 82.9427 111.188 83.4017L110.519 87.2006L109.629 87.0437L110.546 81.8408L111.388 81.9891ZM123.123 86.8003C122.983 87.5953 122.688 88.2026 122.237 88.6222C121.787 89.0387 121.254 89.1926 120.638 89.0841C119.981 88.9682 119.514 88.6462 119.237 88.118L119.088 88.7115L118.27 88.5674L119.572 81.1813L120.462 81.3382L119.976 84.0935C120.414 83.7112 120.948 83.5757 121.58 83.6871C122.211 83.7985 122.665 84.1246 122.939 84.6656C123.217 85.2071 123.283 85.893 123.137 86.7233L123.123 86.8003ZM122.251 86.5424C122.358 85.9365 122.324 85.4479 122.148 85.0764C121.972 84.7049 121.665 84.4805 121.226 84.4031C120.639 84.2996 120.169 84.4978 119.817 84.9975L119.42 87.248C119.596 87.841 119.973 88.1884 120.55 88.2901C120.976 88.3653 121.337 88.2587 121.633 87.9703C121.928 87.682 122.134 87.206 122.251 86.5424ZM125.942 90.0193C125.237 89.8949 124.704 89.563 124.343 89.0233C123.982 88.4805 123.87 87.8212 124.007 87.0454L124.036 86.8819C124.127 86.3657 124.306 85.923 124.573 85.5535C124.843 85.1814 125.175 84.9127 125.568 84.7472C125.964 84.5792 126.369 84.5316 126.783 84.6045C127.459 84.7238 127.946 85.0393 128.242 85.551C128.539 86.0628 128.614 86.7338 128.467 87.5641L128.402 87.9343L124.877 87.3128C124.8 87.828 124.876 88.2694 125.105 88.6371C125.338 89.0022 125.676 89.2237 126.118 89.3017C126.432 89.3571 126.71 89.3399 126.95 89.2501C127.191 89.1603 127.412 89.024 127.612 88.8413L128.081 89.3602C127.527 89.9534 126.814 90.1731 125.942 90.0193ZM126.654 85.3354C126.295 85.2721 125.97 85.3504 125.68 85.5703C125.391 85.787 125.176 86.1259 125.035 86.587L127.641 87.0466L127.653 86.9792C127.707 86.5227 127.647 86.1518 127.473 85.8665C127.299 85.578 127.026 85.401 126.654 85.3354ZM132.314 86.502C132.183 86.4558 132.039 86.4189 131.882 86.3912C131.299 86.2883 130.859 86.4669 130.563 86.9271L129.912 90.6201L129.022 90.4632L129.94 85.2603L130.805 85.4129L130.714 86.0165C131.087 85.6031 131.542 85.4436 132.077 85.538C132.25 85.5686 132.378 85.6142 132.46 85.6749L132.314 86.502ZM139.56 88.2855L135.55 87.5784L135.687 86.8042L139.697 87.5113L139.56 88.2855ZM139.209 90.2811L135.198 89.5739L135.334 88.8046L139.344 89.5117L139.209 90.2811ZM145.309 93.335C145.303 93.2381 145.308 93.1448 145.324 93.055L145.386 92.7835C144.831 93.1416 144.286 93.2671 143.753 93.1599C143.296 93.0727 142.948 92.8625 142.709 92.5296C142.474 92.1939 142.407 91.8152 142.508 91.3934C142.637 90.8476 142.953 90.4605 143.456 90.2318C143.963 90.0006 144.584 89.9497 145.318 90.0791L146.226 90.2442L146.356 89.8408C146.443 89.5355 146.426 89.2795 146.303 89.0729C146.185 88.8636 145.974 88.7289 145.671 88.6688C145.374 88.6098 145.096 88.6369 144.838 88.7501C144.584 88.8606 144.409 89.0364 144.314 89.2774L143.438 89.1279C143.52 88.8284 143.687 88.58 143.936 88.3828C144.186 88.1823 144.486 88.0467 144.836 87.9762C145.186 87.9024 145.535 87.8995 145.884 87.9675C146.423 88.0759 146.816 88.3153 147.061 88.6858C147.307 89.0531 147.36 89.4938 147.219 90.0079L146.342 92.5107L146.253 92.8767C146.215 93.0519 146.203 93.23 146.218 93.411L146.194 93.4911L145.309 93.335ZM144.062 92.421C144.34 92.4766 144.614 92.4573 144.885 92.3629C145.16 92.266 145.409 92.1099 145.632 91.8947L146.009 90.8555L145.351 90.7345C144.803 90.6378 144.368 90.6503 144.045 90.772C143.723 90.8937 143.515 91.1098 143.42 91.4204C143.349 91.6589 143.369 91.8724 143.481 92.0608C143.597 92.2465 143.791 92.3666 144.062 92.421Z" fill="black"/>
<path d="M28.8862 212.328L25.9529 211.811L24.9719 213.522L24.0198 213.354L27.9279 206.824L28.7358 206.967L30.1797 214.44L29.2324 214.273L28.8862 212.328ZM26.3658 211.1L28.746 211.52L28.1309 208.035L26.3658 211.1ZM33.1807 214.32C33.4981 214.376 33.7923 214.329 34.0635 214.178C34.3346 214.028 34.5085 213.81 34.585 213.526L35.4265 213.675C35.3579 213.97 35.2053 214.236 34.9687 214.472C34.732 214.708 34.4409 214.878 34.0953 214.982C33.7529 215.087 33.4053 215.108 33.0527 215.046C32.3442 214.921 31.8216 214.586 31.4847 214.041C31.1516 213.493 31.0574 212.809 31.2021 211.988L31.2284 211.839C31.3177 211.332 31.4901 210.898 31.7456 210.537C32.001 210.175 32.3211 209.916 32.7057 209.759C33.0936 209.603 33.5248 209.566 33.9992 209.65C34.5827 209.753 35.0359 210.013 35.359 210.43C35.6853 210.848 35.8121 211.338 35.7394 211.9L34.8979 211.752C34.9316 211.411 34.8519 211.113 34.659 210.857C34.4698 210.599 34.2069 210.44 33.8703 210.381C33.4183 210.301 33.0385 210.403 32.7308 210.686C32.4268 210.966 32.2206 211.414 32.1121 212.029L32.0824 212.198C31.9767 212.797 32.0187 213.281 32.2085 213.648C32.3982 214.015 32.7223 214.239 33.1807 214.32ZM38.0146 213.338L37.3542 213.821L37.032 215.649L36.1424 215.492L37.4447 208.106L38.3343 208.263L37.5466 212.73L38.1236 212.242L40.0459 210.815L41.1279 211.006L38.7202 212.823L40.4461 216.251L39.4026 216.067L38.0146 213.338ZM42.8878 211.316L42.8014 211.976C43.2871 211.546 43.8505 211.387 44.4917 211.5C45.5912 211.694 46.0364 212.412 45.8273 213.654L45.2211 217.093L44.3315 216.936L44.9386 213.493C45.0015 213.117 44.9638 212.825 44.8256 212.615C44.6905 212.406 44.4451 212.27 44.0892 212.208C43.8007 212.157 43.5339 212.189 43.2888 212.304C43.0437 212.42 42.8381 212.592 42.6722 212.82L42.0185 216.528L41.1289 216.371L42.0463 211.168L42.8878 211.316ZM46.7942 214.638C46.8841 214.128 47.0643 213.687 47.3349 213.315C47.6086 212.944 47.9429 212.679 48.3378 212.52C48.7358 212.363 49.164 212.324 49.6225 212.405C50.3309 212.53 50.8599 212.876 51.2094 213.443C51.5621 214.011 51.6667 214.702 51.5231 215.516L51.5121 215.579C51.4228 216.086 51.2447 216.523 50.978 216.893C50.715 217.26 50.3825 217.523 49.9807 217.684C49.5821 217.845 49.1488 217.884 48.6807 217.802C47.9755 217.677 47.4465 217.331 47.0938 216.763C46.7443 216.196 46.6408 215.508 46.7832 214.701L46.7942 214.638ZM47.67 214.902C47.5682 215.479 47.6196 215.965 47.8241 216.362C48.0317 216.759 48.36 216.997 48.8088 217.076C49.2608 217.155 49.6509 217.042 49.9792 216.737C50.308 216.428 50.5287 215.954 50.6411 215.316C50.7418 214.746 50.6869 214.26 50.4766 213.859C50.2701 213.456 49.9424 213.215 49.4936 213.136C49.0544 213.058 48.6694 213.171 48.3385 213.472C48.0076 213.774 47.7847 214.251 47.67 214.902ZM57.002 217.906L58.7034 214.105L59.593 214.262L57.1609 219.198L56.4396 219.071L55.8702 214.905L53.9439 218.631L53.2226 218.503L52.6301 213.034L53.5149 213.19L53.8524 217.266L55.7509 213.585L56.4674 213.711L57.002 217.906ZM60.551 219.796L59.6614 219.639L60.9637 212.253L61.8533 212.41L60.551 219.796ZM64.1213 220.524C63.416 220.4 62.8829 220.068 62.5219 219.528C62.1614 218.986 62.0496 218.326 62.1864 217.55L62.2152 217.387C62.3062 216.871 62.4851 216.428 62.7519 216.059C63.0225 215.686 63.3541 215.418 63.7469 215.252C64.1434 215.084 64.5485 215.037 64.962 215.11C65.6384 215.229 66.1249 215.544 66.4214 216.056C66.7179 216.568 66.7929 217.239 66.6465 218.069L66.5812 218.439L63.0565 217.818C62.9789 218.333 63.0548 218.774 63.2841 219.142C63.5172 219.507 63.855 219.729 64.2974 219.807C64.6115 219.862 64.8889 219.845 65.1295 219.755C65.3701 219.665 65.5908 219.529 65.7916 219.346L66.2604 219.865C65.7063 220.458 64.9932 220.678 64.1213 220.524ZM64.8331 215.84C64.4741 215.777 64.1496 215.855 63.8596 216.075C63.5701 216.292 63.355 216.631 63.2142 217.092L65.8205 217.552L65.8324 217.484C65.8864 217.028 65.8262 216.657 65.6518 216.372C65.4779 216.083 65.205 215.906 64.8331 215.84ZM67.4513 218.285C67.592 217.487 67.8942 216.879 68.3578 216.462C68.822 216.041 69.3603 215.885 69.9726 215.993C70.5817 216.1 71.0274 216.394 71.3098 216.873L71.788 214.161L72.6776 214.318L71.3752 221.704L70.5577 221.56L70.6128 220.995C70.1801 221.368 69.6464 221.499 69.0116 221.387C68.409 221.28 67.9604 220.947 67.666 220.386C67.3747 219.825 67.2992 219.148 67.4394 218.353L67.4513 218.285ZM68.3231 218.543C68.2191 219.133 68.2595 219.616 68.4443 219.993C68.6292 220.369 68.9364 220.595 69.366 220.671C69.9302 220.77 70.3868 220.59 70.7357 220.129L71.1571 217.739C70.9775 217.202 70.6121 216.884 70.0607 216.787C69.6247 216.71 69.2552 216.819 68.9522 217.112C68.6492 217.406 68.4395 217.883 68.3231 218.543ZM73.0149 219.266C73.1579 218.455 73.459 217.844 73.9183 217.433C74.3782 217.018 74.9175 216.865 75.5362 216.974C76.1709 217.086 76.6266 217.398 76.9033 217.909L77.0484 217.34L77.861 217.483L76.9656 222.561C76.8469 223.234 76.553 223.73 76.0839 224.047C75.618 224.365 75.0484 224.464 74.3752 224.345C74.0002 224.279 73.6472 224.134 73.3165 223.911C72.9857 223.687 72.7503 223.419 72.6103 223.107L73.1661 222.655C73.4645 223.193 73.8894 223.511 74.4408 223.608C74.8735 223.685 75.2316 223.622 75.515 223.421C75.8016 223.22 75.9839 222.899 76.0619 222.456L76.1408 222.009C75.7126 222.357 75.1907 222.476 74.5752 222.368C73.9661 222.26 73.5157 221.928 73.2239 221.371C72.9353 220.814 72.8656 220.113 73.0149 219.266ZM73.8915 219.525C73.788 220.112 73.8268 220.595 74.0079 220.974C74.1896 221.349 74.4968 221.575 74.9295 221.652C75.4905 221.751 75.9474 221.568 76.3002 221.105L76.719 218.73C76.5342 218.185 76.1692 217.864 75.6243 217.768C75.1915 217.692 74.8236 217.8 74.5206 218.094C74.2176 218.388 74.0079 218.865 73.8915 219.525ZM80.4321 223.4C79.7269 223.276 79.1937 222.944 78.8327 222.404C78.4723 221.862 78.3605 221.202 78.4973 220.426L78.5261 220.263C78.6171 219.747 78.796 219.304 79.0628 218.935C79.3333 218.563 79.665 218.294 80.0578 218.128C80.4543 217.96 80.8593 217.913 81.2729 217.986C81.9493 218.105 82.4357 218.42 82.7322 218.932C83.0288 219.444 83.1038 220.115 82.9574 220.945L82.8921 221.315L79.3674 220.694C79.2898 221.209 79.3656 221.651 79.595 222.018C79.8281 222.383 80.1659 222.605 80.6083 222.683C80.9224 222.738 81.1998 222.721 81.4404 222.631C81.681 222.541 81.9017 222.405 82.1025 222.222L82.5713 222.741C82.0171 223.334 81.3041 223.554 80.4321 223.4ZM81.144 218.717C80.785 218.653 80.4604 218.732 80.1704 218.951C79.881 219.168 79.6659 219.507 79.5251 219.968L82.1314 220.428L82.1433 220.36C82.1973 219.904 82.1371 219.533 81.9626 219.248C81.7887 218.959 81.5159 218.782 81.144 218.717ZM85.2663 218.789L85.1886 219.37C85.6492 218.989 86.2033 218.855 86.8509 218.969C87.5786 219.097 88.0247 219.464 88.1892 220.068C88.4064 219.848 88.6664 219.686 88.9693 219.581C89.2753 219.476 89.6175 219.457 89.9957 219.524C91.137 219.725 91.6107 220.432 91.4168 221.643L90.8021 225.13L89.9125 224.973L90.5179 221.54C90.5834 221.168 90.5474 220.875 90.4097 220.663C90.2726 220.447 90.0037 220.304 89.6029 220.233C89.2728 220.175 88.9811 220.226 88.7281 220.386C88.4756 220.543 88.3024 220.785 88.2083 221.112L87.5995 224.565L86.7051 224.407L87.3063 220.998C87.4397 220.241 87.1361 219.798 86.3956 219.667C85.8121 219.564 85.3692 219.743 85.0668 220.202L84.397 224L83.5074 223.844L84.4248 218.641L85.2663 218.789ZM94.2906 225.844C93.5853 225.72 93.0522 225.388 92.6912 224.848C92.3308 224.305 92.219 223.646 92.3558 222.87L92.3846 222.707C92.4756 222.19 92.6545 221.748 92.9213 221.378C93.1918 221.006 93.5235 220.737 93.9162 220.572C94.3128 220.404 94.7178 220.356 95.1314 220.429C95.8078 220.549 96.2942 220.864 96.5907 221.376C96.8872 221.887 96.9623 222.559 96.8159 223.389L96.7506 223.759L93.2259 223.138C93.1482 223.653 93.2241 224.094 93.4535 224.462C93.6866 224.827 94.0243 225.048 94.4667 225.126C94.7809 225.182 95.0583 225.165 95.2989 225.075C95.5395 224.985 95.7602 224.849 95.961 224.666L96.4297 225.185C95.8756 225.778 95.1626 225.998 94.2906 225.844ZM95.0025 221.16C94.6434 221.097 94.3189 221.175 94.0289 221.395C93.7395 221.612 93.5244 221.951 93.3836 222.412L95.9899 222.871L96.0017 222.804C96.0558 222.347 95.9956 221.977 95.8211 221.691C95.6472 221.403 95.3743 221.226 95.0025 221.16ZM99.1296 221.233L99.0431 221.892C99.5288 221.462 100.092 221.304 100.733 221.417C101.833 221.611 102.278 222.329 102.069 223.571L101.463 227.01L100.573 226.853L101.18 223.41C101.243 223.034 101.206 222.741 101.067 222.532C100.932 222.323 100.687 222.187 100.331 222.125C100.042 222.074 99.7757 222.106 99.5305 222.221C99.2854 222.337 99.0799 222.509 98.914 222.737L98.2603 226.445L97.3707 226.288L98.2881 221.085L99.1296 221.233ZM105.151 220.996L104.929 222.256L105.9 222.427L105.779 223.115L104.808 222.944L104.239 226.17C104.202 226.379 104.217 226.543 104.285 226.664C104.354 226.782 104.492 226.859 104.701 226.896C104.803 226.914 104.948 226.92 105.134 226.913L105.007 227.634C104.761 227.657 104.528 227.649 104.307 227.61C103.909 227.54 103.631 227.367 103.471 227.091C103.312 226.815 103.271 226.456 103.349 226.013L103.918 222.787L102.971 222.62L103.092 221.932L104.039 222.099L104.261 220.839L105.151 220.996ZM110.228 223.19L110.141 223.849C110.627 223.419 111.191 223.261 111.832 223.374C112.931 223.568 113.377 224.286 113.167 225.528L112.561 228.966L111.672 228.81L112.279 225.367C112.342 224.991 112.304 224.698 112.166 224.489C112.031 224.28 111.785 224.144 111.429 224.081C111.141 224.031 110.874 224.063 110.629 224.178C110.384 224.294 110.178 224.466 110.012 224.694L109.359 228.402L108.469 228.245L109.386 223.042L110.228 223.19ZM117.206 229.255C116.788 229.601 116.244 229.715 115.574 229.597C115.019 229.499 114.624 229.264 114.389 228.892C114.158 228.517 114.096 228.014 114.204 227.382L114.801 223.997L115.691 224.154L115.098 227.515C114.959 228.303 115.21 228.754 115.851 228.867C116.531 228.987 117.027 228.814 117.341 228.347L118.008 224.562L118.898 224.719L117.98 229.922L117.134 229.773L117.206 229.255ZM121.091 225.106L121.013 225.687C121.474 225.305 122.028 225.172 122.675 225.286C123.403 225.414 123.849 225.781 124.014 226.385C124.231 226.165 124.491 226.003 124.794 225.897C125.1 225.793 125.442 225.774 125.82 225.84C126.961 226.042 127.435 226.748 127.241 227.96L126.626 231.447L125.737 231.29L126.342 227.856C126.408 227.484 126.372 227.192 126.234 226.979C126.097 226.764 125.828 226.62 125.427 226.55C125.097 226.491 124.805 226.542 124.552 226.703C124.3 226.86 124.127 227.102 124.033 227.429L123.424 230.882L122.529 230.724L123.131 227.315C123.264 226.558 122.96 226.115 122.22 225.984C121.636 225.881 121.194 226.059 120.891 226.518L120.221 230.317L119.332 230.16L120.249 224.957L121.091 225.106ZM132.826 229.917C132.686 230.712 132.39 231.319 131.94 231.739C131.489 232.155 130.956 232.309 130.341 232.201C129.684 232.085 129.217 231.763 128.94 231.235L128.79 231.828L127.973 231.684L129.275 224.298L130.165 224.455L129.679 227.21C130.117 226.828 130.651 226.692 131.283 226.804C131.914 226.915 132.367 227.241 132.642 227.782C132.92 228.324 132.986 229.01 132.84 229.84L132.826 229.917ZM131.954 229.659C132.061 229.053 132.027 228.564 131.851 228.193C131.675 227.822 131.368 227.597 130.928 227.52C130.342 227.416 129.872 227.614 129.52 228.114L129.123 230.365C129.299 230.958 129.676 231.305 130.253 231.407C130.679 231.482 131.04 231.375 131.336 231.087C131.631 230.799 131.837 230.323 131.954 229.659ZM135.645 233.136C134.94 233.012 134.406 232.68 134.045 232.14C133.685 231.597 133.573 230.938 133.71 230.162L133.739 229.998C133.83 229.482 134.009 229.04 134.275 228.67C134.546 228.298 134.878 228.029 135.27 227.864C135.667 227.696 136.072 227.648 136.486 227.721C137.162 227.84 137.648 228.156 137.945 228.668C138.241 229.179 138.317 229.85 138.17 230.681L138.105 231.051L134.58 230.429C134.502 230.945 134.578 231.386 134.808 231.754C135.041 232.119 135.379 232.34 135.821 232.418C136.135 232.474 136.413 232.456 136.653 232.367C136.894 232.277 137.114 232.141 137.315 231.958L137.784 232.477C137.23 233.07 136.517 233.29 135.645 233.136ZM136.357 228.452C135.998 228.389 135.673 228.467 135.383 228.687C135.094 228.904 134.879 229.243 134.738 229.704L137.344 230.163L137.356 230.096C137.41 229.639 137.35 229.268 137.175 228.983C137.001 228.695 136.729 228.518 136.357 228.452ZM142.016 229.619C141.886 229.572 141.742 229.535 141.585 229.508C141.001 229.405 140.562 229.584 140.266 230.044L139.614 233.737L138.725 233.58L139.642 228.377L140.508 228.53L140.416 229.133C140.79 228.72 141.245 228.56 141.78 228.655C141.953 228.685 142.08 228.731 142.162 228.791L142.016 229.619ZM149.263 231.402L145.253 230.695L145.389 229.921L149.4 230.628L149.263 231.402ZM148.911 233.398L144.901 232.691L145.037 231.921L149.047 232.628L148.911 233.398ZM157.005 234.146C156.847 234.666 156.617 235.12 156.314 235.506C156.011 235.892 155.68 236.16 155.32 236.308C154.96 236.456 154.584 236.49 154.191 236.411C153.565 236.287 153.14 235.97 152.916 235.457L152.631 236.032L151.828 235.89L154.415 228.731L155.285 228.884L154.274 231.552C154.772 231.164 155.318 231.029 155.912 231.147C156.41 231.248 156.767 231.501 156.983 231.906C157.2 232.311 157.261 232.827 157.166 233.455C157.133 233.661 157.089 233.858 157.032 234.046L157.005 234.146ZM156.267 233.495C156.359 233.028 156.344 232.657 156.22 232.381C156.098 232.101 155.866 231.925 155.525 231.852C154.986 231.743 154.479 231.935 154.006 232.427L153.217 234.623C153.316 235.186 153.629 235.52 154.156 235.626C154.493 235.699 154.808 235.65 155.099 235.48C155.393 235.311 155.64 235.045 155.839 234.684C156.039 234.319 156.182 233.923 156.267 233.495ZM163.449 234.067L165.344 234.401L165.047 235.216L163.157 234.883L162.382 237.027L161.507 236.873L162.282 234.729L160.387 234.395L160.685 233.58L162.574 233.913L163.291 231.932L164.166 232.086L163.449 234.067ZM170.289 239.145L169.414 238.991L171.484 233.268L169.508 233.593L169.806 232.773L172.568 232.294L172.722 232.321L170.289 239.145Z" fill="black"/>
<path d="M57.884 170.878C57.052 170.79 56.4258 170.613 56.0053 170.346C55.5875 170.076 55.3356 169.698 55.2497 169.21C55.1525 168.659 55.2918 168.165 55.6677 167.729C56.0462 167.288 56.5881 167.006 57.2934 166.882C57.7742 166.797 58.2186 166.814 58.6264 166.934C59.0375 167.053 59.3744 167.258 59.6373 167.549C59.9033 167.839 60.0705 168.178 60.1389 168.566L59.2108 168.73C59.1362 168.307 58.9431 167.999 58.6314 167.806C58.3192 167.61 57.9178 167.555 57.4273 167.641C56.9721 167.722 56.6341 167.885 56.4132 168.133C56.195 168.376 56.1173 168.676 56.18 169.031C56.2303 169.317 56.3932 169.538 56.6687 169.694C56.9468 169.847 57.3904 169.953 57.9995 170.015C58.6118 170.075 59.0989 170.176 59.461 170.317C59.8256 170.454 60.1097 170.641 60.3131 170.876C60.5198 171.111 60.6544 171.406 60.7172 171.762C60.8172 172.329 60.6763 172.823 60.2944 173.244C59.9119 173.662 59.3504 173.936 58.6099 174.067C58.129 174.152 57.6641 174.139 57.2151 174.03C56.7656 173.918 56.3988 173.721 56.1146 173.441C55.8337 173.16 55.6574 172.816 55.5856 172.409L56.5136 172.245C56.5882 172.668 56.8028 172.976 57.1573 173.168C57.5144 173.356 57.9542 173.404 58.4768 173.312C58.964 173.226 59.32 173.061 59.5446 172.816C59.7692 172.572 59.8513 172.278 59.7908 171.935C59.7303 171.592 59.5635 171.349 59.2903 171.205C59.0165 171.058 58.5477 170.949 57.884 170.878ZM64.2552 173.071C63.55 173.196 62.9354 173.066 62.4116 172.682C61.8873 172.296 61.5567 171.714 61.4199 170.939L61.3911 170.775C61.3001 170.259 61.3167 169.782 61.4411 169.343C61.568 168.901 61.7878 168.535 62.1003 168.245C62.4154 167.952 62.7797 167.769 63.1933 167.696C63.8697 167.576 64.4347 167.706 64.8884 168.086C65.342 168.465 65.642 169.07 65.7884 169.901L65.8537 170.271L62.329 170.892C62.4323 171.403 62.6545 171.792 62.9958 172.059C63.3397 172.322 63.7329 172.415 64.1753 172.337C64.4894 172.281 64.7442 172.17 64.9396 172.004C65.135 171.837 65.2958 171.634 65.4219 171.393L66.0399 171.72C65.7221 172.467 65.1272 172.918 64.2552 173.071ZM63.3222 168.427C62.9631 168.49 62.685 168.674 62.4877 168.98C62.2898 169.283 62.2036 169.675 62.229 170.156L64.8353 169.697L64.8234 169.629C64.718 169.182 64.5346 168.854 64.2731 168.646C64.011 168.434 63.694 168.361 63.3222 168.427ZM66.6186 169.829C66.4745 169.011 66.5481 168.332 66.8395 167.791C67.1304 167.248 67.5916 166.92 68.2231 166.809C68.8386 166.7 69.3608 166.821 69.7895 167.172L69.7356 166.641L70.553 166.497L71.8232 173.7L70.9336 173.857L70.4961 171.376C70.2048 171.824 69.7611 172.101 69.1648 172.206C68.5365 172.316 67.9918 172.161 67.5309 171.74C67.0725 171.315 66.7721 170.699 66.6297 169.891L66.6186 169.829ZM67.526 169.773C67.6312 170.369 67.8387 170.815 68.1487 171.111C68.4619 171.406 68.8316 171.516 69.258 171.441C69.7869 171.347 70.1496 171.042 70.346 170.525L69.8966 167.976C69.5337 167.568 69.0925 167.409 68.5732 167.501C68.1436 167.576 67.8325 167.808 67.6397 168.196C67.4463 168.58 67.4085 169.106 67.526 169.773ZM76.02 170.367C75.7456 170.835 75.2734 171.129 74.6034 171.247C74.0488 171.345 73.5974 171.259 73.2491 170.99C72.9035 170.717 72.6734 170.265 72.5589 169.634L71.962 166.249L72.8516 166.092L73.4442 169.453C73.5833 170.242 73.9734 170.579 74.6145 170.466C75.2942 170.347 75.7015 170.014 75.8366 169.467L75.1693 165.683L76.0589 165.526L76.9763 170.729L76.13 170.878L76.02 170.367ZM80.5084 170.206C79.8031 170.33 79.1886 170.2 78.6648 169.817C78.1405 169.43 77.8099 168.848 77.6731 168.073L77.6443 167.909C77.5532 167.393 77.5699 166.916 77.6942 166.477C77.8212 166.035 78.0409 165.669 78.3534 165.379C78.6686 165.086 79.0329 164.903 79.4465 164.83C80.1229 164.71 80.6879 164.841 81.1416 165.22C81.5952 165.599 81.8952 166.204 82.0416 167.035L82.1069 167.405L78.5822 168.026C78.6854 168.537 78.9077 168.926 79.249 169.193C79.5929 169.456 79.9861 169.549 80.4285 169.471C80.7426 169.416 80.9974 169.305 81.1928 169.138C81.3881 168.971 81.5489 168.768 81.6751 168.527L82.2931 168.855C81.9753 169.601 81.3804 170.052 80.5084 170.206ZM79.5753 165.561C79.2163 165.624 78.9381 165.809 78.7408 166.114C78.543 166.417 78.4568 166.809 78.4822 167.29L81.0884 166.831L81.0766 166.764C80.9712 166.316 80.7878 165.988 80.5263 165.78C80.2642 165.568 79.9472 165.495 79.5753 165.561ZM83.4786 164.218L83.6228 164.867C83.9321 164.297 84.4074 163.955 85.0485 163.842C86.1481 163.648 86.8121 164.171 87.0404 165.41L87.6467 168.848L86.7571 169.005L86.15 165.562C86.0807 165.187 85.9452 164.925 85.7436 164.775C85.5453 164.625 85.2682 164.582 84.9124 164.644C84.6238 164.695 84.3841 164.817 84.1933 165.009C84.0024 165.201 83.8681 165.433 83.7904 165.705L84.4441 169.412L83.5545 169.569L82.6371 164.366L83.4786 164.218ZM90.9642 167.613C91.2815 167.557 91.5419 167.412 91.7452 167.178C91.9485 166.944 92.0375 166.68 92.0123 166.387L92.8538 166.239C92.8904 166.54 92.8378 166.842 92.6961 167.144C92.5545 167.447 92.3391 167.706 92.05 167.923C91.7641 168.138 91.4448 168.277 91.0922 168.339C90.3837 168.464 89.778 168.328 89.2749 167.931C88.7745 167.53 88.452 166.919 88.3072 166.098L88.281 165.949C88.1916 165.443 88.2052 164.976 88.3216 164.549C88.438 164.122 88.6501 163.769 88.9579 163.49C89.2689 163.21 89.6616 163.029 90.1361 162.945C90.7195 162.842 91.2344 162.931 91.6807 163.213C92.1302 163.494 92.4169 163.911 92.5409 164.464L91.6994 164.613C91.6144 164.281 91.4376 164.028 91.1689 163.854C90.9029 163.676 90.6015 163.616 90.2649 163.676C89.8129 163.755 89.4907 163.981 89.2983 164.352C89.1086 164.719 89.068 165.211 89.1765 165.826L89.2062 165.994C89.3119 166.594 89.5167 167.034 89.8206 167.314C90.1246 167.594 90.5057 167.694 90.9642 167.613ZM96.3192 167.418C95.6139 167.542 94.9994 167.412 94.4756 167.029C93.9512 166.642 93.6207 166.061 93.4839 165.285L93.455 165.121C93.364 164.605 93.3807 164.128 93.505 163.69C93.632 163.247 93.8517 162.881 94.1642 162.592C94.4794 162.298 94.8437 162.115 95.2572 162.042C95.9337 161.923 96.4987 162.053 96.9523 162.432C97.406 162.812 97.706 163.417 97.8524 164.247L97.9177 164.617L94.393 165.239C94.4962 165.749 94.7185 166.138 95.0598 166.405C95.4037 166.668 95.7968 166.761 96.2392 166.683C96.5534 166.628 96.8082 166.517 97.0035 166.35C97.1989 166.183 97.3597 165.98 97.4859 165.739L98.1039 166.067C97.786 166.814 97.1911 167.264 96.3192 167.418ZM95.3861 162.773C95.0271 162.836 94.7489 163.021 94.5516 163.326C94.3538 163.629 94.2675 164.021 94.2929 164.503L96.8992 164.043L96.8873 163.976C96.782 163.528 96.5986 163.2 96.337 162.992C96.075 162.78 95.758 162.707 95.3861 162.773ZM101.732 160.999L101.876 161.648C102.186 161.078 102.661 160.736 103.302 160.623C104.402 160.429 105.066 160.952 105.294 162.191L105.9 165.629L105.011 165.786L104.404 162.343C104.334 161.968 104.199 161.706 103.997 161.557C103.799 161.407 103.522 161.363 103.166 161.426C102.877 161.477 102.638 161.598 102.447 161.791C102.256 161.983 102.122 162.215 102.044 162.486L102.698 166.194L101.808 166.351L100.891 161.148L101.732 160.999ZM110.363 164.312C110.089 164.78 109.617 165.073 108.947 165.191C108.392 165.289 107.941 165.203 107.592 164.934C107.247 164.661 107.017 164.209 106.902 163.578L106.305 160.193L107.195 160.036L107.787 163.397C107.927 164.186 108.317 164.524 108.958 164.411C109.637 164.291 110.045 163.958 110.18 163.412L109.513 159.627L110.402 159.471L111.32 164.674L110.473 164.823L110.363 164.312ZM112.595 159.084L112.721 159.657C113.023 159.141 113.498 158.826 114.146 158.711C114.873 158.583 115.418 158.775 115.779 159.286C115.908 159.005 116.097 158.764 116.345 158.561C116.597 158.358 116.912 158.224 117.29 158.157C118.432 157.956 119.118 158.458 119.351 159.663L119.965 163.149L119.076 163.306L118.471 159.873C118.405 159.501 118.271 159.238 118.069 159.086C117.866 158.93 117.565 158.887 117.164 158.958C116.834 159.016 116.577 159.164 116.394 159.401C116.211 159.635 116.131 159.921 116.154 160.261L116.763 163.714L115.869 163.871L115.267 160.462C115.134 159.706 114.697 159.393 113.956 159.523C113.373 159.626 113.018 159.945 112.891 160.48L113.56 164.278L112.671 164.435L111.753 159.232L112.595 159.084ZM125.268 159.591C125.408 160.386 125.338 161.058 125.058 161.606C124.778 162.152 124.329 162.479 123.714 162.587C123.057 162.703 122.508 162.56 122.067 162.159L122.129 162.767L121.312 162.912L120.01 155.526L120.899 155.369L121.385 158.124C121.665 157.615 122.121 157.305 122.753 157.194C123.385 157.082 123.922 157.234 124.365 157.648C124.812 158.062 125.108 158.684 125.255 159.514L125.268 159.591ZM124.361 159.647C124.254 159.041 124.054 158.594 123.762 158.305C123.47 158.016 123.104 157.91 122.665 157.988C122.078 158.091 121.705 158.438 121.544 159.028L121.941 161.278C122.31 161.775 122.783 161.973 123.36 161.871C123.786 161.796 124.089 161.572 124.268 161.2C124.447 160.828 124.478 160.311 124.361 159.647ZM129.018 161.652C128.313 161.776 127.698 161.647 127.174 161.263C126.65 160.876 126.319 160.295 126.183 159.519L126.154 159.356C126.063 158.84 126.079 158.362 126.204 157.924C126.331 157.482 126.55 157.116 126.863 156.826C127.178 156.532 127.542 156.349 127.956 156.276C128.632 156.157 129.197 156.287 129.651 156.666C130.105 157.046 130.405 157.651 130.551 158.481L130.616 158.851L127.092 159.473C127.195 159.984 127.417 160.372 127.758 160.639C128.102 160.903 128.496 160.995 128.938 160.917C129.252 160.862 129.507 160.751 129.702 160.584C129.898 160.418 130.058 160.214 130.185 159.974L130.803 160.301C130.485 161.048 129.89 161.498 129.018 161.652ZM128.085 157.007C127.726 157.07 127.448 157.255 127.25 157.561C127.052 157.863 126.966 158.255 126.992 158.737L129.598 158.277L129.586 158.21C129.481 157.763 129.297 157.435 129.036 157.226C128.774 157.015 128.457 156.942 128.085 157.007ZM133.802 156.168C133.664 156.169 133.516 156.183 133.359 156.211C132.775 156.314 132.423 156.632 132.302 157.166L132.954 160.859L132.064 161.016L131.147 155.813L132.012 155.66L132.133 156.259C132.342 155.742 132.715 155.437 133.25 155.343C133.423 155.312 133.559 155.311 133.656 155.34L133.802 156.168ZM141.222 155.365L137.212 156.072L137.075 155.298L141.085 154.591L141.222 155.365ZM141.574 157.361L137.563 158.068L137.428 157.298L141.438 156.591L141.574 157.361ZM149.435 155.295C149.465 155.839 149.404 156.344 149.251 156.81C149.099 157.277 148.879 157.641 148.591 157.903C148.303 158.165 147.962 158.327 147.566 158.386C146.935 158.484 146.427 158.331 146.042 157.926L145.971 158.564L145.168 158.705L145.149 151.093L146.019 150.939L145.982 153.792C146.317 153.257 146.784 152.943 147.383 152.851C147.885 152.775 148.307 152.891 148.649 153.198C148.99 153.504 149.224 153.969 149.351 154.591C149.39 154.796 149.415 154.996 149.427 155.192L149.435 155.295ZM148.519 154.936C148.446 154.466 148.305 154.123 148.094 153.905C147.884 153.685 147.605 153.598 147.26 153.646C146.716 153.729 146.306 154.082 146.029 154.706L146.039 157.039C146.325 157.534 146.733 157.742 147.264 157.661C147.606 157.614 147.885 157.461 148.1 157.201C148.319 156.941 148.46 156.607 148.524 156.2C148.587 155.789 148.585 155.367 148.519 154.936Z" fill="black"/>
<path d="M33.2837 165.073L30.3504 165.59L30.0138 167.533L29.0617 167.701L30.5008 160.228L31.3087 160.086L35.2216 166.615L34.2743 166.782L33.2837 165.073ZM30.4954 164.781L32.8756 164.361L31.1057 161.297L30.4954 164.781ZM38.0005 165.476C38.3179 165.42 38.5782 165.275 38.7815 165.04C38.9848 164.806 39.0739 164.543 39.0486 164.25L39.8902 164.101C39.9267 164.402 39.8741 164.704 39.7325 165.007C39.5908 165.309 39.3754 165.569 39.0863 165.785C38.8004 166.001 38.4812 166.14 38.1285 166.202C37.4201 166.327 36.8143 166.191 36.3113 165.793C35.8109 165.392 35.4883 164.782 35.3436 163.961L35.3173 163.812C35.228 163.305 35.2415 162.838 35.3579 162.411C35.4744 161.984 35.6864 161.631 35.9942 161.352C36.3052 161.073 36.6979 160.891 37.1724 160.807C37.7558 160.704 38.2707 160.794 38.717 161.075C39.1665 161.356 39.4533 161.774 39.5773 162.327L38.7358 162.475C38.6508 162.143 38.4739 161.89 38.2052 161.716C37.9392 161.538 37.6379 161.479 37.3013 161.538C36.8493 161.618 36.5271 161.843 36.3347 162.214C36.1449 162.582 36.1043 163.073 36.2128 163.689L36.2425 163.857C36.3482 164.456 36.553 164.896 36.857 165.176C37.1609 165.457 37.5421 165.556 38.0005 165.476ZM42.2069 162.899L41.7517 163.58L42.0739 165.407L41.1843 165.564L39.8819 158.178L40.7715 158.021L41.5592 162.488L41.9344 161.832L43.253 159.834L44.335 159.643L42.6938 162.174L45.488 164.805L44.4445 164.989L42.2069 162.899ZM46.0949 159.333L46.2391 159.982C46.5484 159.412 47.0237 159.07 47.6648 158.957C48.7644 158.763 49.4284 159.286 49.6567 160.525L50.263 163.963L49.3734 164.12L48.7663 160.677C48.697 160.302 48.5615 160.04 48.36 159.891C48.1616 159.741 47.8845 159.697 47.5287 159.76C47.2401 159.81 47.0005 159.932 46.8096 160.124C46.6187 160.317 46.4844 160.549 46.4067 160.82L47.0604 164.528L46.1708 164.684L45.2534 159.482L46.0949 159.333ZM50.9018 161.118C50.8119 160.609 50.8305 160.133 50.9574 159.691C51.0876 159.248 51.3111 158.884 51.6279 158.6C51.948 158.316 52.3372 158.133 52.7956 158.052C53.5041 157.928 54.1196 158.072 54.642 158.486C55.1677 158.899 55.5023 159.512 55.6459 160.326L55.6569 160.389C55.7463 160.895 55.7287 161.368 55.6044 161.806C55.4827 162.241 55.2605 162.602 54.9379 162.891C54.6184 163.178 54.2246 163.364 53.7566 163.446C53.0513 163.57 52.4359 163.426 51.9102 163.013C51.3877 162.599 51.0553 161.989 50.9128 161.181L50.9018 161.118ZM51.8148 161.066C51.9166 161.643 52.1313 162.083 52.459 162.386C52.7899 162.688 53.1798 162.799 53.6286 162.72C54.0806 162.64 54.4085 162.401 54.6124 162.001C54.8158 161.598 54.8612 161.078 54.7487 160.44C54.6481 159.869 54.4304 159.432 54.0958 159.127C53.7637 158.819 53.3733 158.704 52.9245 158.783C52.4853 158.861 52.1619 159.098 51.9542 159.495C51.7466 159.892 51.7001 160.416 51.8148 161.066ZM61.6115 160.698L61.9105 156.544L62.8001 156.388L62.2028 161.858L61.4815 161.985L59.5216 158.265L58.9858 162.425L58.2646 162.552L55.8372 157.615L56.722 157.459L58.433 161.174L58.958 157.065L59.6745 156.939L61.6115 160.698ZM65.5929 161.26L64.7033 161.417L63.4009 154.031L64.2905 153.874L65.5929 161.26ZM69.1971 160.723C68.4918 160.848 67.8773 160.718 67.3535 160.335C66.8292 159.948 66.4986 159.366 66.3618 158.591L66.333 158.427C66.242 157.911 66.2586 157.434 66.3829 156.995C66.5099 156.553 66.7296 156.187 67.0421 155.897C67.3573 155.604 67.7216 155.421 68.1352 155.348C68.8116 155.228 69.3766 155.359 69.8303 155.738C70.2839 156.117 70.5839 156.722 70.7303 157.553L70.7956 157.923L67.2709 158.544C67.3742 159.055 67.5964 159.444 67.9377 159.711C68.2816 159.974 68.6748 160.067 69.1172 159.989C69.4313 159.934 69.6861 159.822 69.8815 159.656C70.0769 159.489 70.2376 159.286 70.3638 159.045L70.9818 159.373C70.664 160.119 70.0691 160.57 69.1971 160.723ZM68.2641 156.079C67.905 156.142 67.6268 156.327 67.4296 156.632C67.2317 156.935 67.1455 157.327 67.1709 157.808L69.7771 157.349L69.7653 157.282C69.6599 156.834 69.4765 156.506 69.215 156.298C68.9529 156.086 68.6359 156.013 68.2641 156.079ZM71.5605 157.481C71.4198 156.682 71.4959 156.008 71.7888 155.457C72.0811 154.903 72.5335 154.572 73.1458 154.464C73.7549 154.357 74.2741 154.48 74.7034 154.834L74.2252 152.122L75.1148 151.965L76.4171 159.351L75.5997 159.495L75.458 158.945C75.1791 159.444 74.7222 159.749 74.0875 159.861C73.4848 159.967 72.9492 159.807 72.4807 159.381C72.0153 158.954 71.7126 158.343 71.5724 157.548L71.5605 157.481ZM72.4679 157.425C72.5719 158.015 72.7751 158.455 73.0776 158.745C73.38 159.036 73.746 159.143 74.1756 159.067C74.7398 158.968 75.1071 158.642 75.2774 158.09L74.856 155.7C74.5034 155.256 74.0515 155.083 73.5001 155.18C73.0641 155.257 72.754 155.485 72.5697 155.865C72.3854 156.244 72.3515 156.764 72.4679 157.425ZM77.1241 156.5C76.9811 155.689 77.055 155.011 77.3459 154.467C77.6361 153.92 78.0906 153.592 78.7094 153.483C79.3441 153.371 79.8789 153.508 80.3139 153.894L80.2555 153.31L81.0681 153.166L81.9635 158.244C82.0822 158.918 81.9754 159.483 81.6431 159.942C81.3139 160.4 80.8128 160.688 80.1396 160.807C79.7645 160.873 79.3833 160.858 78.996 160.761C78.6087 160.664 78.2959 160.493 78.0576 160.247L78.4251 159.632C78.8897 160.036 79.3976 160.189 79.949 160.092C80.3818 160.016 80.6969 159.834 80.8944 159.548C81.0951 159.262 81.1564 158.897 81.0784 158.455L80.9996 158.008C80.7161 158.481 80.2666 158.772 79.6511 158.88C79.042 158.988 78.505 158.829 78.0403 158.406C77.5787 157.981 77.2733 157.346 77.1241 156.5ZM78.0363 156.443C78.1398 157.03 78.3414 157.47 78.6412 157.764C78.9404 158.055 79.3064 158.163 79.7391 158.086C80.3002 157.987 80.6672 157.66 80.8401 157.104L80.4213 154.728C80.0612 154.279 79.6086 154.103 79.0637 154.199C78.6309 154.275 78.3224 154.503 78.1381 154.883C77.9538 155.263 77.9199 155.783 78.0363 156.443ZM85.508 157.847C84.8027 157.972 84.1882 157.842 83.6644 157.459C83.14 157.072 82.8095 156.49 82.6727 155.715L82.6438 155.551C82.5528 155.035 82.5695 154.558 82.6938 154.119C82.8208 153.677 83.0405 153.311 83.353 153.021C83.6682 152.728 84.0325 152.545 84.446 152.472C85.1225 152.352 85.6875 152.482 86.1411 152.862C86.5948 153.241 86.8948 153.846 87.0412 154.677L87.1065 155.047L83.5818 155.668C83.685 156.179 83.9073 156.568 84.2486 156.835C84.5925 157.098 84.9856 157.191 85.428 157.113C85.7422 157.057 85.997 156.946 86.1924 156.78C86.3877 156.613 86.5485 156.41 86.6747 156.169L87.2927 156.497C86.9749 157.243 86.3799 157.694 85.508 157.847ZM84.5749 153.203C84.2159 153.266 83.9377 153.45 83.7404 153.756C83.5426 154.059 83.4564 154.451 83.4817 154.932L86.088 154.473L86.0761 154.405C85.9708 153.958 85.7874 153.63 85.5259 153.422C85.2638 153.21 84.9468 153.137 84.5749 153.203ZM88.4734 151.861L88.5992 152.433C88.9015 151.917 89.3765 151.602 90.0241 151.488C90.7518 151.36 91.2962 151.551 91.6575 152.063C91.7865 151.782 91.9753 151.541 92.2238 151.338C92.4756 151.135 92.7906 151 93.1689 150.934C94.3102 150.732 94.9969 151.234 95.2293 152.44L95.844 155.926L94.9544 156.083L94.349 152.649C94.2834 152.277 94.1496 152.015 93.9475 151.862C93.7448 151.706 93.4431 151.664 93.0424 151.734C92.7122 151.793 92.4556 151.94 92.2727 152.177C92.0891 152.411 92.0091 152.698 92.0327 153.038L92.6415 156.49L91.7471 156.648L91.1459 153.239C91.0125 152.482 90.5755 152.169 89.835 152.3C89.2516 152.403 88.8962 152.722 88.7691 153.256L89.4389 157.055L88.5493 157.212L87.6319 152.009L88.4734 151.861ZM99.3665 155.404C98.6612 155.528 98.0467 155.399 97.5229 155.015C96.9985 154.628 96.6679 154.047 96.5311 153.271L96.5023 153.108C96.4113 152.591 96.428 152.114 96.5523 151.676C96.6793 151.234 96.899 150.868 97.2115 150.578C97.5266 150.284 97.891 150.101 98.3045 150.028C98.9809 149.909 99.546 150.039 99.9996 150.418C100.453 150.798 100.753 151.403 100.9 152.233L100.965 152.603L97.4402 153.225C97.5435 153.735 97.7658 154.124 98.1071 154.391C98.451 154.655 98.8441 154.747 99.2865 154.669C99.6007 154.614 99.8554 154.503 100.051 154.336C100.246 154.169 100.407 153.966 100.533 153.726L101.151 154.053C100.833 154.8 100.238 155.25 99.3665 155.404ZM98.4334 150.759C98.0744 150.822 97.7962 151.007 97.5989 151.313C97.4011 151.615 97.3148 152.007 97.3402 152.489L99.9465 152.029L99.9346 151.962C99.8293 151.514 99.6458 151.186 99.3843 150.978C99.1222 150.766 98.8053 150.693 98.4334 150.759ZM102.337 149.416L102.481 150.065C102.79 149.495 103.265 149.153 103.907 149.04C105.006 148.846 105.67 149.369 105.899 150.608L106.505 154.046L105.615 154.203L105.008 150.76C104.939 150.385 104.803 150.123 104.602 149.974C104.403 149.824 104.126 149.78 103.77 149.843C103.482 149.894 103.242 150.015 103.051 150.207C102.86 150.4 102.726 150.632 102.648 150.903L103.302 154.611L102.413 154.768L101.495 149.565L102.337 149.416ZM107.914 147.134L108.136 148.394L109.107 148.222L109.228 148.91L108.257 149.081L108.826 152.308C108.863 152.516 108.934 152.666 109.039 152.756C109.144 152.844 109.3 152.869 109.509 152.832C109.611 152.814 109.749 152.77 109.922 152.7L110.049 153.421C109.826 153.526 109.604 153.599 109.383 153.638C108.985 153.708 108.664 153.64 108.42 153.436C108.176 153.231 108.014 152.907 107.936 152.465L107.368 149.238L106.42 149.405L106.299 148.718L107.246 148.551L107.024 147.291L107.914 147.134ZM113.435 147.459L113.579 148.108C113.889 147.538 114.364 147.196 115.005 147.083C116.104 146.889 116.768 147.412 116.997 148.651L117.603 152.089L116.713 152.246L116.106 148.803C116.037 148.428 115.902 148.166 115.7 148.017C115.502 147.867 115.225 147.823 114.869 147.886C114.58 147.937 114.341 148.058 114.15 148.251C113.959 148.443 113.825 148.675 113.747 148.946L114.401 152.654L113.511 152.811L112.594 147.608L113.435 147.459ZM122.066 150.772C121.792 151.24 121.319 151.533 120.649 151.651C120.095 151.749 119.643 151.663 119.295 151.394C118.95 151.121 118.719 150.669 118.605 150.038L118.008 146.653L118.898 146.496L119.49 149.857C119.629 150.646 120.019 150.984 120.661 150.871C121.34 150.751 121.748 150.418 121.883 149.872L121.215 146.087L122.105 145.931L123.022 151.133L122.176 151.283L122.066 150.772ZM124.298 145.544L124.423 146.117C124.726 145.601 125.201 145.286 125.848 145.171C126.576 145.043 127.121 145.235 127.482 145.746C127.611 145.465 127.8 145.224 128.048 145.021C128.3 144.818 128.615 144.684 128.993 144.617C130.134 144.416 130.821 144.918 131.054 146.123L131.668 149.609L130.779 149.766L130.173 146.332C130.108 145.961 129.974 145.698 129.772 145.546C129.569 145.39 129.267 145.347 128.867 145.418C128.536 145.476 128.28 145.623 128.097 145.861C127.913 146.095 127.833 146.381 127.857 146.721L128.466 150.174L127.571 150.331L126.97 146.922C126.837 146.166 126.4 145.853 125.659 145.983C125.076 146.086 124.721 146.405 124.593 146.94L125.263 150.738L124.374 150.895L123.456 145.692L124.298 145.544ZM136.971 146.051C137.111 146.846 137.041 147.518 136.761 148.066C136.48 148.612 136.032 148.939 135.417 149.047C134.76 149.163 134.21 149.02 133.769 148.619L133.832 149.227L133.015 149.372L131.712 141.986L132.602 141.829L133.088 144.584C133.368 144.075 133.824 143.765 134.456 143.654C135.087 143.542 135.625 143.694 136.068 144.108C136.514 144.522 136.811 145.144 136.957 145.974L136.971 146.051ZM136.063 146.107C135.957 145.501 135.757 145.054 135.465 144.765C135.173 144.476 134.807 144.37 134.368 144.448C133.781 144.551 133.408 144.898 133.247 145.488L133.644 147.738C134.013 148.235 134.485 148.433 135.062 148.331C135.489 148.256 135.792 148.032 135.971 147.66C136.15 147.288 136.181 146.771 136.063 146.107ZM140.721 148.112C140.015 148.236 139.401 148.107 138.877 147.723C138.353 147.336 138.022 146.755 137.885 145.979L137.857 145.816C137.766 145.3 137.782 144.822 137.907 144.384C138.033 143.942 138.253 143.576 138.566 143.286C138.881 142.992 139.245 142.809 139.659 142.736C140.335 142.617 140.9 142.747 141.354 143.126C141.807 143.506 142.108 144.111 142.254 144.941L142.319 145.311L138.794 145.933C138.898 146.444 139.12 146.832 139.461 147.099C139.805 147.363 140.198 147.455 140.641 147.377C140.955 147.322 141.21 147.211 141.405 147.044C141.6 146.878 141.761 146.674 141.887 146.434L142.505 146.761C142.188 147.508 141.593 147.958 140.721 148.112ZM139.788 143.467C139.429 143.53 139.15 143.715 138.953 144.021C138.755 144.323 138.669 144.715 138.694 145.197L141.301 144.737L141.289 144.67C141.184 144.223 141 143.895 140.739 143.686C140.476 143.475 140.16 143.402 139.788 143.467ZM145.505 142.628C145.366 142.629 145.219 142.643 145.062 142.671C144.478 142.774 144.126 143.092 144.005 143.626L144.656 147.319L143.767 147.476L142.849 142.273L143.715 142.12L143.835 142.719C144.045 142.202 144.418 141.897 144.953 141.803C145.126 141.772 145.262 141.771 145.359 141.8L145.505 142.628ZM152.925 141.825L148.914 142.532L148.778 141.758L152.788 141.051L152.925 141.825ZM153.277 143.821L149.266 144.528L149.131 143.758L153.141 143.051L153.277 143.821ZM160.607 144.506C160.537 144.413 160.463 144.237 160.385 143.98C160.047 144.483 159.591 144.785 159.018 144.886C158.505 144.976 158.058 144.906 157.677 144.676C157.298 144.442 157.07 144.102 156.991 143.656C156.896 143.115 157.027 142.659 157.384 142.288C157.745 141.914 158.298 141.661 159.045 141.529L159.911 141.376L159.839 140.968C159.784 140.657 159.648 140.426 159.429 140.276C159.211 140.123 158.92 140.079 158.558 140.142C158.241 140.198 157.989 140.326 157.802 140.524C157.616 140.722 157.542 140.935 157.583 141.162L156.688 141.32C156.642 141.06 156.69 140.794 156.83 140.522C156.973 140.245 157.189 140.009 157.478 139.812C157.771 139.615 158.106 139.483 158.485 139.417C159.084 139.311 159.58 139.379 159.973 139.62C160.366 139.858 160.615 140.239 160.72 140.763L161.142 143.158C161.227 143.635 161.354 144.004 161.526 144.265L161.54 144.342L160.607 144.506ZM159.011 144.089C159.29 144.039 159.542 143.921 159.766 143.732C159.991 143.544 160.139 143.325 160.21 143.074L160.022 142.006L159.325 142.129C158.235 142.322 157.746 142.737 157.859 143.375C157.908 143.653 158.039 143.855 158.253 143.979C158.466 144.104 158.719 144.14 159.011 144.089ZM167.109 139.487L169.004 139.153L169.003 140.021L167.113 140.354L167.119 142.634L166.244 142.789L166.238 140.509L164.344 140.843L164.344 139.975L166.234 139.642L166.23 137.535L167.105 137.381L167.109 139.487ZM175.273 141.92L174.398 142.075L174.386 135.988L172.64 136.97L172.64 136.098L175.071 134.702L175.225 134.675L175.273 141.92Z" fill="black"/>
</svg>
